<svg width="20" height="24" viewBox="0 0 20 24" fill="none" xmlns="http://www.w3.org/2000/svg">
<path fill-rule="evenodd" clip-rule="evenodd" d="M6.72713 3.28569V1.89477C6.72713 1.54596 7.00704 1.26318 7.35234 1.26318H12.9792C13.3245 1.26318 13.6045 1.54596 13.6045 1.89477V3.28569H14.8549V1.89477C14.8549 0.848319 14.0151 0 12.9792 0H7.35234C6.31645 0 5.4767 0.848319 5.4767 1.89477V3.28569H6.72713ZM0.0333731 4.34019C-0.11996 3.81448 0.274325 3.28876 0.821944 3.28876H19.1781C19.7224 3.28876 20.1162 3.80859 19.9688 4.33259L14.8862 22.404C14.7866 22.7583 14.4635 23.003 14.0955 23.003H6.09277C5.72769 23.003 5.40642 22.7621 5.3042 22.4116L0.0333731 4.34019ZM10.4053 12.3214H14.9231C15.0321 12.3214 15.1365 12.3647 15.2136 12.4417C15.2906 12.5187 15.3339 12.6232 15.3339 12.7321C15.3339 12.8411 15.2906 12.9455 15.2136 13.0226C15.1365 13.0996 15.0321 13.1428 14.9231 13.1428H10.4053V17.6607C10.4053 17.7696 10.362 17.8741 10.285 17.9511C10.208 18.0281 10.1035 18.0714 9.99458 18.0714C9.88565 18.0714 9.78118 18.0281 9.70416 17.9511C9.62714 17.8741 9.58386 17.7696 9.58386 17.6607V13.1182H5.06601C5.01286 13.1235 4.95918 13.1174 4.9086 13.1002C4.85802 13.083 4.81171 13.0552 4.77279 13.0186C4.73387 12.9821 4.70324 12.9376 4.68298 12.8881C4.66271 12.8387 4.65327 12.7855 4.6553 12.7321C4.6553 12.6232 4.69857 12.5187 4.77559 12.4417C4.85261 12.3647 4.95708 12.3214 5.06601 12.3214H9.58386V7.80357C9.58386 7.69464 9.62714 7.59017 9.70416 7.51315C9.78118 7.43612 9.88565 7.39285 9.99458 7.39285C10.1035 7.39285 10.208 7.43612 10.285 7.51315C10.362 7.59017 10.4053 7.69464 10.4053 7.80357V12.3214Z" fill="white"/>
</svg>
