<svg width="20" height="24" viewBox="0 0 20 24" fill="none" xmlns="http://www.w3.org/2000/svg">
<path fill-rule="evenodd" clip-rule="evenodd" d="M6.72713 3.28569V1.89477C6.72713 1.54596 7.00704 1.26318 7.35234 1.26318H12.9792C13.3245 1.26318 13.6045 1.54596 13.6045 1.89477V3.28569H14.8549V1.89477C14.8549 0.848319 14.0151 0 12.9792 0H7.35234C6.31645 0 5.4767 0.848319 5.4767 1.89477V3.28569H6.72713ZM0.0333731 4.34019C-0.11996 3.81448 0.274325 3.28876 0.821944 3.28876H19.1781C19.7224 3.28876 20.1162 3.80859 19.9688 4.33259L14.8862 22.404C14.7866 22.7583 14.4635 23.003 14.0955 23.003H6.09277C5.72769 23.003 5.40642 22.7621 5.3042 22.4116L0.0333731 4.34019ZM9.07615 11.6697C9.32274 11.4167 9.64842 11.2782 9.9962 11.2782C10.1672 11.2777 10.3366 11.312 10.4945 11.3792C10.6525 11.4464 10.7958 11.5452 10.9162 11.6697C11.1617 11.9227 11.2978 12.2569 11.2978 12.6138C11.2978 12.9706 11.1617 13.3048 10.9162 13.5578C10.6697 13.8096 10.344 13.9493 9.9962 13.9493C9.64842 13.9493 9.32274 13.8096 9.07615 13.5578C8.83073 13.3048 8.69464 12.9706 8.69464 12.6138C8.69464 12.2569 8.83073 11.9227 9.07615 11.6697ZM14.0311 13.4217L14.7918 14.0889C14.9093 14.1927 14.9524 14.3586 14.9023 14.5066L14.8919 14.5377C14.6813 15.138 14.3708 15.6906 13.966 16.1811L13.9451 16.2061C13.8963 16.2653 13.8311 16.3079 13.7582 16.3281C13.6852 16.3484 13.608 16.3454 13.5368 16.3195L12.5923 15.9746C12.2434 16.2682 11.8549 16.4985 11.4338 16.6609L11.2512 17.6741C11.2375 17.7505 11.2014 17.8207 11.1478 17.8755C11.0942 17.9303 11.0256 17.967 10.9511 17.9809L10.9197 17.9868C10.309 18.0996 9.68345 18.0996 9.07267 17.9868L9.04126 17.9809C8.96682 17.967 8.89824 17.9303 8.84464 17.8755C8.79103 17.8207 8.75495 17.7505 8.74117 17.6741L8.55739 16.6561C8.13982 16.4962 7.75366 16.2646 7.40704 15.9722L6.45559 16.3195C6.38435 16.3452 6.3072 16.3481 6.23432 16.3278C6.16144 16.3076 6.09624 16.2652 6.04733 16.2061L6.02639 16.1811C5.62162 15.6929 5.31106 15.138 5.10053 14.5377L5.09006 14.5066C5.0644 14.4336 5.061 14.3543 5.08032 14.2793C5.09964 14.2042 5.14077 14.137 5.19824 14.0865L5.96591 13.4122C5.92985 13.1902 5.91241 12.9611 5.91241 12.7319C5.91241 12.5051 5.92985 12.276 5.96591 12.0516L5.19591 11.3773C5.07843 11.2735 5.0354 11.1064 5.08774 10.9572L5.09821 10.9262C5.30835 10.3259 5.62196 9.76919 6.02407 9.28274L6.045 9.25767C6.0938 9.19849 6.15899 9.15595 6.23191 9.1357C6.30484 9.11545 6.38204 9.11844 6.45327 9.14429L7.40472 9.4916C7.74947 9.20111 8.138 8.97013 8.55507 8.80773L8.73884 7.78969C8.75262 7.71335 8.78871 7.64313 8.84231 7.58834C8.89591 7.53356 8.96449 7.4968 9.03893 7.48296L9.07034 7.47699C9.67517 7.36481 10.3126 7.36481 10.9174 7.47699L10.9488 7.48296C11.0233 7.4968 11.0918 7.53356 11.1454 7.58834C11.199 7.64313 11.2351 7.71335 11.2489 7.78969L11.4315 8.80296C11.8526 8.96408 12.2411 9.19561 12.59 9.48921L13.5345 9.14429C13.6057 9.11865 13.6829 9.11576 13.7558 9.13599C13.8286 9.15623 13.8938 9.19866 13.9427 9.25767L13.9637 9.28274C14.3665 9.76867 14.6802 10.3255 14.8895 10.9262L14.9 10.9572C14.9257 11.0302 14.9291 11.1095 14.9098 11.1846C14.8904 11.2596 14.8493 11.3268 14.7918 11.3773L14.0311 12.0445C14.0672 12.27 14.0858 12.5028 14.0858 12.7331C14.0858 12.9634 14.0672 13.195 14.0311 13.4217ZM7.9514 12.6138C7.9514 13.7726 8.86679 14.7119 9.9962 14.7119C11.1256 14.7119 12.041 13.7726 12.041 12.6138C12.041 11.4549 11.1256 10.5156 9.9962 10.5156C8.86679 10.5156 7.9514 11.4549 7.9514 12.6138Z" fill="white"/>
</svg>
