<svg width="15" height="20" viewBox="0 0 15 20" fill="none" xmlns="http://www.w3.org/2000/svg">
<path d="M3.85625 1.25C3.98555 0.884278 4.2251 0.567661 4.54189 0.343785C4.85867 0.11991 5.23709 -0.0002031 5.625 2.57796e-07H9.375C9.76291 -0.0002031 10.1413 0.11991 10.4581 0.343785C10.7749 0.567661 11.0144 0.884278 11.1438 1.25H13.125C13.6223 1.25 14.0992 1.44754 14.4508 1.79918C14.8025 2.15081 15 2.62772 15 3.125V18.125C15 18.6223 14.8025 19.0992 14.4508 19.4508C14.0992 19.8025 13.6223 20 13.125 20H1.875C1.37772 20 0.900805 19.8025 0.549175 19.4508C0.197544 19.0992 0 18.6223 0 18.125V3.125C0 2.62772 0.197544 2.15081 0.549175 1.79918C0.900805 1.44754 1.37772 1.25 1.875 1.25H3.85625ZM5.625 1.25C5.45924 1.25 5.30027 1.31585 5.18306 1.43306C5.06585 1.55027 5 1.70924 5 1.875C5 2.04076 5.06585 2.19973 5.18306 2.31694C5.30027 2.43415 5.45924 2.5 5.625 2.5H9.375C9.54076 2.5 9.69973 2.43415 9.81694 2.31694C9.93415 2.19973 10 2.04076 10 1.875C10 1.70924 9.93415 1.55027 9.81694 1.43306C9.69973 1.31585 9.54076 1.25 9.375 1.25H5.625ZM12.3175 6.4325C12.2003 6.31533 12.0414 6.24951 11.8756 6.24951C11.7099 6.24951 11.551 6.31533 11.4338 6.4325L9.6675 8.1975L9.17125 7.745C9.04795 7.63961 8.8885 7.58629 8.72661 7.59629C8.56472 7.6063 8.41305 7.67885 8.30367 7.79862C8.19428 7.9184 8.13575 8.076 8.14043 8.23814C8.14511 8.40027 8.21264 8.55424 8.32875 8.6675L9.26625 9.52375C9.38504 9.6319 9.5409 9.69016 9.7015 9.68643C9.86211 9.68271 10.0151 9.61729 10.1287 9.50375L12.3162 7.31625C12.4334 7.19905 12.4992 7.0401 12.4992 6.87437C12.4992 6.70865 12.4334 6.5497 12.3162 6.4325H12.3175ZM12.3175 13.5675C12.4349 13.4503 12.5009 13.2913 12.501 13.1254C12.5011 12.9596 12.4353 12.8005 12.3181 12.6831C12.2009 12.5658 12.0419 12.4998 11.8761 12.4997C11.7102 12.4995 11.5511 12.5653 11.4338 12.6825L9.6675 14.4475L9.17125 13.995C9.04795 13.8896 8.8885 13.8363 8.72661 13.8463C8.56472 13.8563 8.41305 13.9289 8.30367 14.0486C8.19428 14.1684 8.13575 14.326 8.14043 14.4881C8.14511 14.6503 8.21264 14.8042 8.32875 14.9175L9.26625 15.7738C9.38488 15.8821 9.54066 15.9405 9.70125 15.9371C9.86185 15.9336 10.0149 15.8684 10.1287 15.755L12.3162 13.5675H12.3175ZM3.125 7.5C2.95924 7.5 2.80027 7.56585 2.68306 7.68306C2.56585 7.80027 2.5 7.95924 2.5 8.125C2.5 8.29076 2.56585 8.44973 2.68306 8.56694C2.80027 8.68415 2.95924 8.75 3.125 8.75H6.25C6.41576 8.75 6.57473 8.68415 6.69194 8.56694C6.80915 8.44973 6.875 8.29076 6.875 8.125C6.875 7.95924 6.80915 7.80027 6.69194 7.68306C6.57473 7.56585 6.41576 7.5 6.25 7.5H3.125ZM2.5 14.375C2.5 14.5408 2.56585 14.6997 2.68306 14.8169C2.80027 14.9342 2.95924 15 3.125 15H6.25C6.41576 15 6.57473 14.9342 6.69194 14.8169C6.80915 14.6997 6.875 14.5408 6.875 14.375C6.875 14.2092 6.80915 14.0503 6.69194 13.9331C6.57473 13.8158 6.41576 13.75 6.25 13.75H3.125C2.95924 13.75 2.80027 13.8158 2.68306 13.9331C2.56585 14.0503 2.5 14.2092 2.5 14.375Z" fill="#124954"/>
</svg>
