<svg width="20" height="20" viewBox="0 0 20 20" fill="none" xmlns="http://www.w3.org/2000/svg">
<path d="M1.33301 8.6582H18.6663V12.6582H1.33301V8.6582Z" fill="white"/>
<path d="M1.99935 11.6582V8.6582H17.9993V11.6582C17.9993 11.6582 19.3327 11.6582 19.3327 13.3249C19.3327 14.9915 17.9993 14.9915 17.9993 14.9915C17.9993 17.6582 11.9993 19.9915 9.99935 19.9915C7.99935 19.9915 1.99935 17.6582 1.99935 14.9915C1.99935 14.9915 0.666016 14.9915 0.666016 13.3249C0.666016 11.6582 1.99935 11.6582 1.99935 11.6582Z" fill="white"/>
<path d="M6.00033 11.2588C4.33366 11.2588 3.66699 11.8588 3.66699 12.4588C3.66699 13.0588 3.66699 13.9255 5.86699 13.9255C8.00033 13.9255 8.33366 13.6588 8.33366 12.7588C8.33366 12.1588 7.66699 11.2588 6.00033 11.2588Z" fill="white"/>
<path d="M6.16699 13.7598C6.99542 13.7598 7.66699 13.0882 7.66699 12.2598C7.66699 11.4313 6.99542 10.7598 6.16699 10.7598C5.33857 10.7598 4.66699 11.4313 4.66699 12.2598C4.66699 13.0882 5.33857 13.7598 6.16699 13.7598Z" fill="#124954"/>
<path d="M6.66699 12.2588C6.66699 12.5255 6.43366 12.7588 6.16699 12.7588C5.90033 12.7588 5.66699 12.5255 5.66699 12.2588C5.66699 11.9921 5.90033 11.7588 6.16699 11.7588C6.43366 11.7588 6.66699 11.9921 6.66699 12.2588Z" fill="white"/>
<path d="M3.66699 12.4243C3.66699 10.091 8.33366 10.091 8.33366 12.7576C7.66699 10.7576 4.33366 10.7576 3.66699 12.4243Z" fill="#124954"/>
<path d="M14.0003 11.2588C15.667 11.2588 16.3337 11.8588 16.3337 12.4588C16.3337 13.0588 16.3337 13.9255 14.1337 13.9255C12.0003 13.9255 11.667 13.6588 11.667 12.7588C11.667 12.1588 12.3337 11.2588 14.0003 11.2588Z" fill="white"/>
<path d="M13.833 13.7598C14.6614 13.7598 15.333 13.0882 15.333 12.2598C15.333 11.4313 14.6614 10.7598 13.833 10.7598C13.0046 10.7598 12.333 11.4313 12.333 12.2598C12.333 13.0882 13.0046 13.7598 13.833 13.7598Z" fill="#124954"/>
<path d="M13.333 12.2588C13.333 12.5255 13.5663 12.7588 13.833 12.7588C14.0997 12.7588 14.333 12.5255 14.333 12.2588C14.333 11.9921 14.0997 11.7588 13.833 11.7588C13.5663 11.7588 13.333 11.9921 13.333 12.2588Z" fill="white"/>
<path d="M16.3337 12.4253C16.3337 10.0919 11.667 10.0919 11.667 12.7586C12.3337 10.7586 15.667 10.7586 16.3337 12.4253Z" fill="#124954"/>
<path d="M13 16.2912C13 17.4245 11.5 17.9912 10 17.9912C8.5 17.9912 7 17.4245 7 16.2912C7 16.2912 7 15.9912 7.3 15.9912H12.7C13 15.9912 13 16.2912 13 16.2912Z" fill="#124954"/>
<path d="M19 9.6582H1C1 4.8582 3.26667 1.1582 10 1.1582C16.7333 1.1582 19 4.8582 19 9.6582Z" fill="white"/>
<path d="M7.50033 9.65768H6.16699V1.69102L7.50033 1.29102V9.65768Z" fill="white"/>
<path d="M13.8333 9.65768H12.5V1.29102L13.8333 1.69102V9.65768Z" fill="white"/>
<path d="M17.4486 9.39102H2.5514C2.75581 9.31176 2.97935 9.23387 3.22202 9.15839C4.91048 8.63318 7.30578 8.29102 10 8.29102C12.6942 8.29102 15.0895 8.63318 16.778 9.15839C17.0207 9.23387 17.2442 9.31176 17.4486 9.39102Z" fill="white" stroke="#124954" stroke-width="2"/>
<path d="M7.83301 7.55833V1.54845C7.85675 1.51137 7.94364 1.41881 8.21959 1.30131C8.65506 1.11587 9.3073 1 10.0163 1C10.7254 1 11.3776 1.11587 11.8131 1.30131C12.089 1.41881 12.1759 1.51137 12.1997 1.54845V7.55833H7.83301ZM12.2074 1.56603C12.2066 1.56622 12.2041 1.56188 12.2021 1.55243C12.2072 1.56112 12.2082 1.56584 12.2074 1.56603ZM7.82531 1.56603C7.82453 1.56584 7.82551 1.56112 7.83057 1.55244C7.82862 1.56188 7.82609 1.56622 7.82531 1.56603Z" fill="white" stroke="#124954" stroke-width="2"/>
</svg>
