<svg width="19" height="30" viewBox="0 0 19 30" fill="none" xmlns="http://www.w3.org/2000/svg">
<path d="M4.72528 0.673085C4.78241 0.478713 4.90097 0.308079 5.06321 0.186739C5.22545 0.0653984 5.42263 -0.000118468 5.62523 1.60812e-07H13.1248C13.2733 0.000112856 13.4196 0.0354841 13.5517 0.103202C13.6838 0.17092 13.7979 0.269048 13.8847 0.389508C13.9715 0.509968 14.0284 0.649316 14.0508 0.796079C14.0732 0.942842 14.0604 1.09282 14.0135 1.23368L10.6762 11.2493H17.812C17.9876 11.2492 18.1596 11.2984 18.3086 11.3913C18.4576 11.4841 18.5775 11.617 18.6547 11.7746C18.7319 11.9323 18.7632 12.1085 18.7452 12.2831C18.7271 12.4578 18.6604 12.6238 18.5526 12.7624L5.42836 29.6364C5.29392 29.8101 5.10274 29.931 4.88821 29.9782C4.67367 30.0253 4.4494 29.9956 4.25453 29.8943C4.05965 29.7929 3.90655 29.6264 3.82194 29.4237C3.73733 29.221 3.72659 28.995 3.79158 28.7852L7.16826 17.8114H0.937995C0.79225 17.8115 0.648492 17.7776 0.518139 17.7124C0.387786 17.6472 0.274428 17.5526 0.187068 17.4359C0.0997083 17.3192 0.0407531 17.1838 0.0148846 17.0404C-0.010984 16.897 -0.00305342 16.7495 0.0380468 16.6096L4.72528 0.673085Z" fill="#7AE3B1"/>
</svg>
