<svg width="30" height="30" viewBox="0 0 30 30" fill="none" xmlns="http://www.w3.org/2000/svg">
<path fill-rule="evenodd" clip-rule="evenodd" d="M10.314 2.76785V6.45854C10.314 6.96812 10.7229 7.38122 11.2274 7.38122L19.4475 7.38122C19.952 7.38122 20.3609 6.96812 20.3609 6.45854V2.76785C20.3609 2.25827 19.952 1.84518 19.4475 1.84518L11.2274 1.84518C10.7229 1.84518 10.314 2.25827 10.314 2.76785ZM8.4873 6.45854C8.4873 7.98728 9.71407 9.22656 11.2274 9.22656H19.4475C20.9608 9.22656 22.1876 7.98728 22.1876 6.45854V2.76785C22.1876 1.23912 20.9608 -0.000167847 19.4475 -0.000167847H11.2274C9.71407 -0.000167847 8.4873 1.23912 8.4873 2.76785V6.45854Z" fill="#7AE3B1"/>
<path d="M0 9.39355L0 4.95877L30 4.95877V9.39355L0 9.39355Z" fill="#7AE3B1"/>
<path d="M1.47949 15.8945L1.47949 11.4597L29.1969 11.4597V15.8945L1.47949 15.8945Z" fill="#7AE3B1"/>
<path d="M4.43652 22.543V18.1082H26.2409V22.543H4.43652Z" fill="#7AE3B1"/>
<path d="M7.02148 29.1953V24.7603H23.6527V29.1953H7.02148Z" fill="#7AE3B1"/>
</svg>
