<svg width="30" height="29" viewBox="0 0 30 29" fill="none" xmlns="http://www.w3.org/2000/svg">
<path d="M13.979 19.8349L13.7232 26.0796L13.6892 26.4529L6.5292 25.9608C6.12006 25.9268 5.73933 25.7487 5.38701 25.4263C5.0347 25.1038 4.76762 24.7334 4.58578 24.3148C4.46077 24.0093 4.37837 23.6982 4.33859 23.3815C4.29882 23.0647 4.32155 22.6971 4.40678 22.2785C4.49202 21.8599 4.56021 21.5488 4.61135 21.3452C4.6625 21.1416 4.78467 20.7796 4.97787 20.2592C5.17108 19.7388 5.27905 19.439 5.30178 19.3598C6.18825 19.4956 9.08064 19.6539 13.979 19.8349ZM7.38157 9.89108L10.4501 16.3224L7.94414 14.7612C7.22815 15.5757 6.59455 16.3931 6.04334 17.2132C5.49214 18.0334 5.08016 18.7404 4.8074 19.3344C4.53464 19.9283 4.31018 20.4628 4.13402 20.9379C3.95786 21.4131 3.85274 21.7694 3.81864 22.007L3.75045 22.3633L0.511425 16.3054C0.31822 16.0113 0.215935 15.6945 0.20457 15.3551C0.193205 15.0157 0.2273 14.7499 0.306855 14.5576L0.443235 14.2521C0.841011 13.5394 1.48882 12.476 2.38665 11.0619L0 9.6026L7.38157 9.89108ZM28.3671 18.6641L25.1621 24.756C25.0258 25.084 24.8183 25.3471 24.5399 25.545C24.2615 25.743 24.0143 25.859 23.7983 25.8929L23.4915 25.9608C22.6846 26.04 21.4401 26.1078 19.7581 26.1644L19.8945 28.9473L15.9735 22.7197L19.5705 16.5769L19.6899 19.5125C21.6219 19.6935 23.2301 19.7218 24.5143 19.5974C25.7986 19.4729 26.7646 19.2863 27.4124 19.0374L28.3671 18.6641ZM14.9848 2.98467C14.4506 3.69737 12.9447 6.15789 10.4672 10.3662L5.06311 7.193L4.73921 6.98937L8.5749 0.948382C8.8022 0.597688 9.14315 0.343152 9.59775 0.184774C10.0524 0.0263963 10.507 -0.0301672 10.9616 0.0150836C11.2343 0.037709 11.5099 0.105585 11.7884 0.218712C12.0668 0.331839 12.3055 0.450623 12.5044 0.575063C12.7032 0.699503 12.9391 0.886162 13.2118 1.13504C13.4846 1.38392 13.6892 1.57907 13.8255 1.72047C13.9619 1.86188 14.1665 2.08531 14.4392 2.39075C14.712 2.6962 14.8938 2.89417 14.9848 2.98467ZM26.1509 8.19417L29.765 14.3539C29.9695 14.7725 30.0406 15.2024 29.9781 15.6436C29.9156 16.0848 29.7593 16.5034 29.5092 16.8993C29.3615 17.1256 29.174 17.3348 28.9467 17.5272C28.7194 17.7195 28.5034 17.8779 28.2989 18.0023C28.0943 18.1267 27.8187 18.2512 27.4721 18.3756C27.1254 18.5 26.8584 18.5906 26.6708 18.6471C26.4833 18.7037 26.1907 18.7829 25.7929 18.8847C25.3951 18.9865 25.1337 19.0544 25.0087 19.0883C24.6223 18.2738 23.1164 15.8076 20.4911 11.6898L25.827 8.38083L26.1509 8.19417ZM23.7131 4.35916L26.1338 2.95073L22.3834 9.28019L15.2405 8.94081L17.8147 7.48147C17.4282 6.47464 17.0021 5.53569 16.5361 4.66461C16.0701 3.79353 15.6411 3.09497 15.249 2.56893C14.8569 2.04289 14.4904 1.59038 14.1494 1.2114C13.8085 0.832427 13.5414 0.569406 13.3482 0.422341L13.0584 0.201743L19.9626 0.218712C20.315 0.184774 20.6445 0.244166 20.9514 0.396888C21.2583 0.549609 21.4799 0.710815 21.6162 0.880506L21.8038 1.13504C22.247 1.82512 22.8834 2.89982 23.7131 4.35916Z" fill="#7AE3B1"/>
</svg>
