<svg width="35" height="35" viewBox="0 0 35 35" fill="none" xmlns="http://www.w3.org/2000/svg">
<path d="M2.33301 15.1514H32.6663V22.1514H2.33301V15.1514Z" fill="#7AE3B1"/>
<path d="M3.49935 20.4014V15.1514H31.4994V20.4014C31.4994 20.4014 33.8327 20.4014 33.8327 23.318C33.8327 26.2347 31.4994 26.2347 31.4994 26.2347C31.4994 30.9014 20.9993 34.9847 17.4993 34.9847C13.9993 34.9847 3.49935 30.9014 3.49935 26.2347C3.49935 26.2347 1.16602 26.2347 1.16602 23.318C1.16602 20.4014 3.49935 20.4014 3.49935 20.4014Z" fill="#7AE3B1"/>
<path d="M10.5013 19.7031C7.58464 19.7031 6.41797 20.7531 6.41797 21.8031C6.41797 22.8531 6.41797 24.3698 10.268 24.3698C14.0013 24.3698 14.5846 23.9031 14.5846 22.3281C14.5846 21.2781 13.418 19.7031 10.5013 19.7031Z" fill="#7AE3B1"/>
<path d="M10.792 24.0791C12.2417 24.0791 13.417 22.9038 13.417 21.4541C13.417 20.0044 12.2417 18.8291 10.792 18.8291C9.34224 18.8291 8.16699 20.0044 8.16699 21.4541C8.16699 22.9038 9.34224 24.0791 10.792 24.0791Z" fill="white"/>
<path d="M11.667 21.4531C11.667 21.9198 11.2587 22.3281 10.792 22.3281C10.3253 22.3281 9.91699 21.9198 9.91699 21.4531C9.91699 20.9865 10.3253 20.5781 10.792 20.5781C11.2587 20.5781 11.667 20.9865 11.667 21.4531Z" fill="#7AE3B1"/>
<path d="M6.41797 21.7432C6.41797 17.6599 14.5846 17.6599 14.5846 22.3266C13.418 18.8266 7.58464 18.8266 6.41797 21.7432Z" fill="white"/>
<path d="M24.5013 19.7031C27.418 19.7031 28.5846 20.7531 28.5846 21.8031C28.5846 22.8531 28.5846 24.3698 24.7346 24.3698C21.0013 24.3698 20.418 23.9031 20.418 22.3281C20.418 21.2781 21.5846 19.7031 24.5013 19.7031Z" fill="#7AE3B1"/>
<path d="M24.208 24.0791C25.6578 24.0791 26.833 22.9038 26.833 21.4541C26.833 20.0044 25.6578 18.8291 24.208 18.8291C22.7583 18.8291 21.583 20.0044 21.583 21.4541C21.583 22.9038 22.7583 24.0791 24.208 24.0791Z" fill="white"/>
<path d="M23.333 21.4531C23.333 21.9198 23.7413 22.3281 24.208 22.3281C24.6747 22.3281 25.083 21.9198 25.083 21.4531C25.083 20.9865 24.6747 20.5781 24.208 20.5781C23.7413 20.5781 23.333 20.9865 23.333 21.4531Z" fill="#7AE3B1"/>
<path d="M28.5846 21.7452C28.5846 17.6619 20.418 17.6619 20.418 22.3285C21.5846 18.8285 27.418 18.8285 28.5846 21.7452Z" fill="white"/>
<path d="M22.751 28.5113C22.751 30.4947 20.126 31.4863 17.501 31.4863C14.876 31.4863 12.251 30.4947 12.251 28.5113C12.251 28.5113 12.251 27.9863 12.776 27.9863H22.226C22.751 27.9863 22.751 28.5113 22.751 28.5113Z" fill="white"/>
<path d="M33.249 16.9023H1.74902C1.74902 8.50234 5.71569 2.02734 17.499 2.02734C29.2824 2.02734 33.249 8.50234 33.249 16.9023Z" fill="#7AE3B1"/>
<path d="M13.1253 16.9005H10.792V2.95879L13.1253 2.25879V16.9005Z" fill="#7AE3B1"/>
<path d="M24.2074 16.9005H21.874V2.25879L24.2074 2.95879V16.9005Z" fill="#7AE3B1"/>
<path d="M1.59865 17.1838C1.7027 17.0892 1.82362 16.9904 1.96384 16.8876C2.72366 16.3307 3.8874 15.786 5.41577 15.3105C8.46047 14.3634 12.7308 13.7588 17.5 13.7588C22.2692 13.7588 26.5395 14.3634 29.5842 15.3105C31.1126 15.786 32.2763 16.3307 33.0362 16.8876C33.1764 16.9904 33.2973 17.0892 33.4013 17.1838H1.59865Z" fill="#7AE3B1" stroke="white" stroke-width="2"/>
<path d="M12.958 13.9771V2.66875C12.958 2.39898 13.1595 1.98376 14.0907 1.58724C14.9738 1.21118 16.2229 1 17.5288 1C18.8348 1 20.0839 1.21118 20.967 1.58724C21.8982 1.98376 22.0997 2.39898 22.0997 2.66875V13.9771H12.958Z" fill="#7AE3B1" stroke="white" stroke-width="2"/>
</svg>
