<svg width="753" height="867" viewBox="0 0 753 867" fill="none" xmlns="http://www.w3.org/2000/svg">
<path fill-rule="evenodd" clip-rule="evenodd" d="M248.4 70.5V164.5C248.4 177.479 258.787 188 271.6 188H480.4C493.213 188 503.6 177.479 503.6 164.5V70.5C503.6 57.5213 493.213 47 480.4 47L271.6 47C258.787 47 248.4 57.5213 248.4 70.5ZM202 164.5C202 203.436 233.161 235 271.6 235L480.4 235C518.839 235 550 203.436 550 164.5V70.5C550 31.5639 518.839 0 480.4 0L271.6 0C233.161 0 202 31.5639 202 70.5V164.5Z" fill="#FF9A3E"/>
<path d="M0 235L0 122L753 122V235L0 235Z" fill="#FF9A3E"/>
<path d="M42 393L42 280L711 280V393L42 393Z" fill="#817FE7"/>
<path d="M84 551V438L669 438V551H84Z" fill="#817FE7"/>
<path d="M126 709V596H628V709H126Z" fill="#7AE3B1"/>
<path d="M167 867V754H586V867H167Z" fill="#7AE3B1"/>
</svg>
