<svg width="465" height="263" viewBox="0 0 465 263" fill="none" xmlns="http://www.w3.org/2000/svg">
<path d="M3.78059 103.952L60.7214 67.94L62.2213 66.9896L65.7689 68.7764L7.32735 105.719L7.78206 116.673L4.23448 114.886L3.78059 103.952Z" fill="#C6C6C6"/>
<path d="M7.32808 105.73L65.7695 68.7871L66.2234 79.7213L7.78279 116.684L7.32808 105.73Z" fill="#C6C6C6"/>
<path d="M19.5338 59.3568L83.2566 18.8991C84.2587 18.3888 85.3783 18.1539 86.501 18.2182C87.6237 18.2826 88.7091 18.6439 89.6463 19.2654L116.073 33.0881C117.433 33.9007 118.585 35.0185 119.439 36.3532C120.292 37.6878 120.823 39.2027 120.991 40.778L123.594 103.487L59.8693 143.905L19.5338 59.3568Z" fill="#349A6A"/>
<path d="M11.7164 118.74L24.5686 109.819L23.9348 94.5508L11.0826 103.472L11.7164 118.74Z" fill="#2F2E29"/>
<path d="M22.0912 110.998C22.5028 115.175 23.7615 119.226 25.7904 122.901C27.8194 126.576 30.576 129.8 33.8921 132.374C34.8226 133.066 35.805 133.685 36.8305 134.226C41.047 136.439 44.8108 136.302 47.1768 134.349C48.3342 133.254 49.2162 131.902 49.7507 130.401C50.2852 128.901 50.4572 127.295 50.2524 125.715C49.9129 120.942 48.3632 116.333 45.7495 112.324V112.324C43.2454 108.229 39.7351 104.842 35.5524 102.485C34.2125 101.625 32.6878 101.095 31.1033 100.937C29.5188 100.78 27.9195 101.001 26.4367 101.581C23.5536 102.964 21.8974 106.328 22.0912 110.998Z" fill="#3BC483"/>
<path d="M25.7531 101.908L46.5857 134.764L37.0936 140.782L16.261 107.926L25.7531 101.908Z" fill="#3BC483"/>
<path d="M27.253 140.233C26.2339 139.692 25.258 139.073 24.3343 138.381C17.8961 133.517 12.831 124.649 12.5137 117.005C12.3158 112.237 14.0187 109.049 16.8198 107.59C18.3026 107.01 19.9019 106.789 21.4864 106.947C23.0709 107.104 24.5956 107.634 25.9355 108.495C30.1509 110.833 33.6906 114.221 36.2114 118.33C38.8236 122.34 40.3731 126.948 40.7143 131.721C40.9191 133.301 40.7472 134.906 40.2127 136.407C39.6781 137.907 38.7961 139.26 37.6387 140.355C35.2333 142.31 31.5483 142.443 27.253 140.233ZM27.0077 134.323C31.9293 136.881 35.7172 134.474 35.4874 128.938C35.1905 125.943 34.1931 123.06 32.5759 120.522C30.9586 117.983 28.7668 115.861 26.1776 114.326C21.2757 111.767 17.4878 114.174 17.7176 119.71C18.0066 122.713 18.9984 125.606 20.6127 128.155C22.227 130.704 24.4186 132.837 27.0101 134.382L27.0077 134.323Z" fill="#444443"/>
<path d="M27.01 134.42C24.4184 132.875 22.2269 130.741 20.6125 128.193C18.9982 125.644 18.0065 122.751 17.7175 119.747C17.4877 114.211 21.3347 111.802 26.1774 114.364C28.7746 115.904 30.9717 118.035 32.5898 120.585C34.2079 123.134 35.2015 126.029 35.4897 129.035C35.7786 134.569 31.9907 136.976 27.01 134.42ZM26.8791 131.267C30.2707 133.1 32.805 131.396 32.6472 127.594C32.4592 125.534 31.787 123.547 30.6855 121.795C29.5839 120.044 28.0841 118.578 26.3083 117.516C22.9364 115.682 20.3824 117.387 20.5402 121.189C20.7313 123.249 21.4048 125.235 22.506 126.985C23.6073 128.736 25.1054 130.203 26.8791 131.267V131.267Z" fill="#9D9D9C"/>
<path d="M32.7652 127.583C32.5772 125.523 31.9051 123.536 30.8035 121.784C29.7019 120.033 28.2021 118.567 26.4263 117.505C23.0545 115.671 20.5004 117.376 20.6583 121.178C20.8494 123.238 21.5228 125.224 22.6241 126.974C23.7254 128.725 25.2235 130.192 26.9972 131.256C30.3272 133.032 32.9231 131.385 32.7652 127.583Z" fill="#EDEDED"/>
<path d="M42.6824 131.601C42.5902 129.737 42.2884 127.889 41.7828 126.093C39.8956 119.469 36.1332 113.532 30.949 108.998C29.5394 107.783 27.9999 106.729 26.3583 105.853C24.6149 104.901 22.6976 104.309 20.7208 104.114C15.0371 103.639 11.1857 107.845 11.494 115.272L11.6372 118.72L7.60532 116.677L6.33033 85.9627L17.6073 61.4375C17.9813 60.6009 18.5891 59.8903 19.3577 59.3913C20.3579 58.8869 21.4736 58.6552 22.592 58.7196C23.7104 58.7841 24.7919 59.1424 25.7276 59.7584L52.3277 73.4752C53.7019 74.2959 54.8635 75.4287 55.7185 76.7817C56.5736 78.1348 57.098 79.6702 57.2493 81.2637L59.85 143.913L42.8255 135.049L42.6824 131.601Z" fill="#2A9562"/>
<path d="M55.6796 134.751C55.6918 135.033 55.6294 135.312 55.4987 135.562C55.368 135.811 55.1737 136.022 54.9355 136.172C54.6973 136.322 54.4237 136.406 54.1423 136.417C53.8609 136.427 53.5818 136.363 53.3333 136.23L48.5726 133.744C47.9712 133.425 47.4562 132.966 47.0719 132.404C46.6877 131.842 46.4456 131.196 46.3666 130.52C46.1942 128.701 45.9149 126.894 45.5301 125.108C43.431 117.754 39.251 111.163 33.4932 106.129C32.5291 105.292 31.508 104.524 30.4375 103.828C29.7887 103.405 29.2474 102.836 28.8565 102.168C28.4657 101.499 28.2359 100.748 28.1856 99.9748L28.022 96.0346L54.6508 109.967L55.6796 134.751Z" fill="#3E91A3"/>
<path d="M21.3753 67.5919L23.3945 68.6922C23.7728 68.8763 24.0972 69.155 24.3363 69.5011C24.5754 69.8473 24.7211 70.2493 24.7593 70.6683L25.7612 94.8022L10.3292 86.7396L18.695 68.6307C18.796 68.381 18.9471 68.1547 19.1389 67.9656C19.3308 67.7765 19.5593 67.6288 19.8104 67.5314C20.0616 67.4341 20.33 67.3893 20.5991 67.3997C20.8683 67.4101 21.1325 67.4755 21.3753 67.5919Z" fill="#3BC483"/>
<path opacity="0.5" d="M19.5756 68.9201C19.6476 68.7548 19.7654 68.6136 19.9151 68.5129C20.0648 68.4123 20.24 68.3566 20.4203 68.3522C20.5943 68.3416 20.7676 68.3824 20.9186 68.4697L22.937 69.5503C23.1676 69.671 23.3629 69.8497 23.5035 70.0688C23.6441 70.2879 23.7251 70.5398 23.7387 70.7998L24.0152 77.4588C20.1743 80.1992 17.2404 84.0254 15.5904 88.4457L11.5545 86.3043L19.5756 68.9201Z" fill="white"/>
<path d="M53.6582 86.0442L54.6494 109.922L28.0207 95.9893L27.0557 72.7419C27.0416 72.5103 27.0907 72.2793 27.1976 72.0735C27.3046 71.8677 27.4654 71.6947 27.6629 71.5731C27.8604 71.4514 28.0873 71.3857 28.3192 71.3828C28.5512 71.38 28.7795 71.4401 28.98 71.5568L52.2393 83.7151C52.6585 83.9457 53.01 84.2821 53.259 84.6907C53.5079 85.0993 53.6455 85.5659 53.6582 86.0442Z" fill="#3BC483"/>
<path opacity="0.5" d="M43.451 80.2532C37.2875 82.4825 32.7937 89.2803 31.4849 96.7353L28.9437 95.4199L28.0981 75.0489C29.0792 74.5727 30.0906 74.1615 31.1257 73.8181L43.451 80.2532Z" fill="white"/>
<path opacity="0.5" d="M28.3879 72.5095L31.0309 73.8996C29.9958 74.2431 28.9845 74.6543 28.0033 75.1305L27.9036 72.7269C27.9939 72.5258 28.1318 72.5201 28.3879 72.5095Z" fill="white"/>
<path d="M101.965 168.171L117.062 160.558L157.287 181.603L134.07 144.3L101.594 159.226L101.965 168.171Z" fill="#2F2E29"/>
<path d="M114.5 159.696C114.912 163.874 116.17 167.924 118.199 171.6C120.228 175.275 122.985 178.498 126.301 181.073C127.232 181.765 128.214 182.384 129.239 182.924C133.456 185.137 137.22 185.001 139.586 183.047C140.743 181.953 141.625 180.6 142.16 179.1C142.694 177.599 142.866 175.994 142.661 174.414C142.322 169.64 140.772 165.032 138.158 161.023V161.023C135.636 156.945 132.113 153.579 127.924 151.245C126.585 150.385 125.06 149.854 123.475 149.697C121.891 149.54 120.292 149.76 118.809 150.341C116.005 151.74 114.303 154.948 114.5 159.696Z" fill="#3BC483"/>
<path d="M118.171 150.677L139.003 183.533L129.511 189.552L108.679 156.696L118.171 150.677Z" fill="#3BC483"/>
<path d="M119.766 189.102C118.74 188.562 117.758 187.943 116.827 187.251C110.389 182.387 105.324 173.519 105.007 165.875C104.809 161.107 106.512 157.919 109.333 156.46C110.816 155.879 112.415 155.659 113.999 155.816C115.584 155.973 117.109 156.504 118.448 157.364C122.614 159.733 126.104 163.127 128.587 167.225V167.225C131.208 171.23 132.758 175.841 133.09 180.616C133.295 182.195 133.123 183.801 132.588 185.302C132.054 186.802 131.172 188.155 130.015 189.249C127.663 191.084 123.978 191.217 119.766 189.102ZM119.521 183.192C124.422 185.752 128.21 183.344 127.981 177.808C127.692 174.805 126.7 171.912 125.085 169.363C123.471 166.814 121.28 164.681 118.688 163.136C113.766 160.578 109.978 162.965 110.208 168.501C110.496 171.509 111.489 174.408 113.108 176.96C114.726 179.513 116.923 181.648 119.521 183.192Z" fill="#444443"/>
<path d="M119.52 183.171C116.922 181.626 114.725 179.491 113.107 176.939C111.489 174.386 110.495 171.488 110.207 168.48C109.977 162.944 113.825 160.554 118.687 163.115C121.279 164.66 123.47 166.793 125.085 169.342C126.699 171.891 127.691 174.784 127.98 177.787C128.208 183.284 124.42 185.691 119.52 183.171ZM119.389 180.019C122.761 181.852 125.315 180.148 125.157 176.345C124.964 174.283 124.29 172.296 123.189 170.542C122.088 168.788 120.591 167.317 118.817 166.247C115.426 164.415 112.892 166.138 113.05 169.941C113.244 171.994 113.919 173.973 115.02 175.717C116.121 177.461 117.617 178.921 119.387 179.979L119.389 180.019Z" fill="#9D9D9C"/>
<path d="M125.195 176.296C125.002 174.234 124.328 172.246 123.227 170.493C122.126 168.739 120.628 167.268 118.855 166.198C115.464 164.365 112.93 166.089 113.088 169.891C113.276 171.952 113.948 173.939 115.05 175.69C116.151 177.441 117.651 178.908 119.427 179.969C122.757 181.745 125.353 180.098 125.195 176.296Z" fill="#EDEDED"/>
<path d="M145.63 176.026C146.044 180.201 147.304 184.247 149.332 187.919C151.361 191.591 154.116 194.811 157.43 197.383C158.363 198.07 159.345 198.689 160.368 199.235C164.585 201.448 168.348 201.311 170.715 199.358C171.864 198.27 172.741 196.927 173.276 195.438C173.81 193.948 173.987 192.354 173.793 190.784C173.453 186.01 171.903 181.402 169.29 177.393V177.393C166.805 173.29 163.307 169.894 159.131 167.532C157.791 166.672 156.267 166.142 154.682 165.984C153.097 165.827 151.498 166.048 150.015 166.628C147.131 167.991 145.432 171.259 145.63 176.026Z" fill="#3BC483"/>
<path d="M149.3 166.996L170.132 199.852L160.64 205.87L139.808 173.014L149.3 166.996Z" fill="#3BC483"/>
<path d="M150.89 205.304C149.864 204.763 148.882 204.144 147.951 203.452C144.635 200.878 141.879 197.654 139.85 193.979C137.821 190.304 136.562 186.254 136.151 182.076C135.953 177.308 137.636 174.12 140.457 172.661C141.939 172.081 143.539 171.86 145.123 172.017C146.708 172.174 148.232 172.705 149.572 173.565C153.746 175.95 157.237 179.366 159.714 183.485V183.485C162.369 187.48 163.953 192.089 164.315 196.872C164.52 198.452 164.348 200.058 163.813 201.558C163.279 203.059 162.397 204.411 161.239 205.506C158.791 207.383 155.106 207.517 150.89 205.304ZM150.645 199.393C155.546 201.953 159.334 199.546 159.104 194.01C158.815 191.007 157.824 188.114 156.209 185.565C154.595 183.016 152.404 180.883 149.812 179.338C144.89 176.779 141.102 179.166 141.332 184.702C141.608 187.722 142.596 190.634 144.216 193.198C145.835 195.761 148.039 197.905 150.647 199.453L150.645 199.393Z" fill="#444443"/>
<path d="M150.647 199.44C148.047 197.898 145.848 195.764 144.23 193.211C142.611 190.658 141.619 187.759 141.334 184.749C141.104 179.213 144.952 176.823 149.814 179.385C152.406 180.929 154.597 183.063 156.212 185.611C157.826 188.16 158.818 191.053 159.107 194.057C159.337 199.593 155.549 202 150.647 199.44ZM150.516 196.288C153.888 198.122 156.442 196.417 156.284 192.615C156.091 190.553 155.417 188.565 154.316 186.811C153.215 185.057 151.717 183.587 149.944 182.517C146.553 180.684 144.019 182.408 144.177 186.21C144.365 188.27 145.037 190.257 146.139 192.009C147.24 193.76 148.74 195.226 150.516 196.288V196.288Z" fill="#9D9D9C"/>
<path d="M156.323 192.614C156.13 190.553 155.456 188.565 154.355 186.811C153.254 185.057 151.757 183.586 149.984 182.517C146.592 180.684 144.058 182.407 144.216 186.21C144.404 188.27 145.076 190.257 146.178 192.008C147.28 193.76 148.779 195.226 150.555 196.288C153.885 198.064 156.481 196.417 156.323 192.614Z" fill="#EDEDED"/>
<path d="M177.979 185.146L178.949 208.512L166.338 201.851C165.835 196.66 164.118 191.659 161.327 187.253C158.535 182.847 154.746 179.16 150.266 176.488L116.597 158.861C108.144 154.436 101.568 158.617 101.965 168.172L59.4818 145.997L58.5086 122.552L177.979 185.146Z" fill="#3BC483"/>
<path d="M246.519 141.881L177.979 185.144L178.949 208.509L247.481 165.069L246.519 141.881Z" fill="#3BC483"/>
<path d="M15.6871 93.1485C15.8412 93.1497 15.992 93.1045 16.1201 93.0189C16.2481 92.9333 16.3475 92.8112 16.4054 92.6684C16.4633 92.5257 16.4769 92.3688 16.4446 92.2182C16.4123 92.0676 16.3355 91.9302 16.2242 91.8237L12.2887 87.823C12.1383 87.7048 11.9501 87.6453 11.7591 87.6556C11.5681 87.6659 11.3873 87.7452 11.2505 87.8788C11.1136 88.0124 11.0299 88.1912 11.0151 88.3819C11.0002 88.5726 11.0551 88.7622 11.1697 88.9154L15.1052 92.9161C15.1804 92.9935 15.2711 93.0543 15.3714 93.0943C15.4717 93.1343 15.5793 93.1528 15.6871 93.1485Z" fill="#3BC483"/>
<path d="M13.7441 73.4643L12.6549 72.8977L12.1516 73.6093L13.2604 74.6487L13.7441 73.4643Z" fill="#3BC483"/>
<path d="M12.6165 72.8782C12.4733 72.8244 12.3186 72.8085 12.1674 72.832C12.0162 72.8556 11.8737 72.9178 11.7537 73.0127L7.11939 75.9483C6.77464 76.1927 6.49354 76.5162 6.29966 76.8917C6.10578 77.2671 6.00476 77.6836 6.00513 78.1062L6.48765 89.7299C6.47235 89.8823 6.50063 90.0358 6.56921 90.1727C6.63778 90.3096 6.74383 90.4242 6.87499 90.5032C7.00489 90.5786 7.15362 90.6154 7.30369 90.6092C7.45376 90.6029 7.59893 90.554 7.72213 90.4681L12.3564 87.5325C12.7003 87.2857 12.9819 86.962 13.1788 86.5873C13.3756 86.2125 13.4823 85.797 13.4904 85.3738L13.0038 73.6516C13.0105 73.5003 12.9785 73.3499 12.9107 73.2145C12.8429 73.0792 12.7416 72.9634 12.6165 72.8782Z" fill="#3BC483"/>
<path d="M8.02378 91.0672L6.95427 90.4998L8.12015 89.1094L8.99673 89.7835L8.02378 91.0672Z" fill="#3BC483"/>
<path d="M13.7852 73.4542C13.6497 73.3855 13.4989 73.3527 13.3471 73.359C13.1953 73.3653 13.0477 73.4105 12.9184 73.4902L8.28406 76.4257C7.93673 76.6692 7.65263 76.9921 7.45538 77.3676C7.25813 77.7431 7.15346 78.1603 7.1501 78.5845L7.63262 90.2082C7.62184 90.36 7.65211 90.5119 7.72026 90.6479C7.78841 90.784 7.89192 90.8992 8.01994 90.9815C8.15363 91.0562 8.30542 91.0924 8.45846 91.0861C8.61149 91.0797 8.75976 91.0311 8.8868 90.9455L13.5211 88.0099C13.865 87.7631 14.1466 87.4395 14.3434 87.0647C14.5403 86.69 14.647 86.2744 14.6551 85.8512L14.1725 74.2275C14.1793 74.0763 14.1473 73.9258 14.0795 73.7905C14.0117 73.6551 13.9104 73.5394 13.7852 73.4542Z" fill="#3BC483"/>
<path d="M8.32245 90.661C8.42722 90.6796 8.53482 90.6752 8.63768 90.6479L13.2285 87.6154C13.5001 87.4122 13.7231 87.151 13.8813 86.8509C14.0395 86.5508 14.129 86.2192 14.1432 85.8803L13.6599 74.2369C13.664 74.1012 13.6162 73.969 13.5261 73.8674V73.8674C13.4213 73.8494 13.3139 73.8538 13.2109 73.8805L8.57742 76.8358C8.30373 77.0371 8.07924 77.2978 7.9208 77.5984C7.76237 77.8989 7.67412 78.2314 7.6627 78.571L8.14521 90.1947C8.15421 90.4114 8.15993 90.5493 8.27895 90.5641L8.32245 90.661Z" fill="#3BC483"/>
<path opacity="0.5" d="M8.59202 78.6097C8.62438 78.2663 8.78789 77.9485 9.04856 77.7224L12.7183 75.3203L12.7608 76.3448C9.88561 79.3455 9.98102 83.5451 10.701 88.0543L8.97045 89.1523L8.59202 78.6097Z" fill="white"/>
<path d="M233.662 58.6741L233.544 58.679C233.238 58.7057 232.936 58.7645 232.643 58.8546L232.525 58.8595C232.263 58.952 232.016 59.0819 231.791 59.2452V59.2452C231.626 59.3829 231.48 59.5416 231.357 59.7171C231.26 59.8131 231.178 59.9229 231.114 60.043V60.043C230.914 60.3842 230.757 60.7487 230.646 61.1281C230.494 61.7238 230.427 62.3377 230.445 62.952L124.838 7.69637L127.732 77.4189L188.593 197.645L264.443 149.342L239.524 74.8701L239.82 74.8579C240.011 74.8696 240.202 74.8617 240.391 74.8342L240.588 74.826C242.309 74.4388 243.383 72.7364 243.278 70.2147C243.193 68.7668 242.833 67.3485 242.217 66.0354L292.039 57.7507L312.975 68.1306L300.682 40.5973L273.08 24.613L231.484 37.1151L235.31 58.9215C234.78 58.7413 234.222 58.6576 233.662 58.6741V58.6741Z" fill="#C47E1D"/>
<path d="M124.6 7.94531L127.485 77.4315L51.2992 125.728L48.4147 56.2422L124.6 7.94531Z" fill="#C47E1D"/>
<path d="M160.293 105.191L160.194 105.195C159.882 105.206 159.572 105.258 159.273 105.351V105.351C159.08 105.41 158.898 105.497 158.731 105.611L155.924 107.405L156.959 109.039C156.968 109.256 156.977 109.473 156.986 109.689L51.3596 54.4345L54.2449 123.94L188.346 197.649L191.153 195.855L166.379 122.009L168.303 120.824C168.918 120.337 169.394 119.697 169.682 118.968C169.971 118.239 170.062 117.446 169.946 116.67C169.858 115.225 169.504 113.808 168.904 112.49L218.69 104.266L236.818 116.421L239.626 114.646L227.332 87.113L199.75 71.1279L158.154 83.6299L155.347 85.4042L161.98 105.436C161.438 105.25 160.866 105.167 160.293 105.191V105.191Z" fill="#A05F24"/>
<path d="M239.625 114.648L236.798 116.423L218.67 104.269L168.864 112.494L169.429 113.733C169.892 114.653 170.212 115.638 170.379 116.654C171.121 121.222 168.649 122.508 168.649 122.508L192.191 195.202L188.345 197.651L54.1064 123.948L51.222 54.4617L156.85 109.736C156.84 109.5 156.831 109.283 156.822 109.066L155.786 107.412L158.595 105.658C158.761 105.544 158.944 105.456 159.136 105.398C159.435 105.305 159.745 105.253 160.058 105.242L160.156 105.238C160.715 105.229 161.272 105.313 161.804 105.485L155.21 85.4512L158.018 83.6769L199.751 71.1493L227.332 87.1147L239.625 114.648ZM160.218 110.544C160.132 110.86 160.099 111.188 160.121 111.515C160.229 112.643 160.6 113.731 161.206 114.69C161.811 115.648 162.633 116.451 163.606 117.034C165.441 117.984 165.583 117.11 165.494 114.982L165.465 114.273C165.525 113.355 165.358 112.437 164.979 111.599C164.6 110.761 164.021 110.03 163.292 109.469C161.741 108.724 160.498 109.19 160.218 110.544ZM81.6713 77.2351L57.6692 64.7721L59.9689 120.172L83.8356 132.7L81.6713 77.2351ZM114.959 94.7003L88.8748 81.041L91.1778 136.519L117.263 150.198L114.959 94.7003ZM148.306 112.143L122.221 98.484L124.526 154.002L150.612 167.701L148.306 112.143ZM158.394 117.467L155.489 115.95L157.796 171.507L181.36 183.89L158.394 117.467ZM179.944 103.192L172.277 88.216L165.07 90.4888L167.672 105.636L179.944 103.192ZM195.022 100.337L186.622 83.8709L175.824 87.1215L183.566 102.49L195.022 100.337ZM209.416 97.6471L200.266 79.7719L190.15 82.8166L198.742 99.6295L209.416 97.6471ZM228.512 102.222L223.962 91.991L205.012 80.9367L213.11 96.803L216.521 96.247L228.512 102.222Z" fill="#C47E1D"/>
<path d="M154.042 111.506C154.016 110.886 154.076 110.266 154.222 109.663C154.329 109.288 154.487 108.93 154.691 108.597C154.755 108.483 154.83 108.374 154.914 108.272C155.259 107.811 155.732 107.462 156.274 107.269C156.312 107.282 156.355 107.281 156.392 107.264C156.692 107.174 157 107.114 157.312 107.087V107.087C157.872 107.096 158.428 107.186 158.961 107.354L155.175 85.5465L196.943 72.9189L206.247 78.3545L224.446 88.8875L236.818 116.418L215.866 106.137L202.147 108.423L198.363 109.034L166.099 114.321C166.208 114.573 166.297 114.826 166.387 115.078C166.834 116.174 167.089 117.338 167.141 118.52C167.248 121.082 166.171 122.725 164.47 123.111L164.254 123.12C164.064 123.148 163.873 123.156 163.682 123.144C163.584 123.158 163.485 123.162 163.387 123.156L188.385 197.645L179.71 193.11L51.3381 125.716L48.4536 56.2296L154.042 111.506ZM213.716 98.0756L225.705 104.012L221.138 93.8205L202.187 82.7661L210.305 98.6316L213.716 98.0756ZM206.608 99.4166L198.402 83.3574L197.478 81.5406L187.343 84.5861L189.498 88.9765L195.935 101.419L206.608 99.4166ZM180.856 104.235L192.215 102.126L186.5 90.9166L183.8 85.7594L173 88.9904L177.098 96.8919L180.856 104.235ZM177.156 104.961L174.021 98.8353L169.488 89.965L162.256 92.1204L164.503 104.875L164.897 107.246L177.156 104.961ZM163.833 116.803C163.851 116.533 163.84 116.262 163.8 115.995C163.713 115.509 163.561 115.038 163.347 114.593C162.747 113.214 161.725 112.061 160.428 111.3C159.981 111.036 159.47 110.901 158.951 110.907C158.651 110.897 158.357 110.985 158.113 111.159C157.792 111.409 157.543 111.739 157.392 112.116C157.242 112.494 157.194 112.905 157.255 113.306C157.361 114.433 157.732 115.518 158.337 116.474C158.943 117.43 159.766 118.229 160.739 118.806C162.575 119.756 164.018 118.867 163.932 116.799L163.833 116.803ZM178.533 185.66L155.685 119.233L152.76 117.716L155.067 173.274L178.533 185.66ZM121.62 155.795L147.686 169.475L145.38 113.918L119.414 100.273L121.62 155.795ZM114.357 151.972L112.053 96.4739L86.0473 82.8113L88.3503 138.29L114.357 151.972ZM57.1423 121.962L81.009 134.49L78.7068 79.0309L54.8417 66.5425L57.1423 121.962Z" fill="#DA8E47"/>
<path d="M300.69 40.5831L273.088 24.5988C244.13 40.1286 218.232 56.1432 196.846 72.9572L224.446 88.9021C251.162 74.9467 276.665 58.7842 300.69 40.5831V40.5831Z" fill="#A05F24"/>
<path d="M48.4145 56.2409L124.6 7.94412L208.402 51.8297L155.347 85.4307L159.133 107.219C158.601 107.047 158.044 106.963 157.485 106.972V106.972C157.172 106.983 156.862 107.035 156.564 107.128V107.128C156.016 107.321 155.536 107.671 155.184 108.133C155.094 108.229 155.019 108.339 154.961 108.458C154.961 108.458 154.961 108.458 154.961 108.458C154.75 108.789 154.586 109.148 154.472 109.524C154.328 110.127 154.267 110.747 154.292 111.367L48.4145 56.2409Z" fill="#A05F24"/>
<path d="M300.69 40.6157L313.061 68.1063L236.818 116.445L224.525 88.9314L300.69 40.6157Z" fill="#DC822F"/>
<path d="M155.347 85.4434L231.512 37.1277L273.128 24.6445L196.885 72.9832L155.347 85.4434Z" fill="#DC822F"/>
<path d="M254.78 136.476L187.477 179.095L187.193 178.93L187.476 179.076L168.535 122.63C168.535 122.63 171.067 121.341 170.266 116.776C170.099 115.76 169.779 114.775 169.316 113.855L215.867 106.16L236.803 116.54L239.63 114.765L246.091 110.668L254.78 136.476Z" fill="#4B3A2A"/>
<path d="M80.3161 62.6663L123.588 85.3021L181.486 48.599L181.364 45.6635L138.195 25.964L80.1935 59.7111L80.3161 62.6663Z" fill="#C47E1D"/>
<path d="M80.1936 59.684L123.466 82.3395L181.365 45.6364L138.073 22.9816L80.1936 59.684Z" fill="#DC822F"/>
<path d="M190.91 124.915L176.203 145.261L174.265 139.441L187.097 122.429L190.91 124.915Z" fill="#C6C6C6"/>
<path d="M187.097 122.415C186.726 122.983 187.282 124.006 188.336 124.692C189.391 125.379 190.559 125.468 190.911 124.901C191.262 124.334 190.727 123.33 189.672 122.644C188.618 121.957 187.468 121.847 187.097 122.415Z" fill="#F6F6F6"/>
<path d="M190.251 124.2L202.104 108.314L198.32 108.925L188.132 122.61C187.458 123.487 189.302 125.108 190.251 124.2Z" fill="#C6C6C6"/>
<path d="M453.404 198.014C461.141 202.481 461.141 209.711 453.404 214.178C445.668 218.644 433.132 218.644 425.396 214.178C417.659 209.711 417.659 202.481 425.396 198.014C433.132 193.547 445.668 193.547 453.404 198.014Z" fill="#878787"/>
<path d="M459.215 196.861H419.633V205.449H459.215V196.861Z" fill="#878787"/>
<path d="M409.293 198.014C417.029 202.481 417.029 209.711 409.293 214.178C401.557 218.644 389.02 218.644 381.284 214.178C373.548 209.711 373.548 202.481 381.284 198.014C389.02 193.547 401.557 193.547 409.293 198.014Z" fill="#878787"/>
<path d="M415.106 196.869H375.523V205.457H415.106V196.869Z" fill="#878787"/>
<path d="M409.369 188.059C417.093 192.526 417.093 199.768 409.369 204.235C401.644 208.702 389.096 208.702 381.36 204.235C373.623 199.768 373.623 192.526 381.36 188.059C389.096 183.592 401.595 183.592 409.369 188.059Z" fill="#DADADA"/>
<path d="M409.369 133.782C417.093 138.249 417.093 145.479 409.369 149.946C401.644 154.413 389.096 154.413 381.36 149.946C373.623 145.479 373.623 138.249 381.36 133.782C389.096 129.316 401.595 129.303 409.369 133.782Z" fill="#575756"/>
<path d="M415.13 141.865H375.461V196.143H415.13V141.865Z" fill="#DADADA"/>
<path d="M395.289 161.888C406.226 161.888 415.092 156.767 415.092 150.45C415.092 144.133 406.226 139.012 395.289 139.012C384.352 139.012 375.485 144.133 375.485 150.45C375.485 156.767 384.352 161.888 395.289 161.888Z" fill="#878787"/>
<path d="M415.106 141.221H375.523V149.808H415.106V141.221Z" fill="#878787"/>
<path d="M409.293 133.782C417.029 138.249 417.029 145.479 409.293 149.946C401.557 154.413 389.02 154.413 381.284 149.946C373.548 145.479 373.548 138.249 381.284 133.782C389.02 129.316 401.557 129.303 409.293 133.782Z" fill="#9D9D9C"/>
<path d="M408.542 134.234C415.871 138.454 415.871 145.339 408.542 149.534C401.213 153.729 389.355 153.766 382.038 149.534C374.721 145.302 374.721 138.429 382.038 134.234C389.355 130.039 401.225 129.977 408.542 134.234Z" fill="#3C3C3B"/>
<path d="M397.029 203.515C397.029 203.739 396.985 203.96 396.9 204.167C396.814 204.373 396.689 204.561 396.53 204.719C396.372 204.877 396.185 205.003 395.978 205.088C395.771 205.174 395.55 205.218 395.326 205.218V205.218C395.103 205.218 394.883 205.174 394.677 205.088C394.471 205.002 394.284 204.877 394.127 204.718C393.97 204.56 393.845 204.372 393.761 204.166C393.677 203.959 393.634 203.738 393.636 203.515V165.179C393.636 164.73 393.814 164.3 394.131 163.983C394.448 163.666 394.878 163.488 395.326 163.488V163.488C395.549 163.487 395.771 163.529 395.977 163.613C396.184 163.698 396.371 163.822 396.53 163.979C396.688 164.136 396.814 164.323 396.899 164.529C396.985 164.735 397.029 164.956 397.029 165.179V203.515Z" fill="#878787"/>
<path d="M404.223 201.96C404.193 202.453 404.017 202.926 403.715 203.318C403.414 203.709 403.002 204.002 402.532 204.156V204.156C402.338 204.237 402.125 204.267 401.916 204.242C401.706 204.217 401.507 204.139 401.336 204.016C401.165 203.892 401.029 203.726 400.94 203.535C400.852 203.344 400.814 203.133 400.83 202.922V165.166C400.86 164.671 401.039 164.197 401.343 163.805C401.646 163.414 402.061 163.122 402.532 162.97V162.97C402.727 162.892 402.938 162.864 403.145 162.89C403.353 162.916 403.551 162.995 403.72 163.118C403.889 163.242 404.024 163.406 404.112 163.596C404.2 163.786 404.238 163.995 404.223 164.204V201.96Z" fill="#878787"/>
<path d="M410.208 199.189C410.218 199.632 410.109 200.07 409.892 200.456C409.675 200.843 409.358 201.163 408.974 201.385V201.385C408.295 201.656 407.74 201.126 407.74 200.151V162.938C407.729 162.494 407.838 162.057 408.056 161.67C408.273 161.284 408.59 160.963 408.974 160.741V160.741C409.64 160.457 410.208 161 410.208 161.975V199.189Z" fill="#878787"/>
<path d="M414.032 195.584C414.06 195.982 414.005 196.382 413.871 196.757C413.738 197.133 413.528 197.477 413.255 197.768V197.768C412.811 198.052 412.465 197.509 412.465 196.534V159.864C412.438 159.463 412.493 159.061 412.629 158.683C412.765 158.305 412.978 157.959 413.255 157.667V157.667C413.687 157.396 414.032 157.939 414.032 158.901V195.584Z" fill="#878787"/>
<path d="M386.355 201.957C386.386 202.452 386.565 202.926 386.868 203.318C387.172 203.71 387.587 204.001 388.058 204.154V204.154C388.252 204.232 388.463 204.259 388.671 204.233C388.879 204.207 389.076 204.129 389.245 204.005C389.414 203.882 389.549 203.718 389.637 203.528C389.725 203.338 389.764 203.129 389.749 202.92V165.163C389.719 164.67 389.542 164.197 389.241 163.806C388.939 163.414 388.527 163.122 388.058 162.967C387.863 162.886 387.651 162.857 387.442 162.881C387.232 162.906 387.032 162.984 386.862 163.108C386.691 163.232 386.555 163.397 386.466 163.588C386.377 163.78 386.339 163.991 386.355 164.201V201.957Z" fill="#878787"/>
<path d="M380.383 199.187C380.373 199.63 380.482 200.068 380.699 200.454C380.916 200.841 381.233 201.161 381.617 201.383V201.383C382.283 201.654 382.851 201.124 382.851 200.149V162.936C382.861 162.492 382.752 162.055 382.535 161.668C382.318 161.282 382.001 160.961 381.617 160.739V160.739C380.938 160.455 380.383 160.998 380.383 161.973V199.187Z" fill="#878787"/>
<path d="M376.546 195.586C376.52 195.984 376.577 196.384 376.713 196.76C376.849 197.136 377.061 197.48 377.336 197.77V197.77C377.768 198.053 378.113 197.51 378.113 196.536V159.865C378.131 159.464 378.067 159.063 377.925 158.688C377.783 158.312 377.566 157.97 377.287 157.681V157.681C376.855 157.41 376.497 157.953 376.497 158.915L376.546 195.586Z" fill="#878787"/>
<path d="M415.094 137.082H406.901C399.406 134.16 391.087 134.16 383.593 137.082H375.523V141.327C375.227 144.461 377.14 147.657 381.285 150.05C389.022 154.517 401.558 154.517 409.294 150.05C413.44 147.657 415.365 144.461 415.069 141.327L415.094 137.082Z" fill="#DADADA"/>
<path d="M395.289 149.153C406.226 149.153 415.093 144.032 415.093 137.715C415.093 131.398 406.226 126.277 395.289 126.277C384.352 126.277 375.485 131.398 375.485 137.715C375.485 144.032 384.352 149.153 395.289 149.153Z" fill="#9D9D9C"/>
<path d="M395.29 148.554C405.642 148.554 414.033 143.709 414.033 137.733C414.033 131.757 405.642 126.912 395.29 126.912C384.939 126.912 376.548 131.757 376.548 137.733C376.548 143.709 384.939 148.554 395.29 148.554Z" fill="#DADADA"/>
<path d="M413.984 137.14C413.848 130.588 405.655 125.27 395.476 125.196C385.296 125.122 376.696 130.465 376.548 137.14H413.984Z" fill="#DADADA"/>
<path d="M390.317 135.146C390.029 135.146 389.753 135.031 389.55 134.828C389.346 134.624 389.232 134.348 389.232 134.06V132.296C389.268 131.357 389.533 130.441 390.001 129.626C390.469 128.812 391.128 128.123 391.921 127.619L396.4 125.028C396.773 124.75 397.219 124.588 397.683 124.561C398.148 124.534 398.609 124.643 399.012 124.875C399.415 125.107 399.741 125.452 399.95 125.868C400.159 126.283 400.242 126.75 400.188 127.212V128.977C400.188 129.265 400.074 129.541 399.87 129.744C399.667 129.948 399.391 130.062 399.103 130.062C398.815 130.062 398.538 129.948 398.335 129.744C398.131 129.541 398.017 129.265 398.017 128.977V127.212C398.033 127.053 397.999 126.893 397.918 126.756C397.764 126.777 397.617 126.832 397.486 126.916L393.007 129.495C392.546 129.81 392.162 130.226 391.884 130.711C391.606 131.196 391.442 131.738 391.403 132.296V134.06C391.4 134.347 391.285 134.621 391.082 134.824C390.879 135.027 390.604 135.143 390.317 135.146V135.146Z" fill="#878787"/>
<path d="M453.441 188.059C461.165 192.526 461.165 199.768 453.441 204.235C445.717 208.702 433.168 208.702 425.432 204.235C417.696 199.768 417.696 192.526 425.432 188.059C433.168 183.592 445.704 183.592 453.441 188.059Z" fill="#DADADA"/>
<path d="M453.441 133.782C461.165 138.249 461.165 145.479 453.441 149.946C445.717 154.413 433.168 154.413 425.432 149.946C417.696 145.479 417.696 138.249 425.432 133.782C433.168 129.316 445.704 129.303 453.441 133.782Z" fill="#575756"/>
<path d="M459.24 141.865H419.571V196.143H459.24V141.865Z" fill="#DADADA"/>
<path d="M439.4 161.888C450.337 161.888 459.204 156.767 459.204 150.45C459.204 144.133 450.337 139.012 439.4 139.012C428.463 139.012 419.596 144.133 419.596 150.45C419.596 156.767 428.463 161.888 439.4 161.888Z" fill="#878787"/>
<path d="M459.216 141.215H419.633V149.803H459.216V141.215Z" fill="#878787"/>
<path d="M453.404 133.782C461.141 138.249 461.141 145.479 453.404 149.946C445.668 154.413 433.132 154.413 425.396 149.946C417.659 145.479 417.659 138.249 425.396 133.782C433.132 129.316 445.668 129.303 453.404 133.782Z" fill="#9D9D9C"/>
<path d="M452.651 134.234C459.981 138.454 459.981 145.339 452.651 149.534C445.322 153.729 433.465 153.766 426.148 149.534C418.831 145.302 418.831 138.429 426.148 134.234C433.465 130.039 445.335 129.977 452.651 134.234Z" fill="#3C3C3B"/>
<path d="M441.103 203.515C441.103 203.967 440.923 204.4 440.604 204.719C440.285 205.038 439.852 205.218 439.4 205.218V205.218C438.956 205.208 438.534 205.024 438.224 204.705C437.915 204.387 437.743 203.959 437.747 203.515V165.179C437.747 164.73 437.925 164.3 438.242 163.983C438.559 163.666 438.989 163.488 439.437 163.488V163.488C439.66 163.487 439.881 163.529 440.088 163.613C440.294 163.698 440.482 163.822 440.64 163.979C440.799 164.136 440.924 164.323 441.01 164.529C441.096 164.735 441.14 164.956 441.14 165.179L441.103 203.515Z" fill="#878787"/>
<path d="M448.331 201.96C448.302 202.453 448.125 202.926 447.824 203.318C447.522 203.709 447.11 204.002 446.641 204.156C446.446 204.237 446.234 204.267 446.024 204.242C445.815 204.217 445.615 204.139 445.445 204.016C445.274 203.892 445.138 203.726 445.049 203.535C444.96 203.344 444.922 203.133 444.938 202.922V165.166C444.969 164.671 445.147 164.197 445.451 163.805C445.755 163.414 446.169 163.122 446.641 162.97V162.97C446.835 162.892 447.046 162.864 447.254 162.89C447.461 162.916 447.659 162.995 447.828 163.118C447.997 163.242 448.132 163.406 448.22 163.596C448.308 163.786 448.346 163.995 448.331 164.204V201.96Z" fill="#878787"/>
<path d="M454.318 199.189C454.329 199.632 454.22 200.07 454.003 200.456C453.785 200.843 453.468 201.163 453.084 201.385V201.385C452.406 201.656 451.85 201.126 451.85 200.151V162.938C451.84 162.494 451.949 162.057 452.166 161.67C452.383 161.284 452.7 160.963 453.084 160.741V160.741C453.751 160.457 454.318 161 454.318 161.975V199.189Z" fill="#878787"/>
<path d="M458.143 195.584C458.17 195.982 458.115 196.382 457.982 196.757C457.848 197.133 457.638 197.477 457.365 197.768V197.768C456.921 198.052 456.576 197.509 456.576 196.534V159.864C456.548 159.463 456.604 159.061 456.74 158.683C456.876 158.305 457.089 157.959 457.365 157.667V157.667C457.797 157.396 458.143 157.939 458.143 158.901V195.584Z" fill="#878787"/>
<path d="M430.466 201.957C430.497 202.452 430.675 202.926 430.979 203.318C431.283 203.71 431.698 204.001 432.169 204.154V204.154C432.363 204.232 432.574 204.259 432.782 204.233C432.99 204.207 433.187 204.129 433.356 204.005C433.525 203.882 433.66 203.718 433.748 203.528C433.836 203.338 433.875 203.129 433.859 202.92V165.163C433.83 164.67 433.653 164.197 433.352 163.806C433.05 163.414 432.638 163.122 432.169 162.967C431.974 162.886 431.762 162.857 431.553 162.881C431.343 162.906 431.143 162.984 430.973 163.108C430.802 163.232 430.666 163.397 430.577 163.588C430.488 163.78 430.45 163.991 430.466 164.201V201.957Z" fill="#878787"/>
<path d="M424.496 199.189C424.485 199.632 424.594 200.07 424.812 200.456C425.029 200.843 425.346 201.163 425.73 201.385V201.385C426.396 201.656 426.964 201.126 426.964 200.151V162.938C426.974 162.494 426.865 162.057 426.648 161.67C426.431 161.284 426.114 160.963 425.73 160.741V160.741C425.051 160.457 424.496 161 424.496 161.975V199.189Z" fill="#878787"/>
<path d="M420.657 195.584C420.631 195.983 420.688 196.383 420.824 196.759C420.959 197.135 421.172 197.478 421.447 197.768V197.768C421.878 198.052 422.224 197.509 422.224 196.534V159.864C422.25 159.464 422.195 159.063 422.061 158.686C421.928 158.308 421.719 157.962 421.447 157.667V157.667C421.015 157.396 420.657 157.939 420.657 158.901V195.584Z" fill="#878787"/>
<path d="M462.744 141.917L454.773 140.226C448.055 135.807 439.921 134.072 431.984 135.365L424.037 133.662L423.149 137.82C422.199 140.831 423.408 144.347 426.962 147.556C433.6 153.54 445.865 156.193 454.354 153.392C458.907 151.923 461.461 149.197 461.757 146.075L462.744 141.917Z" fill="#DADADA"/>
<path d="M462.614 142.566C463.932 136.388 456.329 129.53 445.632 127.248C434.935 124.967 425.196 128.126 423.878 134.304C422.56 140.482 430.163 147.34 440.86 149.621C451.557 151.903 461.296 148.744 462.614 142.566Z" fill="#9D9D9C"/>
<path d="M461.574 142.342C462.821 136.497 455.625 130.008 445.501 127.849C435.378 125.69 426.16 128.678 424.914 134.522C423.667 140.367 430.863 146.856 440.987 149.015C451.11 151.174 460.327 148.186 461.574 142.342Z" fill="#DADADA"/>
<path d="M461.66 141.722C462.893 135.281 455.984 128.371 446.039 126.175C436.094 123.979 426.581 127.409 425.063 133.911L461.66 141.722Z" fill="#DADADA"/>
<path d="M438.981 134.846C438.71 134.786 438.472 134.625 438.316 134.396C438.16 134.166 438.098 133.886 438.142 133.612L438.513 131.884C438.744 130.973 439.194 130.131 439.824 129.432C440.454 128.733 441.245 128.199 442.128 127.874L447.063 126.283C447.486 126.09 447.955 126.025 448.413 126.096C448.872 126.167 449.3 126.37 449.645 126.681C449.989 126.991 450.236 127.396 450.354 127.845C450.472 128.294 450.456 128.767 450.308 129.207L449.938 130.934C449.879 131.205 449.717 131.442 449.487 131.596C449.257 131.75 448.977 131.809 448.704 131.761C448.433 131.702 448.195 131.541 448.039 131.311C447.883 131.082 447.821 130.801 447.865 130.527L448.235 128.8C448.235 128.504 448.235 128.356 448.235 128.331C448.085 128.321 447.933 128.342 447.791 128.393L442.856 129.984C442.339 130.195 441.876 130.519 441.502 130.934C441.128 131.348 440.853 131.842 440.696 132.378L440.326 134.105C440.246 134.382 440.059 134.615 439.807 134.754C439.555 134.893 439.258 134.926 438.981 134.846V134.846Z" fill="#878787"/>
<path d="M348.019 108.355C352.745 108.034 354.262 115.943 357.89 119.892L355.792 128.27L345.773 119.633L348.019 108.355Z" fill="#46A879"/>
<path d="M330.116 191.37L327.229 195.59L328.29 200.266C330.338 202.03 331.263 203.351 330.758 204.523C329.524 205.757 327.747 205.929 325.822 205.584C322.293 205.362 319.875 198.637 318.703 195.034C319.217 193.69 320.151 192.547 321.368 191.777L324.317 187.236L330.116 191.37Z" fill="black"/>
<path d="M351.796 202.393L352.906 208.019C353.92 209.584 355.414 210.779 357.163 211.425C359.47 211.856 361.087 212.412 361.741 213.645C361.919 214.02 361.988 214.438 361.94 214.851C361.892 215.263 361.729 215.654 361.469 215.978C361.025 216.561 360.436 217.018 359.761 217.304C359.086 217.589 358.347 217.694 357.619 217.606C353.424 217.273 347.748 216.446 346.231 215.052C345.741 213.411 345.652 211.676 345.972 209.993L344.54 204.034L351.796 202.393Z" fill="black"/>
<path d="M348.97 153.223L344.034 174.013L331.251 192.349C329.166 195.174 320.714 191.448 322.614 186.562L333.608 167.992L338.062 147.559L349.007 144.363L348.97 153.223Z" fill="#296C4C"/>
<path d="M330.758 163.687L338.272 181.122L343.529 206.675L343.64 206.86C345.355 209.229 353.93 207.909 353.93 204.392L349.167 177.087L342.381 157.073C345.688 155.395 348.625 154.47 348.921 149.781L332.88 150.361L328.488 150.522C327.242 155.21 328.463 160.861 330.758 163.687Z" fill="#46A879"/>
<path d="M326.637 129.657C326.526 136.66 327.167 143.655 328.549 150.522C329.82 150.814 331.105 151.041 332.399 151.201C337.962 151.867 343.602 151.384 348.97 149.782L350.784 114.234C349.994 111.988 349.056 110.532 346.996 110.039C345.736 109.797 344.442 109.797 343.183 110.039C341.125 110.381 339.09 110.846 337.088 111.433V111.433C336.434 111.618 335.854 111.828 335.188 112.05C333.6 112.601 332.071 113.308 330.622 114.16C329.309 114.913 328.105 115.843 327.044 116.924C326.785 121.44 326.637 125.659 326.637 129.657Z" fill="#46A879"/>
<path opacity="0.15" d="M328.548 150.54C327.24 155.242 328.461 160.88 330.756 163.706L338.271 181.14L343.527 206.694L343.638 206.879C342.207 195.182 339.776 183.497 340.973 178.919C337.037 173.861 333.483 168.888 333.57 161.756C331.102 160.103 330.719 154.415 332.447 151.194C332.591 150.893 332.774 150.611 332.99 150.355C333.061 150.248 333.144 150.149 333.237 150.059C328.881 146.456 330.559 135.882 332.533 127.307L326.685 129.651C326.556 136.661 327.181 143.664 328.548 150.54V150.54Z" fill="#1D1D1B"/>
<path d="M345.762 150.383C343.778 152.49 341.193 153.934 338.358 154.517C337.069 154.798 335.754 154.942 334.435 154.948C331.312 154.597 328.369 153.307 325.995 151.247L326.229 144.448L326.674 132.27L327.093 120.301L326.982 116.957C329.006 114.428 333.522 112.553 336.643 110.652C336.446 112.96 336.939 114.354 338.568 115.033C340.875 117.652 342.446 120.837 343.121 124.262C343.698 126.929 344.077 129.634 344.256 132.356C344.38 133.985 344.478 135.638 344.565 137.292C344.676 139.167 344.774 140.993 344.898 142.955C345.12 145.472 345.354 147.952 345.762 150.383Z" fill="#FF7C02"/>
<path d="M341.036 108.355C345.379 110.823 347.674 116.832 348.241 124.395C348.698 130.49 348.932 147.839 348.932 147.839C351.4 148.036 353.929 145.149 353.683 144.569C350.746 137.832 355.237 112.167 347.168 107.713L343.775 106.541L341.036 108.355Z" fill="#FF7C02"/>
<path d="M336.632 108.958C336.643 109.102 336.643 109.246 336.632 109.39C336.632 109.748 336.632 110.266 336.533 110.784C336.434 111.303 336.459 111.636 336.422 112.018C336.385 112.401 336.422 112.549 336.422 112.647C336.422 113.783 337.36 114.486 338.125 114.967C339.556 115.843 341.962 116.732 343.208 116.016C343.265 115.989 343.315 115.951 343.356 115.905C343.409 115.878 343.455 115.84 343.492 115.794C343.492 115.794 343.492 115.794 343.492 115.794L343.578 115.695L343.665 115.559C343.738 115.454 343.792 115.337 343.825 115.214C343.825 114.942 344.06 113.98 344.109 113.672H344.343C344.648 113.731 344.961 113.726 345.263 113.656C345.565 113.585 345.849 113.452 346.096 113.264C346.195 113.197 346.286 113.118 346.367 113.03C346.846 112.441 347.18 111.748 347.342 111.006C347.465 110.612 347.576 110.241 347.675 109.834C347.681 109.81 347.681 109.785 347.675 109.76C347.848 109.11 348.008 108.456 348.156 107.798C348.466 106.311 348.697 104.807 348.847 103.295C349.171 101.692 348.89 100.026 348.057 98.6184C347.986 98.5223 347.908 98.4316 347.823 98.3469C347.134 97.7081 346.318 97.2205 345.429 96.9156C344.465 96.4606 343.411 96.2246 342.345 96.2246C341.278 96.2246 340.225 96.4606 339.26 96.9156C338.053 97.6328 337.136 98.7506 336.669 100.074C336.119 101.607 335.905 103.239 336.039 104.862C336.128 106.241 336.326 107.611 336.632 108.958Z" fill="#FFBB7D"/>
<path opacity="0.1" d="M344.109 113.517C344.109 113.863 343.863 114.751 343.826 115.06C343.715 115.425 343.473 115.737 343.147 115.936L342.74 115.874C341.434 115.561 340.29 114.774 339.532 113.666C338.776 112.553 338.476 111.193 338.693 109.865C339.581 111.444 341.044 112.62 342.777 113.147C343.246 113.258 343.628 113.382 344.109 113.517Z" fill="#1D1D1B"/>
<path d="M347.07 98.2495C347.093 98.3898 347.088 98.5332 347.055 98.6714C347.022 98.8096 346.961 98.9399 346.878 99.0547C346.794 99.1694 346.688 99.2665 346.567 99.34C346.445 99.4136 346.31 99.4624 346.169 99.4834C345.564 99.5324 344.963 99.3567 344.479 98.9899C344.009 98.6235 343.49 98.3245 342.937 98.1015C342.173 97.9651 341.386 98.1133 340.725 98.518C340.063 98.9227 339.572 99.5559 339.346 100.298C338.933 101.797 338.907 103.376 339.272 104.888C338.877 104.888 338.631 104.505 338.408 104.184C338.186 103.864 337.705 103.555 337.421 103.827C337.304 103.963 337.242 104.14 337.249 104.32C337.199 105.025 337.236 105.734 337.36 106.43C337.385 106.717 337.492 106.992 337.668 107.22C337.752 107.334 337.874 107.414 338.012 107.446C338.15 107.477 338.295 107.459 338.421 107.393C338.45 107.852 338.302 108.306 338.009 108.661C337.716 109.016 337.298 109.246 336.841 109.305C336.768 109.317 336.693 109.317 336.619 109.305C336.63 109.161 336.63 109.017 336.619 108.873C336.307 107.469 336.113 106.041 336.039 104.604C335.905 102.982 336.12 101.349 336.669 99.8165C337.136 98.4928 338.053 97.375 339.26 96.6578C340.225 96.2053 341.278 95.9707 342.344 95.9707C343.411 95.9707 344.464 96.2053 345.429 96.6578C346.435 96.9998 347.339 97.5897 348.057 98.3729C347.923 98.2577 347.758 98.1845 347.582 98.1626C347.407 98.1406 347.229 98.1709 347.07 98.2495Z" fill="black"/>
<path opacity="0.1" d="M338.53 101.765C338.858 103.823 339.78 105.74 341.183 107.281C341.851 108.117 342.788 108.697 343.836 108.922C345.341 109.119 346.723 108.132 348.191 107.688C348.501 106.2 348.732 104.697 348.882 103.184C349.206 101.581 348.925 99.9153 348.092 98.5078C348.021 98.4117 347.943 98.321 347.858 98.2363C344.662 99.3098 341.578 100.494 338.53 101.765Z" fill="black"/>
<path d="M339 103.603C339 103.603 342.233 105.738 343.837 106.972C344.214 107.288 344.683 107.478 345.174 107.513C345.666 107.549 346.156 107.428 346.576 107.169L346.699 107.12C347.484 106.575 348.35 106.159 349.266 105.886H349.34C350.037 105.671 350.758 105.547 351.487 105.516C352.034 105.48 352.582 105.568 353.091 105.775C353.189 105.775 353.263 105.664 353.189 105.577C352.646 105.022 351.104 103.64 350.611 103.109C350.125 102.57 349.602 102.067 349.044 101.604C345.897 99.6176 340.777 103.788 339 103.603Z" fill="#388762"/>
<path opacity="0.15" d="M360.913 114.777L344.947 142.958L338.407 154.495L338.16 154.927H334.459C331.336 154.576 328.393 153.285 326.019 151.225L326.253 144.427L326.698 132.248L331.189 120.391C333.916 122.587 334.076 129.558 333.657 135.999C334.557 132.961 336.013 130.116 337.95 127.609L343.083 124.29L347.377 118.33C351.918 115.344 356.409 113.876 360.913 114.777Z" fill="black"/>
<path d="M370.772 121.027C370.661 120.854 370.279 121.027 370.118 121.125C369.976 121.271 369.881 121.456 369.847 121.656C369.662 122.264 369.624 122.906 369.736 123.531C369.798 123.842 369.937 124.131 370.14 124.375C370.342 124.618 370.602 124.807 370.895 124.926C371.068 124.111 371.364 124.235 370.97 123.396C370.837 122.688 370.791 121.967 370.834 121.249C370.828 121.171 370.807 121.096 370.772 121.027V121.027Z" fill="#FFBB7D"/>
<path d="M332.621 130.17C332.399 132.268 331.387 138.807 331.387 138.807L339.308 153.737C337.877 155.625 334.866 157.624 333.472 156.057C328.537 149.776 324.551 144.36 323.7 142.003C322.996 135.833 323.836 123.606 327.093 116.894C329.696 115.191 333.46 122.014 332.621 130.17Z" fill="#46A879"/>
<path d="M359.321 157.458C358.483 158.75 357.202 159.689 355.718 160.099C354.517 160.451 353.268 160.61 352.017 160.568C346.131 160.432 339.271 156.866 335.137 152.103C334.284 151.139 333.539 150.084 332.916 148.957C331.201 145.823 331.09 143.034 332.312 141.036C333.533 139.037 336.013 137.84 339.616 137.926C344.935 138.299 349.984 140.405 353.991 143.923C354.225 144.108 354.435 144.305 354.645 144.49C356.016 145.718 357.216 147.125 358.211 148.673C358.396 148.957 358.568 149.241 358.729 149.537C359.956 151.458 360.398 153.777 359.963 156.015V156.015C359.823 156.526 359.607 157.012 359.321 157.458V157.458Z" fill="#575756"/>
<path d="M364.43 149.074L359.322 157.489L358.569 157.378L349.278 155.934L348.341 155.12L343.615 150.974L340.53 148.198L335.052 143.398L332.362 141.041L336.853 132.232C337.654 130.683 338.787 129.33 340.172 128.271L342.8 126.26L343.121 126.013C343.428 125.762 343.72 125.494 343.997 125.211C344.646 124.559 345.218 123.835 345.7 123.052L347.255 120.473C348.584 118.292 350.59 116.606 352.968 115.673L356.274 114.378C356.815 114.164 357.372 113.995 357.94 113.872L362.394 112.848L363.752 112.539H363.9L365.652 115.143L368.28 115.661L369.403 115.883L369.563 116.907L370.131 120.362C370.248 121.079 370.298 121.806 370.279 122.533L370.081 130.887C370.013 132.489 369.614 134.06 368.909 135.501L367.367 138.796C366.86 139.865 366.518 141.005 366.355 142.177L366.034 144.546C365.819 146.15 365.273 147.692 364.43 149.074V149.074Z" fill="#575756"/>
<path d="M374.991 109.702L372.129 112.404L369.784 115.292L369.34 115.847L368.6 116.748L368.131 117.34L366.515 117.18H366.342L364.318 116.982L363.812 114.959L363.455 113.54C363.551 113.215 363.629 112.886 363.689 112.552C363.689 112.293 363.8 111.997 363.849 111.676C364.343 108.851 365.083 103.928 365.083 103.928L367.551 105.84L370.253 104.841L371.573 107L372.129 107.925L374.991 109.702Z" fill="#575756"/>
<path d="M369.501 116.873L368.6 116.75C368.156 116.688 367.7 116.602 367.255 116.503C366.747 116.392 366.248 116.244 365.762 116.059C365.054 115.802 364.395 115.426 363.813 114.948C363.341 114.577 362.946 114.115 362.653 113.591C362.516 113.358 362.408 113.11 362.332 112.851L363.69 112.542C363.69 112.283 363.801 111.987 363.85 111.666C364.332 112.305 364.897 112.877 365.528 113.369L365.614 113.443C366.514 114.132 367.529 114.654 368.613 114.985L369.032 115.109C369.279 115.109 369.538 115.22 369.785 115.294L369.341 115.849L369.501 116.873Z" fill="#3C3C3B"/>
<path opacity="0.2" d="M364.43 149.091L359.322 157.506C358.484 158.797 357.202 159.736 355.719 160.146C354.518 160.499 353.268 160.657 352.017 160.615C346.132 160.479 339.272 156.914 335.138 152.151L339.025 152.681L344.738 156.149L348.353 155.137L350.179 154.619L346.884 152.62L352.091 153.101L354.214 149.609L358.211 148.721L359.68 148.4L362.9 144.698L358.557 142.921L363.357 141.552L359.84 141.169L357.372 139.676L354.769 136.444L358.051 138.554L360.692 139.393L365.393 138.159L364.072 135.518L366.54 132.989L367.54 130.62L362.394 126.918L366.639 127.35L365.207 125.758L367.268 124.401L366.256 119.379L363.011 118.281L361.506 116.492L363.32 116.936L366.293 117.183H366.466L367.206 116.504L368.169 115.628L369.723 113.062L367.404 111.655L370.994 111.359L374.03 109.15L374.943 109.706L372.08 112.408L369.736 115.295L369.292 115.85L369.452 116.874L370.02 120.329C370.137 121.047 370.186 121.774 370.168 122.501L369.97 130.854C369.943 132.466 369.582 134.054 368.909 135.518L367.367 138.813C366.859 139.882 366.518 141.022 366.355 142.193L366.034 144.562C365.819 146.167 365.273 147.709 364.43 149.091V149.091Z" fill="#1D1D1B"/>
<path opacity="0.2" d="M334.99 143.395L337.408 149.354L340.579 150.057L344.749 153.154L342.43 148.651L338.407 147.713L334.99 143.395Z" fill="#1D1D1B"/>
<path opacity="0.2" d="M344.503 147.062L346.625 150.986L352.165 150.394L347.292 148.975L344.503 147.062Z" fill="#1D1D1B"/>
<path opacity="0.2" d="M352.597 144.034L356.101 144.799L357.668 146.379L360.111 144.886L357.372 144.516L356.212 143.701L352.597 144.034Z" fill="#1D1D1B"/>
<path opacity="0.2" d="M352.018 132.695L344.935 127.142L343.06 126.007C343.366 125.756 343.659 125.488 343.936 125.205L346.49 125.81L352.018 132.695Z" fill="#1D1D1B"/>
<path opacity="0.2" d="M347.463 124.748L350.622 125.131L352.534 127.833L355.236 128.709L352.522 128.758L350.066 126.031L347.463 124.748Z" fill="#1D1D1B"/>
<path opacity="0.2" d="M366.07 106.145L365.836 108.884L366.391 110.39L365.428 113.721L367.97 110.18L367.033 108.144L368.624 106.7H367.168L366.268 105.824L366.07 106.145Z" fill="#1D1D1B"/>
<path opacity="0.2" d="M372.105 107.937L370.217 109.072L371.5 106.975L372.055 107.9L372.105 107.937Z" fill="#1D1D1B"/>
<path d="M334.174 156.456L337.506 158.357C337.998 158.64 338.571 158.753 339.134 158.677L341.972 158.295C342.737 158.295 343.021 157.444 342.528 157.184C343.638 157.271 343.835 156.185 343.12 155.951C343.835 156.062 344.44 154.852 343.539 154.643C344.07 154.643 344.317 153.347 343.07 153.409C341.614 153.552 340.147 153.552 338.69 153.409L335.433 152.348C333.508 152.681 333.36 154.235 334.174 156.456Z" fill="#FFBB7D"/>
<path d="M340.143 150.689C341.019 150.973 340.464 151.849 340.143 152.232C339.788 152.551 339.367 152.787 338.909 152.923C338.506 153.101 338.141 153.357 337.836 153.675C337.463 153.981 337.027 154.199 336.56 154.314C336.092 154.43 335.605 154.439 335.133 154.342C334.952 154.313 334.778 154.243 334.627 154.139C334.475 154.034 334.349 153.897 334.257 153.737C334.169 153.591 334.136 153.418 334.166 153.25C334.195 153.082 334.285 152.931 334.418 152.824C336.293 150.554 338.317 152.244 340.143 150.689Z" fill="#FFBB7D"/>
<path d="M370.908 123.143L369.612 123.525C368.958 123.821 368.86 124.623 369.538 124.759C368.835 125.24 368.934 125.697 369.353 126.141C368.687 126.758 368.934 127.264 369.514 127.683C368.736 128.3 369.242 128.917 369.748 128.917H370.353C371.007 128.72 371.87 124.784 370.908 123.143Z" fill="#FFBB7D"/>
<path d="M356.114 230.731C356.114 233.766 354.103 236.814 350.093 239.121C344.504 242.354 336.521 243.341 329.438 242.058C326.484 241.575 323.636 240.581 321.023 239.121C317.013 236.814 315.002 233.766 315.002 230.731C315.004 230.35 315.037 229.971 315.101 229.596C315.376 228.101 316.054 226.71 317.062 225.573C317.409 225.157 317.788 224.769 318.198 224.413C319.058 223.63 320.001 222.943 321.011 222.365C328.414 218.121 339.901 217.763 347.959 221.292C348.699 221.625 349.402 221.983 350.081 222.365C352.629 223.657 354.629 225.82 355.72 228.46C355.969 229.192 356.102 229.958 356.114 230.731V230.731Z" fill="#706F6F"/>
<path d="M356.114 230.758L347.157 234.46L343.899 235.804L329.413 233.226L327.637 232.905L315.002 230.758L315.101 229.623L315.569 224.157L315.878 220.455L316.273 215.988C316.322 215.331 316.322 214.671 316.273 214.014L315.903 207.771C315.779 205.721 316.125 203.67 316.914 201.774L319.814 194.754L319.925 194.494C320.105 194.067 320.261 193.631 320.394 193.187L320.628 192.397L321.751 188.695C322.441 186.326 323.769 184.192 325.588 182.526L328.18 180.157L329.586 178.861L329.71 178.75L330.746 177.812L331.869 178.331L332.19 178.479L334.3 179.441L334.448 179.515L334.904 179.343L337.1 178.54L339.099 177.812L341.283 179.762L343.591 181.823C346.249 184.196 347.866 187.52 348.094 191.077L348.341 194.963C348.5 197.475 349.355 199.893 350.809 201.947L351.117 202.379C351.505 202.933 351.851 203.514 352.154 204.119C352.252 204.291 352.339 204.464 352.425 204.649C353.222 206.402 353.642 208.301 353.659 210.226V215.273C353.657 216.026 353.723 216.777 353.856 217.518L355.707 228.5L356.114 230.758Z" fill="#575756"/>
<path d="M341.691 167.677L339.914 171.995L339.137 177.721L338.803 180.188L336.743 181.175L336.336 181.373L334.324 182.348L333.004 181.521L330.08 179.707C330.01 179.419 329.924 179.134 329.821 178.856C329.8 178.789 329.775 178.723 329.747 178.658C328.784 175.931 326.045 169.688 326.045 169.688L329.117 167.985L330.524 167.22L332.609 167.899L333.843 168.294L336.311 166.48L336.57 166.295L341.691 167.677Z" fill="#575756"/>
<path d="M341.332 179.679C339.9 180.48 338.344 181.035 336.729 181.32L336.334 181.382C335.234 181.567 334.115 181.616 333.003 181.53C332.645 181.53 332.275 181.468 331.917 181.419C330.595 181.265 329.328 180.805 328.215 180.074L329.622 178.779C329.683 178.818 329.75 178.847 329.819 178.865C330.816 179.263 331.88 179.464 332.954 179.457C333.416 179.462 333.878 179.429 334.335 179.359L334.94 179.26C335.682 179.118 336.409 178.907 337.112 178.631C337.802 178.372 338.478 178.076 339.135 177.742L341.332 179.679Z" fill="#3C3C3B"/>
<path opacity="0.2" d="M356.113 230.745C356.113 233.781 354.102 236.828 350.092 239.136C344.502 242.368 336.519 243.355 329.437 242.072L331.349 239.469L343.565 238.001L347.155 234.459L349.5 232.127C349.5 232.127 345.884 229.191 347.168 228.648C348.451 228.105 349.463 224.206 349.463 224.206L345.193 222.836L347.933 221.245L349.463 220.356V211.805L346.39 216.235L340.566 214.705L337.815 217.271L339.456 212.78H345.23C345.23 212.78 350.277 206.611 351.4 206.216C351.733 206.08 351.671 205.624 351.4 205.068C351.326 204.908 351.252 204.748 351.165 204.587C350.679 203.723 350.127 202.898 349.512 202.12L344.465 203.501L345.243 199.158L340.579 200.75L345.243 193.199V187.029L340.579 182.402C339.199 182.743 337.865 183.248 336.606 183.908C336.421 184.117 336.532 182.933 336.741 181.366C336.736 181.321 336.736 181.275 336.741 181.23C336.852 180.416 336.988 179.527 337.112 178.676C337.112 178.676 337.112 178.565 337.112 178.503C337.371 176.85 337.605 175.468 337.605 175.468H335.532L337.605 171.26L336.371 166.535L336.63 166.35L341.726 167.732L339.949 172.05L339.172 177.775L341.356 179.725L343.663 181.785C346.321 184.159 347.939 187.483 348.167 191.039L348.414 194.926C348.573 197.438 349.427 199.856 350.882 201.91L351.19 202.342C351.578 202.895 351.924 203.477 352.226 204.081C352.325 204.254 352.412 204.427 352.498 204.612C353.296 206.364 353.716 208.264 353.732 210.189V215.236C353.73 215.989 353.796 216.74 353.929 217.481L355.78 228.463C356.01 229.201 356.122 229.972 356.113 230.745V230.745Z" fill="#1D1D1B"/>
<path opacity="0.2" d="M335.31 212.518L339.222 209.705L343.738 210.31L347.723 206.164L343.256 207.62L338.975 207.386L335.31 212.518Z" fill="#1D1D1B"/>
<path opacity="0.2" d="M328.697 194.168H322.096L319.85 194.662L319.961 194.402C320.141 193.975 320.298 193.539 320.43 193.095L320.665 192.305L323.453 191.602L325.65 193.07L328.697 194.168Z" fill="#1D1D1B"/>
<path opacity="0.2" d="M324.183 188.683L328.711 191.607L332.129 190.139L335.559 191.607L331.882 187.572L329.192 189.596L324.183 188.683Z" fill="#1D1D1B"/>
<path opacity="0.2" d="M321.245 229.907L329.87 230.722L333.893 229.907L336.41 231.524L341.691 229.611L336.78 233.449L332.14 232.474L328.71 233.449L321.245 229.907Z" fill="#1D1D1B"/>
<path opacity="0.2" d="M325.528 227.685C325.651 228.179 318.557 226.957 318.557 226.957L317.076 225.526L315.583 224.082L315.891 220.381L318.211 224.366L318.433 224.761C318.433 224.761 325.405 227.204 325.528 227.685Z" fill="#1D1D1B"/>
<path opacity="0.2" d="M333.893 173.158L332.227 178.389L332.005 179.093L331.906 178.241L331.462 174.317L329.87 171.566L329.167 167.988L330.573 167.223L332.659 167.889L332.005 170.591L333.893 173.158Z" fill="#1D1D1B"/>
<path d="M387.776 237.152C387.722 239.147 386.936 241.053 385.567 242.507C384.47 243.719 383.182 244.745 381.754 245.542C375.129 249.379 365.085 250.046 357.274 247.541C355.679 247.046 354.144 246.376 352.697 245.542C348.674 243.222 346.663 240.187 346.663 237.152C346.663 234.116 348.674 231.081 352.697 228.761C358.113 225.627 365.813 224.615 372.71 225.714L373.821 225.911C376.174 226.349 378.457 227.104 380.607 228.157C381.002 228.342 381.384 228.552 381.754 228.761C384.407 230.079 386.456 232.361 387.48 235.14V235.14C387.675 235.793 387.775 236.47 387.776 237.152V237.152Z" fill="#575756"/>
<path d="M387.775 224.377V237.173L386.862 237.555L375.56 242.231L373.98 241.948L365.923 240.541L360.581 239.616L351.253 237.975L346.675 237.173L345.762 224.365C345.591 222.101 345.933 219.828 346.761 217.714L348.328 213.704C348.403 213.545 348.465 213.38 348.513 213.211C348.689 212.727 348.833 212.232 348.945 211.73C349.231 210.571 349.376 209.382 349.377 208.189V204.277C349.374 200.957 350.462 197.727 352.474 195.085L355.263 191.383C355.721 190.779 356.224 190.21 356.768 189.681L361.037 185.547L362.333 184.313L362.481 184.178L366.182 185.88L369.44 184.647L370.834 184.141L371.722 185.177L374.671 188.632C375.291 189.344 375.837 190.117 376.3 190.939L381.729 200.354C382.776 202.186 383.432 204.215 383.654 206.313L384.16 211.014C384.321 212.545 384.712 214.042 385.32 215.456L386.554 218.307C387.379 220.223 387.795 222.291 387.775 224.377V224.377Z" fill="#575756"/>
<path d="M372.906 173.513L371.549 178.448L370.907 183.236L370.772 184.161L370.574 185.666L370.438 186.641L368.538 187.554H368.427H368.353L365.96 188.689L364.047 186.801L362.677 185.456C362.572 185.036 362.436 184.623 362.27 184.223C362.147 183.902 362.023 183.544 361.863 183.149C360.506 179.67 357.939 173.747 357.939 173.747L361.949 174.216L364.269 171.279L367.193 172.797L368.427 173.439L372.906 173.513Z" fill="#575756"/>
<path d="M371.673 185.217L370.588 185.686C370.032 185.908 369.489 186.13 368.922 186.315C368.282 186.537 367.626 186.71 366.96 186.833C366.004 187.016 365.025 187.046 364.06 186.92C363.281 186.816 362.528 186.57 361.839 186.192C361.531 186.027 361.245 185.824 360.988 185.587L362.284 184.353C362.16 184.033 362.037 183.675 361.876 183.28C362.844 183.659 363.855 183.912 364.887 184.033H365.035C366.494 184.196 367.97 184.091 369.391 183.724C369.579 183.686 369.764 183.637 369.946 183.576L370.921 183.268L370.785 184.193L371.673 185.217Z" fill="#3C3C3B"/>
<path opacity="0.2" d="M387.776 224.356V237.151C387.722 239.147 386.936 241.053 385.567 242.506C384.47 243.719 383.182 244.744 381.754 245.541C375.129 249.379 365.085 250.045 357.274 247.54L361.963 245.504H370.6L373.932 241.926L375.61 240.125H370.6L376.77 237.151V231.845L380.619 228.144L382.026 226.786L383.136 220.543L377.14 221.518L381.545 216.755L377.387 218.717H373.685L368.614 216.878L373.685 217.002L377.177 216.15L381.582 211.622L378.275 209.549L379.373 205.021L378.88 201.714L370.699 201.11L375.708 198.728L372.982 197.889L374.364 195.002L369.835 190.066L365.492 191.041L362.629 190.066L364.949 189.338L368.429 187.599H368.503H368.614L368.984 186.365L369.453 184.736V180.763H365.936L369.712 178.011L371.6 173.508H372.908L371.55 178.443L370.909 183.231L370.773 184.156L371.661 185.193L374.61 188.647C375.23 189.359 375.776 190.132 376.239 190.955L381.668 200.369C382.715 202.201 383.37 204.231 383.593 206.329L384.099 211.03C384.26 212.56 384.651 214.058 385.259 215.472L386.493 218.322C387.334 220.223 387.771 222.277 387.776 224.356V224.356Z" fill="#1D1D1B"/>
<path opacity="0.2" d="M351.239 237.951L357.964 242.936L361.962 241.591L368.686 242.208L363.06 238.778L357.964 240.444L351.239 237.951Z" fill="#1D1D1B"/>
<path opacity="0.2" d="M364.282 235.623L369.304 238.559L375.054 234.154L368.687 235.869L364.282 235.623Z" fill="#1D1D1B"/>
<path opacity="0.2" d="M371.253 226.813L375.658 225.295L378.471 225.986L380.186 222.68L376.879 224.123L375.053 224L371.253 226.813Z" fill="#1D1D1B"/>
<path opacity="0.2" d="M362.95 214.562L351.327 213.18H348.477C348.652 212.696 348.797 212.201 348.909 211.699L352.154 210.65L362.95 214.562Z" fill="#1D1D1B"/>
<path opacity="0.2" d="M352.523 208.821L356.274 207.105L360.234 208.821L363.837 207.969L360.839 209.857L356.274 208.487L352.523 208.821Z" fill="#1D1D1B"/>
<path opacity="0.2" d="M360.618 175.575L362.209 178.783L363.838 180.078L365.023 184.422L365.454 178.783L363.036 177.166L363.838 174.477L362.209 175.451L360.618 175.081V175.575Z" fill="#1D1D1B"/>
<path opacity="0.2" d="M368.539 173.511L367.218 176.053V172.869L368.465 173.511H368.539Z" fill="#1D1D1B"/>
<path d="M358.915 251.033C358.915 251.359 358.891 251.685 358.841 252.008C358.459 254.71 356.472 257.35 352.894 259.411C344.874 264.05 331.857 264.05 323.824 259.411L323.54 259.238C319.691 256.943 317.778 253.932 317.803 250.947C317.828 247.961 319.839 244.925 323.824 242.63C324.797 242.071 325.812 241.588 326.859 241.187C327.411 240.965 327.978 240.767 328.562 240.594C328.957 240.459 329.352 240.348 329.796 240.249C334.206 239.111 338.797 238.851 343.307 239.484V239.484C344.171 239.607 345.022 239.768 345.849 239.953C348.02 240.423 350.122 241.17 352.104 242.174L352.931 242.63C356.867 244.95 358.915 248.035 358.915 251.033Z" fill="#706F6F"/>
<path d="M358.916 237.651V251.014L348.44 255.345L346.7 256.06L333.769 253.802L329.624 253.074L317.803 251.014V250.94L316.705 236.615C316.633 235.693 316.666 234.765 316.804 233.851L318.038 225.214C318.28 223.586 318.842 222.022 319.691 220.611L322.27 216.342C322.983 215.164 323.496 213.875 323.787 212.529L323.997 211.493L324.577 208.828C325.082 206.455 326.275 204.283 328.007 202.584C328.303 202.301 328.599 202.017 328.92 201.758L331.894 199.364L333.301 198.229H333.375L333.535 198.105L334.596 198.599L337.237 199.833L341.025 198.451L341.888 198.13L343.233 199.364L346.935 202.794C348.213 203.987 349.23 205.432 349.921 207.039L353.005 214.331C353.401 215.252 353.683 216.217 353.844 217.206L355.214 225.757C355.381 226.78 355.676 227.779 356.09 228.73L357.855 232.802C358.533 234.33 358.894 235.979 358.916 237.651Z" fill="#706F6F"/>
<path d="M344.701 189.079L342.493 193.94L341.95 197.975L341.641 200.233V200.443L339.865 201.306L337.162 202.54L334.991 200.406L333.88 199.295C333.787 198.9 333.663 198.512 333.51 198.135C333.51 198.135 333.51 198.135 333.51 198.037C332.461 195.248 329.809 189.399 329.809 189.399L332.955 187.45L333.054 187.388H336.299L336.57 187.327L340.272 186.463L343.973 188.474L344.701 189.079Z" fill="#706F6F"/>
<path d="M343.294 199.291C343.214 199.379 343.127 199.462 343.035 199.538C342.624 199.88 342.15 200.14 341.64 200.303C341.298 200.422 340.947 200.516 340.592 200.586H340.271C338.513 200.905 336.71 200.872 334.965 200.488C334.167 200.314 333.386 200.066 332.633 199.747C332.382 199.647 332.152 199.5 331.955 199.315L333.361 198.18H333.46C333.842 198.291 334.237 198.378 334.694 198.452C335.475 198.597 336.268 198.675 337.063 198.686V198.686C338.421 198.706 339.776 198.532 341.085 198.168C341.391 198.096 341.692 198.006 341.986 197.896V197.896L343.294 199.291Z" fill="#3C3C3B"/>
<path opacity="0.2" d="M358.916 237.664V251.027C358.916 251.353 358.891 251.679 358.842 252.001C358.46 254.704 356.473 257.344 352.895 259.405C344.875 264.044 331.857 264.044 323.825 259.405L323.541 259.232L325.478 258.504L331.648 258.257L340.112 259.725L347.688 256.024L348.404 255.308L350.748 252.964L346.466 252.223L341.704 253.692L333.869 252.964C338.323 251.829 339.125 253.309 342.185 251.73C342.752 251.434 345.738 249.163 345.738 249.163L350.871 249.645L353.561 247.177L352.574 244.487L345.492 245.104L352.031 242.093L354.499 240.946C354.499 240.946 350.711 237.034 350.945 236.664C351.29 235.177 351.537 233.668 351.686 232.148L348.749 226.966L351.686 221.512H347.527L349.995 218.206L346.874 219.649H338.36L346.627 216.713L347.318 215.22L348.823 211.95L346.874 212.431L348.823 208.396L346.257 204.127L339.051 202.671L339.828 201.437L340.26 200.697L341.247 199.056L341.074 198.427V198.316L340.137 194.713L341.876 190.863L343.888 188.691L344.727 189.148L342.518 194.009L341.975 198.044L343.32 199.278L347.022 202.708C348.3 203.901 349.317 205.346 350.008 206.953L353.092 214.245C353.488 215.166 353.769 216.131 353.931 217.12L355.301 225.671C355.468 226.694 355.763 227.693 356.177 228.644L357.941 232.716C358.603 234.281 358.935 235.965 358.916 237.664Z" fill="#1D1D1B"/>
<path opacity="0.2" d="M326.663 215.341L335.102 218.006L345.652 214.428L335.744 216.217L326.663 215.341Z" fill="#1D1D1B"/>
<path opacity="0.2" d="M326.663 212.411L329.057 213.423L335.56 212.411L329.723 212.275L325.479 211.77L326.663 212.411Z" fill="#1D1D1B"/>
<path opacity="0.2" d="M325.479 239.499L335.56 243.164L340.692 241.325L343.987 242.251L348.577 236.562L342.617 239.857H338.36L335.56 241.325L325.479 239.499Z" fill="#1D1D1B"/>
<path opacity="0.2" d="M322.627 245.721L326.119 248.016L330.524 247.374L322.627 245.721Z" fill="#1D1D1B"/>
<path opacity="0.2" d="M337.026 198.05L337.212 193.954L332.868 191.289V187.612L332.967 187.55H336.2L336.484 187.488L335.891 189.944L338.927 191.646L337.026 198.05Z" fill="#1D1D1B"/>
<path d="M248.11 234.578C249.24 235.253 250.297 235.868 251.316 236.42C253.132 237.429 255.03 238.28 256.991 238.963C259.988 239.884 261.536 239.184 261.818 237.735C262.048 235.747 261.877 233.734 261.315 231.814L261.069 230.217L260.541 226.925L253.994 226.508H253.92L254.031 227.147L254.424 229.603L254.51 230.131H254.006L251.771 230.279L250.37 230.131C249.915 230.065 249.451 230.116 249.021 230.279C248.591 230.443 248.21 230.713 247.914 231.065C247.692 231.306 247.521 231.59 247.411 231.899C247.3 232.208 247.253 232.535 247.271 232.863C247.29 233.19 247.373 233.511 247.517 233.805C247.662 234.1 247.863 234.362 248.11 234.578V234.578Z" fill="#1D1D1B"/>
<path d="M230.509 243.939C233.313 245.709 236.294 247.182 239.402 248.337C240.356 248.666 241.37 248.787 242.375 248.693C242.814 248.671 243.234 248.504 243.568 248.217C243.902 247.93 244.13 247.54 244.217 247.108C244.447 245.121 244.276 243.108 243.714 241.188V236.692L240.606 236.336L236.774 235.869L236.884 238.78V239.591L234.145 239.775L232.732 239.628C232.275 239.564 231.809 239.619 231.379 239.787C230.949 239.955 230.569 240.23 230.276 240.586C229.881 241.07 229.686 241.686 229.729 242.309C229.773 242.932 230.051 243.515 230.509 243.939V243.939Z" fill="#1D1D1B"/>
<path d="M233.911 210.858C233.911 210.981 233.911 211.214 233.911 211.534C234.133 215.513 235.422 233.521 235.484 236.444C235.54 236.905 235.69 237.35 235.925 237.751C236.159 238.153 236.473 238.502 236.847 238.778C238.048 239.728 239.49 240.323 241.011 240.497C241.91 240.624 242.827 240.522 243.677 240.203C244.237 239.991 244.721 239.615 245.065 239.124C245.409 238.633 245.597 238.05 245.605 237.451C244.745 218.891 245.937 230.536 245.04 211.767L246.932 201.941L248.16 195.209L249.388 188.798L250.776 181.428L250.899 180.875L248.381 181.096H247.976L246.563 181.207L240.323 181.735L238.96 181.858L237.732 181.968H237.302H236.577L236.491 182.779L236.43 183.307V183.676V184.032V184.388V184.744V185.1V185.801L236.184 188.405L234.12 209.937C234.027 210.238 233.957 210.546 233.911 210.858Z" fill="#3CA573"/>
<path d="M244.413 182.002L244.561 183.046L245.347 189.262L246.096 195.121L246.956 201.889L247.754 208.178C248.467 211.863 249.806 220.522 252.299 227.266C252.618 228.194 253.253 228.981 254.092 229.489C254.191 229.578 254.298 229.656 254.412 229.722C256.426 230.951 259.325 231.344 261.057 230.226C261.622 229.816 262.052 229.245 262.291 228.589C262.529 227.932 262.566 227.219 262.396 226.541C261.868 224.084 259.313 209.664 258.244 204.616L257.63 192.332C257.667 192.167 257.691 191.998 257.704 191.829C257.871 190.858 257.982 189.877 258.035 188.893V188.758C258.035 188.476 258.035 188.205 258.035 187.923C258.035 187.64 258.035 187.567 258.035 187.407C258.035 186.891 258.035 186.387 258.035 185.872C258.035 185.356 258.035 184.643 257.925 183.98C257.925 183.796 257.925 183.611 257.925 183.427C257.925 182.948 257.851 182.506 257.79 182.039C257.639 180.836 257.401 179.646 257.077 178.477C256.979 178.121 256.868 177.765 256.758 177.445L254.94 178.121L254.584 178.256L252.643 178.968L252.446 179.042L248.209 180.614L246.612 181.216L244.413 182.002Z" fill="#3CA573"/>
<path opacity="0.3" d="M247.951 231.223C247.543 231.698 247.333 232.312 247.363 232.937C247.392 233.563 247.66 234.153 248.11 234.588C249.24 235.264 250.297 235.878 251.316 236.431C252.497 234.52 253.402 232.453 254.006 230.289L251.771 230.437L250.371 230.289C249.921 230.229 249.464 230.284 249.041 230.447C248.618 230.61 248.243 230.877 247.951 231.223V231.223Z" fill="#1D1D1B"/>
<path opacity="0.15" d="M240.606 236.303C240.644 237.701 240.792 239.093 241.048 240.467C241.685 243.163 242.128 245.901 242.374 248.66C242.814 248.639 243.234 248.471 243.568 248.184C243.902 247.897 244.13 247.507 244.217 247.076C244.447 245.088 244.275 243.075 243.713 241.155V240.173C244.271 239.96 244.752 239.586 245.096 239.098C245.44 238.61 245.63 238.03 245.642 237.433C244.782 218.861 245.973 230.506 245.089 211.737L246.968 201.911L247.767 208.187C248.479 211.872 249.818 220.544 252.312 227.288C252.633 228.217 253.267 229.007 254.105 229.523V229.437C254.105 228.7 254.105 227.951 254.031 227.214V226.575C253.81 223.271 253.331 219.979 253.11 216.687C252.373 206.468 252.287 200.154 254.584 189.664L254.694 189.148C254.694 189.284 254.584 189.419 254.522 189.554C253.159 192.797 250.838 194.786 248.283 195.179C247.577 195.315 246.851 195.315 246.145 195.179V195.179C245.46 195.049 244.803 194.8 244.205 194.442C245.114 200.105 242.976 203.962 241.957 207.893C241.523 209.134 241.336 210.448 241.404 211.762C241.527 212.916 243.001 219.807 242.018 224.45C241.062 228.328 240.587 232.309 240.606 236.303Z" fill="#1D1D1B"/>
<path opacity="0.15" d="M236 188.488C239.061 189.203 242.21 189.468 245.347 189.274C246.733 189.201 248.113 189.028 249.474 188.758C252.465 188.21 255.36 187.233 258.072 185.859C258.072 185.233 258.072 184.631 257.962 183.968C257.962 183.783 257.962 183.599 257.962 183.415C257.962 182.936 257.888 182.494 257.827 182.027C257.676 180.824 257.438 179.633 257.114 178.465C255.567 178.637 254.019 178.833 252.484 179.018L248.246 180.59L246.649 181.192L240.409 181.72L239.046 181.843L237.818 181.953H237.388H236.663L236.577 182.764L236.515 183.292V183.661V184.017V184.373V184.729V185.085V185.786L236 188.488Z" fill="#1D1D1B"/>
<path d="M218.852 166.367C218.852 168.516 220.08 170.678 222.537 172.508C222.905 172.766 223.286 173 223.691 173.245C225.608 174.311 227.681 175.069 229.833 175.493C230.885 175.716 231.953 175.864 233.026 175.935C233.756 176.026 234.49 176.067 235.225 176.058C236.987 176.083 238.747 175.939 240.482 175.628C242.88 175.223 245.193 174.418 247.324 173.245C248.6 172.541 249.734 171.604 250.665 170.482C251.487 169.498 252.011 168.301 252.176 167.03C252.188 166.826 252.188 166.621 252.176 166.416L252.102 165.495C252.079 165.307 252.038 165.122 251.979 164.942C251.703 163.932 251.198 163 250.505 162.215C250.225 161.879 249.921 161.563 249.596 161.269C249.516 161.193 249.43 161.123 249.338 161.061C248.711 160.512 248.027 160.03 247.299 159.623C243.9 157.796 240.104 156.83 236.245 156.811C235.753 156.811 235.286 156.811 234.795 156.811H234.328C233.776 156.811 233.211 156.811 232.658 156.933L231.995 157.007C229.736 157.263 227.526 157.847 225.435 158.739L224.502 159.181C224.228 159.314 223.961 159.461 223.703 159.623C221.646 160.664 220.029 162.407 219.146 164.537C219.148 164.565 219.148 164.594 219.146 164.623C218.959 165.185 218.859 165.774 218.852 166.367V166.367Z" fill="#706F6F"/>
<path d="M218.852 166.365L226.148 169.362L228.789 170.443L240.568 168.391L242.018 168.133L252.274 166.34L252.188 165.419L251.808 160.972L251.55 157.963L251.23 154.278C251.193 153.742 251.193 153.205 251.23 152.669L251.537 147.596C251.64 145.917 251.359 144.237 250.714 142.683L248.356 136.983L248.258 136.775C248.123 136.418 247.987 136.062 247.889 135.706L247.693 135.055L246.784 132.009C246.22 130.096 245.14 128.375 243.664 127.034L241.551 125.093L240.409 124.049L240.298 123.951L239.475 123.189L238.554 123.607L238.284 123.73L236.576 124.516L236.454 124.577L236.085 124.43L234.267 123.914L232.634 123.312L230.865 124.909L228.985 126.58C226.819 128.505 225.496 131.205 225.301 134.097L225.104 137.254C224.969 139.301 224.267 141.27 223.077 142.941L222.832 143.297C222.517 143.744 222.234 144.211 221.984 144.697C221.91 144.845 221.837 144.992 221.775 145.139C221.131 146.564 220.796 148.109 220.793 149.672V153.774C220.795 154.388 220.741 155.001 220.633 155.605L219.134 164.522L218.852 166.365Z" fill="#3C3C3B"/>
<path d="M230.583 115.109L232.032 118.622L232.659 123.265L232.929 125.268L234.612 126.066L234.943 126.226L236.565 127.012L237.646 126.348L240.029 124.875C240.08 124.64 240.15 124.41 240.237 124.187C240.237 124.125 240.237 124.076 240.237 124.015C241.036 121.804 243.21 116.731 243.21 116.731L240.753 115.343L239.611 114.716L237.953 115.306L236.933 115.638L234.956 114.164L234.747 114.004L230.583 115.109Z" fill="#3C3C3B"/>
<path d="M230.878 124.878C232.026 125.516 233.271 125.964 234.563 126.204H234.882C235.775 126.349 236.682 126.391 237.584 126.327C237.881 126.313 238.176 126.28 238.469 126.229C239.544 126.107 240.575 125.733 241.478 125.136L240.336 124.092L240.176 124.165C239.362 124.483 238.495 124.646 237.621 124.644C237.247 124.647 236.873 124.618 236.503 124.558L236.012 124.472C235.408 124.359 234.816 124.191 234.243 123.969C233.682 123.758 233.132 123.516 232.597 123.244V123.244L230.878 124.878Z" fill="#3C3C3B"/>
<path opacity="0.5" d="M218.853 166.372C218.853 168.521 220.081 170.683 222.537 172.513C222.906 172.771 223.287 173.005 223.692 173.25C225.609 174.316 227.682 175.074 229.834 175.498C230.886 175.721 231.954 175.869 233.027 175.94C233.757 176.031 234.491 176.072 235.226 176.063C236.988 176.088 238.748 175.944 240.483 175.633L238.935 173.508L234.6 172.98L233.654 172.87L230.067 172.44L228.998 172.305L227.07 170.413L226.087 169.43L225.645 169.013L224.171 167.539C224.171 167.539 227.107 165.082 226.063 164.714C225.019 164.345 224.171 161.127 224.171 161.127L227.635 160.009L225.424 158.781L224.736 158.388L224.171 158.056V151.116L225.399 152.836L225.485 152.959L226.075 153.818L226.701 154.715L231.467 153.487L232.475 154.42L233.15 155.047L233.715 155.575L233.384 154.691L232.376 151.915H227.672C227.672 151.915 227.267 151.411 226.677 150.686C225.493 149.18 224.164 147.794 222.709 146.547C222.452 146.449 222.501 146.08 222.709 145.626C222.709 145.503 222.82 145.368 222.894 145.233C223.291 144.523 223.743 143.845 224.245 143.206L228.347 144.311L227.709 140.786L231.504 142.076L227.709 135.934V130.935L229.699 128.97L231.504 127.164C232.598 127.443 233.66 127.834 234.673 128.331L234.735 128.392C234.735 128.392 234.808 128.392 234.808 128.257C234.789 127.612 234.732 126.968 234.636 126.329C234.636 126.329 234.636 126.255 234.636 126.218C234.636 125.813 234.526 125.395 234.464 124.99C234.403 124.585 234.366 124.437 234.329 124.155C234.329 124.155 234.329 124.056 234.329 124.02C234.12 122.668 233.936 121.563 233.936 121.563H235.619L233.936 118.148L234.98 114.304L234.772 114.156L230.632 115.286L232.081 118.799L232.708 123.442L230.939 125.027L229.06 126.71C226.894 128.635 225.57 131.335 225.375 134.227L225.178 137.396C225.039 139.436 224.342 141.399 223.164 143.071L222.906 143.427C222.589 143.872 222.305 144.34 222.058 144.827C221.982 144.971 221.912 145.119 221.85 145.269C221.37 146.319 221.063 147.439 220.941 148.586V148.586C220.891 148.993 220.866 149.404 220.867 149.814V153.917C220.869 154.53 220.815 155.143 220.707 155.747L220.019 159.825V159.96L219.258 164.529V164.677C219.037 165.218 218.901 165.789 218.853 166.372V166.372Z" fill="#1D1D1B"/>
<path opacity="0.2" d="M235.778 151.583L232.597 149.298L228.912 149.802L225.669 146.424L229.317 147.615L232.793 147.406L235.778 151.583Z" fill="#1D1D1B"/>
<path opacity="0.2" d="M241.145 136.67H246.55L248.38 137.076L248.282 136.867C248.147 136.511 248.011 136.154 247.913 135.798L247.717 135.147L245.456 134.582L243.663 135.81L241.145 136.67Z" fill="#1D1D1B"/>
<path opacity="0.2" d="M244.818 132.186L241.145 134.569L238.357 133.377L235.569 134.569L238.554 131.289L240.74 132.935L244.818 132.186Z" fill="#1D1D1B"/>
<path opacity="0.2" d="M247.202 165.694L240.188 166.37L236.921 165.694L234.882 167.021L230.583 165.461L234.587 168.581L238.346 167.782L241.146 168.581L247.202 165.694Z" fill="#1D1D1B"/>
<path opacity="0.2" d="M243.725 163.881C243.626 164.274 249.387 163.279 249.387 163.279L250.616 162.124L251.844 160.896L251.586 157.887L249.707 161.117L249.522 161.449C249.522 161.449 243.823 163.476 243.725 163.881Z" fill="#1D1D1B"/>
<path opacity="0.5" d="M236.921 119.534L238.272 123.784L238.456 124.362L238.542 123.661L238.898 120.48L240.2 118.245L240.765 115.333L239.623 114.707L237.928 115.26L238.456 117.446L236.921 119.534Z" fill="#1D1D1B"/>
<path d="M226.455 152.44L223.704 153.127L221.358 150.511L220.903 148.398L219.528 149.885C218.413 151.893 217.723 154.109 217.501 156.395C218.228 157.924 219.341 159.236 220.731 160.203L224.478 159.367L226.455 152.44Z" fill="#FFBB7D"/>
<path d="M255.419 141.928C258.306 142.702 262.433 144.63 260.799 153.99L258.06 161.36L253.454 146.915L255.419 141.928Z" fill="#3CA573"/>
<path d="M218.913 167.171C218.964 167.843 219.075 168.509 219.245 169.161C219.957 171.396 220.805 172.551 222.586 172.44C223.534 172.33 224.459 172.069 225.325 171.667C225.971 171.294 226.573 170.849 227.118 170.34C227.266 170.217 227.401 170.082 227.536 169.947C229.01 168.387 229.845 166.262 230.766 163.314L231.061 163.474L233.518 164.886L234.746 165.574L235.274 165.881L236.33 156.718L237.325 148.12L232.338 145.823L232.142 145.725C230.998 146.037 229.953 146.637 229.108 147.469C228.685 147.833 228.306 148.245 227.978 148.697C227.522 149.262 227.111 149.861 226.75 150.49C226.34 151.183 225.967 151.897 225.632 152.628L225.558 152.787C225.104 153.758 224.698 154.753 224.33 155.785L223.802 157.16C223.262 156.944 222.668 156.905 222.105 157.048C221.542 157.192 221.039 157.511 220.669 157.959C220.461 158.511 220.276 159.064 220.104 159.605V159.727C219.748 160.842 219.465 161.979 219.257 163.13V163.13C219.066 164.175 218.979 165.237 218.999 166.299C218.949 166.587 218.92 166.879 218.913 167.171V167.171Z" fill="#3CA573"/>
<path d="M242.251 127.251C242.116 127.251 237.337 125.445 237.337 125.445C234.746 123.996 230.569 125.248 229.624 127.509C229.255 128.393 229.796 129.732 231.638 129.842L235.606 130.383L242.251 127.251Z" fill="#43C889"/>
<path d="M232.106 145.776C231.787 147.065 233.678 174.027 236.381 179.542C236.442 179.664 236.52 179.775 236.614 179.874C237.078 180.328 237.63 180.681 238.237 180.912C238.843 181.142 239.491 181.245 240.139 181.212C245.323 181.556 254.093 178.916 257.041 175.255C257.741 174.371 257.68 172.27 257.581 171.3C257.581 157.199 258.625 143.417 254.891 141.587C254.412 141.489 253.589 141.341 252.68 141.206L248.43 140.543C245.848 140.791 243.284 141.201 240.754 141.771C230.583 146.255 232.106 145.776 232.106 145.776Z" fill="#3CA573"/>
<path d="M245.408 132.362C245.501 133.495 245.501 134.633 245.408 135.765C245.319 136.899 244.939 137.991 244.303 138.934C243.542 139.978 242.406 140.687 241.134 140.912C240.729 140.988 240.316 141.013 239.906 140.985C239.507 140.965 239.118 140.86 238.763 140.678C238.218 140.345 237.789 139.852 237.535 139.266V139.266C237.535 139.13 237.412 139.008 237.363 138.885C236.163 135.904 235.489 132.737 235.373 129.525C235.312 129.052 235.312 128.573 235.373 128.1C235.553 127.419 235.918 126.8 236.428 126.312C236.937 125.825 237.571 125.487 238.26 125.336C239.648 125.058 241.087 125.177 242.411 125.68C242.784 125.786 243.137 125.952 243.455 126.172C243.75 126.393 243.984 126.7 244.254 126.933C244.876 128.684 245.264 130.51 245.408 132.362V132.362Z" fill="#FFBB7D"/>
<path opacity="0.1" d="M241.085 138.227C241.171 138.903 241.245 139.579 241.306 140.266C241.332 140.409 241.332 140.554 241.306 140.696C241.28 140.774 241.238 140.845 241.183 140.905C240.779 140.982 240.366 141.007 239.955 140.979C239.557 140.958 239.168 140.854 238.813 140.672C238.267 140.339 237.838 139.846 237.584 139.259V139.259C239.046 140.352 239.746 139.173 239.611 135.574C240.115 137.208 240.876 136.532 241.085 138.227Z" fill="#1D1D1B"/>
<path d="M247.173 131.547L248.429 141.727L240.566 142.696L239.31 132.517L247.173 131.547Z" fill="#FFBB7D"/>
<path d="M247.066 139.997C247.418 140.067 247.739 140.247 247.983 140.51C248.227 140.774 248.382 141.107 248.425 141.464C248.469 141.82 248.399 142.181 248.226 142.495C248.052 142.81 247.784 143.061 247.459 143.215C246.651 143.765 245.724 144.114 244.754 144.234C243.784 144.353 242.8 144.24 241.883 143.903C240.237 143.202 240.052 141.765 241.49 140.684C242.3 140.141 243.227 139.795 244.196 139.676C245.165 139.556 246.148 139.666 247.066 139.997V139.997Z" fill="#FFBB7D"/>
<path d="M237.203 130.063C237.79 130.353 238.297 130.782 238.681 131.313C239.064 131.844 239.311 132.46 239.402 133.109C239.697 134.423 239.66 135.799 239.942 137.113C240.039 137.784 240.29 138.422 240.675 138.979C241.061 139.535 241.572 139.994 242.166 140.319C243.063 140.623 244.026 140.682 244.954 140.491C246.182 140.319 247.791 140.049 248.111 138.857C252.434 123.074 242.817 123.233 241.687 123.27C237.707 123.418 235.029 126.501 235.459 129.338C235.496 129.891 236.724 129.878 237.203 130.063Z" fill="#1D1D1B"/>
<path d="M239.635 132.49C239.432 132.546 239.25 132.662 239.112 132.821C238.975 132.981 238.887 133.178 238.861 133.387C238.769 133.882 238.769 134.39 238.861 134.885C238.907 135.521 239.105 136.136 239.438 136.679C239.532 136.826 239.676 136.936 239.844 136.986C239.979 137.008 240.118 136.99 240.243 136.933C240.367 136.876 240.472 136.783 240.544 136.666C240.673 136.437 240.744 136.18 240.753 135.917C240.802 135.175 240.777 134.431 240.679 133.694C240.645 133.4 240.553 133.116 240.409 132.858C240.322 132.736 240.205 132.639 240.069 132.574C239.934 132.51 239.785 132.481 239.635 132.49Z" fill="#FFBB7D"/>
<path d="M235.84 124.264C236.564 122.692 238.886 121.808 240.753 121.881C244.192 121.881 246.894 122.839 248.196 126.107C248.608 127.015 248.881 127.979 249.007 128.969C249.105 129.607 247.693 130.283 247.079 130.467C238.959 132.924 235.311 129.484 235.324 128.956C235.271 127.376 235.445 125.796 235.84 124.264V124.264Z" fill="#3CA573"/>
<path d="M238.861 131.004L231.614 129.861L235.299 127.822C235.581 129.075 237.363 130.365 238.861 131.004Z" fill="#43C889"/>
<path d="M229.501 180.805C229.935 181.666 230.512 182.447 231.209 183.114C232.627 184.446 234.36 185.396 236.245 185.878C239.094 186.658 242.065 186.895 245.003 186.578C246.69 186.454 248.366 186.199 250.014 185.816L250.984 185.595C253.372 185.095 255.704 184.363 257.949 183.409C260.099 182.365 261.634 180.841 261.634 178.287C260.86 175.498 260.246 166.495 259.3 158.118C258.477 150.748 257.396 143.808 255.726 142.002C255.526 141.758 255.24 141.599 254.927 141.56L254.51 141.474C252.987 141.119 251.445 140.853 249.891 140.676C249.549 140.624 249.205 140.591 248.859 140.577C248.803 140.565 248.744 140.565 248.687 140.577H248.393H248.307C248.252 140.645 248.19 140.706 248.122 140.762C247.567 141.361 246.87 141.813 246.096 142.076C245.254 142.355 244.364 142.464 243.479 142.395C242.507 142.346 241.541 142.21 240.593 141.99H240.409H240.323C237.503 143.079 234.74 144.309 232.044 145.675V145.675L232.191 145.834C232.962 146.738 233.516 147.805 233.813 148.954C233.953 149.451 234.064 149.956 234.144 150.465C234.296 151.391 234.374 152.328 234.378 153.266C234.386 153.951 234.354 154.636 234.279 155.317C234.279 155.808 234.279 156.263 234.279 156.705C234.401 158.766 234.026 160.826 233.186 162.712C233.101 162.915 232.973 163.098 232.811 163.248C232.65 163.398 232.458 163.513 232.249 163.583C232.04 163.654 231.819 163.68 231.599 163.659C231.379 163.638 231.167 163.57 230.975 163.461L230.68 163.301L230.521 165.438L230.177 170.167L230.029 172.329L229.796 175.388L229.501 180.805Z" fill="#F07300"/>
<path opacity="0.15" d="M250.236 146.881C250.002 154.324 253.982 167.025 251.845 182.048C250.715 169.322 249.536 153.305 244.893 148.429C247.165 148.981 249.007 148.49 250.236 146.881Z" fill="#1D1D1B"/>
<path opacity="0.15" d="M218.913 167.16C218.964 167.832 219.075 168.498 219.245 169.15C219.958 171.385 220.805 172.54 222.586 172.429C222.955 172.687 223.335 172.921 223.741 173.166C225.658 174.232 227.73 174.99 229.882 175.414L229.489 180.806C229.923 181.667 230.5 182.448 231.197 183.116C231.921 180.659 232.548 178.202 233.076 175.856C233.309 174.824 233.506 173.805 233.702 172.785C233.899 171.766 234.046 170.882 234.181 169.923C234.181 169.776 234.181 169.629 234.243 169.494L234.39 168.413C234.464 167.897 234.525 167.405 234.587 166.89C234.648 166.374 234.673 166.005 234.697 165.563C234.968 162.615 235.014 159.65 234.832 156.695C234.746 155.54 234.636 154.398 234.476 153.268C234.07 153.634 233.707 154.046 233.395 154.496L233.162 154.852C232.978 155.147 232.781 155.454 232.609 155.786C232.437 156.117 232.216 156.523 232.032 156.903C230.189 160.76 228.58 166.14 225.694 168.929C225.64 168.989 225.582 169.046 225.522 169.101C224.774 169.817 223.857 170.332 222.856 170.599C221.137 170.439 220.105 168.843 219.564 166.644C219.382 165.901 219.255 165.146 219.184 164.384V164.322C219.184 163.954 219.11 163.561 219.098 163.168C218.906 164.213 218.82 165.275 218.84 166.337C218.845 166.612 218.87 166.887 218.913 167.16V167.16Z" fill="#1D1D1B"/>
</svg>
