<svg width="108" height="35" viewBox="0 0 108 35" fill="none" xmlns="http://www.w3.org/2000/svg">
<path d="M80.1491 8.01465L68.2567 34.7301H64.5467L52.7051 8.01465H56.4659L66.4779 30.7685L76.5916 8.01465H80.1491Z" fill="white"/>
<path d="M54.8871 8.01465L42.8895 34.973H39.1466L27.2002 8.01465H30.9943H39.8571H51.2981H54.8871Z" fill="white"/>
<path d="M0 3.88672H8.01463V34.9738H0V3.88672Z" fill="white"/>
<path d="M15.0605 13.6006H27.2039V34.9729H15.0605V13.6006Z" fill="white"/>
<path d="M0 8.01465L0 3.88591L105.89 3.88591V8.01465L0 8.01465Z" fill="white"/>
<path d="M27.21 8.07324V3.90842L53.4484 3.90842V8.07324L27.21 8.07324Z" fill="#817FE7"/>
<path d="M1.69434 34.9766L1.69434 23.076H24.7668V34.9766H1.69434Z" fill="white"/>
<path fill-rule="evenodd" clip-rule="evenodd" d="M62.0927 2.40441V5.61026C62.0927 6.0529 62.4552 6.41172 62.9023 6.41172L70.1883 6.41172C70.6354 6.41172 70.9979 6.0529 70.9979 5.61026V2.40441C70.9979 1.96177 70.6354 1.60295 70.1883 1.60295L62.9023 1.60295C62.4552 1.60295 62.0927 1.96177 62.0927 2.40441ZM60.4736 5.61026C60.4736 6.93817 61.561 8.01465 62.9023 8.01465H70.1883C71.5296 8.01465 72.617 6.93817 72.617 5.61026V2.40441C72.617 1.0765 71.5296 2.19345e-05 70.1883 2.19345e-05H62.9023C61.561 2.19345e-05 60.4736 1.0765 60.4736 2.40441V5.61026Z" fill="#FF9A3E"/>
<path fill-rule="evenodd" clip-rule="evenodd" d="M36.5918 2.40441V5.61026C36.5918 6.0529 36.9542 6.41172 37.4013 6.41172L44.6874 6.41172C45.1345 6.41172 45.4969 6.0529 45.4969 5.61026V2.40441C45.4969 1.96177 45.1345 1.60295 44.6874 1.60295L37.4013 1.60295C36.9542 1.60295 36.5918 1.96177 36.5918 2.40441ZM34.9727 5.61026C34.9727 6.93817 36.06 8.01465 37.4013 8.01465H44.6874C46.0287 8.01465 47.116 6.93817 47.116 5.61026V2.40441C47.116 1.0765 46.0287 2.19345e-05 44.6874 2.19345e-05H37.4013C36.06 2.19345e-05 34.9727 1.0765 34.9727 2.40441V5.61026Z" fill="#817FE7"/>
<path d="M53.4307 8.01465V3.8859L79.6603 3.8859V8.01465L53.4307 8.01465Z" fill="#FF9A3E"/>
<path d="M107.59 8.01465L95.487 34.973H91.7113L79.6602 8.01465H83.4876H93.625H103.969H107.59Z" fill="white"/>
<path d="M79.6621 8.01367H85.7899V34.9997H79.6621V8.01367Z" fill="white"/>
<path d="M101.463 8.0127H107.591V34.9987H101.463V8.0127Z" fill="white"/>
<path fill-rule="evenodd" clip-rule="evenodd" d="M89.2625 2.40441V5.61026C89.2625 6.0529 89.6177 6.41172 90.0559 6.41172L97.1962 6.41172C97.6344 6.41172 97.9896 6.0529 97.9896 5.61026V2.40441C97.9896 1.96177 97.6344 1.60295 97.1962 1.60295L90.0559 1.60295C89.6177 1.60295 89.2625 1.96177 89.2625 2.40441ZM87.6758 5.61026C87.6758 6.93817 88.7414 8.01465 90.0559 8.01465H97.1962C98.5107 8.01465 99.5763 6.93817 99.5763 5.61026V2.40441C99.5763 1.0765 98.5107 2.19345e-05 97.1962 2.19345e-05H90.0559C88.7414 2.19345e-05 87.6758 1.0765 87.6758 2.40441V5.61026Z" fill="#7AE3B1"/>
<path d="M79.6602 8.01465V3.8859L107.59 3.8859V8.01465L79.6602 8.01465Z" fill="#7AE3B1"/>
</svg>
