<svg width="357" height="369" viewBox="0 0 357 369" fill="none" xmlns="http://www.w3.org/2000/svg">
<path d="M331.376 184.087C331.376 214.946 322.225 245.112 305.081 270.77C287.937 296.428 263.569 316.426 235.059 328.235C206.549 340.045 175.178 343.134 144.912 337.114C114.646 331.094 86.8453 316.234 65.0248 294.413C43.2044 272.593 28.3445 244.792 22.3242 214.526C16.304 184.26 19.3938 152.889 31.2029 124.379C43.0121 95.8694 63.0102 71.5016 88.6683 54.3574C114.326 37.2132 144.492 28.0625 175.351 28.0625C195.841 28.0612 216.13 32.096 235.061 39.9366C253.991 47.7771 271.192 59.2698 285.68 73.7582C300.169 88.2467 311.661 105.447 319.502 124.378C327.342 143.308 331.377 163.597 331.376 184.087V184.087Z" stroke="white" stroke-width="2" stroke-miterlimit="10" stroke-dasharray="5.98 5.98"/>
<path d="M92.9611 292.031C92.963 297.65 91.2987 303.143 88.1787 307.817C85.0586 312.49 80.6229 316.134 75.4323 318.286C70.2417 320.439 64.5294 321.004 59.0177 319.91C53.5059 318.817 48.4422 316.113 44.4667 312.142C40.4913 308.171 37.7827 303.11 36.6833 297.599C35.584 292.088 36.1433 286.376 38.2906 281.183C40.4379 275.99 44.0766 271.551 48.7468 268.426C53.417 265.301 58.9089 263.631 64.5282 263.627C68.2607 263.623 71.9573 264.355 75.4068 265.781C78.8562 267.206 81.9909 269.298 84.6315 271.936C87.2721 274.574 89.3669 277.706 90.7962 281.154C92.2254 284.602 92.9611 288.298 92.9611 292.031V292.031Z" fill="#FF9A3E"/>
<path d="M65.4457 275.643C65.4457 275.643 55.4702 288.068 55.4702 295.164C55.4702 302.26 59.9406 307.931 65.4457 307.931C70.9507 307.931 75.4211 302.211 75.4211 295.164C75.4211 288.117 65.4457 275.643 65.4457 275.643ZM63.4935 305.471C62.6541 306.447 60.4091 304.632 58.8279 302.299C57.2467 299.966 56.5244 296.96 57.9494 296.657C59.3745 296.355 58.457 298.014 60.6434 301.538C62.2149 304.134 64.3232 304.476 63.4935 305.501V305.471Z" fill="white"/>
<path d="M325.275 86.2064C325.275 91.8248 323.61 97.3171 320.489 101.989C317.368 106.661 312.932 110.303 307.742 112.454C302.552 114.606 296.84 115.17 291.329 114.076C285.819 112.982 280.756 110.279 276.781 106.308C272.806 102.337 270.098 97.2772 268.998 91.7675C267.898 86.2578 268.457 80.5457 270.603 75.3533C272.749 70.1609 276.386 65.7214 281.055 62.5957C285.724 59.4701 291.214 57.7988 296.833 57.793C300.566 57.7891 304.264 58.5212 307.715 59.9474C311.166 61.3736 314.301 63.4659 316.943 66.1047C319.584 68.7435 321.68 71.8771 323.11 75.3263C324.539 78.7755 325.275 82.4726 325.275 86.2064V86.2064Z" fill="#FF9A3E"/>
<path d="M309.902 86.8902C309.902 89.3381 309.176 91.731 307.816 93.7663C306.457 95.8016 304.524 97.3879 302.262 98.3247C300.001 99.2615 297.512 99.5066 295.111 99.029C292.71 98.5514 290.505 97.3727 288.774 95.6418C287.043 93.9109 285.865 91.7056 285.387 89.3048C284.909 86.904 285.155 84.4154 286.091 82.1539C287.028 79.8924 288.614 77.9595 290.65 76.5995C292.685 75.2395 295.078 74.5137 297.526 74.5137C300.808 74.5137 303.956 75.8176 306.277 78.1387C308.598 80.4597 309.902 83.6078 309.902 86.8902V86.8902Z" fill="white"/>
<path d="M295.71 73.9186H299.351L297.526 67.4961L295.71 73.9186Z" fill="white"/>
<path d="M299.351 99.8926H295.71L297.526 106.325L299.351 99.8926Z" fill="white"/>
<path d="M310.508 85.084V88.7247L316.94 86.9092L310.508 85.084Z" fill="white"/>
<path d="M284.544 88.7247V85.084L278.112 86.9092L284.544 88.7247Z" fill="white"/>
<path d="M305.422 76.4378L307.999 79.0146L311.25 73.1777L305.422 76.4378Z" fill="white"/>
<path d="M289.629 97.3737L287.062 94.7969L283.792 100.634L289.629 97.3737Z" fill="white"/>
<path d="M287.062 79.0146L289.629 76.4378L283.792 73.1777L287.062 79.0146Z" fill="white"/>
<path d="M307.999 94.7969L305.422 97.3737L311.25 100.634L307.999 94.7969Z" fill="white"/>
<path d="M308.76 80.1441L310.185 83.492L315.388 79.2949L308.76 80.1441Z" fill="white"/>
<path d="M286.291 93.6643L284.866 90.3164L279.664 94.5135L286.291 93.6643Z" fill="white"/>
<path d="M310.195 90.2988L308.77 93.6565L315.398 94.4862L310.195 90.2988Z" fill="white"/>
<path d="M284.866 83.5135L286.282 80.1656L279.654 79.3359L284.866 83.5135Z" fill="white"/>
<path d="M301.264 74.3373L304.573 75.8502L305.588 69.252L301.264 74.3373Z" fill="white"/>
<path d="M293.788 99.4738L290.479 97.9609L289.464 104.569L293.788 99.4738Z" fill="white"/>
<path d="M303.89 98.3789L300.483 99.6771L304.495 105.026L303.89 98.3789Z" fill="white"/>
<path d="M291.172 75.442L294.568 74.134L290.566 68.7852L291.172 75.442Z" fill="white"/>
<path d="M81.0334 91.2532C81.0353 96.8714 79.3711 102.364 76.2512 107.036C73.1314 111.708 68.696 115.35 63.5061 117.502C58.3162 119.653 52.6048 120.217 47.0944 119.122C41.584 118.027 36.5221 115.323 32.5488 111.351C28.5755 107.379 25.8693 102.318 24.7726 96.8079C23.6758 91.2978 24.2377 85.5863 26.3872 80.3957C28.5368 75.205 32.1773 70.7684 36.8485 67.6469C41.5197 64.5255 47.0116 62.8594 52.6297 62.8594C60.1611 62.8594 67.3842 65.8505 72.7107 71.1752C78.0371 76.4998 81.0308 83.7218 81.0334 91.2532Z" fill="#FF9A3E"/>
<path d="M63.064 96.2491L68.8716 90.6465L71.8096 98.1525L63.064 96.2491Z" fill="white"/>
<path d="M42.3908 87.4368L36.9541 93.3908L33.5378 86.0898L42.3908 87.4368Z" fill="white"/>
<path d="M39.2575 89.7587C39.7552 86.5551 41.382 83.6351 43.8441 81.526C46.3063 79.4168 49.4414 78.2576 52.6834 78.2576C55.9254 78.2576 59.0605 79.4168 61.5226 81.526C63.9848 83.6351 65.6116 86.5551 66.1092 89.7587H70.0135C69.5091 85.5142 67.4654 81.6022 64.2697 78.7637C61.0739 75.9252 56.948 74.3574 52.6736 74.3574C48.3993 74.3574 44.2734 75.9252 41.0776 78.7637C37.8818 81.6022 35.8381 85.5142 35.3337 89.7587H39.2575Z" fill="white"/>
<path d="M66.0214 94.3945C65.4205 97.491 63.7609 100.282 61.3273 102.289C58.8936 104.295 55.8377 105.393 52.6834 105.393C49.5292 105.393 46.4732 104.295 44.0396 102.289C41.606 100.282 39.9464 97.491 39.3454 94.3945H35.4412C36.0575 98.5346 38.1404 102.315 41.3105 105.049C44.4807 107.782 48.5271 109.285 52.7127 109.285C56.8984 109.285 60.9448 107.782 64.1149 105.049C67.285 102.315 69.368 98.5346 69.9843 94.3945H66.0214Z" fill="white"/>
<path d="M58.613 100.642C58.613 100.642 50.9411 101.267 46.7733 95.6059C43.2497 90.8232 45.5142 82.7608 45.5142 82.7608C45.5142 82.7608 54.8356 82.507 58.2031 86.6651C61.5705 90.8232 60.2821 99.5102 60.2821 99.5102C59.8689 95.9087 58.3517 92.5231 55.9386 89.8178C53.8729 87.5989 51.1241 86.1351 48.13 85.6597C51.0677 86.5954 53.627 88.4499 55.431 90.95C57.9786 94.2199 58.613 100.642 58.613 100.642Z" fill="white"/>
<path d="M56.8268 193.904C56.8287 199.524 55.164 205.018 52.043 209.692C48.9221 214.366 44.4852 218.009 39.2935 220.161C34.1018 222.313 28.3885 222.877 22.8762 221.782C17.3639 220.687 12.3002 217.981 8.32555 214.008C4.35089 210.035 1.64381 204.972 0.546683 199.46C-0.550446 193.948 0.0116636 188.235 2.16192 183.042C4.31218 177.85 7.95399 173.412 12.6268 170.289C17.2995 167.167 22.7934 165.5 28.4134 165.5C35.9474 165.5 43.173 168.492 48.5013 173.819C53.8295 179.145 56.8242 186.37 56.8268 193.904V193.904Z" fill="#7AE3B1"/>
<path d="M14.7483 200.961C14.7483 200.961 10.9905 205.646 10.9905 208.301C10.9905 210.956 12.6693 213.113 14.7483 213.113C16.8274 213.113 18.5062 210.956 18.5062 208.301C18.5062 205.646 14.7483 200.961 14.7483 200.961ZM13.9675 212.195C13.6551 212.586 12.806 211.883 12.2106 211.005C11.6152 210.126 11.3419 208.994 11.8787 208.877C12.4155 208.76 12.0739 209.394 12.8548 210.722C13.4892 211.688 14.2896 211.815 13.9675 212.195Z" fill="white"/>
<path d="M48.3951 183.54H35.1693C34.1867 182.246 32.8201 181.296 31.265 180.826V179.343C32.8463 180.065 33.061 181.012 34.3689 181.012C35.3863 181.012 36.362 180.608 37.0814 179.888C37.8008 179.169 38.2049 178.193 38.2049 177.176C38.2049 176.158 37.8008 175.183 37.0814 174.463C36.362 173.744 35.3863 173.34 34.3689 173.34C33.1255 173.488 31.9829 174.098 31.1674 175.048C30.5037 175.731 29.2153 175.565 27.107 175.048C24.9987 174.531 25.2427 173.34 23.9152 173.34C22.8979 173.34 21.9222 173.744 21.2028 174.463C20.4834 175.183 20.0793 176.158 20.0793 177.176C20.0793 178.193 20.4834 179.169 21.2028 179.888C21.9222 180.608 22.8979 181.012 23.9152 181.012C25.2232 181.012 25.5648 179.919 27.0191 179.343V180.826C25.5378 181.26 24.2239 182.136 23.2526 183.335C22.2813 184.535 21.6987 186.002 21.5824 187.542H17.3853C10.0453 187.542 11.0214 195.711 11.0214 195.711H29.1177C30.5215 195.71 31.8974 195.319 33.093 194.584C34.2887 193.848 35.2573 192.796 35.8916 191.544H48.3951V183.54Z" fill="white"/>
<path d="M23.0352 196.277H11.3223C11.224 196.277 11.1296 196.316 11.0601 196.386C10.9905 196.456 10.9514 196.55 10.9514 196.648C10.9514 196.747 10.9905 196.841 11.0601 196.911C11.1296 196.98 11.224 197.019 11.3223 197.019H23.0352C23.1335 197.019 23.2279 196.98 23.2974 196.911C23.367 196.841 23.4061 196.747 23.4061 196.648C23.4061 196.55 23.367 196.456 23.2974 196.386C23.2279 196.316 23.1335 196.277 23.0352 196.277V196.277Z" fill="white"/>
<path d="M23.0353 197.554H11.3224C11.2356 197.568 11.1567 197.613 11.0997 197.68C11.0427 197.747 11.0115 197.832 11.0115 197.92C11.0115 198.008 11.0427 198.093 11.0997 198.16C11.1567 198.227 11.2356 198.272 11.3224 198.286H23.0353C23.0883 198.294 23.1427 198.291 23.1945 198.277C23.2463 198.263 23.2944 198.237 23.3354 198.202C23.3763 198.168 23.4093 198.124 23.4319 198.075C23.4544 198.027 23.4661 197.974 23.4661 197.92C23.4661 197.866 23.4544 197.813 23.4319 197.764C23.4093 197.715 23.3763 197.672 23.3354 197.637C23.2944 197.602 23.2463 197.577 23.1945 197.562C23.1427 197.548 23.0883 197.545 23.0353 197.554V197.554Z" fill="white"/>
<path d="M23.0352 198.727H11.3223C11.224 198.727 11.1296 198.766 11.0601 198.835C10.9905 198.905 10.9514 198.999 10.9514 199.097C10.9514 199.196 10.9905 199.29 11.0601 199.36C11.1296 199.429 11.224 199.468 11.3223 199.468H23.0352C23.1335 199.468 23.2279 199.429 23.2974 199.36C23.367 199.29 23.4061 199.196 23.4061 199.097C23.4061 198.999 23.367 198.905 23.2974 198.835C23.2279 198.766 23.1335 198.727 23.0352 198.727V198.727Z" fill="white"/>
<path d="M207.21 28.4134C207.21 34.033 205.543 39.5265 202.421 44.199C199.299 48.8716 194.862 52.5134 189.67 54.664C184.478 56.8145 178.765 57.3772 173.253 56.2808C167.742 55.1845 162.679 52.4784 158.705 48.5047C154.731 44.531 152.025 39.4682 150.929 33.9566C149.833 28.4449 150.395 22.7319 152.546 17.5401C154.696 12.3482 158.338 7.91063 163.011 4.78852C167.683 1.66642 173.177 0 178.796 0C182.528 0 186.223 0.734934 189.67 2.16284C193.117 3.59075 196.249 5.68366 198.888 8.32209C201.526 10.9605 203.619 14.0928 205.047 17.5401C206.475 20.9873 207.21 24.6821 207.21 28.4134V28.4134Z" fill="#7AE3B1"/>
<path d="M180.173 14.6579C179.988 14.355 179.728 14.1047 179.419 13.931C179.11 13.7573 178.761 13.666 178.406 13.666C178.051 13.666 177.702 13.7573 177.393 13.931C177.084 14.1047 176.824 14.355 176.639 14.6579L171.076 23.9696L174.736 25.9218L178.406 19.7628L183.286 27.8837L186.751 25.6387L180.173 14.6579Z" fill="white"/>
<path d="M175.468 38.0259H167.396L172.471 29.5146L168.88 27.4746L161.979 39.0606C161.79 39.3732 161.688 39.7304 161.683 40.0955C161.678 40.4607 161.77 40.8206 161.95 41.1384C162.129 41.4563 162.39 41.7206 162.706 41.9043C163.021 42.088 163.38 42.1846 163.745 42.184H175.566L175.468 38.0259Z" fill="white"/>
<path d="M194.706 38.8156L189.153 29.5527L185.561 31.6708L189.465 38.025H180.514V42.144H193.076C193.463 42.1455 193.842 42.0381 194.171 41.8341C194.499 41.63 194.764 41.3377 194.934 40.9904C195.104 40.6431 195.173 40.2549 195.133 39.8703C195.092 39.4857 194.945 39.1202 194.706 38.8156V38.8156Z" fill="white"/>
<path d="M175.195 37.2344L179.274 40.1138L175.087 42.837L175.195 37.2344Z" fill="white"/>
<path d="M175.448 25.9516L171.017 27.855L170.851 23.0234L175.448 25.9516Z" fill="white"/>
<path d="M185.043 32.6771L185.229 27.4746L190.08 29.3487L185.043 32.6771Z" fill="white"/>
<path d="M201.393 340.542C201.395 346.162 199.73 351.657 196.609 356.331C193.488 361.004 189.051 364.648 183.859 366.8C178.668 368.952 172.954 369.516 167.442 368.421C161.93 367.325 156.866 364.62 152.891 360.647C148.917 356.674 146.21 351.611 145.113 346.099C144.015 340.587 144.578 334.873 146.728 329.681C148.878 324.489 152.52 320.05 157.193 316.928C161.865 313.805 167.359 312.139 172.979 312.139C180.513 312.139 187.739 315.131 193.067 320.457C198.395 325.784 201.39 333.008 201.393 340.542V340.542Z" fill="#7AE3B1"/>
<path d="M190.812 325.138H178.289L177.625 323.371H170.646L169.905 325.138H157.304C157.005 325.165 156.728 325.302 156.525 325.524C156.323 325.745 156.211 326.034 156.211 326.333C156.211 326.633 156.323 326.922 156.525 327.143C156.728 327.365 157.005 327.502 157.304 327.529H190.812C191.111 327.502 191.388 327.365 191.59 327.143C191.792 326.922 191.905 326.633 191.905 326.333C191.905 326.034 191.792 325.745 191.59 325.524C191.388 325.302 191.111 325.165 190.812 325.138V325.138Z" fill="white"/>
<path d="M189.465 329.52H158.69C158.346 329.549 158.026 329.706 157.792 329.96C157.559 330.214 157.429 330.546 157.429 330.891C157.429 331.236 157.559 331.568 157.792 331.822C158.026 332.076 158.346 332.233 158.69 332.262H159.207L163.112 359.592H184.585L188.919 332.262H189.465C189.809 332.233 190.129 332.076 190.363 331.822C190.596 331.568 190.726 331.236 190.726 330.891C190.726 330.546 190.596 330.214 190.363 329.96C190.129 329.706 189.809 329.549 189.465 329.52V329.52ZM170.92 341.105L173.331 337.074C173.418 336.935 173.539 336.82 173.682 336.74C173.825 336.66 173.987 336.617 174.151 336.616C174.313 336.618 174.473 336.662 174.614 336.742C174.756 336.822 174.875 336.936 174.961 337.074L178.016 342.14L176.415 343.175L174.151 339.417L172.531 342.13L172.784 342.296L170.735 343.175L170.657 340.94L170.92 341.105ZM172.618 350.095V349.822H167.377C167.211 349.816 167.049 349.767 166.906 349.681C166.764 349.594 166.646 349.473 166.564 349.328C166.482 349.183 166.438 349.02 166.437 348.854C166.436 348.687 166.477 348.523 166.557 348.377L169.749 342.989L171.408 343.965L169.066 347.87H172.657V347.508L174.541 348.836L172.618 350.095ZM180.925 349.773H175.068V347.87H179.197L177.567 345.146L177.186 345.4L177.274 342.999L179.509 343.868L179.168 344.092L181.647 348.241C181.779 348.403 181.852 348.607 181.852 348.816C181.86 349.072 181.767 349.321 181.594 349.509C181.421 349.697 181.18 349.809 180.925 349.822V349.773Z" fill="white"/>
<path d="M356.666 187.63C356.668 193.251 355.003 198.745 351.881 203.42C348.76 208.094 344.322 211.737 339.13 213.889C333.938 216.04 328.224 216.604 322.711 215.508C317.199 214.412 312.135 211.706 308.161 207.731C304.187 203.757 301.48 198.693 300.384 193.181C299.288 187.668 299.852 181.954 302.004 176.762C304.155 171.57 307.799 167.132 312.473 164.011C317.147 160.89 322.642 159.225 328.262 159.227C335.795 159.227 343.02 162.219 348.346 167.546C353.673 172.873 356.666 180.097 356.666 187.63V187.63Z" fill="#7AE3B1"/>
<path d="M339.526 171.905H320.258L318.052 174.375L315.866 174.053L311.962 177.771L313.016 180.046V202.271C313.029 202.793 313.245 203.289 313.619 203.654C313.993 204.019 314.495 204.223 315.017 204.223H339.536C339.796 204.229 340.055 204.184 340.298 204.089C340.54 203.993 340.761 203.851 340.948 203.669C341.134 203.487 341.282 203.269 341.384 203.029C341.485 202.789 341.537 202.531 341.537 202.271V173.916C341.545 173.65 341.498 173.385 341.4 173.137C341.302 172.889 341.154 172.664 340.966 172.476C340.778 172.288 340.553 172.14 340.305 172.042C340.057 171.944 339.792 171.897 339.526 171.905V171.905ZM328.067 200.729C326.413 200.729 324.795 200.238 323.42 199.319C322.044 198.4 320.972 197.093 320.339 195.565C319.706 194.036 319.54 192.354 319.863 190.732C320.186 189.109 320.982 187.619 322.152 186.449C323.322 185.279 324.812 184.482 326.435 184.159C328.058 183.837 329.74 184.002 331.268 184.635C332.797 185.269 334.103 186.341 335.022 187.716C335.941 189.092 336.432 190.709 336.432 192.364C336.432 194.582 335.551 196.71 333.982 198.279C332.413 199.847 330.285 200.729 328.067 200.729V200.729ZM337.828 179.577H318.248L322.211 175.107H336.344C336.734 175.109 337.108 175.265 337.383 175.541C337.659 175.817 337.815 176.19 337.818 176.581L337.828 179.577Z" fill="white"/>
<path d="M328.067 185.238C326.658 185.238 325.28 185.656 324.108 186.439C322.936 187.222 322.023 188.335 321.484 189.637C320.945 190.939 320.804 192.371 321.078 193.754C321.353 195.136 322.032 196.405 323.028 197.402C324.025 198.398 325.295 199.077 326.677 199.352C328.059 199.627 329.492 199.486 330.794 198.947C332.096 198.407 333.208 197.494 333.991 196.322C334.774 195.15 335.192 193.773 335.192 192.364C335.19 190.475 334.438 188.664 333.102 187.328C331.767 185.992 329.956 185.241 328.067 185.238Z" fill="white"/>
<path d="M311.815 177.226C311.743 177.299 311.658 177.358 311.563 177.398C311.468 177.438 311.367 177.458 311.264 177.458C311.161 177.458 311.059 177.438 310.965 177.398C310.87 177.358 310.784 177.299 310.712 177.226V177.226C310.566 177.08 310.484 176.881 310.484 176.675C310.484 176.468 310.566 176.269 310.712 176.123L314.265 172.785C314.337 172.711 314.423 172.653 314.518 172.613C314.612 172.573 314.714 172.553 314.817 172.553C314.919 172.553 315.021 172.573 315.116 172.613C315.211 172.653 315.296 172.711 315.368 172.785C315.514 172.931 315.596 173.13 315.596 173.336C315.596 173.543 315.514 173.741 315.368 173.888L311.815 177.226Z" fill="white"/>
<path d="M320.258 205.101C320.258 205.21 320.215 205.314 320.138 205.391C320.061 205.468 319.957 205.511 319.848 205.511H316.676C316.621 205.513 316.567 205.503 316.516 205.483C316.465 205.463 316.419 205.433 316.38 205.395C316.341 205.357 316.31 205.311 316.288 205.261C316.267 205.21 316.256 205.156 316.256 205.101V205.101C316.256 204.99 316.301 204.883 316.379 204.805C316.458 204.726 316.565 204.682 316.676 204.682H319.848C319.903 204.682 319.957 204.693 320.007 204.714C320.058 204.735 320.103 204.766 320.142 204.805C320.18 204.844 320.21 204.891 320.23 204.941C320.25 204.992 320.26 205.047 320.258 205.101V205.101Z" fill="white"/>
<path d="M338.804 205.101C338.804 205.21 338.76 205.314 338.683 205.391C338.607 205.468 338.502 205.511 338.394 205.511H335.212C335.103 205.511 334.999 205.468 334.922 205.391C334.845 205.314 334.802 205.21 334.802 205.101C334.8 205.047 334.81 204.992 334.83 204.941C334.85 204.891 334.88 204.844 334.918 204.805C334.956 204.766 335.002 204.735 335.052 204.714C335.103 204.693 335.157 204.682 335.212 204.682H338.394C338.448 204.682 338.502 204.693 338.553 204.714C338.603 204.735 338.649 204.766 338.687 204.805C338.725 204.844 338.755 204.891 338.775 204.941C338.795 204.992 338.805 205.047 338.804 205.101Z" fill="white"/>
<path d="M305.49 300.874C305.492 306.494 303.828 311.989 300.707 316.663C297.586 321.336 293.149 324.98 287.957 327.132C282.765 329.284 277.052 329.848 271.54 328.753C266.027 327.657 260.964 324.952 256.989 320.979C253.014 317.006 250.307 311.943 249.21 306.431C248.113 300.919 248.675 295.205 250.825 290.013C252.976 284.821 256.618 280.382 261.29 277.26C265.963 274.137 271.457 272.471 277.077 272.471C284.611 272.471 291.837 275.463 297.165 280.789C302.493 286.116 305.488 293.34 305.49 300.874V300.874Z" fill="#FF9A3E"/>
<path d="M257.79 306.509C257.764 306.509 257.738 306.514 257.713 306.525C257.689 306.535 257.667 306.55 257.649 306.57C257.63 306.589 257.616 306.612 257.607 306.636C257.598 306.661 257.594 306.688 257.595 306.714C257.595 306.766 257.616 306.815 257.652 306.852C257.689 306.889 257.738 306.909 257.79 306.909H257.898V307.046C257.894 307.106 257.902 307.166 257.922 307.223C257.942 307.28 257.974 307.332 258.015 307.376C258.057 307.42 258.106 307.455 258.162 307.478C258.217 307.502 258.277 307.515 258.337 307.514H269.025C269.143 307.512 269.256 307.464 269.34 307.38C269.423 307.296 269.471 307.184 269.474 307.065V293.947C269.474 293.828 269.426 293.714 269.342 293.63C269.258 293.545 269.144 293.498 269.025 293.498H262.993C262.917 293.498 262.843 293.517 262.777 293.553C262.71 293.589 262.654 293.64 262.612 293.703L258.288 300.662C258.25 300.727 258.229 300.802 258.229 300.877L257.995 305.24H257.878C257.824 305.24 257.772 305.262 257.733 305.3C257.695 305.339 257.673 305.391 257.673 305.445C257.673 305.472 257.678 305.498 257.689 305.522C257.699 305.547 257.714 305.568 257.734 305.587C257.753 305.605 257.776 305.619 257.8 305.628C257.825 305.638 257.852 305.642 257.878 305.64H257.966V305.904H257.79C257.738 305.904 257.689 305.924 257.652 305.961C257.616 305.998 257.595 306.047 257.595 306.099C257.594 306.126 257.598 306.152 257.607 306.177C257.616 306.202 257.63 306.224 257.649 306.243C257.667 306.263 257.689 306.278 257.713 306.288C257.738 306.299 257.764 306.304 257.79 306.304H257.937V306.548L257.79 306.509ZM260.308 306.909V306.333L261.333 306.011C261.47 306.431 261.587 306.909 261.587 306.909H260.308ZM260.308 306.119V305.24C260.308 305.24 260.923 305.24 261.109 305.445C261.179 305.562 261.234 305.686 261.275 305.816L260.308 306.119ZM268.039 301.58H266.877C266.846 301.58 266.815 301.574 266.785 301.561C266.756 301.549 266.73 301.531 266.708 301.508C266.686 301.485 266.669 301.458 266.658 301.429C266.647 301.399 266.642 301.367 266.643 301.336C266.643 301.274 266.668 301.214 266.712 301.17C266.756 301.126 266.815 301.102 266.877 301.102H268.039C268.094 301.113 268.144 301.143 268.179 301.186C268.215 301.23 268.234 301.284 268.234 301.341C268.234 301.397 268.215 301.452 268.179 301.495C268.144 301.539 268.094 301.569 268.039 301.58ZM262.729 294.464C262.766 294.408 262.817 294.361 262.877 294.329C262.936 294.296 263.003 294.279 263.071 294.279H268.429C268.481 294.279 268.533 294.289 268.581 294.31C268.629 294.33 268.673 294.359 268.709 294.397C268.745 294.434 268.774 294.478 268.793 294.527C268.812 294.575 268.821 294.627 268.82 294.679V300.536H260.777L259.801 299.149L262.729 294.464Z" fill="white"/>
<path d="M294.549 288.461H271.241C270.878 288.461 270.531 288.605 270.274 288.861C270.018 289.117 269.874 289.465 269.874 289.827V306.02C269.874 306.383 270.018 306.73 270.274 306.987C270.531 307.243 270.878 307.387 271.241 307.387H294.549C294.91 307.384 295.255 307.239 295.509 306.983C295.763 306.727 295.906 306.381 295.906 306.02V289.827C295.906 289.467 295.763 289.121 295.509 288.865C295.255 288.609 294.91 288.464 294.549 288.461V288.461Z" fill="white"/>
<path d="M295.408 307.602H270.372C270.098 307.602 269.874 307.767 269.874 307.963C269.874 307.767 269.649 307.602 269.376 307.602H257.985C257.712 307.602 257.488 307.767 257.488 307.963V309.251C257.488 309.446 257.712 309.612 257.985 309.612H269.376C269.649 309.612 269.874 309.446 269.874 309.251C269.874 309.446 270.098 309.612 270.372 309.612H295.408C295.681 309.612 295.906 309.446 295.906 309.251V307.963C295.906 307.767 295.681 307.602 295.408 307.602Z" fill="white"/>
<path d="M265.296 307.174C264.551 307.174 263.822 307.395 263.202 307.81C262.582 308.224 262.099 308.813 261.814 309.502C261.53 310.191 261.456 310.949 261.602 311.68C261.748 312.411 262.108 313.083 262.636 313.609C263.163 314.136 263.836 314.494 264.567 314.638C265.299 314.782 266.057 314.706 266.745 314.42C267.433 314.133 268.021 313.648 268.434 313.028C268.846 312.407 269.066 311.677 269.064 310.932C269.064 310.437 268.966 309.948 268.777 309.491C268.587 309.035 268.31 308.62 267.96 308.271C267.61 307.922 267.194 307.645 266.737 307.457C266.28 307.269 265.791 307.173 265.296 307.174V307.174ZM265.296 312.884C264.91 312.884 264.533 312.769 264.212 312.555C263.891 312.34 263.64 312.035 263.493 311.679C263.345 311.322 263.306 310.93 263.382 310.551C263.457 310.172 263.643 309.824 263.916 309.551C264.189 309.278 264.537 309.092 264.915 309.017C265.294 308.942 265.687 308.98 266.043 309.128C266.4 309.276 266.705 309.526 266.919 309.847C267.134 310.168 267.248 310.546 267.248 310.932C267.248 311.449 267.043 311.946 266.677 312.312C266.31 312.678 265.814 312.884 265.296 312.884V312.884Z" fill="white"/>
<path d="M291.337 307.174C290.591 307.172 289.862 307.391 289.241 307.805C288.62 308.218 288.135 308.806 287.849 309.495C287.562 310.184 287.487 310.942 287.632 311.674C287.777 312.406 288.136 313.078 288.664 313.606C289.191 314.133 289.863 314.492 290.595 314.637C291.327 314.782 292.085 314.707 292.774 314.42C293.463 314.134 294.051 313.65 294.464 313.029C294.878 312.407 295.097 311.678 295.095 310.932C295.095 310.438 294.998 309.95 294.809 309.494C294.62 309.038 294.344 308.623 293.995 308.275C293.646 307.926 293.231 307.649 292.776 307.46C292.32 307.271 291.831 307.174 291.337 307.174V307.174ZM291.337 312.884C290.951 312.884 290.574 312.769 290.253 312.555C289.932 312.34 289.682 312.035 289.534 311.679C289.386 311.322 289.347 310.93 289.423 310.551C289.498 310.172 289.684 309.824 289.957 309.551C290.23 309.278 290.578 309.092 290.957 309.017C291.335 308.942 291.728 308.98 292.084 309.128C292.441 309.276 292.746 309.526 292.961 309.847C293.175 310.168 293.29 310.546 293.29 310.932C293.29 311.449 293.084 311.946 292.718 312.312C292.352 312.678 291.855 312.884 291.337 312.884V312.884Z" fill="white"/>
<path d="M172.286 220.475V257.839L132.189 258.619C132.189 258.619 120.584 252.831 119.627 244.144C118.671 235.457 129.788 220.475 129.788 220.475H172.286Z" fill="#7AE3B1"/>
<path d="M115.284 247.942C109.749 238.484 92.1118 208.401 92.1118 208.401C92.1118 208.401 89.5154 198.455 94.7862 191.701C97.7686 187.654 100.481 183.415 102.907 179.012L90.5793 167.406L132.443 169.358L152.257 205.863L139.402 198.338C139.402 198.338 108.998 231.105 115.284 247.942Z" fill="#7AE3B1"/>
<path d="M200.446 175.691L229.064 151.68L255.418 181.889C255.418 181.889 258.434 194.48 252.392 200.815C246.351 207.15 227.727 208.262 227.727 208.262L200.446 175.691Z" fill="#7AE3B1"/>
<path d="M258.112 201.663C254.442 211.99 242.749 244.845 242.749 244.845C242.749 244.845 236.785 253.229 228.196 253.503C223.163 253.817 218.158 254.469 213.213 255.455L212.237 272.36L186.83 239.057L202.057 200.424L204.536 215.123C204.536 215.123 249.25 217.3 258.112 201.663Z" fill="#7AE3B1"/>
<path d="M147.611 164.614L114.932 146.469L133.702 111.037C133.702 111.037 144.439 103.717 152.472 107.133C160.505 110.549 168.236 127.484 168.236 127.484L147.611 164.614Z" fill="#7AE3B1"/>
<path d="M151.271 101.451L197.078 100.396C197.078 100.396 207.054 102.954 210.382 110.879C212.471 115.47 214.871 119.911 217.566 124.174L233.691 119.02L211.67 154.695L170.129 154.256L182.945 146.682C182.945 146.682 169.026 104.154 151.271 101.451Z" fill="#7AE3B1"/>
</svg>
