<svg width="25" height="24" viewBox="0 0 25 24" fill="none" xmlns="http://www.w3.org/2000/svg">
<path fill-rule="evenodd" clip-rule="evenodd" d="M8.47872 2.27474V5.30859C8.47872 5.72748 8.81486 6.06706 9.22952 6.06706H15.9867C16.4014 6.06706 16.7375 5.72748 16.7375 5.30859V2.27474C16.7375 1.85585 16.4014 1.51627 15.9867 1.51627L9.22952 1.51627C8.81486 1.51627 8.47872 1.85585 8.47872 2.27474ZM6.97711 5.30859C6.97711 6.56526 7.98555 7.58398 9.22952 7.58398L15.9867 7.58398C17.2307 7.58398 18.2392 6.56526 18.2392 5.30859V2.27474C18.2392 1.01807 17.2307 -0.000654765 15.9867 -0.000654765L9.22952 -0.000654765C7.98555 -0.000654765 6.97711 1.01807 6.97711 2.27474V5.30859Z" fill="white"/>
<path d="M0 7.72266L0 4.07714L24.6609 4.07714V7.72266L0 7.72266Z" fill="white"/>
<path d="M1.21552 13.0645L1.21552 9.41893L24 9.41893V13.0645L1.21552 13.0645Z" fill="white"/>
<path d="M3.64539 18.5312L3.64539 14.8857H21.5692V18.5312H3.64539Z" fill="white"/>
<path d="M5.7724 24V20.3543H19.4438V24H5.7724Z" fill="white"/>
</svg>
