<svg width="44" height="70" viewBox="0 0 44 70" fill="none" xmlns="http://www.w3.org/2000/svg">
<path d="M11.0256 1.57053C11.159 1.117 11.4356 0.718852 11.8142 0.435724C12.1927 0.152596 12.6528 -0.000276424 13.1255 3.75229e-07H30.6245C30.9709 0.000263332 31.3123 0.0827963 31.6206 0.240805C31.9289 0.398813 32.1952 0.627779 32.3977 0.908853C32.6002 1.18993 32.733 1.51507 32.7852 1.85752C32.8375 2.19996 32.8076 2.54992 32.6982 2.87858L24.9111 26.2484H41.5614C41.971 26.2482 42.3725 26.3629 42.7201 26.5796C43.0677 26.7963 43.3475 27.1063 43.5276 27.4742C43.7077 27.8421 43.7808 28.2532 43.7387 28.6606C43.6966 29.0681 43.5409 29.4555 43.2894 29.7789L12.6662 69.1515C12.3525 69.5568 11.9064 69.8391 11.4058 69.949C10.9052 70.059 10.3819 69.9897 9.92723 69.7533C9.47252 69.5168 9.11528 69.1282 8.91786 68.6552C8.72044 68.1822 8.69537 67.6549 8.84702 67.1654L16.7259 41.56H2.18866C1.84858 41.5602 1.51315 41.4811 1.20899 41.329C0.904833 41.1769 0.640332 40.956 0.436492 40.6838C0.232653 40.4116 0.0950906 40.0956 0.0347306 39.7609C-0.0256293 39.4262 -0.00712464 39.0821 0.0887759 38.7558L11.0256 1.57053Z" fill="white"/>
</svg>
