<svg width="817" height="281" viewBox="0 0 817 281" fill="none" xmlns="http://www.w3.org/2000/svg">
<rect width="817" height="281" fill="white"/>
<path fill-rule="evenodd" clip-rule="evenodd" d="M284.968 30.8404V53.9154C284.968 57.1014 287.577 59.6841 290.795 59.6841H343.238C346.457 59.6841 349.065 57.1014 349.065 53.9154V30.8404C349.065 27.6544 346.457 25.0716 343.238 25.0716L290.795 25.0716C287.577 25.0716 284.968 27.6544 284.968 30.8404ZM273.314 53.9154C273.314 63.4733 281.141 71.2216 290.795 71.2216H343.238C352.893 71.2216 360.719 63.4733 360.719 53.9154V30.8404C360.719 21.2824 352.893 13.5341 343.238 13.5341L290.795 13.5341C281.141 13.5341 273.314 21.2824 273.314 30.8404V53.9154Z" fill="#124954"/>
<path fill-rule="evenodd" clip-rule="evenodd" d="M289.968 30.8404V53.9154C289.968 54.2927 290.291 54.6841 290.795 54.6841H343.238C343.743 54.6841 344.065 54.2927 344.065 53.9154V30.8404C344.065 30.4631 343.743 30.0716 343.238 30.0716L290.795 30.0716C290.291 30.0716 289.968 30.4631 289.968 30.8404ZM290.795 76.2216C278.427 76.2216 268.314 66.282 268.314 53.9154V30.8404C268.314 18.4737 278.427 8.53415 290.795 8.53415H343.238C355.607 8.53415 365.719 18.4737 365.719 30.8404V53.9154C365.719 66.282 355.607 76.2216 343.238 76.2216H290.795ZM284.968 53.9154V30.8404C284.968 27.6544 287.577 25.0716 290.795 25.0716L343.238 25.0716C346.457 25.0716 349.065 27.6544 349.065 30.8404V53.9154C349.065 57.1014 346.457 59.6841 343.238 59.6841H290.795C287.577 59.6841 284.968 57.1014 284.968 53.9154ZM290.795 71.2216C281.141 71.2216 273.314 63.4733 273.314 53.9154V30.8404C273.314 21.2824 281.141 13.5341 290.795 13.5341L343.238 13.5341C352.893 13.5341 360.719 21.2824 360.719 30.8404V53.9154C360.719 63.4733 352.893 71.2216 343.238 71.2216H290.795Z" fill="white"/>
<path d="M598.463 71.2216L512.864 263.513H486.16L400.927 71.2216H427.996H497.799H572.856H598.463Z" fill="#124954"/>
<path fill-rule="evenodd" clip-rule="evenodd" d="M606.161 66.2216L516.111 268.513H482.907L393.241 66.2216H606.161ZM598.463 71.2216H400.927L486.16 263.513H512.864L598.463 71.2216Z" fill="white"/>
<path d="M416.658 71.2216L330.301 265.261H303.361L217.374 71.2216H244.683H315.489H390.825H416.658Z" fill="#124954"/>
<path fill-rule="evenodd" clip-rule="evenodd" d="M424.356 66.2216L333.549 270.261H300.108L209.689 66.2216H424.356ZM416.658 71.2216H217.374L303.361 265.261H330.301L416.658 71.2216Z" fill="white"/>
<path d="M21.5878 71.2216L21.5878 41.5038L783.762 41.5038V71.2216L21.5878 71.2216Z" fill="#124954"/>
<path fill-rule="evenodd" clip-rule="evenodd" d="M16.5878 76.2216L16.5878 36.5038L788.762 36.5038V76.2216L16.5878 76.2216ZM21.5878 71.2216L783.762 71.2216V41.5038L21.5878 41.5038V71.2216Z" fill="white"/>
<path d="M21.5878 265.453L21.5878 179.271H218.26V265.453H21.5878Z" fill="#124954"/>
<path fill-rule="evenodd" clip-rule="evenodd" d="M16.5878 270.453L16.5878 174.271H223.26V270.453H16.5878ZM21.5878 265.453H218.26V179.271H21.5878L21.5878 265.453Z" fill="white"/>
<path d="M21.5878 41.5029H79.2753V265.26H21.5878V41.5029Z" fill="#124954"/>
<path fill-rule="evenodd" clip-rule="evenodd" d="M16.5878 36.5029H84.2753V270.26H16.5878V36.5029ZM21.5878 41.5029V265.26H79.2753V41.5029H21.5878Z" fill="white"/>
<path fill-rule="evenodd" clip-rule="evenodd" d="M468.52 30.8404V53.9154C468.52 57.1014 471.128 59.6841 474.347 59.6841H526.79C530.008 59.6841 532.617 57.1014 532.617 53.9154V30.8404C532.617 27.6544 530.008 25.0716 526.79 25.0716L474.347 25.0716C471.128 25.0716 468.52 27.6544 468.52 30.8404ZM456.866 53.9154C456.866 63.4733 464.692 71.2216 474.347 71.2216H526.79C536.444 71.2216 544.271 63.4733 544.271 53.9154V30.8404C544.271 21.2824 536.444 13.5341 526.79 13.5341L474.347 13.5341C464.692 13.5341 456.866 21.2824 456.866 30.8404V53.9154Z" fill="#FF9A3E"/>
<path fill-rule="evenodd" clip-rule="evenodd" d="M473.52 30.8404V53.9154C473.52 54.2927 473.842 54.6841 474.347 54.6841H526.79C527.294 54.6841 527.617 54.2927 527.617 53.9154V30.8404C527.617 30.4631 527.294 30.0716 526.79 30.0716L474.347 30.0716C473.842 30.0716 473.52 30.4631 473.52 30.8404ZM474.347 76.2216C461.978 76.2216 451.866 66.282 451.866 53.9154V30.8404C451.866 18.4737 461.978 8.53415 474.347 8.53415H526.79C539.158 8.53415 549.271 18.4737 549.271 30.8404V53.9154C549.271 66.282 539.158 76.2216 526.79 76.2216H474.347ZM468.52 53.9154V30.8404C468.52 27.6544 471.128 25.0716 474.347 25.0716L526.79 25.0716C530.008 25.0716 532.617 27.6544 532.617 30.8404V53.9154C532.617 57.1014 530.008 59.6841 526.79 59.6841H474.347C471.128 59.6841 468.52 57.1014 468.52 53.9154ZM474.347 71.2216C464.692 71.2216 456.866 63.4733 456.866 53.9154V30.8404C456.866 21.2824 464.692 13.5341 474.347 13.5341L526.79 13.5341C536.444 13.5341 544.271 21.2824 544.271 30.8404V53.9154C544.271 63.4733 536.444 71.2216 526.79 71.2216H474.347Z" fill="white"/>
<path d="M424.673 71.1179V42.326L597.424 42.326V71.1179L424.673 71.1179Z" fill="#FF9A3E"/>
<path fill-rule="evenodd" clip-rule="evenodd" d="M419.673 76.1179V37.326L602.424 37.326V76.1179L419.673 76.1179ZM424.673 71.1179L597.424 71.1179V42.326L424.673 42.326V71.1179Z" fill="white"/>
<path d="M594.975 71.2273H639.082V265.466H594.975V71.2273Z" fill="#124954"/>
<path fill-rule="evenodd" clip-rule="evenodd" d="M589.975 66.2273H644.082V270.466H589.975V66.2273ZM594.975 71.2273V265.466H639.082V71.2273H594.975Z" fill="white"/>
<path d="M751.893 71.2189H796V265.458H751.893V71.2189Z" fill="#124954"/>
<path fill-rule="evenodd" clip-rule="evenodd" d="M746.893 66.2189H801V270.458H746.893V66.2189ZM751.893 71.2189V265.458H796V71.2189H751.893Z" fill="white"/>
<path fill-rule="evenodd" clip-rule="evenodd" d="M664.075 30.8404V53.9154C664.075 57.1014 666.632 59.6841 669.785 59.6841H721.18C724.334 59.6841 726.89 57.1014 726.89 53.9154V30.8404C726.89 27.6544 724.334 25.0716 721.18 25.0716L669.785 25.0716C666.632 25.0716 664.075 27.6544 664.075 30.8404ZM652.654 53.9154C652.654 63.4733 660.324 71.2216 669.785 71.2216H721.18C730.641 71.2216 738.311 63.4733 738.311 53.9154V30.8404C738.311 21.2824 730.641 13.5341 721.18 13.5341L669.785 13.5341C660.324 13.5341 652.654 21.2824 652.654 30.8404V53.9154Z" fill="#7AE3B1"/>
<path fill-rule="evenodd" clip-rule="evenodd" d="M669.075 30.8404V53.9154C669.075 54.3879 669.441 54.6841 669.785 54.6841H721.18C721.524 54.6841 721.89 54.3879 721.89 53.9154V30.8404C721.89 30.3678 721.524 30.0716 721.18 30.0716L669.785 30.0716C669.441 30.0716 669.075 30.3678 669.075 30.8404ZM669.785 76.2216C657.515 76.2216 647.654 66.1868 647.654 53.9154V30.8404C647.654 18.569 657.515 8.53415 669.785 8.53415H721.18C733.45 8.53415 743.311 18.569 743.311 30.8404V53.9154C743.311 66.1868 733.45 76.2216 721.18 76.2216H669.785ZM664.075 53.9154V30.8404C664.075 27.6544 666.632 25.0716 669.785 25.0716L721.18 25.0716C724.334 25.0716 726.89 27.6544 726.89 30.8404V53.9154C726.89 57.1014 724.334 59.6841 721.18 59.6841H669.785C666.632 59.6841 664.075 57.1014 664.075 53.9154ZM669.785 71.2216C660.324 71.2216 652.654 63.4733 652.654 53.9154V30.8404C652.654 21.2824 660.324 13.5341 669.785 13.5341L721.18 13.5341C730.641 13.5341 738.311 21.2824 738.311 30.8404V53.9154C738.311 63.4733 730.641 71.2216 721.18 71.2216H669.785Z" fill="white"/>
<path d="M795.996 71.2216L708.882 265.261H681.706L594.964 71.2216H622.513H695.48H769.936H795.996Z" fill="#124954"/>
<path fill-rule="evenodd" clip-rule="evenodd" d="M591.108 68.7216H799.859L710.5 267.761H680.085L591.108 68.7216ZM598.82 73.7216L683.327 262.761H707.264L792.133 73.7216H598.82Z" fill="white"/>
<path d="M594.964 71.2216V41.5038L795.996 41.5038V71.2216L594.964 71.2216Z" fill="#7AE3B1"/>
<path fill-rule="evenodd" clip-rule="evenodd" d="M589.964 76.2216V36.5038L800.996 36.5038V76.2216L589.964 76.2216ZM594.964 71.2216L795.996 71.2216V41.5038L594.964 41.5038V71.2216Z" fill="white"/>
<path d="M138.71 110.753H218.262V265.438H138.71V110.753Z" fill="#124954"/>
<path fill-rule="evenodd" clip-rule="evenodd" d="M133.71 105.753H223.262V270.438H133.71V105.753ZM138.71 110.753V265.438H218.262V110.753H138.71Z" fill="white"/>
</svg>
