<svg width="817" height="281" viewBox="0 0 817 281" fill="none" xmlns="http://www.w3.org/2000/svg">
<rect width="817" height="281" fill="white"/>
<path d="M598.33 71.5745L512.667 264.011H485.943L400.646 71.5745H427.736L499.854 235.475L572.704 71.5745H598.33Z" fill="#124954"/>
<path d="M416.363 71.5745L329.941 265.76H302.981L216.929 71.5745H244.259H308.099H390.51H416.363Z" fill="#124954"/>
<path d="M21.0001 41.8383H78.7309V265.764H21.0001V41.8383Z" fill="#124954"/>
<path d="M129.48 111.812H216.951V265.761H129.48V111.812Z" fill="#124954"/>
<path d="M21.0001 71.5742L21.0001 41.8341L783.745 41.8341V71.5742L21.0001 71.5742Z" fill="#124954"/>
<path d="M33.2072 265.787L33.2072 180.065H199.402V265.787H33.2072Z" fill="#124954"/>
<path fill-rule="evenodd" clip-rule="evenodd" d="M468.269 31.1626V54.2549C468.269 57.4433 470.88 60.028 474.1 60.028H526.583C529.803 60.028 532.414 57.4433 532.414 54.2549V31.1626C532.414 27.9742 529.803 25.3895 526.583 25.3895L474.1 25.3895C470.88 25.3895 468.269 27.9742 468.269 31.1626ZM456.606 54.2549C456.606 63.8201 464.438 71.5742 474.1 71.5742H526.583C536.244 71.5742 544.077 63.8201 544.077 54.2549V31.1626C544.077 21.5974 536.244 13.8433 526.583 13.8433L474.1 13.8433C464.438 13.8433 456.606 21.5974 456.606 31.1626V54.2549Z" fill="#FF9A3E"/>
<path fill-rule="evenodd" clip-rule="evenodd" d="M284.577 31.1626V54.2549C284.577 57.4433 287.188 60.028 290.409 60.028H342.891C346.112 60.028 348.723 57.4433 348.723 54.2549V31.1626C348.723 27.9742 346.112 25.3895 342.891 25.3895L290.409 25.3895C287.188 25.3895 284.577 27.9742 284.577 31.1626ZM272.914 54.2549C272.914 63.8201 280.747 71.5742 290.409 71.5742H342.891C352.553 71.5742 360.385 63.8201 360.385 54.2549V31.1626C360.385 21.5974 352.553 13.8433 342.891 13.8433L290.409 13.8433C280.747 13.8433 272.914 21.5974 272.914 31.1626V54.2549Z" fill="#124954"/>
<path d="M405.873 71.5742V41.834L594.81 41.834V71.5742L405.873 71.5742Z" fill="#FF9A3E"/>
<path d="M795.994 71.5745L708.814 265.76H681.617L594.81 71.5745H622.38H695.402H769.914H795.994Z" fill="#124954"/>
<path d="M594.824 71.5697H638.964V265.955H594.824V71.5697Z" fill="#124954"/>
<path d="M751.86 71.5648H796V265.95H751.86V71.5648Z" fill="#124954"/>
<path fill-rule="evenodd" clip-rule="evenodd" d="M663.981 31.1626V54.2549C663.981 57.4433 666.54 60.028 669.696 60.028H721.129C724.285 60.028 726.844 57.4433 726.844 54.2549V31.1626C726.844 27.9742 724.285 25.3895 721.129 25.3895L669.696 25.3895C666.54 25.3895 663.981 27.9742 663.981 31.1626ZM652.552 54.2549C652.552 63.8201 660.227 71.5742 669.696 71.5742H721.129C730.597 71.5742 738.273 63.8201 738.273 54.2549V31.1626C738.273 21.5974 730.597 13.8433 721.129 13.8433L669.696 13.8433C660.227 13.8433 652.552 21.5974 652.552 31.1626V54.2549Z" fill="#7AE3B1"/>
<path d="M594.81 71.5742V41.834L795.994 41.834V71.5742L594.81 71.5742Z" fill="#7AE3B1"/>
</svg>
