<svg width="394" height="294" viewBox="0 0 394 294" fill="none" xmlns="http://www.w3.org/2000/svg">
<path d="M284.029 276.761H44.0225V277.78H284.029V276.761Z" fill="#FFC187"/>
<path d="M171.303 136.542C171.303 136.542 166.209 159.463 176.396 155.388C186.583 151.313 180.471 135.523 180.471 135.523L171.303 136.542Z" fill="#FFB9B9"/>
<path d="M266.551 144.183C266.551 144.183 278.775 158.954 271.135 162.01C263.495 165.066 259.42 148.257 260.439 146.729C261.457 145.201 266.551 144.183 266.551 144.183Z" fill="#FFB9B9"/>
<path d="M237.519 39.7643C245.958 39.7643 252.8 32.923 252.8 24.4837C252.8 16.0445 245.958 9.20312 237.519 9.20312C229.08 9.20312 222.238 16.0445 222.238 24.4837C222.238 32.923 229.08 39.7643 237.519 39.7643Z" fill="#FFB9B9"/>
<path d="M226.058 30.3418L224.021 46.1317L240.829 52.2437L244.395 34.4164L226.058 30.3418Z" fill="#FFB9B9"/>
<path d="M235.481 45.8769C235.481 45.8769 226.846 41.6141 225.051 38.1426L221.219 41.802C221.219 41.802 193.714 39.2553 189.639 53.0078C185.564 66.7604 189.13 116.677 189.13 116.677C189.13 116.677 183.527 139.089 185.055 139.598C186.583 140.107 205.429 149.276 231.916 144.182C231.916 144.182 243.631 142.145 245.668 143.673C247.706 145.201 244.649 119.224 244.649 119.224C244.649 119.224 265.024 73.3819 261.458 67.779C257.893 62.1762 242.103 50.461 242.103 50.461L243.121 44.8581C243.121 44.8581 235.99 47.9143 235.481 45.8769Z" fill="#CFCCE0"/>
<path d="M193.713 49.4424C193.713 49.4424 184.545 54.0266 183.017 61.1575C181.489 68.2885 167.227 127.373 168.755 130.939C170.283 134.504 169.774 139.089 169.774 139.089L183.017 137.561C183.017 137.561 180.47 133.995 181.998 132.467C183.526 130.939 185.054 125.845 184.036 123.808C183.017 121.771 181.998 125.336 187.601 118.714C193.204 112.093 205.938 51.4798 193.713 49.4424Z" fill="#CFCCE0"/>
<path d="M258.402 66.7607C258.402 66.7607 262.731 67.0154 263.75 74.1464C264.769 81.2773 266.551 125.336 266.551 125.336C266.551 125.336 273.173 139.598 270.626 141.636C268.079 143.673 269.607 146.729 269.607 146.729L260.439 149.276L240.574 118.205L258.402 66.7607Z" fill="#CFCCE0"/>
<path d="M186.582 137.561C186.582 137.561 183.526 138.07 183.526 149.276C183.526 160.481 177.923 195.118 181.489 200.72C185.054 206.323 185.564 256.749 185.564 256.749C185.564 256.749 195.241 260.824 203.391 247.581L204.41 240.45L206.447 205.814L214.597 162.519L225.803 210.398C225.803 210.398 224.275 267.955 229.877 267.955C235.48 267.955 246.177 263.371 246.177 263.371C246.177 263.371 248.723 258.277 247.705 255.731C246.686 253.184 245.667 253.693 246.686 251.656C247.705 249.618 249.233 196.646 249.233 196.646C249.233 196.646 247.195 142.145 244.649 140.617C242.102 139.089 186.582 137.561 186.582 137.561Z" fill="#2F2E41"/>
<path d="M186.582 254.712L178.433 263.371C178.433 263.371 163.661 277.124 176.395 277.633C189.129 278.142 196.26 269.483 196.26 268.465C196.26 267.446 196.769 263.881 200.335 263.881C203.9 263.881 212.559 255.222 210.522 251.656C208.485 248.091 202.372 246.562 202.372 246.562L186.582 254.712Z" fill="#2F2E41"/>
<path d="M230.387 265.918C230.387 265.918 224.275 278.142 227.84 280.689C231.406 283.236 232.425 284.254 232.425 284.254C232.425 284.254 235.481 283.745 234.971 288.329C234.462 292.913 253.308 295.46 254.327 291.895C255.345 288.329 254.836 281.198 252.799 279.161C250.761 277.123 244.649 262.861 244.649 262.861C244.649 262.861 238.027 255.221 230.387 265.918Z" fill="#2F2E41"/>
<path d="M252.94 12.2143L255.819 11.8054C255.819 11.8054 251.812 4.42978 244.056 3.0905L246.778 1.25295C246.778 1.25295 242.047 -2.12803 235.933 2.21779C232.719 4.50229 228.987 7.1989 226.242 10.5931L223.434 9.90683L223.976 12.7737L219.243 14.3518L223.567 14.9172C222.97 16.269 222.579 17.7023 222.406 19.1696C222.239 20.6386 222.648 22.1153 223.549 23.2881C223.549 23.2881 228.446 17.3519 228.702 16.3022L228.061 18.9265C228.061 18.9265 231.26 17.2055 231.645 15.6309L232.626 17.8174L234.047 15.1055L242.161 20.1476L241.308 17.4362L246.598 19.5633L245.158 16.1523C245.158 16.1523 250.521 21.0785 250.054 24.0235C249.587 26.9684 250.733 30.147 250.733 30.147C250.733 30.147 258.891 17.8401 252.94 12.2143Z" fill="#2F2E41"/>
<path d="M394 185.343H312.431V186.319H394V185.343Z" fill="#FFC187"/>
<path d="M89.1025 260.55H69.4404V280.212H89.1025V260.55Z" fill="#CFCCE0"/>
<path d="M86.5152 277.625H65.8184V256.928H86.5152V277.625ZM66.8532 276.59H85.4804V257.963H66.8532L66.8532 276.59Z" fill="#FFC187"/>
<path d="M110.614 88.7481L98.1709 93.5605L102.817 105.573L115.26 100.76L110.614 88.7481Z" fill="#F2F2F2"/>
<path d="M113.012 99.8134L99.9137 104.879L95.0234 92.2347L108.121 87.1689L113.012 99.8134ZM100.324 103.994L112.112 99.4345L107.711 88.0544L95.9228 92.6136L100.324 103.994Z" fill="#FFC187"/>
<path d="M339.258 235.188L334.921 222.571L322.741 226.759L327.079 239.375L339.258 235.188Z" fill="#F2F2F2"/>
<path d="M328.11 237.164L323.544 223.883L336.365 219.476L340.93 232.756L328.11 237.164ZM324.413 224.327L328.523 236.279L340.061 232.312L335.952 220.36L324.413 224.327Z" fill="#FFC187"/>
<path d="M61.863 172.469C69.1583 172.626 74.9616 177.913 74.9616 177.913C74.9616 177.913 68.9369 182.946 61.6416 182.789C54.3463 182.633 48.543 177.346 48.543 177.346C48.543 177.346 54.5677 172.313 61.863 172.469Z" fill="#7AE3B1"/>
<path d="M25.1861 147.567C31.7771 150.698 39.3349 148.575 39.3349 148.575C39.3349 148.575 36.2065 141.375 29.6155 138.244C23.0246 135.112 15.4668 137.236 15.4668 137.236C15.4668 137.236 18.5951 144.436 25.1861 147.567Z" fill="#7AE3B1"/>
<path d="M25.8558 144.455C33.1225 143.791 39.483 148.392 39.483 148.392C39.483 148.392 34.0619 154.07 26.7952 154.734C19.5285 155.399 13.168 150.797 13.168 150.797C13.168 150.797 18.5891 145.119 25.8558 144.455Z" fill="#FFC187"/>
<path d="M52.4931 145.713C51.7966 152.977 56.3695 159.358 56.3695 159.358C56.3695 159.358 62.0716 153.962 62.7681 146.698C63.4646 139.435 58.8917 133.054 58.8917 133.054C58.8917 133.054 53.1896 138.449 52.4931 145.713Z" fill="#FFC187"/>
<path d="M86.716 190.261C82.9046 196.484 84.2159 204.224 84.2159 204.224C84.2159 204.224 91.7068 201.875 95.5182 195.653C99.3296 189.431 98.0183 181.69 98.0183 181.69C98.0183 181.69 90.5274 184.039 86.716 190.261Z" fill="#FFC187"/>
<path d="M75.6588 257.915L76.2142 257.54C74.2564 254.698 73.1873 251.339 73.143 247.889C73.1585 242.842 75.6375 238.174 78.0349 233.66C78.4799 232.822 78.9234 231.987 79.3501 231.152C81.141 227.748 82.5682 224.165 83.6081 220.462C87.3268 206.643 83.6656 190.339 73.8146 176.849C66 166.147 54.3506 156.789 38.2013 148.24L37.8877 148.833C53.945 157.333 65.5198 166.627 73.2733 177.244C83.0057 190.572 86.6271 206.663 82.9607 220.288C81.9329 223.946 80.5227 227.485 78.7534 230.847C78.328 231.678 77.8862 232.51 77.4428 233.345C75.0072 237.932 72.4887 242.674 72.4727 247.887C72.517 251.472 73.626 254.962 75.6588 257.915Z" fill="#FFC187"/>
<path d="M6.36828 149.121C9.88538 149.121 12.7366 146.27 12.7366 142.753C12.7366 139.236 9.88538 136.385 6.36828 136.385C2.85117 136.385 0 139.236 0 142.753C0 146.27 2.85117 149.121 6.36828 149.121Z" fill="#FFC187"/>
<path d="M353.054 180.369L271.081 150.928L285.716 110.181L336.756 97.6641L367.689 139.623L353.054 180.369Z" fill="#2F2E41"/>
<path d="M343.123 172.289L281.864 148.938C297.767 127.637 304.879 112.611 304.884 88.9658L366.142 112.317C351.911 132.533 345.959 147.73 343.123 172.289Z" fill="#F2F2F2"/>
<path d="M347.944 115.513L316.208 103.415L315.645 104.891L347.382 116.989L347.944 115.513Z" fill="#FFC187"/>
<path d="M345.693 121.417L313.957 109.319L313.394 110.795L345.131 122.893L345.693 121.417Z" fill="#FFC187"/>
<path d="M343.443 127.321L311.707 115.224L311.144 116.7L342.881 128.797L343.443 127.321Z" fill="#FFC187"/>
<path d="M341.192 133.226L309.456 121.128L308.893 122.604L340.63 134.702L341.192 133.226Z" fill="#FFC187"/>
<path d="M338.942 139.13L307.206 127.032L306.643 128.508L338.38 140.606L338.942 139.13Z" fill="#FFC187"/>
<path d="M336.691 145.035L304.955 132.938L304.392 134.414L336.129 146.511L336.691 145.035Z" fill="#FFC187"/>
<path d="M334.439 150.939L302.703 138.842L302.14 140.318L333.877 152.416L334.439 150.939Z" fill="#FFC187"/>
<path d="M332.189 156.844L300.453 144.746L299.89 146.222L331.627 158.32L332.189 156.844Z" fill="#FFC187"/>
<path d="M351.159 185.643L269.187 156.202L285.715 110.182L320.331 142.639L367.688 139.623L351.159 185.643Z" fill="#FFC187"/>
<path d="M309.508 171.142L268.635 156.462L278.594 128.731L279.407 129.023L269.739 155.941L309.8 170.329L309.508 171.142Z" fill="#7AE3B1"/>
<path d="M294.979 141.651L282.995 137.347L281.273 142.14L293.258 146.445L294.979 141.651Z" fill="#7AE3B1"/>
<path d="M159.479 277.124L95.3213 277.089L95.8249 241.071L127.709 255.402L159.982 241.969L159.479 277.124Z" fill="#FFC187"/>
<path d="M109.809 260.781L100.43 260.649L100.377 264.401L109.757 264.532L109.809 260.781Z" fill="#7AE3B1"/>
<path d="M160.197 241.92L127.768 258.452L95.6562 241.92V240.966H160.197V241.92Z" fill="#7AE3B1"/>
<path d="M346.624 105.593C347.391 103.582 343.498 100.231 337.93 98.1081C332.362 95.9856 327.227 95.8953 326.46 97.9064C325.694 99.9175 329.586 103.268 335.154 105.391C340.722 107.514 345.858 107.604 346.624 105.593Z" fill="#7AE3B1"/>
<path d="M355.436 44.2601C353.379 43.6206 351.217 43.3925 349.072 43.5887C346.927 43.7849 344.842 44.4017 342.936 45.4037C341.029 46.4057 339.339 47.7734 337.961 49.4287C336.583 51.084 335.545 52.9945 334.906 55.0511C332.216 63.7001 339.545 95.3628 339.545 95.3628C339.545 95.3628 363.537 73.4392 366.227 64.7902C367.518 60.6368 367.107 56.1404 365.083 52.2903C363.059 48.4401 359.589 45.5516 355.436 44.2601ZM348.259 67.3388C346.792 66.8826 345.493 66.0015 344.527 64.8071C343.56 63.6127 342.97 62.1585 342.83 60.6284C342.69 59.0983 343.007 57.5611 343.74 56.2111C344.474 54.8611 345.592 53.759 346.952 53.0442C348.312 52.3293 349.853 52.0338 351.381 52.195C352.909 52.3562 354.355 52.9669 355.536 53.9499C356.717 54.9328 357.58 56.2439 358.016 57.7172C358.451 59.1906 358.44 60.7601 357.984 62.2273C357.681 63.2014 357.19 64.1064 356.537 64.8905C355.884 65.6746 355.083 66.3224 354.18 66.7971C353.277 67.2717 352.29 67.5639 351.274 67.6568C350.258 67.7498 349.234 67.6417 348.259 67.3388Z" fill="#7AE3B1"/>
</svg>
