<svg width="785" height="263" viewBox="0 0 785 263" fill="none" xmlns="http://www.w3.org/2000/svg">
<path fill-rule="evenodd" clip-rule="evenodd" d="M268.968 22.8404V45.9154C268.968 49.1014 271.577 51.6841 274.795 51.6841H327.238C330.457 51.6841 333.065 49.1014 333.065 45.9154V22.8404C333.065 19.6544 330.457 17.0716 327.238 17.0716L274.795 17.0716C271.577 17.0716 268.968 19.6544 268.968 22.8404ZM257.314 45.9154C257.314 55.4733 265.141 63.2216 274.795 63.2216L327.238 63.2216C336.893 63.2216 344.719 55.4733 344.719 45.9154V22.8404C344.719 13.2824 336.893 5.53415 327.238 5.53415L274.795 5.53415C265.141 5.53415 257.314 13.2824 257.314 22.8404V45.9154Z" fill="#124954"/>
<path fill-rule="evenodd" clip-rule="evenodd" d="M273.968 22.8404V45.9154C273.968 46.2927 274.291 46.6841 274.795 46.6841H327.238C327.743 46.6841 328.065 46.2927 328.065 45.9154V22.8404C328.065 22.4631 327.743 22.0716 327.238 22.0716L274.795 22.0716C274.291 22.0716 273.968 22.4631 273.968 22.8404ZM274.795 68.2216C262.427 68.2216 252.314 58.282 252.314 45.9154V22.8404C252.314 10.4737 262.427 0.534149 274.795 0.534149H327.238C339.607 0.534149 349.719 10.4737 349.719 22.8404V45.9154C349.719 58.282 339.607 68.2216 327.238 68.2216H274.795ZM268.968 45.9154V22.8404C268.968 19.6544 271.577 17.0716 274.795 17.0716L327.238 17.0716C330.457 17.0716 333.065 19.6544 333.065 22.8404V45.9154C333.065 49.1014 330.457 51.6841 327.238 51.6841H274.795C271.577 51.6841 268.968 49.1014 268.968 45.9154ZM274.795 63.2216C265.141 63.2216 257.314 55.4733 257.314 45.9154V22.8404C257.314 13.2824 265.141 5.53415 274.795 5.53415L327.238 5.53415C336.893 5.53415 344.719 13.2824 344.719 22.8404V45.9154C344.719 55.4733 336.893 63.2216 327.238 63.2216L274.795 63.2216Z" fill="white"/>
<path d="M582.463 63.2216L496.864 255.513H470.16L384.927 63.2216H411.996H481.799H556.856H582.463Z" fill="#124954"/>
<path fill-rule="evenodd" clip-rule="evenodd" d="M590.161 58.2216L500.111 260.513H466.907L377.241 58.2216H590.161ZM582.463 63.2216H384.927L470.16 255.513H496.864L582.463 63.2216Z" fill="white"/>
<path d="M400.658 63.2216L314.301 257.261H287.361L201.374 63.2216H228.683H299.489H374.825H400.658Z" fill="#124954"/>
<path fill-rule="evenodd" clip-rule="evenodd" d="M408.356 58.2216L317.549 262.261H284.108L193.689 58.2216H408.356ZM400.658 63.2216H201.374L287.361 257.261H314.301L400.658 63.2216Z" fill="white"/>
<path d="M5.58778 63.2216L5.58778 33.5038L767.762 33.5038V63.2216L5.58778 63.2216Z" fill="#124954"/>
<path fill-rule="evenodd" clip-rule="evenodd" d="M0.587784 68.2216L0.587784 28.5038L772.762 28.5038V68.2216L0.587784 68.2216ZM5.58778 63.2216L767.762 63.2216V33.5038L5.58778 33.5038L5.58778 63.2216Z" fill="white"/>
<path d="M5.58778 257.453L5.58778 171.271H202.26V257.453H5.58778Z" fill="#124954"/>
<path fill-rule="evenodd" clip-rule="evenodd" d="M0.587784 262.453L0.587784 166.271H207.26V262.453H0.587784ZM5.58778 257.453H202.26V171.271H5.58778L5.58778 257.453Z" fill="white"/>
<path d="M5.58778 33.5029H63.2753V257.26H5.58778V33.5029Z" fill="#124954"/>
<path fill-rule="evenodd" clip-rule="evenodd" d="M0.587784 28.5029H68.2753V262.26H0.587784V28.5029ZM5.58778 33.5029V257.26H63.2753V33.5029H5.58778Z" fill="white"/>
<path fill-rule="evenodd" clip-rule="evenodd" d="M452.52 22.8404V45.9154C452.52 49.1014 455.128 51.6841 458.347 51.6841H510.79C514.008 51.6841 516.617 49.1014 516.617 45.9154V22.8404C516.617 19.6544 514.008 17.0716 510.79 17.0716L458.347 17.0716C455.128 17.0716 452.52 19.6544 452.52 22.8404ZM440.866 45.9154C440.866 55.4733 448.692 63.2216 458.347 63.2216L510.79 63.2216C520.444 63.2216 528.271 55.4733 528.271 45.9154V22.8404C528.271 13.2824 520.444 5.53415 510.79 5.53415L458.347 5.53415C448.692 5.53415 440.866 13.2824 440.866 22.8404V45.9154Z" fill="#FF9A3E"/>
<path fill-rule="evenodd" clip-rule="evenodd" d="M457.52 22.8404V45.9154C457.52 46.2927 457.842 46.6841 458.347 46.6841H510.79C511.294 46.6841 511.617 46.2927 511.617 45.9154V22.8404C511.617 22.4631 511.294 22.0716 510.79 22.0716L458.347 22.0716C457.842 22.0716 457.52 22.4631 457.52 22.8404ZM458.347 68.2216C445.978 68.2216 435.866 58.282 435.866 45.9154V22.8404C435.866 10.4737 445.978 0.534149 458.347 0.534149H510.79C523.158 0.534149 533.271 10.4737 533.271 22.8404V45.9154C533.271 58.282 523.158 68.2216 510.79 68.2216H458.347ZM452.52 45.9154V22.8404C452.52 19.6544 455.128 17.0716 458.347 17.0716L510.79 17.0716C514.008 17.0716 516.617 19.6544 516.617 22.8404V45.9154C516.617 49.1014 514.008 51.6841 510.79 51.6841H458.347C455.128 51.6841 452.52 49.1014 452.52 45.9154ZM458.347 63.2216C448.692 63.2216 440.866 55.4733 440.866 45.9154V22.8404C440.866 13.2824 448.692 5.53415 458.347 5.53415L510.79 5.53415C520.444 5.53415 528.271 13.2824 528.271 22.8404V45.9154C528.271 55.4733 520.444 63.2216 510.79 63.2216L458.347 63.2216Z" fill="white"/>
<path d="M408.673 63.1179V34.326L581.424 34.326V63.1179L408.673 63.1179Z" fill="#FF9A3E"/>
<path fill-rule="evenodd" clip-rule="evenodd" d="M403.673 68.1179V29.326L586.424 29.326V68.1179L403.673 68.1179ZM408.673 63.1179L581.424 63.1179V34.326L408.673 34.326V63.1179Z" fill="white"/>
<path d="M578.975 63.2273H623.082V257.466H578.975V63.2273Z" fill="#124954"/>
<path fill-rule="evenodd" clip-rule="evenodd" d="M573.975 58.2273H628.082V262.466H573.975V58.2273ZM578.975 63.2273V257.466H623.082V63.2273H578.975Z" fill="white"/>
<path d="M735.893 63.2189H780V257.458H735.893V63.2189Z" fill="#124954"/>
<path fill-rule="evenodd" clip-rule="evenodd" d="M730.893 58.2189H785V262.458H730.893V58.2189ZM735.893 63.2189V257.458H780V63.2189H735.893Z" fill="white"/>
<path fill-rule="evenodd" clip-rule="evenodd" d="M648.075 22.8404V45.9154C648.075 49.1014 650.632 51.6841 653.785 51.6841H705.18C708.334 51.6841 710.89 49.1014 710.89 45.9154V22.8404C710.89 19.6544 708.334 17.0716 705.18 17.0716L653.785 17.0716C650.632 17.0716 648.075 19.6544 648.075 22.8404ZM636.654 45.9154C636.654 55.4733 644.324 63.2216 653.785 63.2216L705.18 63.2216C714.641 63.2216 722.311 55.4733 722.311 45.9154V22.8404C722.311 13.2824 714.641 5.53415 705.18 5.53415L653.785 5.53415C644.324 5.53415 636.654 13.2824 636.654 22.8404V45.9154Z" fill="#7AE3B1"/>
<path fill-rule="evenodd" clip-rule="evenodd" d="M653.075 22.8404V45.9154C653.075 46.3879 653.441 46.6841 653.785 46.6841H705.18C705.524 46.6841 705.89 46.3879 705.89 45.9154V22.8404C705.89 22.3678 705.524 22.0716 705.18 22.0716L653.785 22.0716C653.441 22.0716 653.075 22.3678 653.075 22.8404ZM653.785 68.2216C641.515 68.2216 631.654 58.1868 631.654 45.9154V22.8404C631.654 10.569 641.515 0.534149 653.785 0.534149H705.18C717.45 0.534149 727.311 10.569 727.311 22.8404V45.9154C727.311 58.1868 717.45 68.2216 705.18 68.2216H653.785ZM648.075 45.9154V22.8404C648.075 19.6544 650.632 17.0716 653.785 17.0716L705.18 17.0716C708.334 17.0716 710.89 19.6544 710.89 22.8404V45.9154C710.89 49.1014 708.334 51.6841 705.18 51.6841H653.785C650.632 51.6841 648.075 49.1014 648.075 45.9154ZM653.785 63.2216C644.324 63.2216 636.654 55.4733 636.654 45.9154V22.8404C636.654 13.2824 644.324 5.53415 653.785 5.53415L705.18 5.53415C714.641 5.53415 722.311 13.2824 722.311 22.8404V45.9154C722.311 55.4733 714.641 63.2216 705.18 63.2216L653.785 63.2216Z" fill="white"/>
<path d="M779.996 63.2216L692.882 257.261H665.706L578.964 63.2216H606.513H679.48H753.936H779.996Z" fill="#124954"/>
<path fill-rule="evenodd" clip-rule="evenodd" d="M575.108 60.7216H783.859L694.5 259.761H664.085L575.108 60.7216ZM582.82 65.7216L667.327 254.761H691.264L776.133 65.7216H582.82Z" fill="white"/>
<path d="M578.964 63.2216V33.5038L779.996 33.5038V63.2216L578.964 63.2216Z" fill="#7AE3B1"/>
<path fill-rule="evenodd" clip-rule="evenodd" d="M573.964 68.2216V28.5038L784.996 28.5038V68.2216L573.964 68.2216ZM578.964 63.2216L779.996 63.2216V33.5038L578.964 33.5038V63.2216Z" fill="white"/>
<path d="M122.71 102.753H202.262V257.438H122.71V102.753Z" fill="#124954"/>
<path fill-rule="evenodd" clip-rule="evenodd" d="M117.71 97.7525H207.262V262.438H117.71V97.7525ZM122.71 102.753V257.438H202.262V102.753H122.71Z" fill="white"/>
</svg>
