<svg width="536" height="1049" viewBox="0 0 536 1049" fill="none" xmlns="http://www.w3.org/2000/svg">
<path fill-rule="evenodd" clip-rule="evenodd" d="M365.534 516.641C464.85 477.547 535.142 380.768 535.142 267.571C535.142 119.796 415.346 0 267.571 0C119.796 0 0 119.796 0 267.571C0 380.352 69.7764 476.836 168.514 516.208L267.064 1049L365.534 516.641ZM338.758 117.309V138.589H422.641V185.283L309.998 185.283H223.718H111.488V138.589H194.958V117.309C194.958 101.22 207.835 88.1768 223.718 88.1768H309.998C325.882 88.1768 338.758 101.22 338.758 117.309ZM214.132 117.309V138.589H319.585V117.309C319.585 111.946 315.293 107.598 309.998 107.598H223.718C218.424 107.598 214.132 111.946 214.132 117.309ZM128.843 203.878V250.571L405.286 250.571V203.878H128.843ZM146.198 315.86V269.166H387.93V315.86H146.198ZM163.554 334.455V381.148H370.989V334.455H163.554ZM180.495 446.436V399.743H353.634V446.436H180.495Z" fill="#124954"/>
</svg>
