<svg width="617" height="385" viewBox="0 0 617 385" fill="none" xmlns="http://www.w3.org/2000/svg">
<g clip-path="url(#clip0)" filter="url(#filter0_d)">
<path d="M461.765 351.099C454.378 344.856 449.89 334.994 451.067 325.394C452.244 315.794 459.532 306.968 468.986 304.929C478.44 302.891 489.217 308.534 492.089 317.77C493.669 299.963 495.49 281.41 504.956 266.246C513.528 252.516 528.374 242.691 544.463 240.933C560.553 239.175 577.493 245.814 587.528 258.514C597.563 271.215 600.019 289.679 592.992 304.261C587.814 315.002 578.276 322.996 568.282 329.5C535.989 350.338 497.257 358.812 459.213 353.363L461.765 351.099Z" fill="url(#paint0_linear)"/>
<path d="M571.617 246.182C558.341 256.997 546.162 269.092 535.256 282.293C518.187 302.882 504.375 325.966 494.301 350.74C493.563 352.547 496.498 353.334 497.227 351.547C513.71 311.283 540.025 275.795 573.763 248.328C575.278 247.095 573.12 244.959 571.617 246.182Z" fill="white"/>
<path d="M205.746 349.403C215.892 340.828 222.055 327.283 220.439 314.097C218.822 300.911 208.812 288.789 195.827 285.989C182.842 283.189 168.04 290.94 164.096 303.626C161.925 279.168 159.424 253.686 146.422 232.858C134.649 213.998 114.258 200.504 92.159 198.09C70.0598 195.676 46.7922 204.794 33.0097 222.238C19.2273 239.682 15.8527 265.043 25.5056 285.07C32.6165 299.824 45.7173 310.804 59.4438 319.736C103.236 348.235 157.56 360.12 209.25 352.512" fill="url(#paint1_linear)"/>
<path d="M54.8632 205.299C73.0978 220.153 89.8261 236.766 104.806 254.898C119.789 273.01 132.979 292.534 144.192 313.194C150.46 324.783 156.09 336.706 161.058 348.909C162.071 351.392 158.04 352.472 157.039 350.018C148.239 328.503 137.353 307.904 124.535 288.513C111.78 269.193 97.1804 251.156 80.9425 234.656C71.7582 225.327 62.0681 216.511 51.9159 208.247C49.835 206.552 52.7995 203.619 54.8632 205.299L54.8632 205.299Z" fill="white"/>
<path d="M434.18 354.245H192.105V105.845C192.105 52.9956 235.097 10 287.94 10H338.345C391.189 10 434.18 52.9956 434.18 105.845V354.245Z" fill="#F2F2F2"/>
<path d="M383.775 354.244H192.105V105.844C192.052 85.5935 198.464 65.8548 210.407 49.5017C210.847 48.9016 211.286 48.3092 211.739 47.7234C217.516 40.146 224.391 33.4728 232.136 27.9239C232.574 27.6056 233.013 27.2927 233.459 26.9799C239.94 22.4943 246.951 18.8275 254.331 16.0628C254.77 15.8967 255.216 15.7302 255.662 15.5706C262.338 13.1881 269.258 11.5561 276.294 10.7048C276.73 10.6452 277.178 10.5985 277.626 10.5519C284.483 9.81864 291.399 9.81864 298.256 10.5519C298.702 10.5985 299.15 10.6451 299.591 10.7054C306.626 11.5568 313.544 13.1886 320.218 15.5706C320.664 15.7303 321.11 15.8967 321.55 16.0632C328.84 18.793 335.768 22.4051 342.18 26.8189C342.626 27.125 343.072 27.4378 343.511 27.7507C347.853 30.85 351.931 34.3029 355.703 38.074C358.729 41.0989 361.548 44.3232 364.142 47.7253C364.594 48.3093 365.033 48.9016 365.472 49.5008C377.416 65.854 383.828 85.5931 383.775 105.844V354.244Z" fill="#BA6E27"/>
<path d="M368.19 243.145C374.05 243.145 378.801 238.394 378.801 232.532C378.801 226.671 374.05 221.92 368.19 221.92C362.329 221.92 357.578 226.671 357.578 232.532C357.578 238.394 362.329 243.145 368.19 243.145Z" fill="#7AE3B1"/>
<path d="M414.349 346.805H406.218L402.349 315.439L414.35 315.44L414.349 346.805Z" fill="#FFB8B8"/>
<path d="M400.41 344.48H416.091V354.355H390.537C390.537 353.058 390.792 351.774 391.288 350.576C391.784 349.378 392.512 348.289 393.428 347.373C394.345 346.456 395.434 345.728 396.632 345.232C397.829 344.736 399.113 344.48 400.41 344.48V344.48Z" fill="#2F2E41"/>
<path d="M454.805 346.805H446.674L442.806 315.439L454.807 315.44L454.805 346.805Z" fill="#FFB8B8"/>
<path d="M440.866 344.48H456.547V354.355H430.993C430.993 353.058 431.248 351.774 431.745 350.576C432.241 349.378 432.968 348.289 433.885 347.373C434.802 346.456 435.89 345.728 437.088 345.232C438.286 344.736 439.57 344.48 440.866 344.48V344.48Z" fill="#2F2E41"/>
<path d="M373.56 234.635C372.975 233.773 372.586 232.794 372.421 231.765C372.256 230.737 372.318 229.684 372.603 228.683C372.888 227.681 373.389 226.754 374.072 225.966C374.754 225.179 375.6 224.551 376.552 224.127L404.192 147.938L417.793 155.361L386.233 228.17C386.841 229.815 386.823 231.626 386.185 233.259C385.546 234.893 384.33 236.235 382.768 237.032C381.206 237.829 379.406 238.025 377.709 237.584C376.012 237.142 374.536 236.093 373.56 234.635V234.635Z" fill="#FFB8B8"/>
<path d="M450.652 248.951C449.748 248.433 448.969 247.723 448.37 246.871C447.77 246.019 447.364 245.047 447.182 244.021C446.999 242.996 447.043 241.942 447.311 240.936C447.579 239.929 448.064 238.994 448.733 238.195L440.17 157.6L455.648 158.307L459.207 237.583C460.474 238.795 461.252 240.431 461.395 242.179C461.537 243.927 461.033 245.666 459.978 247.067C458.924 248.469 457.392 249.434 455.673 249.782C453.954 250.129 452.167 249.833 450.652 248.951V248.951Z" fill="#FFB8B8"/>
<path d="M425.96 133.824C434.956 133.824 442.249 126.53 442.249 117.533C442.249 108.536 434.956 101.242 425.96 101.242C416.963 101.242 409.67 108.536 409.67 117.533C409.67 126.53 416.963 133.824 425.96 133.824Z" fill="#FFB8B8"/>
<path d="M450.548 230.621H401.438L401.498 230.238C401.586 229.667 410.25 172.905 403.86 154.335C403.219 152.51 403.275 150.512 404.018 148.726C404.761 146.941 406.139 145.493 407.885 144.662H407.885C417.019 140.36 434.552 135.063 449.35 147.918C451.527 149.841 453.228 152.244 454.317 154.937C455.405 157.63 455.853 160.54 455.623 163.436L450.548 230.621Z" fill="#124954"/>
<path d="M410.871 181.294L388.761 176.808L399.125 152.246C399.745 149.868 401.283 147.832 403.402 146.586C405.521 145.34 408.048 144.985 410.428 145.599C412.808 146.214 414.848 147.747 416.099 149.864C417.35 151.98 417.711 154.506 417.102 156.888L410.871 181.294Z" fill="#124954"/>
<path d="M439.188 189.623L437.858 159.151C436.85 153.423 440.129 148.008 445.172 147.123C450.216 146.241 455.141 150.214 456.154 155.984L461.15 184.457L439.188 189.623Z" fill="#124954"/>
<path d="M448.914 226.973C456.816 257.07 457.678 295.337 455.546 337.078L444.935 335.751L425.701 256.157L415.09 337.078L403.152 336.415C399.586 292.618 396.113 255.019 401.826 230.289L448.914 226.973Z" fill="#2F2E41"/>
<path d="M436.693 130.123C433.654 133.361 428.01 131.623 427.615 127.2C427.583 126.857 427.586 126.511 427.621 126.168C427.826 124.209 428.957 122.431 428.686 120.362C428.625 119.847 428.433 119.357 428.129 118.937C425.708 115.694 420.023 120.387 417.738 117.452C416.336 115.651 417.984 112.817 416.908 110.805C415.489 108.15 411.285 109.46 408.649 108.005C405.715 106.387 405.891 101.886 407.822 99.1486C410.176 95.8099 414.305 94.0284 418.382 93.7716C422.46 93.5149 426.509 94.6171 430.315 96.1007C434.64 97.7863 438.929 100.116 441.59 103.919C444.827 108.544 445.138 114.763 443.52 120.171C442.535 123.461 439.174 127.48 436.693 130.123Z" fill="#2F2E41"/>
<path d="M577.091 354.671H87.441C87.2319 354.671 87.0317 354.587 86.8841 354.439C86.7365 354.291 86.6536 354.091 86.6536 353.882C86.6536 353.672 86.7365 353.472 86.8841 353.324C87.0317 353.176 87.2319 353.092 87.441 353.092H577.091C577.3 353.092 577.5 353.176 577.648 353.324C577.796 353.472 577.879 353.672 577.879 353.882C577.879 354.091 577.796 354.291 577.648 354.439C577.5 354.587 577.3 354.671 577.091 354.671V354.671Z" fill="#3F3D56"/>
<path d="M331.049 282.278H244.831C243.695 282.284 242.604 281.84 241.796 281.042C240.988 280.244 240.529 279.159 240.52 278.023V85.558C240.529 84.4224 240.988 83.3367 241.796 82.5389C242.604 81.7412 243.695 81.2967 244.831 81.3028H331.049C332.185 81.2967 333.276 81.7412 334.085 82.5389C334.893 83.3367 335.351 84.4224 335.36 85.558V278.023C335.351 279.159 334.893 280.244 334.085 281.042C333.276 281.84 332.185 282.284 331.049 282.278V282.278Z" fill="white"/>
<path d="M335.36 143.578H240.52V144.905H335.36V143.578Z" fill="#CCCCCC"/>
<path d="M335.692 219.266H240.852V220.592H335.692V219.266Z" fill="#CCCCCC"/>
<path d="M271.691 81.3027H270.365V282.941H271.691V81.3027Z" fill="#CCCCCC"/>
<path d="M304.852 81.3027H303.526V282.941H304.852V81.3027Z" fill="#CCCCCC"/>
</g>
<defs>
<filter id="filter0_d" x="0" y="0" width="617" height="385" filterUnits="userSpaceOnUse" color-interpolation-filters="sRGB">
<feFlood flood-opacity="0" result="BackgroundImageFix"/>
<feColorMatrix in="SourceAlpha" type="matrix" values="0 0 0 0 0 0 0 0 0 0 0 0 0 0 0 0 0 0 127 0"/>
<feOffset dy="10"/>
<feGaussianBlur stdDeviation="10"/>
<feColorMatrix type="matrix" values="0 0 0 0 0.07 0 0 0 0 0.286667 0 0 0 0 0.33 0 0 0 0.4 0"/>
<feBlend mode="normal" in2="BackgroundImageFix" result="effect1_dropShadow"/>
<feBlend mode="normal" in="SourceGraphic" in2="effect1_dropShadow" result="shape"/>
</filter>
<linearGradient id="paint0_linear" x1="523.94" y1="240.654" x2="523.94" y2="354.974" gradientUnits="userSpaceOnUse">
<stop stop-color="#7AE3B1"/>
<stop offset="0.211458" stop-color="#73D9AB"/>
<stop offset="0.445833" stop-color="#65C49E"/>
<stop offset="0.773958" stop-color="#2D716C"/>
<stop offset="1" stop-color="#124954"/>
</linearGradient>
<linearGradient id="paint1_linear" x1="120.347" y1="197.707" x2="120.347" y2="354.761" gradientUnits="userSpaceOnUse">
<stop stop-color="#7AE3B1"/>
<stop offset="0.211458" stop-color="#73D9AB"/>
<stop offset="0.445833" stop-color="#65C49E"/>
<stop offset="0.773958" stop-color="#2D716C"/>
<stop offset="1" stop-color="#124954"/>
</linearGradient>
<clipPath id="clip0">
<rect width="577" height="345" fill="white" transform="translate(20 10)"/>
</clipPath>
</defs>
</svg>
