<svg width="862" height="667" viewBox="0 0 862 667" fill="none" xmlns="http://www.w3.org/2000/svg">
<g filter="url(#filter0_d)">
<path d="M0 25H757C773.569 25 787 38.4315 787 55V562C787 578.569 773.569 592 757 592H0V25Z" fill="#124954"/>
</g>
<path d="M546.765 428.099C539.378 421.856 534.891 411.994 536.067 402.394C537.244 392.794 544.532 383.968 553.986 381.929C563.44 379.891 574.217 385.534 577.089 394.77C578.669 376.963 580.49 358.41 589.957 343.246C598.528 329.516 613.374 319.691 629.464 317.933C645.553 316.175 662.494 322.814 672.528 335.514C682.563 348.215 685.02 366.679 677.992 381.261C672.815 392.002 663.276 399.996 653.283 406.5C620.989 427.338 582.257 435.812 544.214 430.363L546.765 428.099Z" fill="url(#paint0_linear)"/>
<path d="M656.617 323.182C643.341 333.997 631.162 346.092 620.256 359.293C603.187 379.882 589.375 402.966 579.301 427.74C578.563 429.547 581.498 430.334 582.227 428.547C598.71 388.283 625.025 352.795 658.763 325.328C660.278 324.095 658.12 321.959 656.617 323.182Z" fill="white"/>
<path d="M290.746 426.403C300.892 417.828 307.055 404.283 305.439 391.097C303.822 377.911 293.812 365.789 280.827 362.989C267.842 360.189 253.04 367.94 249.096 380.626C246.925 356.168 244.424 330.686 231.422 309.858C219.649 290.998 199.258 277.504 177.159 275.09C155.06 272.676 131.792 281.794 118.01 299.238C104.227 316.682 100.853 342.043 110.506 362.07C117.617 376.824 130.717 387.804 144.444 396.736C188.236 425.235 242.56 437.12 294.25 429.512" fill="url(#paint1_linear)"/>
<path d="M139.863 282.299C158.098 297.153 174.826 313.766 189.806 331.898C204.789 350.01 217.979 369.534 229.192 390.194C235.46 401.783 241.09 413.706 246.058 425.909C247.071 428.392 243.041 429.472 242.039 427.018C233.239 405.503 222.353 384.904 209.535 365.513C196.78 346.193 182.181 328.156 165.943 311.656C156.758 302.327 147.068 293.511 136.916 285.247C134.835 283.552 137.8 280.619 139.863 282.299L139.863 282.299Z" fill="white"/>
<path d="M519.18 431.245H277.105V182.845C277.105 129.996 320.096 87 372.94 87H423.345C476.188 87 519.18 129.996 519.18 182.845V431.245Z" fill="#F2F2F2"/>
<path d="M468.775 431.244H277.105V182.844C277.052 162.593 283.464 142.855 295.407 126.502C295.848 125.902 296.287 125.309 296.74 124.723C302.516 117.146 309.391 110.473 317.136 104.924C317.574 104.606 318.013 104.293 318.459 103.98C324.94 99.4943 331.951 95.8275 339.332 93.0628C339.77 92.8967 340.216 92.7302 340.663 92.5706C347.338 90.1881 354.258 88.5561 361.294 87.7048C361.73 87.6452 362.178 87.5985 362.626 87.5519C369.483 86.8186 376.399 86.8186 383.256 87.5519C383.702 87.5985 384.15 87.6451 384.592 87.7054C391.626 88.5568 398.544 90.1886 405.218 92.5706C405.664 92.7303 406.111 92.8967 406.55 93.0632C413.84 95.793 420.769 99.4051 427.181 103.819C427.626 104.125 428.072 104.438 428.511 104.751C432.853 107.85 436.931 111.303 440.704 115.074C443.729 118.099 446.548 121.323 449.143 124.725C449.594 125.309 450.033 125.902 450.473 126.501C462.416 142.854 468.828 162.593 468.775 182.844V431.244Z" fill="#BA6E27"/>
<path d="M453.19 320.145C459.05 320.145 463.801 315.394 463.801 309.532C463.801 303.671 459.05 298.92 453.19 298.92C447.329 298.92 442.578 303.671 442.578 309.532C442.578 315.394 447.329 320.145 453.19 320.145Z" fill="#7AE3B1"/>
<path d="M499.349 423.805H491.218L487.35 392.439L499.351 392.44L499.349 423.805Z" fill="#FFB8B8"/>
<path d="M485.41 421.48H501.091V431.355H475.537C475.537 430.058 475.793 428.774 476.289 427.576C476.785 426.378 477.512 425.289 478.429 424.373C479.346 423.456 480.434 422.728 481.632 422.232C482.83 421.736 484.114 421.48 485.41 421.48V421.48Z" fill="#2F2E41"/>
<path d="M539.805 423.805H531.674L527.806 392.439L539.807 392.44L539.805 423.805Z" fill="#FFB8B8"/>
<path d="M525.866 421.48H541.547V431.355H515.993C515.993 430.058 516.249 428.774 516.745 427.576C517.241 426.378 517.968 425.289 518.885 424.373C519.802 423.456 520.89 422.728 522.088 422.232C523.286 421.736 524.57 421.48 525.866 421.48V421.48Z" fill="#2F2E41"/>
<path d="M458.56 311.635C457.975 310.773 457.586 309.794 457.42 308.765C457.255 307.737 457.317 306.684 457.602 305.683C457.888 304.681 458.389 303.754 459.071 302.966C459.753 302.179 460.6 301.551 461.551 301.127L489.191 224.938L502.792 232.361L471.233 305.17C471.84 306.815 471.823 308.626 471.184 310.259C470.545 311.893 469.33 313.235 467.768 314.032C466.206 314.829 464.405 315.025 462.708 314.584C461.011 314.142 459.535 313.093 458.56 311.635V311.635Z" fill="#FFB8B8"/>
<path d="M535.651 325.951C534.748 325.433 533.969 324.723 533.369 323.871C532.769 323.019 532.364 322.047 532.181 321.021C531.998 319.996 532.042 318.942 532.31 317.936C532.578 316.929 533.064 315.994 533.733 315.195L525.17 234.6L540.648 235.307L544.207 314.583C545.474 315.795 546.252 317.431 546.394 319.179C546.536 320.927 546.032 322.666 544.978 324.067C543.923 325.469 542.391 326.434 540.672 326.782C538.953 327.129 537.167 326.833 535.651 325.951V325.951Z" fill="#FFB8B8"/>
<path d="M510.959 210.824C519.956 210.824 527.249 203.53 527.249 194.533C527.249 185.536 519.956 178.242 510.959 178.242C501.963 178.242 494.67 185.536 494.67 194.533C494.67 203.53 501.963 210.824 510.959 210.824Z" fill="#FFB8B8"/>
<path d="M535.548 307.621H486.438L486.498 307.238C486.586 306.667 495.25 249.905 488.86 231.335C488.219 229.51 488.275 227.512 489.018 225.726C489.761 223.941 491.139 222.493 492.885 221.662H492.885C502.019 217.36 519.552 212.063 534.35 224.918C536.527 226.841 538.228 229.244 539.317 231.937C540.405 234.63 540.853 237.54 540.623 240.436L535.548 307.621Z" fill="#124954"/>
<path d="M495.871 258.294L473.762 253.808L484.125 229.246C484.746 226.868 486.284 224.832 488.403 223.586C490.522 222.34 493.049 221.985 495.429 222.599C497.809 223.214 499.848 224.747 501.099 226.864C502.35 228.98 502.711 231.506 502.102 233.888L495.871 258.294Z" fill="#124954"/>
<path d="M524.187 266.623L522.858 236.151C521.85 230.423 525.129 225.008 530.171 224.123C535.215 223.241 540.141 227.214 541.153 232.984L546.149 261.457L524.187 266.623Z" fill="#124954"/>
<path d="M533.914 303.973C541.816 334.07 542.678 372.337 540.546 414.078L529.935 412.751L510.701 333.157L500.09 414.078L488.152 413.415C484.585 369.618 481.113 332.019 486.825 307.289L533.914 303.973Z" fill="#2F2E41"/>
<path d="M521.692 207.123C518.654 210.361 513.01 208.623 512.614 204.2C512.583 203.857 512.585 203.511 512.621 203.168C512.825 201.209 513.957 199.431 513.686 197.362C513.624 196.847 513.433 196.357 513.129 195.937C510.707 192.694 505.023 197.387 502.737 194.452C501.336 192.651 502.983 189.817 501.908 187.805C500.488 185.15 496.284 186.46 493.648 185.005C490.715 183.387 490.89 178.886 492.821 176.149C495.176 172.81 499.305 171.028 503.382 170.772C507.459 170.515 511.508 171.617 515.315 173.101C519.64 174.786 523.928 177.116 526.59 180.919C529.826 185.544 530.138 191.763 528.519 197.171C527.535 200.461 524.174 204.48 521.692 207.123Z" fill="#2F2E41"/>
<path d="M662.091 431.671H172.441C172.232 431.671 172.032 431.587 171.884 431.439C171.737 431.291 171.654 431.091 171.654 430.882C171.654 430.672 171.737 430.472 171.884 430.324C172.032 430.176 172.232 430.092 172.441 430.092H662.091C662.3 430.092 662.501 430.176 662.648 430.324C662.796 430.472 662.879 430.672 662.879 430.882C662.879 431.091 662.796 431.291 662.648 431.439C662.501 431.587 662.3 431.671 662.091 431.671V431.671Z" fill="#3F3D56"/>
<path d="M416.049 359.278H329.831C328.695 359.284 327.604 358.84 326.796 358.042C325.988 357.244 325.529 356.159 325.52 355.023V162.558C325.529 161.422 325.988 160.337 326.796 159.539C327.604 158.741 328.695 158.297 329.831 158.303H416.049C417.185 158.297 418.276 158.741 419.085 159.539C419.893 160.337 420.351 161.422 420.36 162.558V355.023C420.351 356.159 419.893 357.244 419.085 358.042C418.276 358.84 417.185 359.284 416.049 359.278V359.278Z" fill="white"/>
<path d="M420.36 220.578H325.52V221.905H420.36V220.578Z" fill="#CCCCCC"/>
<path d="M420.692 296.266H325.852V297.592H420.692V296.266Z" fill="#CCCCCC"/>
<path d="M356.691 158.303H355.365V359.941H356.691V158.303Z" fill="#CCCCCC"/>
<path d="M389.852 158.303H388.526V359.941H389.852V158.303Z" fill="#CCCCCC"/>
<path d="M76.1 486H78.1V498.26H85.68V500H76.1V486ZM92.8983 500.12C91.8449 500.12 90.8983 499.887 90.0583 499.42C89.2183 498.953 88.5583 498.313 88.0783 497.5C87.6116 496.673 87.3783 495.74 87.3783 494.7C87.3783 493.66 87.6116 492.733 88.0783 491.92C88.5583 491.093 89.2183 490.453 90.0583 490C90.8983 489.533 91.8449 489.3 92.8983 489.3C93.9516 489.3 94.8916 489.533 95.7183 490C96.5583 490.453 97.2116 491.093 97.6783 491.92C98.1583 492.733 98.3983 493.66 98.3983 494.7C98.3983 495.74 98.1583 496.673 97.6783 497.5C97.2116 498.313 96.5583 498.953 95.7183 499.42C94.8916 499.887 93.9516 500.12 92.8983 500.12ZM92.8983 498.44C93.5783 498.44 94.1849 498.287 94.7183 497.98C95.2649 497.66 95.6916 497.22 95.9983 496.66C96.3049 496.087 96.4583 495.433 96.4583 494.7C96.4583 493.967 96.3049 493.32 95.9983 492.76C95.6916 492.187 95.2649 491.747 94.7183 491.44C94.1849 491.133 93.5783 490.98 92.8983 490.98C92.2183 490.98 91.6049 491.133 91.0583 491.44C90.5249 491.747 90.0983 492.187 89.7783 492.76C89.4716 493.32 89.3183 493.967 89.3183 494.7C89.3183 495.433 89.4716 496.087 89.7783 496.66C90.0983 497.22 90.5249 497.66 91.0583 497.98C91.6049 498.287 92.2183 498.44 92.8983 498.44ZM103.694 491.18C104.027 490.567 104.52 490.1 105.174 489.78C105.827 489.46 106.62 489.3 107.554 489.3V491.16C107.447 491.147 107.3 491.14 107.114 491.14C106.074 491.14 105.254 491.453 104.654 492.08C104.067 492.693 103.774 493.573 103.774 494.72V500H101.854V489.4H103.694V491.18ZM120.202 494.76C120.202 494.907 120.189 495.1 120.162 495.34H111.562C111.682 496.273 112.089 497.027 112.782 497.6C113.489 498.16 114.362 498.44 115.402 498.44C116.669 498.44 117.689 498.013 118.462 497.16L119.522 498.4C119.042 498.96 118.442 499.387 117.722 499.68C117.016 499.973 116.222 500.12 115.342 500.12C114.222 500.12 113.229 499.893 112.362 499.44C111.496 498.973 110.822 498.327 110.342 497.5C109.876 496.673 109.642 495.74 109.642 494.7C109.642 493.673 109.869 492.747 110.322 491.92C110.789 491.093 111.422 490.453 112.222 490C113.036 489.533 113.949 489.3 114.962 489.3C115.976 489.3 116.876 489.533 117.662 490C118.462 490.453 119.082 491.093 119.522 491.92C119.976 492.747 120.202 493.693 120.202 494.76ZM114.962 490.92C114.042 490.92 113.269 491.2 112.642 491.76C112.029 492.32 111.669 493.053 111.562 493.96H118.362C118.256 493.067 117.889 492.34 117.262 491.78C116.649 491.207 115.882 490.92 114.962 490.92ZM136.928 489.3C138.262 489.3 139.315 489.687 140.088 490.46C140.875 491.233 141.268 492.38 141.268 493.9V500H139.348V494.12C139.348 493.093 139.108 492.32 138.628 491.8C138.162 491.28 137.488 491.02 136.608 491.02C135.635 491.02 134.862 491.327 134.288 491.94C133.715 492.54 133.428 493.407 133.428 494.54V500H131.508V494.12C131.508 493.093 131.268 492.32 130.788 491.8C130.322 491.28 129.648 491.02 128.768 491.02C127.795 491.02 127.022 491.327 126.448 491.94C125.875 492.54 125.588 493.407 125.588 494.54V500H123.668V489.4H125.508V490.98C125.895 490.433 126.402 490.02 127.028 489.74C127.655 489.447 128.368 489.3 129.168 489.3C129.995 489.3 130.728 489.467 131.368 489.8C132.008 490.133 132.502 490.62 132.848 491.26C133.248 490.647 133.802 490.167 134.508 489.82C135.228 489.473 136.035 489.3 136.928 489.3ZM151.772 489.4H153.692V500H151.772V489.4ZM152.732 487.36C152.359 487.36 152.046 487.24 151.792 487C151.552 486.76 151.432 486.467 151.432 486.12C151.432 485.773 151.552 485.48 151.792 485.24C152.046 484.987 152.359 484.86 152.732 484.86C153.106 484.86 153.412 484.98 153.652 485.22C153.906 485.447 154.032 485.733 154.032 486.08C154.032 486.44 153.906 486.747 153.652 487C153.412 487.24 153.106 487.36 152.732 487.36ZM163.778 489.3C164.805 489.3 165.725 489.527 166.538 489.98C167.352 490.433 167.985 491.067 168.438 491.88C168.905 492.693 169.138 493.633 169.138 494.7C169.138 495.767 168.905 496.713 168.438 497.54C167.985 498.353 167.352 498.987 166.538 499.44C165.725 499.893 164.805 500.12 163.778 500.12C163.018 500.12 162.318 499.973 161.678 499.68C161.052 499.387 160.518 498.96 160.078 498.4V503.88H158.158V489.4H159.998V491.08C160.425 490.493 160.965 490.053 161.618 489.76C162.272 489.453 162.992 489.3 163.778 489.3ZM163.618 498.44C164.298 498.44 164.905 498.287 165.438 497.98C165.985 497.66 166.412 497.22 166.718 496.66C167.038 496.087 167.198 495.433 167.198 494.7C167.198 493.967 167.038 493.32 166.718 492.76C166.412 492.187 165.985 491.747 165.438 491.44C164.905 491.133 164.298 490.98 163.618 490.98C162.952 490.98 162.345 491.14 161.798 491.46C161.265 491.767 160.838 492.2 160.518 492.76C160.212 493.32 160.058 493.967 160.058 494.7C160.058 495.433 160.212 496.087 160.518 496.66C160.825 497.22 161.252 497.66 161.798 497.98C162.345 498.287 162.952 498.44 163.618 498.44ZM175.631 500.12C174.764 500.12 173.931 500.007 173.131 499.78C172.331 499.54 171.704 499.24 171.251 498.88L172.051 497.36C172.518 497.693 173.084 497.96 173.751 498.16C174.418 498.36 175.091 498.46 175.771 498.46C177.451 498.46 178.291 497.98 178.291 497.02C178.291 496.7 178.178 496.447 177.951 496.26C177.724 496.073 177.438 495.94 177.091 495.86C176.758 495.767 176.278 495.667 175.651 495.56C174.798 495.427 174.098 495.273 173.551 495.1C173.018 494.927 172.558 494.633 172.171 494.22C171.784 493.807 171.591 493.227 171.591 492.48C171.591 491.52 171.991 490.753 172.791 490.18C173.591 489.593 174.664 489.3 176.011 489.3C176.718 489.3 177.424 489.387 178.131 489.56C178.838 489.733 179.418 489.967 179.871 490.26L179.051 491.78C178.184 491.22 177.164 490.94 175.991 490.94C175.178 490.94 174.558 491.073 174.131 491.34C173.704 491.607 173.491 491.96 173.491 492.4C173.491 492.747 173.611 493.02 173.851 493.22C174.091 493.42 174.384 493.567 174.731 493.66C175.091 493.753 175.591 493.86 176.231 493.98C177.084 494.127 177.771 494.287 178.291 494.46C178.824 494.62 179.278 494.9 179.651 495.3C180.024 495.7 180.211 496.26 180.211 496.98C180.211 497.94 179.798 498.707 178.971 499.28C178.158 499.84 177.044 500.12 175.631 500.12ZM193.291 489.4V500H191.471V498.4C191.084 498.947 190.571 499.373 189.931 499.68C189.304 499.973 188.617 500.12 187.871 500.12C186.457 500.12 185.344 499.733 184.531 498.96C183.717 498.173 183.311 497.02 183.311 495.5V489.4H185.231V495.28C185.231 496.307 185.477 497.087 185.971 497.62C186.464 498.14 187.171 498.4 188.091 498.4C189.104 498.4 189.904 498.093 190.491 497.48C191.077 496.867 191.371 496 191.371 494.88V489.4H193.291ZM211.006 489.3C212.339 489.3 213.392 489.687 214.166 490.46C214.952 491.233 215.346 492.38 215.346 493.9V500H213.426V494.12C213.426 493.093 213.186 492.32 212.706 491.8C212.239 491.28 211.566 491.02 210.686 491.02C209.712 491.02 208.939 491.327 208.366 491.94C207.792 492.54 207.506 493.407 207.506 494.54V500H205.586V494.12C205.586 493.093 205.346 492.32 204.866 491.8C204.399 491.28 203.726 491.02 202.846 491.02C201.872 491.02 201.099 491.327 200.526 491.94C199.952 492.54 199.666 493.407 199.666 494.54V500H197.746V489.4H199.586V490.98C199.972 490.433 200.479 490.02 201.106 489.74C201.732 489.447 202.446 489.3 203.246 489.3C204.072 489.3 204.806 489.467 205.446 489.8C206.086 490.133 206.579 490.62 206.926 491.26C207.326 490.647 207.879 490.167 208.586 489.82C209.306 489.473 210.112 489.3 211.006 489.3ZM235.85 485.16V500H234.01V498.32C233.583 498.907 233.043 499.353 232.39 499.66C231.736 499.967 231.016 500.12 230.23 500.12C229.203 500.12 228.283 499.893 227.47 499.44C226.656 498.987 226.016 498.353 225.55 497.54C225.096 496.713 224.87 495.767 224.87 494.7C224.87 493.633 225.096 492.693 225.55 491.88C226.016 491.067 226.656 490.433 227.47 489.98C228.283 489.527 229.203 489.3 230.23 489.3C230.99 489.3 231.69 489.447 232.33 489.74C232.97 490.02 233.503 490.44 233.93 491V485.16H235.85ZM230.39 498.44C231.056 498.44 231.663 498.287 232.21 497.98C232.756 497.66 233.183 497.22 233.49 496.66C233.796 496.087 233.95 495.433 233.95 494.7C233.95 493.967 233.796 493.32 233.49 492.76C233.183 492.187 232.756 491.747 232.21 491.44C231.663 491.133 231.056 490.98 230.39 490.98C229.71 490.98 229.096 491.133 228.55 491.44C228.016 491.747 227.59 492.187 227.27 492.76C226.963 493.32 226.81 493.967 226.81 494.7C226.81 495.433 226.963 496.087 227.27 496.66C227.59 497.22 228.016 497.66 228.55 497.98C229.096 498.287 229.71 498.44 230.39 498.44ZM244.822 500.12C243.769 500.12 242.822 499.887 241.982 499.42C241.142 498.953 240.482 498.313 240.002 497.5C239.536 496.673 239.302 495.74 239.302 494.7C239.302 493.66 239.536 492.733 240.002 491.92C240.482 491.093 241.142 490.453 241.982 490C242.822 489.533 243.769 489.3 244.822 489.3C245.876 489.3 246.816 489.533 247.642 490C248.482 490.453 249.136 491.093 249.602 491.92C250.082 492.733 250.322 493.66 250.322 494.7C250.322 495.74 250.082 496.673 249.602 497.5C249.136 498.313 248.482 498.953 247.642 499.42C246.816 499.887 245.876 500.12 244.822 500.12ZM244.822 498.44C245.502 498.44 246.109 498.287 246.642 497.98C247.189 497.66 247.616 497.22 247.922 496.66C248.229 496.087 248.382 495.433 248.382 494.7C248.382 493.967 248.229 493.32 247.922 492.76C247.616 492.187 247.189 491.747 246.642 491.44C246.109 491.133 245.502 490.98 244.822 490.98C244.142 490.98 243.529 491.133 242.982 491.44C242.449 491.747 242.022 492.187 241.702 492.76C241.396 493.32 241.242 493.967 241.242 494.7C241.242 495.433 241.396 496.087 241.702 496.66C242.022 497.22 242.449 497.66 242.982 497.98C243.529 498.287 244.142 498.44 244.822 498.44ZM253.778 485.16H255.698V500H253.778V485.16ZM264.704 500.12C263.65 500.12 262.704 499.887 261.864 499.42C261.024 498.953 260.364 498.313 259.884 497.5C259.417 496.673 259.184 495.74 259.184 494.7C259.184 493.66 259.417 492.733 259.884 491.92C260.364 491.093 261.024 490.453 261.864 490C262.704 489.533 263.65 489.3 264.704 489.3C265.757 489.3 266.697 489.533 267.524 490C268.364 490.453 269.017 491.093 269.484 491.92C269.964 492.733 270.204 493.66 270.204 494.7C270.204 495.74 269.964 496.673 269.484 497.5C269.017 498.313 268.364 498.953 267.524 499.42C266.697 499.887 265.757 500.12 264.704 500.12ZM264.704 498.44C265.384 498.44 265.99 498.287 266.524 497.98C267.07 497.66 267.497 497.22 267.804 496.66C268.11 496.087 268.264 495.433 268.264 494.7C268.264 493.967 268.11 493.32 267.804 492.76C267.497 492.187 267.07 491.747 266.524 491.44C265.99 491.133 265.384 490.98 264.704 490.98C264.024 490.98 263.41 491.133 262.864 491.44C262.33 491.747 261.904 492.187 261.584 492.76C261.277 493.32 261.124 493.967 261.124 494.7C261.124 495.433 261.277 496.087 261.584 496.66C261.904 497.22 262.33 497.66 262.864 497.98C263.41 498.287 264.024 498.44 264.704 498.44ZM275.499 491.18C275.832 490.567 276.326 490.1 276.979 489.78C277.632 489.46 278.426 489.3 279.359 489.3V491.16C279.252 491.147 279.106 491.14 278.919 491.14C277.879 491.14 277.059 491.453 276.459 492.08C275.872 492.693 275.579 493.573 275.579 494.72V500H273.659V489.4H275.499V491.18ZM291.873 500.12C291.007 500.12 290.173 500.007 289.373 499.78C288.573 499.54 287.947 499.24 287.493 498.88L288.293 497.36C288.76 497.693 289.327 497.96 289.993 498.16C290.66 498.36 291.333 498.46 292.013 498.46C293.693 498.46 294.533 497.98 294.533 497.02C294.533 496.7 294.42 496.447 294.193 496.26C293.967 496.073 293.68 495.94 293.333 495.86C293 495.767 292.52 495.667 291.893 495.56C291.04 495.427 290.34 495.273 289.793 495.1C289.26 494.927 288.8 494.633 288.413 494.22C288.027 493.807 287.833 493.227 287.833 492.48C287.833 491.52 288.233 490.753 289.033 490.18C289.833 489.593 290.907 489.3 292.253 489.3C292.96 489.3 293.667 489.387 294.373 489.56C295.08 489.733 295.66 489.967 296.113 490.26L295.293 491.78C294.427 491.22 293.407 490.94 292.233 490.94C291.42 490.94 290.8 491.073 290.373 491.34C289.947 491.607 289.733 491.96 289.733 492.4C289.733 492.747 289.853 493.02 290.093 493.22C290.333 493.42 290.627 493.567 290.973 493.66C291.333 493.753 291.833 493.86 292.473 493.98C293.327 494.127 294.013 494.287 294.533 494.46C295.067 494.62 295.52 494.9 295.893 495.3C296.267 495.7 296.453 496.26 296.453 496.98C296.453 497.94 296.04 498.707 295.213 499.28C294.4 499.84 293.287 500.12 291.873 500.12ZM299.653 489.4H301.573V500H299.653V489.4ZM300.613 487.36C300.239 487.36 299.926 487.24 299.673 487C299.433 486.76 299.313 486.467 299.313 486.12C299.313 485.773 299.433 485.48 299.673 485.24C299.926 484.987 300.239 484.86 300.613 484.86C300.986 484.86 301.293 484.98 301.533 485.22C301.786 485.447 301.913 485.733 301.913 486.08C301.913 486.44 301.786 486.747 301.533 487C301.293 487.24 300.986 487.36 300.613 487.36ZM311.999 499.38C311.719 499.62 311.372 499.807 310.959 499.94C310.545 500.06 310.119 500.12 309.679 500.12C308.612 500.12 307.785 499.833 307.199 499.26C306.612 498.687 306.319 497.867 306.319 496.8V490.98H304.519V489.4H306.319V487.08H308.239V489.4H311.279V490.98H308.239V496.72C308.239 497.293 308.379 497.733 308.659 498.04C308.952 498.347 309.365 498.5 309.899 498.5C310.485 498.5 310.985 498.333 311.399 498L311.999 499.38ZM325.151 489.3C326.618 489.3 327.738 489.66 328.511 490.38C329.298 491.1 329.691 492.173 329.691 493.6V500H327.871V498.6C327.551 499.093 327.091 499.473 326.491 499.74C325.904 499.993 325.204 500.12 324.391 500.12C323.204 500.12 322.251 499.833 321.531 499.26C320.824 498.687 320.471 497.933 320.471 497C320.471 496.067 320.811 495.32 321.491 494.76C322.171 494.187 323.251 493.9 324.731 493.9H327.771V493.52C327.771 492.693 327.531 492.06 327.051 491.62C326.571 491.18 325.864 490.96 324.931 490.96C324.304 490.96 323.691 491.067 323.091 491.28C322.491 491.48 321.984 491.753 321.571 492.1L320.771 490.66C321.318 490.22 321.971 489.887 322.731 489.66C323.491 489.42 324.298 489.3 325.151 489.3ZM324.711 498.64C325.444 498.64 326.078 498.48 326.611 498.16C327.144 497.827 327.531 497.36 327.771 496.76V495.28H324.811C323.184 495.28 322.371 495.827 322.371 496.92C322.371 497.453 322.578 497.873 322.991 498.18C323.404 498.487 323.978 498.64 324.711 498.64ZM347.304 489.3C348.638 489.3 349.691 489.687 350.464 490.46C351.251 491.233 351.644 492.38 351.644 493.9V500H349.724V494.12C349.724 493.093 349.484 492.32 349.004 491.8C348.538 491.28 347.864 491.02 346.984 491.02C346.011 491.02 345.238 491.327 344.664 491.94C344.091 492.54 343.804 493.407 343.804 494.54V500H341.884V494.12C341.884 493.093 341.644 492.32 341.164 491.8C340.698 491.28 340.024 491.02 339.144 491.02C338.171 491.02 337.398 491.327 336.824 491.94C336.251 492.54 335.964 493.407 335.964 494.54V500H334.044V489.4H335.884V490.98C336.271 490.433 336.778 490.02 337.404 489.74C338.031 489.447 338.744 489.3 339.544 489.3C340.371 489.3 341.104 489.467 341.744 489.8C342.384 490.133 342.878 490.62 343.224 491.26C343.624 490.647 344.178 490.167 344.884 489.82C345.604 489.473 346.411 489.3 347.304 489.3ZM365.616 494.76C365.616 494.907 365.602 495.1 365.576 495.34H356.976C357.096 496.273 357.502 497.027 358.196 497.6C358.902 498.16 359.776 498.44 360.816 498.44C362.082 498.44 363.102 498.013 363.876 497.16L364.936 498.4C364.456 498.96 363.856 499.387 363.136 499.68C362.429 499.973 361.636 500.12 360.756 500.12C359.636 500.12 358.642 499.893 357.776 499.44C356.909 498.973 356.236 498.327 355.756 497.5C355.289 496.673 355.056 495.74 355.056 494.7C355.056 493.673 355.282 492.747 355.736 491.92C356.202 491.093 356.836 490.453 357.636 490C358.449 489.533 359.362 489.3 360.376 489.3C361.389 489.3 362.289 489.533 363.076 490C363.876 490.453 364.496 491.093 364.936 491.92C365.389 492.747 365.616 493.693 365.616 494.76ZM360.376 490.92C359.456 490.92 358.682 491.2 358.056 491.76C357.442 492.32 357.082 493.053 356.976 493.96H363.776C363.669 493.067 363.302 492.34 362.676 491.78C362.062 491.207 361.296 490.92 360.376 490.92ZM375.042 499.38C374.762 499.62 374.415 499.807 374.002 499.94C373.588 500.06 373.162 500.12 372.722 500.12C371.655 500.12 370.828 499.833 370.242 499.26C369.655 498.687 369.362 497.867 369.362 496.8V490.98H367.562V489.4H369.362V487.08H371.282V489.4H374.322V490.98H371.282V496.72C371.282 497.293 371.422 497.733 371.702 498.04C371.995 498.347 372.408 498.5 372.942 498.5C373.528 498.5 374.028 498.333 374.442 498L375.042 499.38ZM378.838 497.38C379.212 497.38 379.518 497.513 379.758 497.78C380.012 498.033 380.138 498.353 380.138 498.74C380.138 498.94 380.112 499.133 380.058 499.32C380.018 499.507 379.932 499.793 379.798 500.18L378.858 502.96H377.598L378.338 499.98C378.085 499.887 377.878 499.733 377.718 499.52C377.572 499.293 377.498 499.033 377.498 498.74C377.498 498.34 377.625 498.013 377.878 497.76C378.132 497.507 378.452 497.38 378.838 497.38ZM394.481 500.12C393.401 500.12 392.434 499.887 391.581 499.42C390.741 498.953 390.081 498.313 389.601 497.5C389.121 496.673 388.881 495.74 388.881 494.7C388.881 493.66 389.121 492.733 389.601 491.92C390.081 491.093 390.741 490.453 391.581 490C392.434 489.533 393.401 489.3 394.481 489.3C395.441 489.3 396.294 489.493 397.041 489.88C397.801 490.267 398.387 490.827 398.801 491.56L397.341 492.5C397.007 491.993 396.594 491.613 396.101 491.36C395.607 491.107 395.061 490.98 394.461 490.98C393.767 490.98 393.141 491.133 392.581 491.44C392.034 491.747 391.601 492.187 391.281 492.76C390.974 493.32 390.821 493.967 390.821 494.7C390.821 495.447 390.974 496.107 391.281 496.68C391.601 497.24 392.034 497.673 392.581 497.98C393.141 498.287 393.767 498.44 394.461 498.44C395.061 498.44 395.607 498.313 396.101 498.06C396.594 497.807 397.007 497.427 397.341 496.92L398.801 497.84C398.387 498.573 397.801 499.14 397.041 499.54C396.294 499.927 395.441 500.12 394.481 500.12ZM406.47 500.12C405.417 500.12 404.47 499.887 403.63 499.42C402.79 498.953 402.13 498.313 401.65 497.5C401.184 496.673 400.95 495.74 400.95 494.7C400.95 493.66 401.184 492.733 401.65 491.92C402.13 491.093 402.79 490.453 403.63 490C404.47 489.533 405.417 489.3 406.47 489.3C407.524 489.3 408.464 489.533 409.29 490C410.13 490.453 410.784 491.093 411.25 491.92C411.73 492.733 411.97 493.66 411.97 494.7C411.97 495.74 411.73 496.673 411.25 497.5C410.784 498.313 410.13 498.953 409.29 499.42C408.464 499.887 407.524 500.12 406.47 500.12ZM406.47 498.44C407.15 498.44 407.757 498.287 408.29 497.98C408.837 497.66 409.264 497.22 409.57 496.66C409.877 496.087 410.03 495.433 410.03 494.7C410.03 493.967 409.877 493.32 409.57 492.76C409.264 492.187 408.837 491.747 408.29 491.44C407.757 491.133 407.15 490.98 406.47 490.98C405.79 490.98 405.177 491.133 404.63 491.44C404.097 491.747 403.67 492.187 403.35 492.76C403.044 493.32 402.89 493.967 402.89 494.7C402.89 495.433 403.044 496.087 403.35 496.66C403.67 497.22 404.097 497.66 404.63 497.98C405.177 498.287 405.79 498.44 406.47 498.44ZM421.085 489.3C422.432 489.3 423.499 489.693 424.285 490.48C425.085 491.253 425.485 492.393 425.485 493.9V500H423.565V494.12C423.565 493.093 423.319 492.32 422.825 491.8C422.332 491.28 421.625 491.02 420.705 491.02C419.665 491.02 418.845 491.327 418.245 491.94C417.645 492.54 417.345 493.407 417.345 494.54V500H415.425V489.4H417.265V491C417.652 490.453 418.172 490.033 418.825 489.74C419.492 489.447 420.245 489.3 421.085 489.3ZM432.879 500.12C432.012 500.12 431.179 500.007 430.379 499.78C429.579 499.54 428.952 499.24 428.499 498.88L429.299 497.36C429.765 497.693 430.332 497.96 430.999 498.16C431.665 498.36 432.339 498.46 433.019 498.46C434.699 498.46 435.539 497.98 435.539 497.02C435.539 496.7 435.425 496.447 435.199 496.26C434.972 496.073 434.685 495.94 434.339 495.86C434.005 495.767 433.525 495.667 432.899 495.56C432.045 495.427 431.345 495.273 430.799 495.1C430.265 494.927 429.805 494.633 429.419 494.22C429.032 493.807 428.839 493.227 428.839 492.48C428.839 491.52 429.239 490.753 430.039 490.18C430.839 489.593 431.912 489.3 433.259 489.3C433.965 489.3 434.672 489.387 435.379 489.56C436.085 489.733 436.665 489.967 437.119 490.26L436.299 491.78C435.432 491.22 434.412 490.94 433.239 490.94C432.425 490.94 431.805 491.073 431.379 491.34C430.952 491.607 430.739 491.96 430.739 492.4C430.739 492.747 430.859 493.02 431.099 493.22C431.339 493.42 431.632 493.567 431.979 493.66C432.339 493.753 432.839 493.86 433.479 493.98C434.332 494.127 435.019 494.287 435.539 494.46C436.072 494.62 436.525 494.9 436.899 495.3C437.272 495.7 437.459 496.26 437.459 496.98C437.459 497.94 437.045 498.707 436.219 499.28C435.405 499.84 434.292 500.12 432.879 500.12ZM450.238 494.76C450.238 494.907 450.225 495.1 450.198 495.34H441.598C441.718 496.273 442.125 497.027 442.818 497.6C443.525 498.16 444.398 498.44 445.438 498.44C446.705 498.44 447.725 498.013 448.498 497.16L449.558 498.4C449.078 498.96 448.478 499.387 447.758 499.68C447.052 499.973 446.258 500.12 445.378 500.12C444.258 500.12 443.265 499.893 442.398 499.44C441.532 498.973 440.858 498.327 440.378 497.5C439.912 496.673 439.678 495.74 439.678 494.7C439.678 493.673 439.905 492.747 440.358 491.92C440.825 491.093 441.458 490.453 442.258 490C443.072 489.533 443.985 489.3 444.998 489.3C446.012 489.3 446.912 489.533 447.698 490C448.498 490.453 449.118 491.093 449.558 491.92C450.012 492.747 450.238 493.693 450.238 494.76ZM444.998 490.92C444.078 490.92 443.305 491.2 442.678 491.76C442.065 492.32 441.705 493.053 441.598 493.96H448.398C448.292 493.067 447.925 492.34 447.298 491.78C446.685 491.207 445.918 490.92 444.998 490.92ZM458.324 500.12C457.244 500.12 456.278 499.887 455.424 499.42C454.584 498.953 453.924 498.313 453.444 497.5C452.964 496.673 452.724 495.74 452.724 494.7C452.724 493.66 452.964 492.733 453.444 491.92C453.924 491.093 454.584 490.453 455.424 490C456.278 489.533 457.244 489.3 458.324 489.3C459.284 489.3 460.138 489.493 460.884 489.88C461.644 490.267 462.231 490.827 462.644 491.56L461.184 492.5C460.851 491.993 460.438 491.613 459.944 491.36C459.451 491.107 458.904 490.98 458.304 490.98C457.611 490.98 456.984 491.133 456.424 491.44C455.878 491.747 455.444 492.187 455.124 492.76C454.818 493.32 454.664 493.967 454.664 494.7C454.664 495.447 454.818 496.107 455.124 496.68C455.444 497.24 455.878 497.673 456.424 497.98C456.984 498.287 457.611 498.44 458.304 498.44C458.904 498.44 459.451 498.313 459.944 498.06C460.438 497.807 460.851 497.427 461.184 496.92L462.644 497.84C462.231 498.573 461.644 499.14 460.884 499.54C460.138 499.927 459.284 500.12 458.324 500.12ZM472.027 499.38C471.747 499.62 471.4 499.807 470.987 499.94C470.574 500.06 470.147 500.12 469.707 500.12C468.64 500.12 467.814 499.833 467.227 499.26C466.64 498.687 466.347 497.867 466.347 496.8V490.98H464.547V489.4H466.347V487.08H468.267V489.4H471.307V490.98H468.267V496.72C468.267 497.293 468.407 497.733 468.687 498.04C468.98 498.347 469.394 498.5 469.927 498.5C470.514 498.5 471.014 498.333 471.427 498L472.027 499.38ZM484.377 494.76C484.377 494.907 484.363 495.1 484.337 495.34H475.737C475.857 496.273 476.263 497.027 476.957 497.6C477.663 498.16 478.537 498.44 479.577 498.44C480.843 498.44 481.863 498.013 482.637 497.16L483.697 498.4C483.217 498.96 482.617 499.387 481.897 499.68C481.19 499.973 480.397 500.12 479.517 500.12C478.397 500.12 477.403 499.893 476.537 499.44C475.67 498.973 474.997 498.327 474.517 497.5C474.05 496.673 473.817 495.74 473.817 494.7C473.817 493.673 474.043 492.747 474.497 491.92C474.963 491.093 475.597 490.453 476.397 490C477.21 489.533 478.123 489.3 479.137 489.3C480.15 489.3 481.05 489.533 481.837 490C482.637 490.453 483.257 491.093 483.697 491.92C484.15 492.747 484.377 493.693 484.377 494.76ZM479.137 490.92C478.217 490.92 477.443 491.2 476.817 491.76C476.203 492.32 475.843 493.053 475.737 493.96H482.537C482.43 493.067 482.063 492.34 481.437 491.78C480.823 491.207 480.057 490.92 479.137 490.92ZM493.803 499.38C493.523 499.62 493.176 499.807 492.763 499.94C492.349 500.06 491.923 500.12 491.483 500.12C490.416 500.12 489.589 499.833 489.003 499.26C488.416 498.687 488.123 497.867 488.123 496.8V490.98H486.323V489.4H488.123V487.08H490.043V489.4H493.083V490.98H490.043V496.72C490.043 497.293 490.183 497.733 490.463 498.04C490.756 498.347 491.169 498.5 491.703 498.5C492.289 498.5 492.789 498.333 493.203 498L493.803 499.38ZM506.804 489.4V500H504.984V498.4C504.597 498.947 504.084 499.373 503.444 499.68C502.817 499.973 502.131 500.12 501.384 500.12C499.971 500.12 498.857 499.733 498.044 498.96C497.231 498.173 496.824 497.02 496.824 495.5V489.4H498.744V495.28C498.744 496.307 498.991 497.087 499.484 497.62C499.977 498.14 500.684 498.4 501.604 498.4C502.617 498.4 503.417 498.093 504.004 497.48C504.591 496.867 504.884 496 504.884 494.88V489.4H506.804ZM513.099 491.18C513.432 490.567 513.926 490.1 514.579 489.78C515.232 489.46 516.026 489.3 516.959 489.3V491.16C516.852 491.147 516.706 491.14 516.519 491.14C515.479 491.14 514.659 491.453 514.059 492.08C513.472 492.693 513.179 493.573 513.179 494.72V500H511.259V489.4H513.099V491.18ZM530.293 489.3C531.76 489.3 532.88 489.66 533.653 490.38C534.44 491.1 534.833 492.173 534.833 493.6V500H533.013V498.6C532.693 499.093 532.233 499.473 531.633 499.74C531.047 499.993 530.347 500.12 529.533 500.12C528.347 500.12 527.393 499.833 526.673 499.26C525.967 498.687 525.613 497.933 525.613 497C525.613 496.067 525.953 495.32 526.633 494.76C527.313 494.187 528.393 493.9 529.873 493.9H532.913V493.52C532.913 492.693 532.673 492.06 532.193 491.62C531.713 491.18 531.007 490.96 530.073 490.96C529.447 490.96 528.833 491.067 528.233 491.28C527.633 491.48 527.127 491.753 526.713 492.1L525.913 490.66C526.46 490.22 527.113 489.887 527.873 489.66C528.633 489.42 529.44 489.3 530.293 489.3ZM529.853 498.64C530.587 498.64 531.22 498.48 531.753 498.16C532.287 497.827 532.673 497.36 532.913 496.76V495.28H529.953C528.327 495.28 527.513 495.827 527.513 496.92C527.513 497.453 527.72 497.873 528.133 498.18C528.547 498.487 529.12 498.64 529.853 498.64ZM549.245 485.16V500H547.405V498.32C546.978 498.907 546.438 499.353 545.785 499.66C545.132 499.967 544.412 500.12 543.625 500.12C542.598 500.12 541.678 499.893 540.865 499.44C540.052 498.987 539.412 498.353 538.945 497.54C538.492 496.713 538.265 495.767 538.265 494.7C538.265 493.633 538.492 492.693 538.945 491.88C539.412 491.067 540.052 490.433 540.865 489.98C541.678 489.527 542.598 489.3 543.625 489.3C544.385 489.3 545.085 489.447 545.725 489.74C546.365 490.02 546.898 490.44 547.325 491V485.16H549.245ZM543.785 498.44C544.452 498.44 545.058 498.287 545.605 497.98C546.152 497.66 546.578 497.22 546.885 496.66C547.192 496.087 547.345 495.433 547.345 494.7C547.345 493.967 547.192 493.32 546.885 492.76C546.578 492.187 546.152 491.747 545.605 491.44C545.058 491.133 544.452 490.98 543.785 490.98C543.105 490.98 542.492 491.133 541.945 491.44C541.412 491.747 540.985 492.187 540.665 492.76C540.358 493.32 540.205 493.967 540.205 494.7C540.205 495.433 540.358 496.087 540.665 496.66C540.985 497.22 541.412 497.66 541.945 497.98C542.492 498.287 543.105 498.44 543.785 498.44ZM553.678 489.4H555.598V500H553.678V489.4ZM554.638 487.36C554.264 487.36 553.951 487.24 553.698 487C553.458 486.76 553.338 486.467 553.338 486.12C553.338 485.773 553.458 485.48 553.698 485.24C553.951 484.987 554.264 484.86 554.638 484.86C555.011 484.86 555.318 484.98 555.558 485.22C555.811 485.447 555.938 485.733 555.938 486.08C555.938 486.44 555.811 486.747 555.558 487C555.318 487.24 555.011 487.36 554.638 487.36ZM565.684 489.3C566.71 489.3 567.63 489.527 568.444 489.98C569.257 490.433 569.89 491.067 570.344 491.88C570.81 492.693 571.044 493.633 571.044 494.7C571.044 495.767 570.81 496.713 570.344 497.54C569.89 498.353 569.257 498.987 568.444 499.44C567.63 499.893 566.71 500.12 565.684 500.12C564.924 500.12 564.224 499.973 563.584 499.68C562.957 499.387 562.424 498.96 561.984 498.4V503.88H560.064V489.4H561.904V491.08C562.33 490.493 562.87 490.053 563.524 489.76C564.177 489.453 564.897 489.3 565.684 489.3ZM565.524 498.44C566.204 498.44 566.81 498.287 567.344 497.98C567.89 497.66 568.317 497.22 568.624 496.66C568.944 496.087 569.104 495.433 569.104 494.7C569.104 493.967 568.944 493.32 568.624 492.76C568.317 492.187 567.89 491.747 567.344 491.44C566.81 491.133 566.204 490.98 565.524 490.98C564.857 490.98 564.25 491.14 563.704 491.46C563.17 491.767 562.744 492.2 562.424 492.76C562.117 493.32 561.964 493.967 561.964 494.7C561.964 495.433 562.117 496.087 562.424 496.66C562.73 497.22 563.157 497.66 563.704 497.98C564.25 498.287 564.857 498.44 565.524 498.44ZM574.497 489.4H576.417V500H574.497V489.4ZM575.457 487.36C575.083 487.36 574.77 487.24 574.517 487C574.277 486.76 574.157 486.467 574.157 486.12C574.157 485.773 574.277 485.48 574.517 485.24C574.77 484.987 575.083 484.86 575.457 484.86C575.83 484.86 576.137 484.98 576.377 485.22C576.63 485.447 576.757 485.733 576.757 486.08C576.757 486.44 576.63 486.747 576.377 487C576.137 487.24 575.83 487.36 575.457 487.36ZM583.923 500.12C583.056 500.12 582.223 500.007 581.423 499.78C580.623 499.54 579.996 499.24 579.543 498.88L580.343 497.36C580.809 497.693 581.376 497.96 582.043 498.16C582.709 498.36 583.383 498.46 584.062 498.46C585.743 498.46 586.583 497.98 586.583 497.02C586.583 496.7 586.469 496.447 586.243 496.26C586.016 496.073 585.729 495.94 585.383 495.86C585.049 495.767 584.569 495.667 583.943 495.56C583.089 495.427 582.389 495.273 581.843 495.1C581.309 494.927 580.849 494.633 580.463 494.22C580.076 493.807 579.883 493.227 579.883 492.48C579.883 491.52 580.283 490.753 581.083 490.18C581.883 489.593 582.956 489.3 584.303 489.3C585.009 489.3 585.716 489.387 586.423 489.56C587.129 489.733 587.709 489.967 588.163 490.26L587.343 491.78C586.476 491.22 585.456 490.94 584.283 490.94C583.469 490.94 582.849 491.073 582.423 491.34C581.996 491.607 581.783 491.96 581.783 492.4C581.783 492.747 581.903 493.02 582.143 493.22C582.383 493.42 582.676 493.567 583.023 493.66C583.383 493.753 583.883 493.86 584.523 493.98C585.376 494.127 586.063 494.287 586.583 494.46C587.116 494.62 587.569 494.9 587.943 495.3C588.316 495.7 588.503 496.26 588.503 496.98C588.503 497.94 588.089 498.707 587.263 499.28C586.449 499.84 585.336 500.12 583.923 500.12ZM596.322 500.12C595.242 500.12 594.275 499.887 593.422 499.42C592.582 498.953 591.922 498.313 591.442 497.5C590.962 496.673 590.722 495.74 590.722 494.7C590.722 493.66 590.962 492.733 591.442 491.92C591.922 491.093 592.582 490.453 593.422 490C594.275 489.533 595.242 489.3 596.322 489.3C597.282 489.3 598.135 489.493 598.882 489.88C599.642 490.267 600.229 490.827 600.642 491.56L599.182 492.5C598.849 491.993 598.435 491.613 597.942 491.36C597.449 491.107 596.902 490.98 596.302 490.98C595.609 490.98 594.982 491.133 594.422 491.44C593.875 491.747 593.442 492.187 593.122 492.76C592.815 493.32 592.662 493.967 592.662 494.7C592.662 495.447 592.815 496.107 593.122 496.68C593.442 497.24 593.875 497.673 594.422 497.98C594.982 498.287 595.609 498.44 596.302 498.44C596.902 498.44 597.449 498.313 597.942 498.06C598.435 497.807 598.849 497.427 599.182 496.92L600.642 497.84C600.229 498.573 599.642 499.14 598.882 499.54C598.135 499.927 597.282 500.12 596.322 500.12ZM603.928 489.4H605.848V500H603.928V489.4ZM604.888 487.36C604.514 487.36 604.201 487.24 603.948 487C603.708 486.76 603.588 486.467 603.588 486.12C603.588 485.773 603.708 485.48 603.948 485.24C604.201 484.987 604.514 484.86 604.888 484.86C605.261 484.86 605.568 484.98 605.808 485.22C606.061 485.447 606.188 485.733 606.188 486.08C606.188 486.44 606.061 486.747 605.808 487C605.568 487.24 605.261 487.36 604.888 487.36ZM615.974 489.3C617.32 489.3 618.387 489.693 619.174 490.48C619.974 491.253 620.374 492.393 620.374 493.9V500H618.454V494.12C618.454 493.093 618.207 492.32 617.714 491.8C617.22 491.28 616.514 491.02 615.594 491.02C614.554 491.02 613.734 491.327 613.134 491.94C612.534 492.54 612.234 493.407 612.234 494.54V500H610.314V489.4H612.154V491C612.54 490.453 613.06 490.033 613.714 489.74C614.38 489.447 615.134 489.3 615.974 489.3ZM634.926 489.4V498.56C634.926 500.413 634.466 501.78 633.546 502.66C632.626 503.553 631.252 504 629.426 504C628.426 504 627.472 503.86 626.566 503.58C625.659 503.313 624.926 502.927 624.366 502.42L625.286 500.94C625.779 501.367 626.386 501.7 627.106 501.94C627.839 502.193 628.592 502.32 629.366 502.32C630.606 502.32 631.519 502.027 632.106 501.44C632.706 500.853 633.006 499.96 633.006 498.76V497.92C632.552 498.467 631.992 498.88 631.326 499.16C630.672 499.427 629.959 499.56 629.186 499.56C628.172 499.56 627.252 499.347 626.426 498.92C625.612 498.48 624.972 497.873 624.506 497.1C624.039 496.313 623.806 495.42 623.806 494.42C623.806 493.42 624.039 492.533 624.506 491.76C624.972 490.973 625.612 490.367 626.426 489.94C627.252 489.513 628.172 489.3 629.186 489.3C629.986 489.3 630.726 489.447 631.406 489.74C632.099 490.033 632.666 490.467 633.106 491.04V489.4H634.926ZM629.406 497.88C630.099 497.88 630.719 497.733 631.266 497.44C631.826 497.147 632.259 496.74 632.566 496.22C632.886 495.687 633.046 495.087 633.046 494.42C633.046 493.393 632.706 492.567 632.026 491.94C631.346 491.3 630.472 490.98 629.406 490.98C628.326 490.98 627.446 491.3 626.766 491.94C626.086 492.567 625.746 493.393 625.746 494.42C625.746 495.087 625.899 495.687 626.206 496.22C626.526 496.74 626.959 497.147 627.506 497.44C628.066 497.733 628.699 497.88 629.406 497.88ZM655.145 494.76C655.145 494.907 655.132 495.1 655.105 495.34H646.505C646.625 496.273 647.032 497.027 647.725 497.6C648.432 498.16 649.305 498.44 650.345 498.44C651.612 498.44 652.632 498.013 653.405 497.16L654.465 498.4C653.985 498.96 653.385 499.387 652.665 499.68C651.959 499.973 651.165 500.12 650.285 500.12C649.165 500.12 648.172 499.893 647.305 499.44C646.439 498.973 645.765 498.327 645.285 497.5C644.819 496.673 644.585 495.74 644.585 494.7C644.585 493.673 644.812 492.747 645.265 491.92C645.732 491.093 646.365 490.453 647.165 490C647.979 489.533 648.892 489.3 649.905 489.3C650.919 489.3 651.819 489.533 652.605 490C653.405 490.453 654.025 491.093 654.465 491.92C654.919 492.747 655.145 493.693 655.145 494.76ZM649.905 490.92C648.985 490.92 648.212 491.2 647.585 491.76C646.972 492.32 646.612 493.053 646.505 493.96H653.305C653.199 493.067 652.832 492.34 652.205 491.78C651.592 491.207 650.825 490.92 649.905 490.92ZM658.611 485.16H660.531V500H658.611V485.16ZM664.997 489.4H666.917V500H664.997V489.4ZM665.957 487.36C665.584 487.36 665.271 487.24 665.017 487C664.777 486.76 664.657 486.467 664.657 486.12C664.657 485.773 664.777 485.48 665.017 485.24C665.271 484.987 665.584 484.86 665.957 484.86C666.331 484.86 666.637 484.98 666.877 485.22C667.131 485.447 667.257 485.733 667.257 486.08C667.257 486.44 667.131 486.747 666.877 487C666.637 487.24 666.331 487.36 665.957 487.36ZM677.343 499.38C677.063 499.62 676.717 499.807 676.303 499.94C675.89 500.06 675.463 500.12 675.023 500.12C673.957 500.12 673.13 499.833 672.543 499.26C671.957 498.687 671.663 497.867 671.663 496.8V490.98H669.863V489.4H671.663V487.08H673.583V489.4H676.623V490.98H673.583V496.72C673.583 497.293 673.723 497.733 674.003 498.04C674.297 498.347 674.71 498.5 675.243 498.5C675.83 498.5 676.33 498.333 676.743 498L677.343 499.38ZM681.12 500.12C680.747 500.12 680.427 499.993 680.16 499.74C679.893 499.473 679.76 499.14 679.76 498.74C679.76 498.353 679.893 498.033 680.16 497.78C680.427 497.513 680.747 497.38 681.12 497.38C681.493 497.38 681.807 497.507 682.06 497.76C682.313 498.013 682.44 498.34 682.44 498.74C682.44 499.14 682.307 499.473 682.04 499.74C681.787 499.993 681.48 500.12 681.12 500.12ZM76.1 516H78.1V530H76.1V516ZM88.4714 519.3C89.8181 519.3 90.8847 519.693 91.6714 520.48C92.4714 521.253 92.8714 522.393 92.8714 523.9V530H90.9514V524.12C90.9514 523.093 90.7047 522.32 90.2114 521.8C89.7181 521.28 89.0114 521.02 88.0914 521.02C87.0514 521.02 86.2314 521.327 85.6314 521.94C85.0314 522.54 84.7314 523.407 84.7314 524.54V530H82.8114V519.4H84.6514V521C85.0381 520.453 85.5581 520.033 86.2114 519.74C86.8781 519.447 87.6314 519.3 88.4714 519.3ZM103.185 529.38C102.905 529.62 102.558 529.807 102.145 529.94C101.731 530.06 101.305 530.12 100.865 530.12C99.798 530.12 98.9714 529.833 98.3847 529.26C97.798 528.687 97.5047 527.867 97.5047 526.8V520.98H95.7047V519.4H97.5047V517.08H99.4247V519.4H102.465V520.98H99.4247V526.72C99.4247 527.293 99.5647 527.733 99.8447 528.04C100.138 528.347 100.551 528.5 101.085 528.5C101.671 528.5 102.171 528.333 102.585 528L103.185 529.38ZM115.534 524.76C115.534 524.907 115.521 525.1 115.494 525.34H106.894C107.014 526.273 107.421 527.027 108.114 527.6C108.821 528.16 109.694 528.44 110.734 528.44C112.001 528.44 113.021 528.013 113.794 527.16L114.854 528.4C114.374 528.96 113.774 529.387 113.054 529.68C112.348 529.973 111.554 530.12 110.674 530.12C109.554 530.12 108.561 529.893 107.694 529.44C106.828 528.973 106.154 528.327 105.674 527.5C105.208 526.673 104.974 525.74 104.974 524.7C104.974 523.673 105.201 522.747 105.654 521.92C106.121 521.093 106.754 520.453 107.554 520C108.368 519.533 109.281 519.3 110.294 519.3C111.308 519.3 112.208 519.533 112.994 520C113.794 520.453 114.414 521.093 114.854 521.92C115.308 522.747 115.534 523.693 115.534 524.76ZM110.294 520.92C109.374 520.92 108.601 521.2 107.974 521.76C107.361 522.32 107.001 523.053 106.894 523.96H113.694C113.588 523.067 113.221 522.34 112.594 521.78C111.981 521.207 111.214 520.92 110.294 520.92ZM129.14 519.4V528.56C129.14 530.413 128.68 531.78 127.76 532.66C126.84 533.553 125.467 534 123.64 534C122.64 534 121.687 533.86 120.78 533.58C119.874 533.313 119.14 532.927 118.58 532.42L119.5 530.94C119.994 531.367 120.6 531.7 121.32 531.94C122.054 532.193 122.807 532.32 123.58 532.32C124.82 532.32 125.734 532.027 126.32 531.44C126.92 530.853 127.22 529.96 127.22 528.76V527.92C126.767 528.467 126.207 528.88 125.54 529.16C124.887 529.427 124.174 529.56 123.4 529.56C122.387 529.56 121.467 529.347 120.64 528.92C119.827 528.48 119.187 527.873 118.72 527.1C118.254 526.313 118.02 525.42 118.02 524.42C118.02 523.42 118.254 522.533 118.72 521.76C119.187 520.973 119.827 520.367 120.64 519.94C121.467 519.513 122.387 519.3 123.4 519.3C124.2 519.3 124.94 519.447 125.62 519.74C126.314 520.033 126.88 520.467 127.32 521.04V519.4H129.14ZM123.62 527.88C124.314 527.88 124.934 527.733 125.48 527.44C126.04 527.147 126.474 526.74 126.78 526.22C127.1 525.687 127.26 525.087 127.26 524.42C127.26 523.393 126.92 522.567 126.24 521.94C125.56 521.3 124.687 520.98 123.62 520.98C122.54 520.98 121.66 521.3 120.98 521.94C120.3 522.567 119.96 523.393 119.96 524.42C119.96 525.087 120.114 525.687 120.42 526.22C120.74 526.74 121.174 527.147 121.72 527.44C122.28 527.733 122.914 527.88 123.62 527.88ZM143.189 524.76C143.189 524.907 143.176 525.1 143.149 525.34H134.549C134.669 526.273 135.076 527.027 135.769 527.6C136.476 528.16 137.349 528.44 138.389 528.44C139.656 528.44 140.676 528.013 141.449 527.16L142.509 528.4C142.029 528.96 141.429 529.387 140.709 529.68C140.002 529.973 139.209 530.12 138.329 530.12C137.209 530.12 136.216 529.893 135.349 529.44C134.482 528.973 133.809 528.327 133.329 527.5C132.862 526.673 132.629 525.74 132.629 524.7C132.629 523.673 132.856 522.747 133.309 521.92C133.776 521.093 134.409 520.453 135.209 520C136.022 519.533 136.936 519.3 137.949 519.3C138.962 519.3 139.862 519.533 140.649 520C141.449 520.453 142.069 521.093 142.509 521.92C142.962 522.747 143.189 523.693 143.189 524.76ZM137.949 520.92C137.029 520.92 136.256 521.2 135.629 521.76C135.016 522.32 134.656 523.053 134.549 523.96H141.349C141.242 523.067 140.876 522.34 140.249 521.78C139.636 521.207 138.869 520.92 137.949 520.92ZM148.495 521.18C148.828 520.567 149.322 520.1 149.975 519.78C150.628 519.46 151.422 519.3 152.355 519.3V521.16C152.248 521.147 152.102 521.14 151.915 521.14C150.875 521.14 150.055 521.453 149.455 522.08C148.868 522.693 148.575 523.573 148.575 524.72V530H146.655V519.4H148.495V521.18ZM161.829 519.4H163.749V530H161.829V519.4ZM162.789 517.36C162.416 517.36 162.103 517.24 161.849 517C161.609 516.76 161.489 516.467 161.489 516.12C161.489 515.773 161.609 515.48 161.849 515.24C162.103 514.987 162.416 514.86 162.789 514.86C163.163 514.86 163.469 514.98 163.709 515.22C163.963 515.447 164.089 515.733 164.089 516.08C164.089 516.44 163.963 516.747 163.709 517C163.469 517.24 163.163 517.36 162.789 517.36ZM173.875 519.3C175.222 519.3 176.289 519.693 177.075 520.48C177.875 521.253 178.275 522.393 178.275 523.9V530H176.355V524.12C176.355 523.093 176.109 522.32 175.615 521.8C175.122 521.28 174.415 521.02 173.495 521.02C172.455 521.02 171.635 521.327 171.035 521.94C170.435 522.54 170.135 523.407 170.135 524.54V530H168.215V519.4H170.055V521C170.442 520.453 170.962 520.033 171.615 519.74C172.282 519.447 173.035 519.3 173.875 519.3ZM198.38 524.76C198.38 524.907 198.366 525.1 198.34 525.34H189.74C189.86 526.273 190.266 527.027 190.96 527.6C191.666 528.16 192.54 528.44 193.58 528.44C194.846 528.44 195.866 528.013 196.64 527.16L197.7 528.4C197.22 528.96 196.62 529.387 195.9 529.68C195.193 529.973 194.4 530.12 193.52 530.12C192.4 530.12 191.406 529.893 190.54 529.44C189.673 528.973 189 528.327 188.52 527.5C188.053 526.673 187.82 525.74 187.82 524.7C187.82 523.673 188.046 522.747 188.5 521.92C188.966 521.093 189.6 520.453 190.4 520C191.213 519.533 192.126 519.3 193.14 519.3C194.153 519.3 195.053 519.533 195.84 520C196.64 520.453 197.26 521.093 197.7 521.92C198.153 522.747 198.38 523.693 198.38 524.76ZM193.14 520.92C192.22 520.92 191.446 521.2 190.82 521.76C190.206 522.32 189.846 523.053 189.74 523.96H196.54C196.433 523.067 196.066 522.34 195.44 521.78C194.826 521.207 194.06 520.92 193.14 520.92ZM203.686 521.18C204.019 520.567 204.512 520.1 205.166 519.78C205.819 519.46 206.612 519.3 207.546 519.3V521.16C207.439 521.147 207.292 521.14 207.106 521.14C206.066 521.14 205.246 521.453 204.646 522.08C204.059 522.693 203.766 523.573 203.766 524.72V530H201.846V519.4H203.686V521.18ZM214.553 519.3C216.019 519.3 217.139 519.66 217.913 520.38C218.699 521.1 219.093 522.173 219.093 523.6V530H217.273V528.6C216.953 529.093 216.493 529.473 215.893 529.74C215.306 529.993 214.606 530.12 213.793 530.12C212.606 530.12 211.653 529.833 210.933 529.26C210.226 528.687 209.873 527.933 209.873 527C209.873 526.067 210.213 525.32 210.893 524.76C211.573 524.187 212.653 523.9 214.133 523.9H217.173V523.52C217.173 522.693 216.933 522.06 216.453 521.62C215.973 521.18 215.266 520.96 214.333 520.96C213.706 520.96 213.093 521.067 212.493 521.28C211.893 521.48 211.386 521.753 210.973 522.1L210.173 520.66C210.719 520.22 211.373 519.887 212.133 519.66C212.893 519.42 213.699 519.3 214.553 519.3ZM214.113 528.64C214.846 528.64 215.479 528.48 216.013 528.16C216.546 527.827 216.933 527.36 217.173 526.76V525.28H214.213C212.586 525.28 211.773 525.827 211.773 526.92C211.773 527.453 211.979 527.873 212.393 528.18C212.806 528.487 213.379 528.64 214.113 528.64ZM229.406 529.38C229.126 529.62 228.779 529.807 228.366 529.94C227.952 530.06 227.526 530.12 227.086 530.12C226.019 530.12 225.192 529.833 224.606 529.26C224.019 528.687 223.726 527.867 223.726 526.8V520.98H221.926V519.4H223.726V517.08H225.646V519.4H228.686V520.98H225.646V526.72C225.646 527.293 225.786 527.733 226.066 528.04C226.359 528.347 226.772 528.5 227.306 528.5C227.892 528.5 228.392 528.333 228.806 528L229.406 529.38ZM242.558 519.3C244.025 519.3 245.145 519.66 245.918 520.38C246.705 521.1 247.098 522.173 247.098 523.6V530H245.278V528.6C244.958 529.093 244.498 529.473 243.898 529.74C243.311 529.993 242.611 530.12 241.798 530.12C240.611 530.12 239.658 529.833 238.938 529.26C238.231 528.687 237.878 527.933 237.878 527C237.878 526.067 238.218 525.32 238.898 524.76C239.578 524.187 240.658 523.9 242.138 523.9H245.178V523.52C245.178 522.693 244.938 522.06 244.458 521.62C243.978 521.18 243.271 520.96 242.338 520.96C241.711 520.96 241.098 521.067 240.498 521.28C239.898 521.48 239.391 521.753 238.978 522.1L238.178 520.66C238.725 520.22 239.378 519.887 240.138 519.66C240.898 519.42 241.705 519.3 242.558 519.3ZM242.118 528.64C242.851 528.64 243.485 528.48 244.018 528.16C244.551 527.827 244.938 527.36 245.178 526.76V525.28H242.218C240.591 525.28 239.778 525.827 239.778 526.92C239.778 527.453 239.985 527.873 240.398 528.18C240.811 528.487 241.385 528.64 242.118 528.64ZM257.411 529.38C257.131 529.62 256.785 529.807 256.371 529.94C255.958 530.06 255.531 530.12 255.091 530.12C254.025 530.12 253.198 529.833 252.611 529.26C252.025 528.687 251.731 527.867 251.731 526.8V520.98H249.931V519.4H251.731V517.08H253.651V519.4H256.691V520.98H253.651V526.72C253.651 527.293 253.791 527.733 254.071 528.04C254.365 528.347 254.778 528.5 255.311 528.5C255.898 528.5 256.398 528.333 256.811 528L257.411 529.38ZM276.704 519.4V533.88H274.784V528.4C274.344 528.96 273.804 529.387 273.164 529.68C272.537 529.973 271.844 530.12 271.084 530.12C270.057 530.12 269.137 529.893 268.324 529.44C267.51 528.987 266.87 528.353 266.404 527.54C265.95 526.713 265.724 525.767 265.724 524.7C265.724 523.633 265.95 522.693 266.404 521.88C266.87 521.067 267.51 520.433 268.324 519.98C269.137 519.527 270.057 519.3 271.084 519.3C271.87 519.3 272.59 519.453 273.244 519.76C273.897 520.053 274.437 520.493 274.864 521.08V519.4H276.704ZM271.244 528.44C271.91 528.44 272.517 528.287 273.064 527.98C273.61 527.66 274.037 527.22 274.344 526.66C274.65 526.087 274.804 525.433 274.804 524.7C274.804 523.967 274.644 523.32 274.324 522.76C274.017 522.2 273.59 521.767 273.044 521.46C272.51 521.14 271.91 520.98 271.244 520.98C270.564 520.98 269.95 521.133 269.404 521.44C268.87 521.747 268.444 522.187 268.124 522.76C267.817 523.32 267.664 523.967 267.664 524.7C267.664 525.433 267.817 526.087 268.124 526.66C268.444 527.22 268.87 527.66 269.404 527.98C269.95 528.287 270.564 528.44 271.244 528.44ZM291.016 519.4V530H289.196V528.4C288.81 528.947 288.296 529.373 287.656 529.68C287.03 529.973 286.343 530.12 285.596 530.12C284.183 530.12 283.07 529.733 282.256 528.96C281.443 528.173 281.036 527.02 281.036 525.5V519.4H282.956V525.28C282.956 526.307 283.203 527.087 283.696 527.62C284.19 528.14 284.896 528.4 285.816 528.4C286.83 528.4 287.63 528.093 288.216 527.48C288.803 526.867 289.096 526 289.096 524.88V519.4H291.016ZM299.332 519.3C300.798 519.3 301.918 519.66 302.692 520.38C303.478 521.1 303.872 522.173 303.872 523.6V530H302.052V528.6C301.732 529.093 301.272 529.473 300.672 529.74C300.085 529.993 299.385 530.12 298.572 530.12C297.385 530.12 296.432 529.833 295.712 529.26C295.005 528.687 294.652 527.933 294.652 527C294.652 526.067 294.992 525.32 295.672 524.76C296.352 524.187 297.432 523.9 298.912 523.9H301.952V523.52C301.952 522.693 301.712 522.06 301.232 521.62C300.752 521.18 300.045 520.96 299.112 520.96C298.485 520.96 297.872 521.067 297.272 521.28C296.672 521.48 296.165 521.753 295.752 522.1L294.952 520.66C295.498 520.22 296.152 519.887 296.912 519.66C297.672 519.42 298.478 519.3 299.332 519.3ZM298.892 528.64C299.625 528.64 300.258 528.48 300.792 528.16C301.325 527.827 301.712 527.36 301.952 526.76V525.28H298.992C297.365 525.28 296.552 525.827 296.552 526.92C296.552 527.453 296.758 527.873 297.172 528.18C297.585 528.487 298.158 528.64 298.892 528.64ZM321.485 519.3C322.818 519.3 323.871 519.687 324.645 520.46C325.431 521.233 325.825 522.38 325.825 523.9V530H323.905V524.12C323.905 523.093 323.665 522.32 323.185 521.8C322.718 521.28 322.045 521.02 321.165 521.02C320.191 521.02 319.418 521.327 318.845 521.94C318.271 522.54 317.985 523.407 317.985 524.54V530H316.065V524.12C316.065 523.093 315.825 522.32 315.345 521.8C314.878 521.28 314.205 521.02 313.325 521.02C312.351 521.02 311.578 521.327 311.005 521.94C310.431 522.54 310.145 523.407 310.145 524.54V530H308.225V519.4H310.065V520.98C310.451 520.433 310.958 520.02 311.585 519.74C312.211 519.447 312.925 519.3 313.725 519.3C314.551 519.3 315.285 519.467 315.925 519.8C316.565 520.133 317.058 520.62 317.405 521.26C317.805 520.647 318.358 520.167 319.065 519.82C319.785 519.473 320.591 519.3 321.485 519.3ZM345.909 524.76C345.909 524.907 345.895 525.1 345.869 525.34H337.269C337.389 526.273 337.795 527.027 338.489 527.6C339.195 528.16 340.069 528.44 341.109 528.44C342.375 528.44 343.395 528.013 344.169 527.16L345.229 528.4C344.749 528.96 344.149 529.387 343.429 529.68C342.722 529.973 341.929 530.12 341.049 530.12C339.929 530.12 338.935 529.893 338.069 529.44C337.202 528.973 336.529 528.327 336.049 527.5C335.582 526.673 335.349 525.74 335.349 524.7C335.349 523.673 335.575 522.747 336.029 521.92C336.495 521.093 337.129 520.453 337.929 520C338.742 519.533 339.655 519.3 340.669 519.3C341.682 519.3 342.582 519.533 343.369 520C344.169 520.453 344.789 521.093 345.229 521.92C345.682 522.747 345.909 523.693 345.909 524.76ZM340.669 520.92C339.749 520.92 338.975 521.2 338.349 521.76C337.735 522.32 337.375 523.053 337.269 523.96H344.069C343.962 523.067 343.595 522.34 342.969 521.78C342.355 521.207 341.589 520.92 340.669 520.92ZM359.515 519.4V528.56C359.515 530.413 359.055 531.78 358.135 532.66C357.215 533.553 355.841 534 354.015 534C353.015 534 352.061 533.86 351.155 533.58C350.248 533.313 349.515 532.927 348.955 532.42L349.875 530.94C350.368 531.367 350.975 531.7 351.695 531.94C352.428 532.193 353.181 532.32 353.955 532.32C355.195 532.32 356.108 532.027 356.695 531.44C357.295 530.853 357.595 529.96 357.595 528.76V527.92C357.141 528.467 356.581 528.88 355.915 529.16C355.261 529.427 354.548 529.56 353.775 529.56C352.761 529.56 351.841 529.347 351.015 528.92C350.201 528.48 349.561 527.873 349.095 527.1C348.628 526.313 348.395 525.42 348.395 524.42C348.395 523.42 348.628 522.533 349.095 521.76C349.561 520.973 350.201 520.367 351.015 519.94C351.841 519.513 352.761 519.3 353.775 519.3C354.575 519.3 355.315 519.447 355.995 519.74C356.688 520.033 357.255 520.467 357.695 521.04V519.4H359.515ZM353.995 527.88C354.688 527.88 355.308 527.733 355.855 527.44C356.415 527.147 356.848 526.74 357.155 526.22C357.475 525.687 357.635 525.087 357.635 524.42C357.635 523.393 357.295 522.567 356.615 521.94C355.935 521.3 355.061 520.98 353.995 520.98C352.915 520.98 352.035 521.3 351.355 521.94C350.675 522.567 350.335 523.393 350.335 524.42C350.335 525.087 350.488 525.687 350.795 526.22C351.115 526.74 351.548 527.147 352.095 527.44C352.655 527.733 353.288 527.88 353.995 527.88ZM373.563 524.76C373.563 524.907 373.55 525.1 373.523 525.34H364.923C365.043 526.273 365.45 527.027 366.143 527.6C366.85 528.16 367.723 528.44 368.763 528.44C370.03 528.44 371.05 528.013 371.823 527.16L372.883 528.4C372.403 528.96 371.803 529.387 371.083 529.68C370.377 529.973 369.583 530.12 368.703 530.12C367.583 530.12 366.59 529.893 365.723 529.44C364.857 528.973 364.183 528.327 363.703 527.5C363.237 526.673 363.003 525.74 363.003 524.7C363.003 523.673 363.23 522.747 363.683 521.92C364.15 521.093 364.783 520.453 365.583 520C366.397 519.533 367.31 519.3 368.323 519.3C369.337 519.3 370.237 519.533 371.023 520C371.823 520.453 372.443 521.093 372.883 521.92C373.337 522.747 373.563 523.693 373.563 524.76ZM368.323 520.92C367.403 520.92 366.63 521.2 366.003 521.76C365.39 522.32 365.03 523.053 364.923 523.96H371.723C371.617 523.067 371.25 522.34 370.623 521.78C370.01 521.207 369.243 520.92 368.323 520.92ZM380.069 530.12C379.203 530.12 378.369 530.007 377.569 529.78C376.769 529.54 376.143 529.24 375.689 528.88L376.489 527.36C376.956 527.693 377.523 527.96 378.189 528.16C378.856 528.36 379.529 528.46 380.209 528.46C381.889 528.46 382.729 527.98 382.729 527.02C382.729 526.7 382.616 526.447 382.389 526.26C382.163 526.073 381.876 525.94 381.529 525.86C381.196 525.767 380.716 525.667 380.089 525.56C379.236 525.427 378.536 525.273 377.989 525.1C377.456 524.927 376.996 524.633 376.609 524.22C376.223 523.807 376.029 523.227 376.029 522.48C376.029 521.52 376.429 520.753 377.229 520.18C378.029 519.593 379.103 519.3 380.449 519.3C381.156 519.3 381.863 519.387 382.569 519.56C383.276 519.733 383.856 519.967 384.309 520.26L383.489 521.78C382.623 521.22 381.603 520.94 380.429 520.94C379.616 520.94 378.996 521.073 378.569 521.34C378.143 521.607 377.929 521.96 377.929 522.4C377.929 522.747 378.049 523.02 378.289 523.22C378.529 523.42 378.823 523.567 379.169 523.66C379.529 523.753 380.029 523.86 380.669 523.98C381.523 524.127 382.209 524.287 382.729 524.46C383.263 524.62 383.716 524.9 384.089 525.3C384.463 525.7 384.649 526.26 384.649 526.98C384.649 527.94 384.236 528.707 383.409 529.28C382.596 529.84 381.483 530.12 380.069 530.12ZM393.809 529.38C393.529 529.62 393.182 529.807 392.769 529.94C392.356 530.06 391.929 530.12 391.489 530.12C390.422 530.12 389.596 529.833 389.009 529.26C388.422 528.687 388.129 527.867 388.129 526.8V520.98H386.329V519.4H388.129V517.08H390.049V519.4H393.089V520.98H390.049V526.72C390.049 527.293 390.189 527.733 390.469 528.04C390.762 528.347 391.176 528.5 391.709 528.5C392.296 528.5 392.796 528.333 393.209 528L393.809 529.38ZM400.79 519.3C402.257 519.3 403.377 519.66 404.15 520.38C404.937 521.1 405.33 522.173 405.33 523.6V530H403.51V528.6C403.19 529.093 402.73 529.473 402.13 529.74C401.544 529.993 400.844 530.12 400.03 530.12C398.844 530.12 397.89 529.833 397.17 529.26C396.464 528.687 396.11 527.933 396.11 527C396.11 526.067 396.45 525.32 397.13 524.76C397.81 524.187 398.89 523.9 400.37 523.9H403.41V523.52C403.41 522.693 403.17 522.06 402.69 521.62C402.21 521.18 401.504 520.96 400.57 520.96C399.944 520.96 399.33 521.067 398.73 521.28C398.13 521.48 397.624 521.753 397.21 522.1L396.41 520.66C396.957 520.22 397.61 519.887 398.37 519.66C399.13 519.42 399.937 519.3 400.79 519.3ZM400.35 528.64C401.084 528.64 401.717 528.48 402.25 528.16C402.784 527.827 403.17 527.36 403.41 526.76V525.28H400.45C398.824 525.28 398.01 525.827 398.01 526.92C398.01 527.453 398.217 527.873 398.63 528.18C399.044 528.487 399.617 528.64 400.35 528.64ZM412.723 530.12C411.857 530.12 411.023 530.007 410.223 529.78C409.423 529.54 408.797 529.24 408.343 528.88L409.143 527.36C409.61 527.693 410.177 527.96 410.843 528.16C411.51 528.36 412.183 528.46 412.863 528.46C414.543 528.46 415.383 527.98 415.383 527.02C415.383 526.7 415.27 526.447 415.043 526.26C414.817 526.073 414.53 525.94 414.183 525.86C413.85 525.767 413.37 525.667 412.743 525.56C411.89 525.427 411.19 525.273 410.643 525.1C410.11 524.927 409.65 524.633 409.263 524.22C408.877 523.807 408.683 523.227 408.683 522.48C408.683 521.52 409.083 520.753 409.883 520.18C410.683 519.593 411.757 519.3 413.103 519.3C413.81 519.3 414.517 519.387 415.223 519.56C415.93 519.733 416.51 519.967 416.963 520.26L416.143 521.78C415.277 521.22 414.257 520.94 413.083 520.94C412.27 520.94 411.65 521.073 411.223 521.34C410.797 521.607 410.583 521.96 410.583 522.4C410.583 522.747 410.703 523.02 410.943 523.22C411.183 523.42 411.477 523.567 411.823 523.66C412.183 523.753 412.683 523.86 413.323 523.98C414.177 524.127 414.863 524.287 415.383 524.46C415.917 524.62 416.37 524.9 416.743 525.3C417.117 525.7 417.303 526.26 417.303 526.98C417.303 527.94 416.89 528.707 416.063 529.28C415.25 529.84 414.137 530.12 412.723 530.12ZM430.554 516.62C429.407 516.62 428.834 517.24 428.834 518.48V519.4H431.914V520.98H428.874V530H426.954V520.98H425.154V519.4H426.954V518.46C426.954 517.407 427.261 516.573 427.874 515.96C428.487 515.347 429.347 515.04 430.454 515.04C430.881 515.04 431.281 515.093 431.654 515.2C432.027 515.307 432.347 515.46 432.614 515.66L432.034 517.12C431.594 516.787 431.101 516.62 430.554 516.62ZM438.189 519.3C439.656 519.3 440.776 519.66 441.549 520.38C442.336 521.1 442.729 522.173 442.729 523.6V530H440.909V528.6C440.589 529.093 440.129 529.473 439.529 529.74C438.943 529.993 438.243 530.12 437.429 530.12C436.243 530.12 435.289 529.833 434.569 529.26C433.863 528.687 433.509 527.933 433.509 527C433.509 526.067 433.849 525.32 434.529 524.76C435.209 524.187 436.289 523.9 437.769 523.9H440.809V523.52C440.809 522.693 440.569 522.06 440.089 521.62C439.609 521.18 438.903 520.96 437.969 520.96C437.343 520.96 436.729 521.067 436.129 521.28C435.529 521.48 435.023 521.753 434.609 522.1L433.809 520.66C434.356 520.22 435.009 519.887 435.769 519.66C436.529 519.42 437.336 519.3 438.189 519.3ZM437.749 528.64C438.483 528.64 439.116 528.48 439.649 528.16C440.183 527.827 440.569 527.36 440.809 526.76V525.28H437.849C436.223 525.28 435.409 525.827 435.409 526.92C435.409 527.453 435.616 527.873 436.029 528.18C436.443 528.487 437.016 528.64 437.749 528.64ZM451.761 530.12C450.681 530.12 449.714 529.887 448.861 529.42C448.021 528.953 447.361 528.313 446.881 527.5C446.401 526.673 446.161 525.74 446.161 524.7C446.161 523.66 446.401 522.733 446.881 521.92C447.361 521.093 448.021 520.453 448.861 520C449.714 519.533 450.681 519.3 451.761 519.3C452.721 519.3 453.574 519.493 454.321 519.88C455.081 520.267 455.668 520.827 456.081 521.56L454.621 522.5C454.288 521.993 453.874 521.613 453.381 521.36C452.888 521.107 452.341 520.98 451.741 520.98C451.048 520.98 450.421 521.133 449.861 521.44C449.314 521.747 448.881 522.187 448.561 522.76C448.254 523.32 448.101 523.967 448.101 524.7C448.101 525.447 448.254 526.107 448.561 526.68C448.881 527.24 449.314 527.673 449.861 527.98C450.421 528.287 451.048 528.44 451.741 528.44C452.341 528.44 452.888 528.313 453.381 528.06C453.874 527.807 454.288 527.427 454.621 526.92L456.081 527.84C455.668 528.573 455.081 529.14 454.321 529.54C453.574 529.927 452.721 530.12 451.761 530.12ZM459.367 519.4H461.287V530H459.367V519.4ZM460.327 517.36C459.954 517.36 459.64 517.24 459.387 517C459.147 516.76 459.027 516.467 459.027 516.12C459.027 515.773 459.147 515.48 459.387 515.24C459.64 514.987 459.954 514.86 460.327 514.86C460.7 514.86 461.007 514.98 461.247 515.22C461.5 515.447 461.627 515.733 461.627 516.08C461.627 516.44 461.5 516.747 461.247 517C461.007 517.24 460.7 517.36 460.327 517.36ZM465.753 515.16H467.673V530H465.753V515.16ZM472.139 519.4H474.059V530H472.139V519.4ZM473.099 517.36C472.725 517.36 472.412 517.24 472.159 517C471.919 516.76 471.799 516.467 471.799 516.12C471.799 515.773 471.919 515.48 472.159 515.24C472.412 514.987 472.725 514.86 473.099 514.86C473.472 514.86 473.779 514.98 474.019 515.22C474.272 515.447 474.399 515.733 474.399 516.08C474.399 516.44 474.272 516.747 474.019 517C473.779 517.24 473.472 517.36 473.099 517.36ZM481.565 530.12C480.698 530.12 479.865 530.007 479.065 529.78C478.265 529.54 477.638 529.24 477.185 528.88L477.985 527.36C478.451 527.693 479.018 527.96 479.685 528.16C480.351 528.36 481.025 528.46 481.705 528.46C483.385 528.46 484.225 527.98 484.225 527.02C484.225 526.7 484.111 526.447 483.885 526.26C483.658 526.073 483.371 525.94 483.025 525.86C482.691 525.767 482.211 525.667 481.585 525.56C480.731 525.427 480.031 525.273 479.485 525.1C478.951 524.927 478.491 524.633 478.105 524.22C477.718 523.807 477.525 523.227 477.525 522.48C477.525 521.52 477.925 520.753 478.725 520.18C479.525 519.593 480.598 519.3 481.945 519.3C482.651 519.3 483.358 519.387 484.065 519.56C484.771 519.733 485.351 519.967 485.805 520.26L484.985 521.78C484.118 521.22 483.098 520.94 481.925 520.94C481.111 520.94 480.491 521.073 480.065 521.34C479.638 521.607 479.425 521.96 479.425 522.4C479.425 522.747 479.545 523.02 479.785 523.22C480.025 523.42 480.318 523.567 480.665 523.66C481.025 523.753 481.525 523.86 482.165 523.98C483.018 524.127 483.705 524.287 484.225 524.46C484.758 524.62 485.211 524.9 485.585 525.3C485.958 525.7 486.145 526.26 486.145 526.98C486.145 527.94 485.731 528.707 484.905 529.28C484.091 529.84 482.978 530.12 481.565 530.12ZM489.344 519.4H491.264V530H489.344V519.4ZM490.304 517.36C489.931 517.36 489.618 517.24 489.364 517C489.124 516.76 489.004 516.467 489.004 516.12C489.004 515.773 489.124 515.48 489.364 515.24C489.618 514.987 489.931 514.86 490.304 514.86C490.678 514.86 490.984 514.98 491.224 515.22C491.478 515.447 491.604 515.733 491.604 516.08C491.604 516.44 491.478 516.747 491.224 517C490.984 517.24 490.678 517.36 490.304 517.36ZM498.77 530.12C497.903 530.12 497.07 530.007 496.27 529.78C495.47 529.54 494.843 529.24 494.39 528.88L495.19 527.36C495.657 527.693 496.223 527.96 496.89 528.16C497.557 528.36 498.23 528.46 498.91 528.46C500.59 528.46 501.43 527.98 501.43 527.02C501.43 526.7 501.317 526.447 501.09 526.26C500.863 526.073 500.577 525.94 500.23 525.86C499.897 525.767 499.417 525.667 498.79 525.56C497.937 525.427 497.237 525.273 496.69 525.1C496.157 524.927 495.697 524.633 495.31 524.22C494.923 523.807 494.73 523.227 494.73 522.48C494.73 521.52 495.13 520.753 495.93 520.18C496.73 519.593 497.803 519.3 499.15 519.3C499.857 519.3 500.563 519.387 501.27 519.56C501.977 519.733 502.557 519.967 503.01 520.26L502.19 521.78C501.323 521.22 500.303 520.94 499.13 520.94C498.317 520.94 497.697 521.073 497.27 521.34C496.843 521.607 496.63 521.96 496.63 522.4C496.63 522.747 496.75 523.02 496.99 523.22C497.23 523.42 497.523 523.567 497.87 523.66C498.23 523.753 498.73 523.86 499.37 523.98C500.223 524.127 500.91 524.287 501.43 524.46C501.963 524.62 502.417 524.9 502.79 525.3C503.163 525.7 503.35 526.26 503.35 526.98C503.35 527.94 502.937 528.707 502.11 529.28C501.297 529.84 500.183 530.12 498.77 530.12ZM518.381 519.3C519.727 519.3 520.794 519.693 521.581 520.48C522.381 521.253 522.781 522.393 522.781 523.9V530H520.861V524.12C520.861 523.093 520.614 522.32 520.121 521.8C519.627 521.28 518.921 521.02 518.001 521.02C516.961 521.02 516.141 521.327 515.541 521.94C514.941 522.54 514.641 523.407 514.641 524.54V530H512.721V519.4H514.561V521C514.947 520.453 515.467 520.033 516.121 519.74C516.787 519.447 517.541 519.3 518.381 519.3ZM536.773 524.76C536.773 524.907 536.759 525.1 536.733 525.34H528.133C528.253 526.273 528.659 527.027 529.353 527.6C530.059 528.16 530.933 528.44 531.973 528.44C533.239 528.44 534.259 528.013 535.033 527.16L536.093 528.4C535.613 528.96 535.013 529.387 534.293 529.68C533.586 529.973 532.793 530.12 531.913 530.12C530.793 530.12 529.799 529.893 528.933 529.44C528.066 528.973 527.393 528.327 526.913 527.5C526.446 526.673 526.213 525.74 526.213 524.7C526.213 523.673 526.439 522.747 526.893 521.92C527.359 521.093 527.993 520.453 528.793 520C529.606 519.533 530.519 519.3 531.533 519.3C532.546 519.3 533.446 519.533 534.233 520C535.033 520.453 535.653 521.093 536.093 521.92C536.546 522.747 536.773 523.693 536.773 524.76ZM531.533 520.92C530.613 520.92 529.839 521.2 529.213 521.76C528.599 522.32 528.239 523.053 528.133 523.96H534.933C534.826 523.067 534.459 522.34 533.833 521.78C533.219 521.207 532.453 520.92 531.533 520.92ZM544.859 530.12C543.779 530.12 542.812 529.887 541.959 529.42C541.119 528.953 540.459 528.313 539.979 527.5C539.499 526.673 539.259 525.74 539.259 524.7C539.259 523.66 539.499 522.733 539.979 521.92C540.459 521.093 541.119 520.453 541.959 520C542.812 519.533 543.779 519.3 544.859 519.3C545.819 519.3 546.672 519.493 547.419 519.88C548.179 520.267 548.765 520.827 549.179 521.56L547.719 522.5C547.385 521.993 546.972 521.613 546.479 521.36C545.985 521.107 545.439 520.98 544.839 520.98C544.145 520.98 543.519 521.133 542.959 521.44C542.412 521.747 541.979 522.187 541.659 522.76C541.352 523.32 541.199 523.967 541.199 524.7C541.199 525.447 541.352 526.107 541.659 526.68C541.979 527.24 542.412 527.673 542.959 527.98C543.519 528.287 544.145 528.44 544.839 528.44C545.439 528.44 545.985 528.313 546.479 528.06C546.972 527.807 547.385 527.427 547.719 526.92L549.179 527.84C548.765 528.573 548.179 529.14 547.419 529.54C546.672 529.927 545.819 530.12 544.859 530.12ZM568.216 524.76C568.216 524.907 568.202 525.1 568.176 525.34H559.576C559.696 526.273 560.102 527.027 560.796 527.6C561.502 528.16 562.376 528.44 563.416 528.44C564.682 528.44 565.702 528.013 566.476 527.16L567.536 528.4C567.056 528.96 566.456 529.387 565.736 529.68C565.029 529.973 564.236 530.12 563.356 530.12C562.236 530.12 561.242 529.893 560.376 529.44C559.509 528.973 558.836 528.327 558.356 527.5C557.889 526.673 557.656 525.74 557.656 524.7C557.656 523.673 557.882 522.747 558.336 521.92C558.802 521.093 559.436 520.453 560.236 520C561.049 519.533 561.962 519.3 562.976 519.3C563.989 519.3 564.889 519.533 565.676 520C566.476 520.453 567.096 521.093 567.536 521.92C567.989 522.747 568.216 523.693 568.216 524.76ZM562.976 520.92C562.056 520.92 561.282 521.2 560.656 521.76C560.042 522.32 559.682 523.053 559.576 523.96H566.376C566.269 523.067 565.902 522.34 565.276 521.78C564.662 521.207 563.896 520.92 562.976 520.92ZM581.562 519.4V530H579.742V528.4C579.355 528.947 578.842 529.373 578.202 529.68C577.575 529.973 576.888 530.12 576.142 530.12C574.728 530.12 573.615 529.733 572.802 528.96C571.988 528.173 571.582 527.02 571.582 525.5V519.4H573.502V525.28C573.502 526.307 573.748 527.087 574.242 527.62C574.735 528.14 575.442 528.4 576.362 528.4C577.375 528.4 578.175 528.093 578.762 527.48C579.348 526.867 579.642 526 579.642 524.88V519.4H581.562ZM594.028 521.18C594.361 520.567 594.855 520.1 595.508 519.78C596.161 519.46 596.955 519.3 597.888 519.3V521.16C597.781 521.147 597.635 521.14 597.448 521.14C596.408 521.14 595.588 521.453 594.988 522.08C594.401 522.693 594.108 523.573 594.108 524.72V530H592.188V519.4H594.028V521.18ZM601.054 519.4H602.974V530H601.054V519.4ZM602.014 517.36C601.641 517.36 601.328 517.24 601.074 517C600.834 516.76 600.714 516.467 600.714 516.12C600.714 515.773 600.834 515.48 601.074 515.24C601.328 514.987 601.641 514.86 602.014 514.86C602.388 514.86 602.694 514.98 602.934 515.22C603.188 515.447 603.314 515.733 603.314 516.08C603.314 516.44 603.188 516.747 602.934 517C602.694 517.24 602.388 517.36 602.014 517.36ZM610.48 530.12C609.614 530.12 608.78 530.007 607.98 529.78C607.18 529.54 606.554 529.24 606.1 528.88L606.9 527.36C607.367 527.693 607.934 527.96 608.6 528.16C609.267 528.36 609.94 528.46 610.62 528.46C612.3 528.46 613.14 527.98 613.14 527.02C613.14 526.7 613.027 526.447 612.8 526.26C612.574 526.073 612.287 525.94 611.94 525.86C611.607 525.767 611.127 525.667 610.5 525.56C609.647 525.427 608.947 525.273 608.4 525.1C607.867 524.927 607.407 524.633 607.02 524.22C606.634 523.807 606.44 523.227 606.44 522.48C606.44 521.52 606.84 520.753 607.64 520.18C608.44 519.593 609.514 519.3 610.86 519.3C611.567 519.3 612.274 519.387 612.98 519.56C613.687 519.733 614.267 519.967 614.72 520.26L613.9 521.78C613.034 521.22 612.014 520.94 610.84 520.94C610.027 520.94 609.407 521.073 608.98 521.34C608.554 521.607 608.34 521.96 608.34 522.4C608.34 522.747 608.46 523.02 608.7 523.22C608.94 523.42 609.234 523.567 609.58 523.66C609.94 523.753 610.44 523.86 611.08 523.98C611.934 524.127 612.62 524.287 613.14 524.46C613.674 524.62 614.127 524.9 614.5 525.3C614.874 525.7 615.06 526.26 615.06 526.98C615.06 527.94 614.647 528.707 613.82 529.28C613.007 529.84 611.894 530.12 610.48 530.12ZM628.14 519.4V530H626.32V528.4C625.933 528.947 625.42 529.373 624.78 529.68C624.153 529.973 623.466 530.12 622.72 530.12C621.306 530.12 620.193 529.733 619.38 528.96C618.566 528.173 618.16 527.02 618.16 525.5V519.4H620.08V525.28C620.08 526.307 620.326 527.087 620.82 527.62C621.313 528.14 622.02 528.4 622.94 528.4C623.953 528.4 624.753 528.093 625.34 527.48C625.926 526.867 626.22 526 626.22 524.88V519.4H628.14ZM635.635 530.12C634.768 530.12 633.935 530.007 633.135 529.78C632.335 529.54 631.708 529.24 631.255 528.88L632.055 527.36C632.522 527.693 633.088 527.96 633.755 528.16C634.422 528.36 635.095 528.46 635.775 528.46C637.455 528.46 638.295 527.98 638.295 527.02C638.295 526.7 638.182 526.447 637.955 526.26C637.728 526.073 637.442 525.94 637.095 525.86C636.762 525.767 636.282 525.667 635.655 525.56C634.802 525.427 634.102 525.273 633.555 525.1C633.022 524.927 632.562 524.633 632.175 524.22C631.788 523.807 631.595 523.227 631.595 522.48C631.595 521.52 631.995 520.753 632.795 520.18C633.595 519.593 634.668 519.3 636.015 519.3C636.722 519.3 637.428 519.387 638.135 519.56C638.842 519.733 639.422 519.967 639.875 520.26L639.055 521.78C638.188 521.22 637.168 520.94 635.995 520.94C635.182 520.94 634.562 521.073 634.135 521.34C633.708 521.607 633.495 521.96 633.495 522.4C633.495 522.747 633.615 523.02 633.855 523.22C634.095 523.42 634.388 523.567 634.735 523.66C635.095 523.753 635.595 523.86 636.235 523.98C637.088 524.127 637.775 524.287 638.295 524.46C638.828 524.62 639.282 524.9 639.655 525.3C640.028 525.7 640.215 526.26 640.215 526.98C640.215 527.94 639.802 528.707 638.975 529.28C638.162 529.84 637.048 530.12 635.635 530.12ZM643.875 530.12C643.501 530.12 643.181 529.993 642.915 529.74C642.648 529.473 642.515 529.14 642.515 528.74C642.515 528.353 642.648 528.033 642.915 527.78C643.181 527.513 643.501 527.38 643.875 527.38C644.248 527.38 644.561 527.507 644.815 527.76C645.068 528.013 645.195 528.34 645.195 528.74C645.195 529.14 645.061 529.473 644.795 529.74C644.541 529.993 644.235 530.12 643.875 530.12Z" fill="white"/>
<defs>
<filter id="filter0_d" x="-25" y="0" width="887" height="667" filterUnits="userSpaceOnUse" color-interpolation-filters="sRGB">
<feFlood flood-opacity="0" result="BackgroundImageFix"/>
<feColorMatrix in="SourceAlpha" type="matrix" values="0 0 0 0 0 0 0 0 0 0 0 0 0 0 0 0 0 0 127 0"/>
<feOffset dx="25" dy="25"/>
<feGaussianBlur stdDeviation="25"/>
<feColorMatrix type="matrix" values="0 0 0 0 0.07 0 0 0 0 0.286667 0 0 0 0 0.33 0 0 0 0.4 0"/>
<feBlend mode="normal" in2="BackgroundImageFix" result="effect1_dropShadow"/>
<feBlend mode="normal" in="SourceGraphic" in2="effect1_dropShadow" result="shape"/>
</filter>
<linearGradient id="paint0_linear" x1="608.941" y1="317.654" x2="608.941" y2="431.974" gradientUnits="userSpaceOnUse">
<stop stop-color="#7AE3B1"/>
<stop offset="0.211458" stop-color="#73D9AB"/>
<stop offset="0.445833" stop-color="#65C49E"/>
<stop offset="0.773958" stop-color="#2D716C"/>
<stop offset="1" stop-color="#124954"/>
</linearGradient>
<linearGradient id="paint1_linear" x1="205.347" y1="274.707" x2="205.347" y2="431.761" gradientUnits="userSpaceOnUse">
<stop stop-color="#7AE3B1"/>
<stop offset="0.211458" stop-color="#73D9AB"/>
<stop offset="0.445833" stop-color="#65C49E"/>
<stop offset="0.773958" stop-color="#2D716C"/>
<stop offset="1" stop-color="#124954"/>
</linearGradient>
</defs>
</svg>
