<svg width="20" height="30" viewBox="0 0 536 889" fill="none" xmlns="http://www.w3.org/2000/svg">
<path fill-rule="evenodd" clip-rule="evenodd" d="M351.74 521.635C458.278 486.359 535.142 385.941 535.142 267.571C535.142 119.796 415.346 0 267.571 0C119.795 0 0 119.796 0 267.571C0 383.036 73.1367 481.419 175.612 518.921L264 889L351.74 521.635ZM314.039 169.026V182.969H369V213.563H295.195H238.664H165.129V182.969H219.82V169.026C219.82 158.484 228.256 149.938 238.664 149.938H295.195C305.603 149.938 314.039 158.484 314.039 169.026ZM232.382 169.026V182.969H301.477V169.026C301.477 165.512 298.664 162.664 295.195 162.664H238.664C235.195 162.664 232.382 165.512 232.382 169.026ZM176.5 225.747V256.341H357.628V225.747H176.5ZM187.872 299.119V268.525H346.258V299.119H187.872ZM199.243 311.302V341.897H335.157V311.302H199.243ZM210.344 384.674V354.08H323.786V384.674H210.344Z" fill="#fff"/>
</svg>
