<svg width="73" height="70" viewBox="0 0 73 70" fill="none" xmlns="http://www.w3.org/2000/svg">
<path d="M33.8037 47.9646L33.1853 63.0652L33.1029 63.968L15.7888 62.778C14.7994 62.6959 13.8788 62.265 13.0268 61.4854C12.1748 60.7057 11.529 59.8098 11.0893 58.7976C10.787 58.059 10.5877 57.3067 10.4915 56.5407C10.3953 55.7748 10.4503 54.8857 10.6564 53.8735C10.8625 52.8613 11.0274 52.109 11.1511 51.6166C11.2748 51.1242 11.5702 50.2488 12.0374 48.9904C12.5046 47.732 12.7657 47.0071 12.8207 46.8156C14.9643 47.1439 21.9587 47.5269 33.8037 47.9646ZM17.85 23.9185L25.2703 39.4705L19.2104 35.6953C17.479 37.6649 15.9468 39.6414 14.6139 41.6248C13.281 43.6081 12.2848 45.3179 11.6252 46.7541C10.9656 48.1903 10.4228 49.4828 9.99683 50.6318C9.57085 51.7808 9.31663 52.6425 9.23418 53.217L9.06929 54.0787L1.23672 39.4294C0.769515 38.7182 0.522171 37.9522 0.494688 37.1315C0.467206 36.3108 0.549654 35.6679 0.742033 35.2029L1.07182 34.4643C2.03372 32.7408 3.60023 30.1693 5.77136 26.7498L0 23.2209L17.85 23.9185ZM68.5968 45.1332L60.8467 59.8645C60.5169 60.6579 60.0153 61.2939 59.342 61.7726C58.6687 62.2513 58.0709 62.5318 57.5488 62.6138L56.8067 62.778C54.8555 62.9695 51.8461 63.1336 47.7787 63.2704L48.1085 70L38.6269 54.9404L47.3252 40.086L47.6138 47.1849C52.2858 47.6226 56.1746 47.691 59.2802 47.3901C62.3857 47.0892 64.7217 46.6378 66.2882 46.036L68.5968 45.1332ZM36.2359 7.21748C34.9442 8.94092 31.3028 14.8909 25.3116 25.0674L12.2435 17.394L11.4603 16.9016L20.7357 2.29336C21.2853 1.44532 22.1098 0.829805 23.2091 0.446818C24.3084 0.0638312 25.4077 -0.0729499 26.5071 0.036475C27.1666 0.0911874 27.8331 0.255325 28.5064 0.528887C29.1797 0.802449 29.7569 1.08969 30.2378 1.39061C30.7188 1.69153 31.289 2.1429 31.9486 2.74474C32.6082 3.34658 33.1029 3.81847 33.4327 4.16042C33.7625 4.50238 34.2572 5.04266 34.9168 5.78128C35.5763 6.5199 36.0161 6.99863 36.2359 7.21748ZM63.2377 19.815L71.9772 34.7105C72.4719 35.7227 72.6436 36.7622 72.4925 37.8291C72.3413 38.896 71.9634 39.9082 71.3588 40.8656C71.0015 41.4128 70.5481 41.9188 69.9984 42.3839C69.4488 42.849 68.9266 43.2319 68.4319 43.5329C67.9372 43.8338 67.2708 44.1347 66.4325 44.4356C65.5943 44.7365 64.9485 44.9554 64.495 45.0922C64.0415 45.2289 63.3339 45.4204 62.372 45.6666C61.4101 45.9129 60.778 46.077 60.4757 46.1591C59.5413 44.1894 55.8998 38.2258 49.5513 28.2681L62.4544 20.2664L63.2377 19.815ZM57.3426 10.5413L63.1964 7.13541L54.1272 22.4412L36.8543 21.6205L43.0791 18.0916C42.1447 15.6569 41.1141 13.3863 39.9873 11.2799C38.8605 9.17345 37.8231 7.4842 36.8749 6.21214C35.9267 4.94008 35.0404 3.84583 34.216 2.92939C33.3915 2.01296 32.7456 1.37693 32.2784 1.0213L31.5776 0.487853L48.2733 0.528887C49.1253 0.446818 49.9223 0.590438 50.6643 0.959747C51.4064 1.32906 51.9423 1.71888 52.2721 2.12923L52.7255 2.74474C53.7974 4.41347 55.3364 7.01231 57.3426 10.5413Z" fill="white"/>
</svg>
