<svg width="437" height="340" viewBox="0 0 437 340" fill="none" xmlns="http://www.w3.org/2000/svg">
<path d="M210 201.646V214.319C210 214.889 210.211 215.437 210.593 215.86C210.974 216.282 211.499 216.548 212.065 216.605L341.809 228.9L359.273 240.462L383.387 208.384L210 201.646Z" fill="url(#paint0_linear)"/>
<path d="M309.448 219.048V230.389C309.447 230.85 309.611 231.296 309.91 231.646C310.209 231.997 310.623 232.229 311.078 232.302L342.226 237.307L341.319 219.021L311.509 217.115C311.245 217.098 310.98 217.136 310.731 217.225C310.481 217.315 310.253 217.454 310.06 217.635C309.867 217.816 309.713 218.035 309.608 218.278C309.502 218.521 309.448 218.783 309.448 219.048V219.048Z" fill="url(#paint1_linear)"/>
<path d="M223.143 207.48C223.038 207.481 222.934 207.488 222.83 207.5L221.178 207.48L221.188 208.206C219.591 209.453 218.484 212.181 218.484 215.349C218.484 218.641 219.68 221.46 221.378 222.633L221.386 223.217H223.138C225.71 223.217 227.793 219.694 227.793 215.349C227.793 211.003 225.715 207.48 223.143 207.48Z" fill="url(#paint2_linear)"/>
<path d="M221.183 223.225C223.754 223.225 225.838 219.702 225.838 215.357C225.838 211.011 223.754 207.488 221.183 207.488C218.613 207.488 216.529 211.011 216.529 215.357C216.529 219.702 218.613 223.225 221.183 223.225Z" fill="url(#paint3_linear)"/>
<path d="M220.529 219.773C221.973 219.773 223.144 217.794 223.144 215.353C223.144 212.912 221.973 210.934 220.529 210.934C219.085 210.934 217.915 212.912 217.915 215.353C217.915 217.794 219.085 219.773 220.529 219.773Z" fill="#D8DEE8"/>
<path d="M220.924 219.447C222.15 219.447 223.143 217.609 223.143 215.343C223.143 213.076 222.15 211.238 220.924 211.238C219.698 211.238 218.704 213.076 218.704 215.343C218.704 217.609 219.698 219.447 220.924 219.447Z" fill="url(#paint4_linear)"/>
<path d="M234.144 208.371C234.029 208.372 233.914 208.379 233.8 208.393L231.995 208.371L232.006 209.165C230.257 210.533 229.043 213.523 229.043 216.993C229.043 220.6 230.355 223.687 232.215 224.973L232.225 225.612H234.144C236.96 225.612 239.244 221.753 239.244 216.993C239.244 212.233 236.96 208.371 234.144 208.371Z" fill="url(#paint5_linear)"/>
<path d="M231.995 225.626C234.812 225.626 237.095 221.766 237.095 217.004C237.095 212.243 234.812 208.383 231.995 208.383C229.178 208.383 226.895 212.243 226.895 217.004C226.895 221.766 229.178 225.626 231.995 225.626Z" fill="url(#paint6_linear)"/>
<path d="M234.143 216.988C234.143 219.662 232.86 221.831 231.278 221.831C229.695 221.831 228.414 219.662 228.414 216.988C228.414 214.314 229.695 212.15 231.274 212.15C232.853 212.15 234.143 214.312 234.143 216.988Z" fill="#D8DEE8"/>
<path d="M234.143 216.98C234.143 219.457 233.055 221.476 231.712 221.476C230.369 221.476 229.281 219.462 229.281 216.98C229.281 214.497 230.369 212.482 231.712 212.482C233.055 212.482 234.143 214.496 234.143 216.98Z" fill="url(#paint7_linear)"/>
<path d="M245.885 208.371C245.76 208.372 245.635 208.38 245.51 208.394L243.54 208.371L243.551 209.238C241.642 210.725 240.318 213.995 240.318 217.784C240.318 221.723 241.748 225.094 243.786 226.498L243.796 227.196H245.892C248.967 227.196 251.461 222.983 251.461 217.782C251.461 212.581 248.96 208.371 245.885 208.371Z" fill="url(#paint8_linear)"/>
<path d="M243.54 227.208C246.615 227.208 249.108 222.994 249.108 217.795C249.108 212.597 246.615 208.383 243.54 208.383C240.465 208.383 237.972 212.597 237.972 217.795C237.972 222.994 240.465 227.208 243.54 227.208Z" fill="url(#paint9_linear)"/>
<path d="M245.885 217.77C245.885 220.69 244.484 223.055 242.757 223.055C241.029 223.055 239.629 220.686 239.629 217.77C239.629 214.853 241.029 212.484 242.757 212.484C244.484 212.484 245.885 214.849 245.885 217.77Z" fill="#D8DEE8"/>
<path d="M245.885 217.764C245.885 220.476 244.696 222.674 243.231 222.674C241.766 222.674 240.575 220.476 240.575 217.764C240.575 215.052 241.764 212.855 243.231 212.855C244.697 212.855 245.885 215.052 245.885 217.764Z" fill="url(#paint10_linear)"/>
<path d="M300.024 213.268C299.863 213.268 299.703 213.278 299.543 213.297L297.028 213.268L297.042 214.374C294.606 216.28 292.913 220.446 292.913 225.283C292.913 230.311 294.74 234.615 297.333 236.409L297.345 237.3H300.022C303.946 237.3 307.124 231.919 307.124 225.283C307.124 218.647 303.946 213.268 300.024 213.268Z" fill="url(#paint11_linear)"/>
<path d="M297.028 237.299C300.954 237.299 304.137 231.919 304.137 225.283C304.137 218.647 300.954 213.268 297.028 213.268C293.102 213.268 289.919 218.647 289.919 225.283C289.919 231.919 293.102 237.299 297.028 237.299Z" fill="url(#paint12_linear)"/>
<path d="M296.028 232.047C298.234 232.047 300.022 229.025 300.022 225.297C300.022 221.569 298.234 218.547 296.028 218.547C293.823 218.547 292.035 221.569 292.035 225.297C292.035 229.025 293.823 232.047 296.028 232.047Z" fill="#D8DEE8"/>
<path d="M296.633 231.571C298.505 231.571 300.022 228.765 300.022 225.303C300.022 221.841 298.505 219.035 296.633 219.035C294.761 219.035 293.244 221.841 293.244 225.303C293.244 228.765 294.761 231.571 296.633 231.571Z" fill="url(#paint13_linear)"/>
<path d="M347.328 215.176C347.123 215.177 346.919 215.189 346.715 215.214L343.503 215.176L343.521 216.59C340.408 219.024 338.246 224.352 338.246 230.528C338.246 236.951 340.581 242.449 343.894 244.732L343.909 245.871H347.328C352.344 245.871 356.412 238.999 356.412 230.521C356.412 222.043 352.339 215.176 347.328 215.176Z" fill="url(#paint14_linear)"/>
<path d="M343.503 245.88C348.518 245.88 352.584 239.006 352.584 230.528C352.584 222.049 348.518 215.176 343.503 215.176C338.488 215.176 334.423 222.049 334.423 230.528C334.423 239.006 338.488 245.88 343.503 245.88Z" fill="url(#paint15_linear)"/>
<path d="M342.226 239.144C345.044 239.144 347.328 235.283 347.328 230.519C347.328 225.756 345.044 221.895 342.226 221.895C339.409 221.895 337.125 225.756 337.125 230.519C337.125 235.283 339.409 239.144 342.226 239.144Z" fill="#D8DEE8"/>
<path d="M342.997 238.543C345.389 238.543 347.328 234.959 347.328 230.536C347.328 226.114 345.389 222.529 342.997 222.529C340.605 222.529 338.667 226.114 338.667 230.536C338.667 234.959 340.605 238.543 342.997 238.543Z" fill="url(#paint16_linear)"/>
<path d="M202.282 134.197C201.461 134.334 200.714 134.757 200.176 135.392C199.637 136.027 199.34 136.833 199.339 137.665V201.901C199.339 202.801 199.683 203.666 200.301 204.32C200.92 204.974 201.765 205.367 202.664 205.417L323.398 212.152V114.059L202.282 134.197Z" fill="url(#paint17_linear)"/>
<path d="M391.483 116.339L323.399 114.047V212.154H395.146V120.125C395.146 119.142 394.764 118.197 394.08 117.491C393.397 116.784 392.465 116.371 391.483 116.339Z" fill="url(#paint18_linear)"/>
<path style="mix-blend-mode:multiply" opacity="0.3" d="M297.89 187.49C282.384 180.348 267.83 191.249 253.646 180.718C241.222 171.493 245.223 157.82 235.313 141.657C232.708 137.436 229.521 133.604 225.844 130.275L202.284 134.191C201.462 134.328 200.716 134.752 200.177 135.387C199.638 136.022 199.342 136.827 199.34 137.66V201.895C199.34 202.795 199.685 203.661 200.303 204.315C200.921 204.969 201.767 205.361 202.665 205.411L317.173 211.8C311.917 197.426 304.772 190.662 297.89 187.49Z" fill="url(#paint19_linear)"/>
<path d="M431.417 181.106L426.385 168.451L426.235 157.988L431.318 156.971C431.435 156.948 431.546 156.902 431.644 156.834C431.742 156.767 431.826 156.681 431.89 156.581C431.954 156.48 431.996 156.368 432.015 156.25C432.034 156.133 432.029 156.013 432 155.897C431.232 152.812 428.42 142.62 424.043 139.254C420.958 136.88 362.46 136.172 362.46 136.172L334.305 138.002C333.24 138.071 332.241 138.544 331.511 139.323C330.781 140.102 330.374 141.129 330.374 142.197V204.586C330.375 205.374 330.672 206.134 331.205 206.715C331.739 207.296 332.47 207.656 333.256 207.724L352.58 209.4L356.405 213.27C356.405 213.27 411.183 217.655 433.041 213.67C433.589 213.571 434.086 213.283 434.444 212.856C434.801 212.429 434.998 211.89 434.998 211.333V183.896C435.005 179.91 431.417 181.106 431.417 181.106Z" fill="#F4F7FA"/>
<path style="mix-blend-mode:multiply" opacity="0.8" d="M372.027 184.898C372.027 184.898 371.429 157.794 372.027 146.634C372.317 141.22 369.605 138.061 366.742 136.239C364.066 136.196 362.465 136.178 362.465 136.178L334.31 138.008C333.245 138.077 332.246 138.55 331.516 139.329C330.786 140.108 330.38 141.135 330.379 142.203V204.592C330.38 205.38 330.677 206.14 331.21 206.721C331.744 207.302 332.476 207.662 333.261 207.73L352.585 209.406L356.411 213.276C356.411 213.276 365.43 213.998 377.609 214.589V191.466L372.027 184.898Z" fill="url(#paint20_linear)"/>
<path d="M434.38 218.532L432.213 217.773V213.383C432.213 212.814 431.987 212.268 431.584 211.865C431.182 211.463 430.636 211.236 430.066 211.236H362.235C361.45 211.236 360.696 211.548 360.14 212.104C359.585 212.66 359.272 213.413 359.272 214.199V240.435C359.272 240.778 359.342 241.117 359.476 241.432C359.61 241.747 359.806 242.032 360.053 242.269C360.299 242.506 360.592 242.691 360.912 242.813C361.232 242.935 361.573 242.991 361.915 242.977L434.552 240.184C435.209 240.159 435.831 239.88 436.287 239.406C436.743 238.932 436.998 238.3 436.998 237.643V222.22C436.998 221.409 436.746 220.619 436.277 219.958C435.808 219.298 435.145 218.799 434.38 218.532V218.532Z" fill="#97A6B7"/>
<path d="M426.115 196.002H385.893C385.572 196.002 385.255 196.068 384.961 196.196C384.667 196.323 384.403 196.51 384.185 196.745C383.966 196.979 383.798 197.256 383.691 197.558C383.585 197.86 383.541 198.181 383.564 198.501L385.779 230.08C385.832 230.843 386.18 231.556 386.748 232.068C387.316 232.581 388.061 232.853 388.826 232.827L423.383 231.656C424.112 231.631 424.806 231.337 425.331 230.832C425.857 230.326 426.177 229.645 426.231 228.917L428.445 198.508C428.469 198.187 428.426 197.866 428.319 197.563C428.213 197.26 428.045 196.982 427.826 196.747C427.608 196.512 427.343 196.324 427.048 196.196C426.754 196.068 426.436 196.002 426.115 196.002V196.002Z" fill="url(#paint21_linear)"/>
<g style="mix-blend-mode:multiply" opacity="0.3">
<g style="mix-blend-mode:multiply" opacity="0.3">
<path d="M434.38 218.532L432.214 217.774V213.384C432.213 212.94 432.074 212.507 431.817 212.145C431.56 211.783 431.197 211.51 430.778 211.362L426.649 230.772C426.41 231.896 425.803 232.907 424.925 233.647C424.046 234.387 422.946 234.814 421.798 234.858L390.097 236.094C388.99 236.137 387.899 235.823 386.984 235.199C386.069 234.574 385.379 233.672 385.017 232.625L377.609 211.24H362.237C361.451 211.24 360.698 211.552 360.142 212.108C359.586 212.664 359.274 213.417 359.274 214.203V240.439C359.274 240.782 359.343 241.121 359.477 241.436C359.611 241.751 359.808 242.035 360.054 242.273C360.301 242.51 360.593 242.695 360.913 242.817C361.233 242.939 361.575 242.995 361.917 242.981L434.554 240.188C435.211 240.163 435.833 239.884 436.289 239.41C436.745 238.936 437 238.304 437 237.646V222.22C437 221.41 436.747 220.62 436.278 219.959C435.809 219.298 435.146 218.8 434.38 218.532V218.532Z" fill="#97A6B7"/>
</g>
</g>
<path d="M380.995 234.338L373.453 234.715C371.2 234.827 368.992 234.059 367.295 232.574C365.598 231.088 364.545 229 364.359 226.753L364.056 223.086H379.157C379.399 223.086 379.638 223.134 379.861 223.226C380.084 223.319 380.287 223.454 380.458 223.625C380.628 223.796 380.764 223.999 380.856 224.222C380.948 224.445 380.996 224.684 380.995 224.926V234.338Z" fill="url(#paint22_linear)"/>
<path d="M429.656 224.632L428.452 232.834C428.452 232.834 436.404 232.557 436.204 222.533L431.269 223.075C430.866 223.119 430.489 223.296 430.197 223.578C429.905 223.86 429.714 224.231 429.656 224.632Z" fill="url(#paint23_linear)"/>
<path d="M373.752 185.042C372.569 185.039 371.418 184.662 370.462 183.965L367.359 181.692C366.796 181.277 366.339 180.736 366.023 180.112C365.708 179.488 365.543 178.799 365.542 178.1V160.031C365.542 159.63 365.63 159.233 365.799 158.87C365.968 158.506 366.214 158.184 366.521 157.925C366.828 157.667 367.188 157.478 367.575 157.373C367.962 157.268 368.367 157.249 368.763 157.317L371.805 157.843H426.373L431.591 181.131V181.164L431.016 184.034H430.886L373.863 185.048L373.752 185.042ZM368.287 157.605C367.644 157.606 367.028 157.862 366.573 158.317C366.119 158.772 365.863 159.388 365.862 160.031V178.1C365.864 178.748 366.017 179.387 366.311 179.965C366.604 180.543 367.029 181.044 367.552 181.428L370.655 183.702C371.555 184.357 372.639 184.711 373.752 184.713H373.845L430.735 183.7L431.249 181.124L426.104 158.166H371.765L368.697 157.639C368.561 157.616 368.424 157.604 368.287 157.605V157.605Z" fill="#808080"/>
<path d="M426.234 157.979H371.77L368.73 157.454C368.358 157.39 367.976 157.407 367.612 157.506C367.248 157.605 366.909 157.782 366.621 158.025C366.332 158.268 366.1 158.571 365.941 158.913C365.781 159.255 365.699 159.628 365.699 160.006V178.074C365.699 178.749 365.859 179.413 366.164 180.014C366.469 180.615 366.911 181.136 367.455 181.535L370.558 183.807C371.51 184.506 372.666 184.873 373.846 184.851L430.869 183.837L431.417 181.097L426.234 157.979Z" fill="url(#paint24_linear)"/>
<path d="M392.381 151.703H387.746C387.045 151.703 386.476 152.272 386.476 152.973V154.917C386.476 155.619 387.045 156.187 387.746 156.187H392.381C393.082 156.187 393.651 155.619 393.651 154.917V152.973C393.651 152.272 393.082 151.703 392.381 151.703Z" fill="#97A6B7"/>
<path d="M419.586 151.684H414.951C414.25 151.684 413.681 152.252 413.681 152.954V154.898C413.681 155.599 414.25 156.168 414.951 156.168H419.586C420.287 156.168 420.856 155.599 420.856 154.898V152.954C420.856 152.252 420.287 151.684 419.586 151.684Z" fill="#97A6B7"/>
<g style="mix-blend-mode:overlay" opacity="0.3">
<path d="M409.196 170.834C395.141 165.458 381.92 172.155 375.863 164.855C374.226 162.873 373.564 160.422 373.41 157.979H371.77L368.73 157.454C368.358 157.39 367.976 157.407 367.612 157.506C367.248 157.605 366.909 157.782 366.621 158.025C366.332 158.268 366.1 158.571 365.941 158.913C365.781 159.255 365.699 159.628 365.699 160.006V178.074C365.699 178.749 365.859 179.413 366.164 180.014C366.469 180.615 366.911 181.136 367.455 181.535L370.558 183.807C371.51 184.506 372.666 184.873 373.846 184.851L425.5 183.933C419.661 176.063 413.732 172.568 409.196 170.834Z" fill="white"/>
</g>
<path d="M408.309 305.514L4.03979 302.068V312.264C4.03979 315.032 5.80208 317.384 8.19034 317.803L122.506 337.882C123.86 338.12 125.238 338.183 126.607 338.071L403.916 315.179C406.393 314.974 408.309 312.614 408.309 309.77V305.514Z" fill="#BFC8D6"/>
<path d="M261.602 289.166L8.22018 307.82C3.68645 308.15 0 304.606 0 299.892V111.215C0 106.504 3.68645 102.688 8.22018 102.688H261.602C265.336 102.688 268.357 106.138 268.357 110.396V280.961C268.357 285.217 265.336 288.892 261.602 289.166Z" fill="#BFC8D6"/>
<path d="M265.642 289.166L12.2683 307.82C7.73454 308.15 4.0481 304.606 4.0481 299.892V111.215C4.0481 106.504 7.73454 102.688 12.2683 102.688H265.642C269.376 102.688 272.397 106.138 272.397 110.396V280.961C272.4 285.217 269.376 288.892 265.642 289.166Z" fill="url(#paint25_linear)"/>
<path d="M257.747 277.17L21.7504 293.372C18.0606 293.625 15.0613 290.715 15.0613 286.87V121.675C15.0613 117.83 18.0606 114.7 21.7504 114.685L257.747 113.668C260.829 113.653 263.321 116.476 263.321 119.984V270.447C263.316 273.949 260.829 276.958 257.747 277.17Z" fill="white"/>
<path d="M275.739 288.149L4.03979 307.776L122.506 328.586C123.86 328.824 125.238 328.887 126.607 328.774L408.309 305.519L280.062 288.286C278.63 288.092 277.181 288.046 275.739 288.149V288.149Z" fill="url(#paint26_linear)"/>
<path d="M43.6855 307.937L269.883 291.348L339.89 300.684L115.64 318.416L43.6855 307.937Z" fill="#D8DEE8"/>
<path d="M116.982 286.53L20.6916 293.01C20.0231 293.055 19.3524 292.962 18.7213 292.737C18.0902 292.512 17.512 292.16 17.0226 291.702C16.5332 291.245 16.1431 290.691 15.8764 290.077C15.6098 289.462 15.4723 288.799 15.4724 288.129V119.514C15.4724 118.22 15.9851 116.979 16.8984 116.063C17.8116 115.146 19.0508 114.629 20.3447 114.624L116.965 114.232L116.982 286.53Z" fill="#D8DEE8"/>
<path d="M105.454 166.405L47.207 168.39V160.725L105.454 158.898V166.405Z" fill="white"/>
<path d="M105.454 178.694L47.207 180.94V173.275L105.454 171.188V178.694Z" fill="white"/>
<path d="M105.454 190.985L47.207 193.494V185.829L105.454 183.479V190.985Z" fill="white"/>
<path d="M105.454 203.272L47.207 206.044V198.377L105.454 195.766V203.272Z" fill="white"/>
<path d="M219.679 269.003L69.0664 279.124C61.236 279.649 54.6427 273.961 54.6345 266.673L54.6113 248.198C54.6113 241.426 60.2995 235.769 67.5651 235.315L218.179 225.811C225.986 225.316 232.548 231.001 232.548 238.266L232.568 256.125C232.579 262.861 226.919 268.516 219.679 269.003Z" fill="url(#paint27_linear)"/>
<path d="M154.575 204.542C154.575 204.542 168.789 200.892 175.04 191.215C181.291 181.538 181.739 175.287 185.908 175.287C190.076 175.287 188.587 178.413 194.691 179.455C200.796 180.498 204.069 179.455 204.963 175.435C205.856 171.415 204.963 158.019 203.324 155.934C201.686 153.85 198.264 146.85 197.816 144.621C197.368 142.391 196.401 134.369 196.401 134.369L199.9 135.094C199.9 135.094 202.873 146.408 204.664 148.938C206.454 151.468 206.897 166.355 216.126 166.654C225.355 166.952 221.933 155.489 232.948 151.624C243.963 147.759 245.148 147.742 245.148 147.742V153.853C245.148 153.853 232.049 156.235 228.774 162.191C225.499 168.147 219.991 174.844 218.055 178.268C216.119 181.692 211.059 185.865 209.123 186.901C207.187 187.936 209.868 199.405 200.191 204.022C190.514 208.638 186.648 196.424 184.114 196.875C181.58 197.326 176.224 205.361 173.694 208.04C171.164 210.719 169.079 213.986 162.826 215.036C156.573 216.087 138.859 216.227 138.859 216.227V205.361L154.575 204.542Z" fill="#D8DEE8"/>
<path d="M147.352 192.688C147.352 192.688 160.302 184.202 161.196 182.118C162.09 180.033 165.959 160.977 167.307 158.448C168.655 155.919 182.045 145.349 183.087 143.562C184.129 141.775 183.683 132.1 183.683 132.1H138.866V193.728L147.352 192.688Z" fill="#D8DEE8"/>
<path d="M161.366 180.749C161.229 180.749 161.095 180.706 160.984 180.626C160.873 180.546 160.789 180.432 160.746 180.302C160.703 180.172 160.702 180.031 160.743 179.9C160.785 179.77 160.866 179.655 160.976 179.573C160.976 179.573 161.227 179.387 161.667 179.055C161.806 178.979 161.967 178.956 162.122 178.99C162.276 179.023 162.413 179.111 162.509 179.237C162.604 179.363 162.651 179.519 162.641 179.677C162.631 179.835 162.565 179.984 162.455 180.097L161.754 180.622C161.642 180.704 161.506 180.749 161.366 180.749V180.749Z" fill="url(#paint28_linear)"/>
<path d="M222.207 183.535C222.092 183.535 221.968 183.535 221.837 183.52C221.742 183.527 221.647 183.514 221.557 183.481C221.468 183.448 221.387 183.395 221.319 183.328C221.252 183.26 221.2 183.179 221.167 183.09C221.134 183 221.121 182.905 221.128 182.809C221.136 182.714 221.164 182.622 221.21 182.539C221.257 182.456 221.321 182.383 221.398 182.327C221.475 182.271 221.563 182.232 221.657 182.214C221.75 182.195 221.847 182.197 221.94 182.219C222.037 182.227 222.13 182.219 222.216 182.23C222.35 182.232 222.485 182.22 222.617 182.194C222.875 182.136 223.131 182.067 223.378 181.986C223.534 181.96 223.693 181.991 223.828 182.072C223.963 182.154 224.065 182.281 224.114 182.431C224.163 182.581 224.157 182.743 224.097 182.889C224.037 183.035 223.927 183.154 223.786 183.226C223.497 183.32 223.198 183.403 222.896 183.469C222.669 183.515 222.439 183.537 222.207 183.535ZM220.194 183.195C220.135 183.194 220.077 183.186 220.021 183.172C219.513 183.031 218.942 182.841 218.326 182.625C218.243 182.598 218.165 182.555 218.099 182.498C218.033 182.441 217.979 182.371 217.94 182.292C217.901 182.213 217.879 182.128 217.874 182.04C217.869 181.953 217.881 181.865 217.911 181.783C217.941 181.701 217.987 181.625 218.046 181.561C218.106 181.496 218.177 181.445 218.257 181.409C218.337 181.373 218.423 181.353 218.511 181.351C218.599 181.349 218.686 181.365 218.767 181.398C219.353 181.609 219.892 181.781 220.366 181.911C220.509 181.961 220.632 182.058 220.712 182.188C220.792 182.317 220.825 182.47 220.806 182.62C220.786 182.771 220.715 182.91 220.605 183.015C220.495 183.12 220.352 183.183 220.201 183.195H220.194ZM225.149 182.551C225.008 182.545 224.873 182.495 224.763 182.408C224.652 182.32 224.573 182.199 224.536 182.063C224.499 181.927 224.507 181.783 224.557 181.652C224.608 181.521 224.7 181.409 224.819 181.333C225.28 181.063 225.715 180.75 226.117 180.397C226.25 180.313 226.409 180.28 226.564 180.302C226.72 180.325 226.862 180.403 226.966 180.521C227.069 180.64 227.127 180.791 227.129 180.949C227.131 181.106 227.076 181.259 226.976 181.38C226.511 181.787 226.008 182.15 225.474 182.461C225.377 182.518 225.267 182.549 225.154 182.551H225.149ZM216.927 182.04C216.841 182.04 216.757 182.023 216.678 181.991C216.161 181.778 215.622 181.546 215.069 181.3C214.936 181.215 214.838 181.085 214.793 180.933C214.748 180.782 214.758 180.619 214.823 180.475C214.888 180.33 215.002 180.214 215.145 180.147C215.288 180.079 215.45 180.066 215.602 180.108C216.142 180.349 216.666 180.574 217.175 180.783C217.308 180.846 217.416 180.952 217.482 181.083C217.548 181.214 217.569 181.364 217.54 181.508C217.512 181.653 217.436 181.783 217.325 181.88C217.214 181.976 217.074 182.032 216.927 182.04ZM213.767 180.626C213.671 180.627 213.577 180.605 213.49 180.564C212.976 180.323 212.451 180.068 211.921 179.807C211.792 179.717 211.699 179.583 211.66 179.43C211.621 179.277 211.638 179.115 211.708 178.974C211.778 178.832 211.896 178.72 212.041 178.659C212.186 178.597 212.349 178.589 212.499 178.636C213.023 178.894 213.54 179.145 214.047 179.384C214.18 179.448 214.289 179.555 214.354 179.688C214.419 179.821 214.436 179.973 214.404 180.117C214.371 180.262 214.291 180.391 214.175 180.483C214.059 180.576 213.916 180.626 213.767 180.626V180.626ZM227.748 180.296C227.626 180.293 227.507 180.256 227.404 180.19C227.301 180.123 227.219 180.029 227.167 179.918C227.114 179.808 227.094 179.685 227.107 179.563C227.121 179.441 227.168 179.326 227.243 179.229C227.588 178.806 227.902 178.359 228.183 177.891C228.226 177.815 228.283 177.748 228.352 177.694C228.421 177.641 228.501 177.602 228.585 177.579C228.67 177.557 228.758 177.552 228.845 177.564C228.931 177.577 229.014 177.606 229.089 177.652C229.164 177.697 229.229 177.757 229.28 177.827C229.332 177.898 229.368 177.979 229.388 178.064C229.407 178.149 229.41 178.237 229.395 178.323C229.379 178.41 229.347 178.492 229.299 178.565C228.986 179.085 228.637 179.581 228.254 180.052C228.193 180.128 228.116 180.189 228.029 180.231C227.942 180.274 227.846 180.296 227.748 180.296V180.296ZM163.434 179.196C163.3 179.192 163.17 179.147 163.062 179.067C162.954 178.987 162.873 178.876 162.83 178.748C162.786 178.621 162.783 178.484 162.82 178.355C162.857 178.225 162.932 178.11 163.036 178.025C163.447 177.711 163.905 177.356 164.402 176.97C164.54 176.894 164.7 176.869 164.854 176.901C165.009 176.932 165.146 177.018 165.243 177.142C165.34 177.267 165.389 177.422 165.381 177.579C165.374 177.736 165.311 177.886 165.203 178C164.707 178.388 164.243 178.745 163.832 179.062C163.718 179.15 163.578 179.197 163.434 179.198V179.196ZM210.671 179.104C210.568 179.104 210.466 179.079 210.375 179.031C209.863 178.772 209.348 178.504 208.831 178.233C208.704 178.139 208.615 178.003 208.58 177.85C208.545 177.696 208.566 177.535 208.639 177.396C208.712 177.256 208.833 177.148 208.979 177.089C209.125 177.031 209.288 177.026 209.437 177.077C209.95 177.347 210.46 177.611 210.968 177.868C211.093 177.939 211.192 178.048 211.249 178.18C211.306 178.312 211.319 178.458 211.286 178.598C211.252 178.738 211.174 178.863 211.063 178.954C210.952 179.045 210.814 179.098 210.671 179.104V179.104ZM207.604 177.497C207.496 177.497 207.391 177.47 207.296 177.419C206.787 177.145 206.278 176.87 205.77 176.593C205.68 176.561 205.599 176.509 205.531 176.442C205.463 176.375 205.41 176.295 205.376 176.205C205.343 176.116 205.329 176.021 205.335 175.925C205.342 175.83 205.369 175.738 205.415 175.654C205.461 175.57 205.524 175.498 205.601 175.441C205.678 175.384 205.766 175.345 205.859 175.325C205.953 175.305 206.049 175.306 206.142 175.328C206.235 175.349 206.322 175.39 206.398 175.449C206.902 175.724 207.407 176 207.914 176.274C208.037 176.347 208.133 176.457 208.188 176.589C208.243 176.721 208.253 176.867 208.218 177.005C208.183 177.143 208.105 177.266 207.994 177.356C207.883 177.446 207.746 177.498 207.604 177.503V177.497ZM166.171 177.07C166.037 177.066 165.909 177.021 165.801 176.942C165.694 176.863 165.613 176.753 165.569 176.627C165.525 176.501 165.521 176.365 165.556 176.236C165.591 176.107 165.664 175.992 165.766 175.906C166.2 175.563 166.651 175.202 167.114 174.831C167.249 174.721 167.421 174.67 167.594 174.688C167.767 174.705 167.925 174.791 168.035 174.926C168.144 175.061 168.196 175.233 168.178 175.406C168.16 175.579 168.074 175.737 167.94 175.847C167.476 176.222 167.021 176.583 166.584 176.928C166.465 177.025 166.316 177.076 166.163 177.072L166.171 177.07ZM204.57 175.832C204.458 175.832 204.348 175.804 204.251 175.749C203.74 175.465 203.237 175.179 202.74 174.897C202.664 174.855 202.598 174.799 202.545 174.731C202.492 174.663 202.452 174.586 202.429 174.503C202.406 174.42 202.4 174.333 202.41 174.248C202.42 174.163 202.448 174.08 202.49 174.005C202.533 173.93 202.59 173.865 202.658 173.812C202.726 173.759 202.803 173.72 202.886 173.698C202.969 173.675 203.056 173.669 203.141 173.68C203.227 173.691 203.309 173.719 203.384 173.762C203.879 174.043 204.375 174.327 204.888 174.61C205.009 174.684 205.102 174.795 205.154 174.926C205.207 175.057 205.216 175.202 205.18 175.338C205.145 175.475 205.066 175.597 204.956 175.686C204.846 175.775 204.711 175.826 204.57 175.832V175.832ZM168.866 174.902C168.734 174.897 168.606 174.853 168.499 174.775C168.392 174.697 168.311 174.589 168.266 174.465C168.222 174.34 168.215 174.205 168.249 174.077C168.282 173.949 168.352 173.833 168.452 173.746C168.889 173.386 169.334 173.019 169.773 172.647C169.836 172.576 169.914 172.519 170.001 172.481C170.088 172.442 170.182 172.423 170.277 172.424C170.372 172.426 170.466 172.448 170.552 172.488C170.638 172.529 170.714 172.588 170.775 172.661C170.836 172.734 170.881 172.82 170.906 172.912C170.93 173.003 170.935 173.1 170.92 173.193C170.904 173.287 170.868 173.377 170.815 173.456C170.762 173.534 170.692 173.601 170.61 173.65C170.163 174.023 169.715 174.393 169.274 174.755C169.157 174.851 169.01 174.903 168.858 174.904L168.866 174.902ZM201.559 174.124C201.443 174.124 201.329 174.094 201.228 174.036C200.716 173.741 200.214 173.448 199.727 173.163C199.605 173.063 199.522 172.923 199.494 172.768C199.466 172.612 199.494 172.452 199.574 172.316C199.654 172.18 199.78 172.077 199.929 172.026C200.078 171.974 200.241 171.978 200.388 172.036C200.872 172.32 201.368 172.61 201.874 172.905C201.994 172.98 202.086 173.092 202.137 173.224C202.188 173.356 202.196 173.5 202.159 173.636C202.122 173.773 202.042 173.894 201.932 173.982C201.821 174.069 201.685 174.119 201.544 174.124H201.559ZM171.517 172.682C171.386 172.678 171.259 172.635 171.152 172.558C171.046 172.481 170.964 172.374 170.919 172.251C170.873 172.128 170.865 171.994 170.896 171.866C170.927 171.738 170.996 171.623 171.093 171.534C171.53 171.159 171.965 170.783 172.391 170.406C172.524 170.322 172.682 170.288 172.838 170.311C172.993 170.333 173.136 170.41 173.24 170.528C173.344 170.646 173.402 170.797 173.404 170.954C173.407 171.112 173.353 171.264 173.253 171.386C172.822 171.765 172.384 172.147 171.942 172.525C171.821 172.629 171.668 172.685 171.509 172.684L171.517 172.682ZM198.571 172.373C198.454 172.373 198.34 172.341 198.24 172.281C197.72 171.972 197.221 171.673 196.754 171.387C196.666 171.351 196.586 171.296 196.521 171.227C196.455 171.157 196.406 171.074 196.376 170.983C196.346 170.892 196.336 170.796 196.347 170.701C196.357 170.607 196.388 170.515 196.438 170.433C196.487 170.352 196.554 170.282 196.633 170.228C196.712 170.175 196.802 170.139 196.896 170.123C196.99 170.108 197.087 170.113 197.179 170.139C197.271 170.164 197.357 170.209 197.43 170.271C197.899 170.555 198.394 170.852 198.916 171.159C199.033 171.236 199.123 171.347 199.173 171.478C199.223 171.609 199.23 171.752 199.193 171.887C199.157 172.022 199.078 172.142 198.969 172.229C198.86 172.316 198.725 172.367 198.586 172.373H198.571ZM195.6 170.581C195.479 170.581 195.361 170.548 195.258 170.485C194.704 170.144 194.209 169.835 193.781 169.564C193.662 169.46 193.584 169.317 193.562 169.161C193.539 169.005 193.573 168.846 193.657 168.713C193.742 168.579 193.871 168.481 194.022 168.434C194.173 168.388 194.335 168.397 194.48 168.461C194.904 168.73 195.395 169.037 195.941 169.374C196.062 169.448 196.155 169.56 196.206 169.693C196.258 169.825 196.265 169.97 196.226 170.107C196.187 170.243 196.105 170.363 195.992 170.449C195.879 170.535 195.741 170.581 195.6 170.581V170.581ZM174.102 170.396C173.972 170.393 173.846 170.351 173.74 170.276C173.634 170.201 173.552 170.096 173.505 169.975C173.458 169.854 173.448 169.722 173.475 169.595C173.503 169.468 173.568 169.352 173.661 169.262C174.092 168.867 174.511 168.475 174.911 168.091C175.04 168 175.198 167.958 175.355 167.973C175.512 167.988 175.658 168.059 175.768 168.173C175.877 168.287 175.942 168.436 175.951 168.593C175.96 168.751 175.912 168.907 175.816 169.032C175.408 169.423 174.981 169.823 174.541 170.224C174.421 170.334 174.264 170.395 174.102 170.396V170.396ZM192.678 168.72C192.548 168.72 192.421 168.681 192.314 168.608C191.951 168.363 191.578 168.112 191.198 167.846L190.882 167.63C190.809 167.582 190.746 167.521 190.697 167.449C190.648 167.377 190.614 167.295 190.597 167.21C190.58 167.124 190.58 167.036 190.597 166.951C190.615 166.866 190.649 166.784 190.699 166.713C190.748 166.641 190.811 166.579 190.885 166.532C190.958 166.485 191.04 166.454 191.126 166.439C191.212 166.424 191.3 166.427 191.385 166.447C191.47 166.467 191.55 166.503 191.621 166.555L191.936 166.769C192.314 167.029 192.683 167.283 193.044 167.526C193.156 167.607 193.239 167.72 193.282 167.851C193.326 167.981 193.327 168.122 193.287 168.253C193.246 168.385 193.166 168.501 193.057 168.584C192.948 168.668 192.815 168.715 192.678 168.72ZM176.593 167.998C176.466 167.995 176.342 167.955 176.237 167.884C176.132 167.812 176.05 167.712 176.001 167.595C175.951 167.478 175.937 167.35 175.958 167.224C175.98 167.099 176.037 166.983 176.123 166.89C176.551 166.451 176.939 166.033 177.28 165.648C177.399 165.541 177.554 165.481 177.714 165.48C177.875 165.479 178.03 165.536 178.152 165.641C178.273 165.746 178.352 165.892 178.374 166.051C178.396 166.21 178.359 166.371 178.271 166.505C177.919 166.908 177.516 167.344 177.072 167.8C177.009 167.864 176.935 167.914 176.852 167.948C176.77 167.982 176.682 167.999 176.593 167.998V167.998ZM189.819 166.778C189.691 166.778 189.567 166.74 189.46 166.67C188.986 166.36 188.506 166.052 188.022 165.762C187.901 165.661 187.82 165.52 187.794 165.365C187.768 165.21 187.798 165.05 187.878 164.915C187.959 164.78 188.086 164.678 188.235 164.628C188.384 164.578 188.546 164.583 188.692 164.642C189.188 164.943 189.683 165.258 190.179 165.58C190.291 165.66 190.375 165.774 190.42 165.904C190.464 166.034 190.467 166.176 190.427 166.308C190.387 166.44 190.307 166.556 190.198 166.64C190.089 166.724 189.957 166.772 189.819 166.778V166.778ZM178.882 165.408C178.754 165.409 178.628 165.371 178.522 165.3C178.415 165.23 178.331 165.129 178.281 165.012C178.231 164.894 178.216 164.764 178.239 164.638C178.262 164.512 178.322 164.396 178.411 164.303C178.854 163.835 179.369 163.439 179.935 163.131C180.011 163.09 180.095 163.065 180.18 163.057C180.266 163.049 180.352 163.057 180.434 163.082C180.517 163.107 180.593 163.148 180.66 163.203C180.726 163.258 180.781 163.325 180.822 163.401C180.862 163.477 180.887 163.56 180.895 163.645C180.904 163.731 180.895 163.817 180.87 163.9C180.845 163.982 180.804 164.059 180.749 164.125C180.695 164.191 180.627 164.246 180.552 164.287C180.106 164.532 179.701 164.845 179.352 165.215C179.291 165.277 179.217 165.326 179.136 165.359C179.056 165.392 178.969 165.409 178.882 165.408V165.408ZM186.846 165.019C186.744 165.018 186.643 164.994 186.552 164.948C186.062 164.699 185.558 164.478 185.042 164.287C184.959 164.26 184.882 164.216 184.817 164.158C184.751 164.101 184.697 164.031 184.659 163.952C184.621 163.874 184.599 163.788 184.594 163.701C184.59 163.613 184.603 163.526 184.633 163.444C184.663 163.362 184.709 163.286 184.768 163.222C184.828 163.158 184.9 163.107 184.979 163.071C185.059 163.036 185.145 163.016 185.233 163.015C185.32 163.013 185.407 163.029 185.488 163.061C186.053 163.27 186.604 163.511 187.14 163.785C187.265 163.855 187.364 163.965 187.421 164.096C187.478 164.228 187.491 164.374 187.458 164.514C187.424 164.654 187.346 164.778 187.236 164.87C187.125 164.961 186.988 165.014 186.844 165.02L186.846 165.019ZM183.6 163.877C183.565 163.877 183.53 163.874 183.495 163.869C182.989 163.782 182.473 163.769 181.964 163.829C181.806 163.825 181.656 163.764 181.539 163.659C181.422 163.553 181.347 163.409 181.327 163.253C181.307 163.096 181.344 162.938 181.43 162.807C181.517 162.675 181.647 162.578 181.798 162.534C182.434 162.457 183.077 162.473 183.708 162.581C183.858 162.62 183.989 162.711 184.079 162.838C184.168 162.964 184.211 163.118 184.198 163.273C184.186 163.427 184.12 163.572 184.011 163.683C183.902 163.794 183.758 163.862 183.604 163.877H183.6Z" fill="url(#paint29_linear)"/>
<path d="M229.502 177.415C229.413 177.415 229.324 177.397 229.241 177.361C229.086 177.289 228.964 177.159 228.902 176.998C228.841 176.838 228.844 176.66 228.911 176.502C229.108 176.051 229.198 175.762 229.2 175.759C229.269 175.617 229.387 175.505 229.532 175.443C229.676 175.38 229.839 175.372 229.989 175.418C230.14 175.465 230.268 175.564 230.352 175.697C230.436 175.83 230.47 175.989 230.447 176.145C230.349 176.444 230.235 176.737 230.107 177.024C230.055 177.141 229.97 177.24 229.863 177.309C229.755 177.379 229.63 177.416 229.502 177.415Z" fill="url(#paint30_linear)"/>
<path d="M178.997 144.389C178.997 151.924 168.442 165.67 163.665 171.507C163.386 171.848 163.036 172.122 162.638 172.31C162.24 172.499 161.805 172.596 161.365 172.596C160.925 172.596 160.491 172.499 160.093 172.31C159.695 172.122 159.344 171.848 159.066 171.507C154.289 165.67 143.735 151.924 143.735 144.389C143.735 139.713 145.593 135.228 148.899 131.922C152.206 128.615 156.69 126.758 161.366 126.758C166.042 126.758 170.527 128.615 173.833 131.922C177.14 135.228 178.997 139.713 178.997 144.389V144.389Z" fill="#124954"/>
<path d="M165.128 153.467C170.145 151.389 172.528 145.638 170.45 140.621C168.372 135.604 162.62 133.222 157.603 135.3C152.586 137.378 150.204 143.129 152.282 148.146C154.36 153.163 160.112 155.545 165.128 153.467Z" fill="white"/>
<g style="mix-blend-mode:multiply" opacity="0.3">
<path style="mix-blend-mode:multiply" opacity="0.3" d="M161.289 164.289C162.407 156.923 167.271 154.564 166.437 147.608C165.474 139.586 158.371 137.448 158.199 130.31C158.176 129.189 158.319 128.07 158.623 126.99C154.474 127.646 150.695 129.76 147.967 132.954C145.238 136.147 143.739 140.21 143.739 144.41C143.739 151.945 154.293 165.691 159.069 171.528C159.397 171.928 159.823 172.235 160.305 172.42C160.788 172.605 161.31 172.66 161.821 172.582C160.964 169.356 160.937 166.6 161.289 164.289Z" fill="#817FE7"/>
</g>
<path d="M161.367 183.673C163.357 183.673 164.97 182.059 164.97 180.069C164.97 178.078 163.357 176.465 161.367 176.465C159.376 176.465 157.763 178.078 157.763 180.069C157.763 182.059 159.376 183.673 161.367 183.673Z" fill="#124954"/>
<path d="M239.064 156.655C239.064 160.606 233.528 167.817 231.022 170.878C230.876 171.056 230.692 171.2 230.484 171.298C230.275 171.397 230.047 171.448 229.817 171.448C229.586 171.448 229.358 171.397 229.15 171.298C228.941 171.2 228.757 171.056 228.611 170.878C226.105 167.817 220.569 160.606 220.569 156.655C220.569 154.202 221.544 151.85 223.278 150.115C225.013 148.381 227.365 147.406 229.818 147.406C232.271 147.406 234.624 148.381 236.358 150.115C238.093 151.85 239.067 154.202 239.067 156.655H239.064Z" fill="url(#paint31_linear)"/>
<path d="M234.92 157.487C235.376 154.675 233.467 152.026 230.655 151.569C227.843 151.113 225.193 153.022 224.737 155.834C224.28 158.646 226.19 161.296 229.002 161.752C231.814 162.209 234.463 160.299 234.92 157.487Z" fill="white"/>
<g style="mix-blend-mode:multiply" opacity="0.3">
<path style="mix-blend-mode:multiply" opacity="0.3" d="M229.775 167.092C230.362 163.229 232.913 161.992 232.476 158.339C231.97 154.13 228.246 153.01 228.155 149.266C228.143 148.678 228.218 148.092 228.378 147.525C226.202 147.868 224.219 148.977 222.788 150.652C221.356 152.327 220.569 154.457 220.569 156.661C220.569 160.611 226.105 167.822 228.611 170.883C228.782 171.093 229.005 171.254 229.258 171.351C229.511 171.448 229.785 171.478 230.053 171.436C229.661 170.023 229.566 168.544 229.775 167.092V167.092Z" fill="url(#paint32_linear)"/>
</g>
<path d="M230.54 177.098C231.504 176.699 231.962 175.594 231.563 174.63C231.164 173.665 230.058 173.208 229.094 173.607C228.13 174.006 227.672 175.112 228.072 176.076C228.471 177.04 229.576 177.498 230.54 177.098Z" fill="url(#paint33_linear)"/>
<g style="mix-blend-mode:soft-light" opacity="0.48">
<path d="M12.293 307.927L264.393 289.368L265.676 289.273C267.389 289.148 268.948 288.301 270.135 287.016C251.994 286.025 240.727 279.583 233.458 272.932C218.861 259.574 221.401 246.399 205.651 237.617C186.018 226.66 170.58 240.542 155.681 226.847C146.65 218.542 151.084 212.35 139.969 199.942C127.659 186.197 119.654 190.818 107.267 178.447C91.6257 162.806 99.4478 150.639 85.9739 139.409C69.6227 125.785 51.9998 138.395 36.4398 125.329C29.7293 119.695 26.0461 111.503 24.1236 102.791H12.3029C7.76922 102.791 4.08278 106.608 4.08278 111.318V300.004C4.07452 304.713 7.75931 308.259 12.293 307.927Z" fill="white"/>
</g>
<path d="M32.3243 5.87099C22.8175 3.83123 11.0546 10.4592 5.51168 18.6497C-4.56328 33.5424 2.06802 59.2798 19.1641 65.6749C30.192 69.804 44.5084 65.4602 50.7813 56.8816C56.486 49.0793 52.3322 42.1458 59.4408 35.0801C65.3966 29.1606 70.406 31.3936 75.3923 24.9473C79.0622 20.2005 81.7378 11.916 78.0151 6.127C74.877 1.24808 68.1383 -0.388686 63.1619 0.0754226C54.1159 0.919406 52.1142 8.59123 43.0913 8.80594C38.1579 8.92321 37.3733 6.95446 32.3243 5.87099Z" fill="url(#paint34_linear)"/>
<path d="M71.8479 22.5532C74.6176 20.4523 83.3399 25.7755 88.8497 32.2896C95.3225 39.9449 94.2605 45.5803 99.6761 54.8509C102.367 59.4606 107.127 65.7682 116.027 71.7223L113.588 76.5203C109.034 76.3816 100.157 75.417 92.3512 69.2432C86.9305 64.949 84.4234 59.6968 79.6122 49.3543C74.7927 38.9737 68.3861 25.1793 71.8479 22.5532Z" fill="url(#paint35_linear)"/>
<path d="M129.957 164.963L126.908 158.484C126.474 157.563 125.798 156.778 124.952 156.213L123.443 155.202C123.443 155.202 119.834 155.106 119.271 157.374C119.15 160.256 124.749 166.694 128.292 169.251C128.88 169.675 129.717 170.242 130.226 169.949C131.09 169.457 130.484 166.806 129.957 164.963Z" fill="url(#paint36_linear)"/>
<path d="M124.226 151.709C123.745 154.487 124.353 155.937 125.009 156.748C125.47 157.32 129.209 163.487 127.673 164.483C126.979 164.932 122.223 159.032 121.768 158.127C121.351 157.301 121.08 157.501 121.055 155.272C121.04 154.12 120.855 152.978 120.505 151.881L124.226 151.709Z" fill="url(#paint37_linear)"/>
<path d="M129.627 129.676C129.627 129.676 133.003 133.703 132.453 138.119C131.903 142.536 125.994 136.079 125.169 133.898C124.345 131.716 123.382 128.612 123.382 128.612C123.382 128.612 127.528 126.029 129.627 129.676Z" fill="url(#paint38_linear)"/>
<path d="M128.34 123.363C128.34 123.363 127.423 128.056 129.166 130.533C130.035 131.765 131.209 132.812 130.864 133.816C130.633 134.489 129.754 134.973 129.011 134.897C127.587 134.75 126.797 132.566 126.241 131.027C125.415 128.753 124.959 123.887 124.959 123.887L128.34 123.363Z" fill="url(#paint39_linear)"/>
<path d="M125.65 127.313L128.763 126.178C130.383 122.48 132.36 116.404 131.7 109.019C130.002 90.0256 112.437 79.9655 110.486 78.8887C105.697 81.2901 100.854 84.6694 100.677 88.9471C100.458 94.3067 107.759 97.1409 114.625 104.98C118.744 109.683 123.148 116.695 125.65 127.313Z" fill="url(#paint40_linear)"/>
<path d="M124.53 153.848C127.96 140.45 127.083 129.516 126.094 123.216C124.599 113.696 121.557 94.3327 108.628 87.1118C105.805 85.5345 101.769 84.1224 96.8503 79.7389C93.5615 76.7918 90.7618 73.341 88.5558 69.5153C71.2649 64.4432 55.3167 66.4995 48.2808 75.7717C47.4665 76.8436 45.4317 79.1675 45.037 82.5946C44.1484 90.3275 51.7459 99.6361 60.2716 101.588C71.1063 104.066 77.3924 92.9338 86.9917 96.6335C89.6773 97.669 91.9466 100.234 96.5067 105.366C100.546 109.904 104 114.931 106.786 120.329C110.455 127.506 113.228 132.804 113.642 139.672C113.737 141.27 113.793 144.503 115.667 147.989C116.863 150.168 118.513 152.065 120.505 153.55L124.53 153.848Z" fill="url(#paint41_linear)"/>
<path style="mix-blend-mode:multiply" opacity="0.3" d="M45.037 82.5946C45.4317 79.1675 47.4665 76.8436 48.2808 75.7717C55.3167 66.4995 71.2649 64.4432 88.5558 69.5153C90.7618 73.341 93.5615 76.7918 96.8503 79.7389C101.769 84.1224 105.805 85.5345 108.628 87.1118C116.523 91.5217 120.728 100.457 123.149 108.913C119.557 103.344 116.483 101.864 114.103 101.838C110.698 101.8 109.176 104.712 105.11 104.315C100.763 103.891 99.7687 100.297 96.2458 99.8839C95.1921 99.76 93.8939 99.9235 92.3364 100.753C90.2554 98.5758 88.7028 97.2842 86.9917 96.6236C77.3924 92.9223 71.1063 104.056 60.2716 101.578C51.7426 99.6361 44.1451 90.3275 45.037 82.5946Z" fill="url(#paint42_linear)"/>
<path d="M115.571 93.113C112.702 92.9611 109.826 93.0262 106.966 93.3079C89.7135 95.0141 84.9568 103.548 70.6983 105.629C67.3257 106.125 52.3074 108.316 45.8033 99.6337C41.1341 93.4004 41.8394 82.6615 46.9479 78.4366C49.1099 76.6496 51.2421 76.6991 65.0943 76.8246C70.3085 76.8709 75.5211 76.8874 80.7353 76.9551C102.804 77.2359 107.026 75.7065 111.041 79.3566C112.914 81.0611 115.661 84.7178 115.571 93.113Z" fill="url(#paint43_linear)"/>
<path d="M68.9805 22.3028C68.9805 22.3028 51.5608 17.2224 43.889 25.9083C42.4801 27.5022 41.3669 29.5981 40.556 33.6462C36.4269 54.2718 52.0464 66.659 45.8924 77.5399C43.4496 81.8606 39.1455 83.1638 36.0867 90.9281C35.5681 92.2494 33.6951 96.9978 35.4145 98.4958C36.9273 99.8171 39.4164 97.0308 43.8378 97.5676C48.5201 98.1374 49.6185 101.735 52.7566 101.211C54.8112 100.869 55.6965 99.1168 58.7223 94.7433C63.104 88.4143 65.2941 85.2498 66.8648 84.1399C73.0601 79.7614 77.8481 85.4711 84.9138 81.1355C87.4705 79.5648 96.9476 67.3643 94.1629 70.7154C87.5267 62.4375 85.9841 55.6063 85.8255 50.8579C85.6521 45.6503 87.1468 43.2852 85.8255 37.1295C85.8255 37.1295 84.3391 30.2621 79.0043 24.3657C78.2429 23.5184 77.3279 22.6365 68.9805 22.3028Z" fill="url(#paint44_linear)"/>
<path d="M63.3882 11.0039C63.6244 12.1055 64.8251 18.02 62.3972 19.5428C61.872 19.8732 60.8645 20.0614 58.8479 20.4397C57.5266 20.6858 56.4216 20.8377 55.6404 20.9352C59.1732 25.7084 64.6533 28.1759 69.7552 27.1915C73.3442 26.4979 75.7011 24.2979 76.7416 23.1748C74.3777 21.3353 71.5667 20.1581 68.5974 19.7642C68.4202 18.6212 68.2423 17.4783 68.064 16.3354C66.507 14.5582 64.9484 12.7811 63.3882 11.0039Z" fill="url(#paint45_linear)"/>
<path d="M63.2741 13.9553C63.2741 13.9553 63.7118 18.2892 67.9251 19.0522C71.6975 19.736 74.5317 10.6289 72.6075 8.26209C71.9634 7.47591 70.3729 6.72772 68.9954 6.77562C68.0259 6.8037 64.7507 8.05069 64.2949 11.3259C63.6342 10.6405 62.8299 10.4423 62.4285 10.7296C61.9215 11.0947 62.194 12.155 62.2551 12.3961C62.4246 13.0091 62.7808 13.554 63.2741 13.9553V13.9553Z" fill="url(#paint46_linear)"/>
<path style="mix-blend-mode:multiply" opacity="0.3" d="M94.168 70.7361C93.3703 69.7451 92.6485 68.7657 91.9912 67.8127C88.9623 66.7812 85.8053 66.1731 82.6099 66.0059C76.849 65.7267 73.6911 67.0827 69.7718 64.7225C65.3206 62.0436 66.1084 58.3258 61.8125 56.2497C57.2904 54.0646 54.0945 56.5337 49.7441 55.736C47.118 55.2537 43.9171 53.4981 40.6601 48.373C43.1607 60.7107 50.4328 69.5469 45.9007 77.5606C43.4579 81.8813 39.1538 83.1845 36.095 90.9488C35.5764 92.2701 33.7034 97.0185 35.4228 98.5165C36.9356 99.8378 39.4247 97.0515 43.8461 97.5883C48.5285 98.1581 49.6268 101.755 52.7649 101.232C54.8195 100.89 55.7048 99.1376 58.7306 94.764C63.1124 88.435 65.3024 85.2705 66.8731 84.1606C73.0684 79.7821 77.8565 85.4918 84.9222 81.1563C87.4789 79.5856 96.956 67.385 94.168 70.7361Z" fill="url(#paint47_linear)"/>
<path d="M99.4168 72.8574L60.0006 74.775C59.7339 74.7882 59.4743 74.8658 59.2442 75.0013C59.0141 75.1368 58.8202 75.3261 58.6793 75.5529L57.5876 77.3036C57.4648 77.5011 57.3982 77.7283 57.3947 77.9609C57.3912 78.1934 57.451 78.4225 57.5678 78.6236C57.6846 78.8247 57.8538 78.9902 58.0575 79.1025C58.2611 79.2147 58.4915 79.2695 58.7239 79.2608L100.474 77.6703L99.4168 72.8574Z" fill="url(#paint48_linear)"/>
<path d="M140.412 50.8909L99.6926 51.6804C99.1004 51.6917 98.5212 51.8569 98.0122 52.1598C97.5031 52.4627 97.0816 52.8929 96.7891 53.408L82.6875 78.2172L125.693 76.5044C126.274 76.4809 126.84 76.3132 127.34 76.0165C127.84 75.7199 128.259 75.3035 128.558 74.8049L141.622 52.9785C141.749 52.7672 141.817 52.5259 141.819 52.2796C141.82 52.0333 141.756 51.791 141.633 51.5779C141.509 51.3648 141.331 51.1887 141.116 51.0679C140.901 50.9471 140.658 50.886 140.412 50.8909V50.8909Z" fill="url(#paint49_linear)"/>
<path style="mix-blend-mode:multiply" opacity="0.3" d="M96.7875 53.4004C97.0805 52.8853 97.5023 52.4553 98.0116 52.1524C98.521 51.8496 99.1002 51.6843 99.6927 51.6728L100.585 51.6562C100.717 52.9776 101.121 54.1733 101.926 55.1428C104.436 58.1736 108.608 56.299 111.717 59.5114C115.132 63.036 111.977 67.2295 115.031 70.5096C118.245 73.9599 123.443 71.1504 129.419 73.3587L128.558 74.7972C128.259 75.2958 127.84 75.7122 127.34 76.0089C126.84 76.3055 126.274 76.4732 125.693 76.4968L82.6875 78.2095L96.7875 53.4004Z" fill="url(#paint50_linear)"/>
<path d="M63.213 71.5192L64.7523 67.4562C59.0823 65.9004 51.2403 63.6046 43.1969 60.7308C41.9367 60.2799 40.4403 59.7216 39.9497 58.397C38.5756 54.6776 47.3193 50.8243 50.7184 42.7065C53.8565 35.1966 54.0464 23.9539 50.398 22.7218C42.8005 20.1601 13.9696 54.4942 23.5837 68.6206C29.0192 76.6063 45.7767 77.878 63.213 71.5192Z" fill="url(#paint51_linear)"/>
<path d="M64.7524 67.4667C68.3117 65.5756 72.5729 67.513 72.8454 67.6434C73.9923 68.1878 75.0322 68.9335 75.9158 69.845C76.0462 70.0218 77.5905 72.1573 77.0273 72.8477C76.5764 73.396 74.8307 72.9418 72.7331 71.6354C71.4877 71.4605 70.2263 71.43 68.974 71.5445C66.0936 71.8104 64.7739 72.7205 63.7284 71.9343C62.9621 71.3596 62.7011 70.144 62.977 69.2389C63.2742 68.2677 64.1496 67.7871 64.7524 67.4667Z" fill="url(#paint52_linear)"/>
<path d="M324.117 334.249C319.709 334.294 314.003 333.589 308.314 330.548C302.16 327.268 293.887 320.134 295.432 315.036C296.005 313.131 297.988 311.368 299.87 311.351C302.648 311.325 303.313 315.128 308.476 318.868C309.431 319.56 314.366 323.132 316.521 321.586C317.593 320.818 317.762 318.944 317.451 317.55C316.544 313.488 311.469 313.307 306.246 309.291C300.951 305.218 296.172 297.713 298.025 292.185C299.09 289.008 302.416 286.276 304.805 286.747C305.825 286.947 306.531 287.705 310.136 293.961C313.096 299.096 313.788 300.609 315.431 300.974C317.124 301.349 319.625 300.463 320.452 298.756C322.599 294.306 311.101 289.051 309.056 277.322C308.138 272.067 308.866 264.09 313.515 261.977C316.653 260.55 321.43 261.873 323.366 264.697C325.111 267.244 323.463 269.426 325.151 275.345C325.663 277.142 326.717 280.84 328.248 280.902C330.046 280.974 331.604 275.999 331.959 274.791C334.63 265.688 330.26 261.521 333.138 256.953C335.383 253.397 340.797 251.565 345.331 252.854C349.295 253.982 352.71 257.533 353.27 261.478C353.84 265.494 350.807 269.814 344.741 278.454C341.864 282.55 339.533 285.353 340.017 289.127C340.255 290.965 341.218 293.495 342.562 293.614C345.526 293.877 345.91 282 352.662 279.565C356.117 278.32 360.679 279.752 362.902 282.77C365.621 286.466 364.531 292.147 361.817 295.322C358.276 299.471 354.036 296.939 347.1 301.676C344.021 303.778 339.276 308.086 340.306 311.206C340.754 312.563 342.33 313.792 343.94 313.83C347.554 313.916 348.209 307.949 353.729 304.857C357.706 302.629 363.454 302.317 365.023 304.526C367.239 307.653 361.087 315.758 357.756 319.391C353.706 323.794 344.042 332.307 324.117 334.249Z" fill="url(#paint53_linear)"/>
<g opacity="0.5">
<path opacity="0.5" d="M325.694 332.246C324.233 322.458 328.948 301.856 332.836 291.964C336.625 282.33 339.735 267.336 339.773 267.189L340.5 267.34C340.468 267.492 337.347 282.545 333.535 292.238C329.675 302.05 324.993 322.463 326.433 332.138L325.694 332.246Z" fill="white"/>
</g>
<path d="M321.67 332.047C319.854 326.684 317.654 317.338 320.078 306.483C321.069 302.011 323.03 293.27 330.508 287.521C334.236 284.654 341.409 280.926 344.663 283.634C346.752 285.379 347.064 289.665 345.489 292.368C343.913 295.072 341.34 294.605 337.107 298.757C335.539 300.293 333.732 302.105 334.234 303.598C334.654 304.845 336.609 305.649 338.307 305.5C341.815 305.193 342.033 301.011 346.26 299.262C349.266 298.019 353.549 298.316 354.774 300.468C355.839 302.338 354.568 305.547 352.571 307.334C349.373 310.194 345.89 307.994 342.233 311.073C340.611 312.439 339.039 314.771 339.69 316.084C340.428 317.58 343.961 317.571 346.422 316.923C349.671 316.069 350.325 314.3 352.191 314.627C354.272 314.992 356.191 317.671 355.935 319.903C355.575 323.029 350.965 325.105 347.665 325.607C343.442 326.251 341.029 324.37 338.487 326.242C337.554 326.929 336.505 328.195 336.773 329.243C337.159 330.737 340.076 331.18 342.01 331.472C346.722 332.187 348.465 330.934 349.836 332.224C351.207 333.514 351.233 336.505 349.94 338.191C349.221 339.129 347.538 340.406 341.374 339.635C337.064 339.096 330.031 337.488 321.67 332.047Z" fill="url(#paint54_linear)"/>
<path d="M80.2285 247.243L70.1836 247.713L70.9555 264.219L73.9266 264.08L73.631 257.76L79.2429 257.498C79.5731 257.482 79.7212 257.617 79.7366 257.947L80.0101 263.795L82.9811 263.656L82.69 257.431C82.6547 256.677 82.1791 256.108 81.4382 255.93C82.1593 255.684 82.5797 255.073 82.5444 254.319L82.2941 248.966C82.2478 247.976 81.3132 247.192 80.2285 247.243ZM79.3947 250.638L79.5557 254.08C79.5712 254.41 79.4363 254.559 79.1062 254.574L73.4943 254.836L73.2914 250.498L78.9033 250.235C79.1627 250.223 79.3837 250.402 79.3947 250.638Z" fill="white"/>
<path d="M98.0503 249.34L97.9135 246.416L85.888 246.978L86.6599 263.484L98.6855 262.922L98.5487 259.998L89.4942 260.421L89.3133 256.554L95.3968 256.27L95.2601 253.346L89.1766 253.63L88.9957 249.763L98.0503 249.34Z" fill="white"/>
<path d="M111.316 245.789L103.205 246.169C102.12 246.219 101.262 247.086 101.309 248.077L101.911 260.951C101.957 261.942 102.892 262.725 103.976 262.674L110.107 262.388L111.011 264.543L114.077 264.4L113.021 262.039C113.62 261.703 114.016 261.07 113.984 260.387L113.382 247.512C113.335 246.522 112.401 245.739 111.316 245.789ZM110.482 249.184L110.941 258.993C110.952 259.229 110.749 259.427 110.489 259.439L105.302 259.682C105.042 259.694 104.821 259.515 104.81 259.28L104.352 249.471C104.34 249.235 104.544 249.036 104.803 249.024L109.991 248.781C110.25 248.769 110.471 248.948 110.482 249.184Z" fill="white"/>
<path d="M126.076 245.099L126.691 258.256C126.702 258.492 126.499 258.691 126.24 258.703L121.052 258.945C120.793 258.958 120.572 258.779 120.561 258.543L119.945 245.386L116.974 245.525L117.661 260.215C117.708 261.205 118.642 261.988 119.727 261.938L127.838 261.558C128.923 261.508 129.78 260.64 129.734 259.65L129.047 244.96L126.076 245.099Z" fill="white"/>
<path d="M144.887 247.149L144.75 244.226L132.725 244.788L133.497 261.294L145.522 260.731L145.385 257.807L136.331 258.231L136.15 254.364L142.234 254.079L142.097 251.155L136.013 251.44L135.832 247.573L144.887 247.149Z" fill="white"/>
<path d="M158.106 243.601L150.041 243.978C148.957 244.029 148.099 244.896 148.146 245.886L148.43 251.97C148.476 252.96 149.411 253.744 150.496 253.693L157.098 253.384C157.357 253.372 157.578 253.551 157.589 253.787L157.731 256.805C157.742 257.041 157.538 257.239 157.279 257.251L152.138 257.492C151.879 257.504 151.658 257.325 151.647 257.089L151.583 255.722L148.612 255.861L148.748 258.761C148.794 259.751 149.729 260.535 150.813 260.484L158.877 260.107C159.962 260.056 160.82 259.189 160.773 258.198L160.489 252.115C160.442 251.125 159.508 250.341 158.423 250.392L151.821 250.701C151.561 250.713 151.34 250.534 151.329 250.298L151.188 247.28C151.177 247.044 151.381 246.846 151.64 246.834L156.78 246.593C157.04 246.581 157.261 246.76 157.272 246.996L157.336 248.363L160.307 248.224L160.171 245.324C160.125 244.334 159.19 243.55 158.106 243.601Z" fill="white"/>
<path d="M174.635 242.828L162.61 243.39L162.746 246.314L167.274 246.102L167.909 259.684L170.88 259.545L170.245 245.964L174.772 245.752L174.635 242.828Z" fill="white"/>
<path d="M194.281 241.909L184.236 242.379L185.008 258.885L195.053 258.415C196.137 258.364 196.995 257.497 196.949 256.507L196.72 251.626C196.685 250.871 196.209 250.303 195.469 250.125C196.19 249.878 196.61 249.268 196.575 248.513L196.346 243.632C196.3 242.642 195.365 241.858 194.281 241.909ZM193.447 245.304L193.586 248.275C193.601 248.605 193.467 248.753 193.136 248.768L187.525 249.031L187.344 245.164L192.956 244.901C193.215 244.889 193.436 245.068 193.447 245.304ZM193.767 252.142L193.906 255.113C193.917 255.349 193.713 255.547 193.454 255.559L187.842 255.822L187.661 251.955L193.273 251.692C193.603 251.677 193.751 251.812 193.767 252.142Z" fill="white"/>
<path d="M200.712 258.15L203.683 258.011L202.911 241.506L199.94 241.644L200.712 258.15Z" fill="white"/>
<path d="M215.65 240.91L216.158 251.78L209.967 241.176L206.595 241.333L207.367 257.839L210.338 257.7L209.832 246.877L215.997 257.435L219.393 257.277L218.621 240.771L215.65 240.91Z" fill="white"/>
<defs>
<linearGradient id="paint0_linear" x1="210" y1="221.052" x2="383.387" y2="221.052" gradientUnits="userSpaceOnUse">
<stop stop-color="#7AE3B1"/>
<stop offset="1" stop-color="#124954"/>
</linearGradient>
<linearGradient id="paint1_linear" x1="80724.8" y1="50365.6" x2="87230" y2="50365.6" gradientUnits="userSpaceOnUse">
<stop stop-color="#1AA563"/>
<stop offset="1" stop-color="#124954"/>
</linearGradient>
<linearGradient id="paint2_linear" x1="17928.9" y1="38154.7" x2="18453.6" y2="38154.7" gradientUnits="userSpaceOnUse">
<stop stop-color="#311944"/>
<stop offset="1" stop-color="#6B3976"/>
</linearGradient>
<linearGradient id="paint3_linear" x1="17816.5" y1="38154.7" x2="18341.1" y2="38154.7" gradientUnits="userSpaceOnUse">
<stop stop-color="#311944"/>
<stop offset="1" stop-color="#6B3976"/>
</linearGradient>
<linearGradient id="paint4_linear" x1="225.596" y1="215.972" x2="218.327" y2="214.992" gradientUnits="userSpaceOnUse">
<stop offset="0.01" stop-color="#D8DEE8"/>
<stop offset="1" stop-color="#F4F7FA"/>
</linearGradient>
<linearGradient id="paint5_linear" x1="20288.2" y1="41954.7" x2="20918.2" y2="41954.7" gradientUnits="userSpaceOnUse">
<stop stop-color="#311944"/>
<stop offset="1" stop-color="#6B3976"/>
</linearGradient>
<linearGradient id="paint6_linear" x1="20153.5" y1="41958.6" x2="20783.4" y2="41958.6" gradientUnits="userSpaceOnUse">
<stop stop-color="#311944"/>
<stop offset="1" stop-color="#6B3976"/>
</linearGradient>
<linearGradient id="paint7_linear" x1="10020.4" y1="22025" x2="9782.94" y2="22007.7" gradientUnits="userSpaceOnUse">
<stop offset="0.01" stop-color="#D8DEE8"/>
<stop offset="1" stop-color="#F4F7FA"/>
</linearGradient>
<linearGradient id="paint8_linear" x1="22914.5" y1="45880" x2="23665.9" y2="45880" gradientUnits="userSpaceOnUse">
<stop stop-color="#7AE3B1"/>
<stop offset="1" stop-color="#6B3976"/>
</linearGradient>
<linearGradient id="paint9_linear" x1="22737.3" y1="45880" x2="23488.1" y2="45880" gradientUnits="userSpaceOnUse">
<stop stop-color="#311944"/>
<stop offset="1" stop-color="#6B3976"/>
</linearGradient>
<linearGradient id="paint10_linear" x1="11318.4" y1="24079.2" x2="11035.2" y2="24058.6" gradientUnits="userSpaceOnUse">
<stop offset="0.01" stop-color="#D8DEE8"/>
<stop offset="1" stop-color="#F4F7FA"/>
</linearGradient>
<linearGradient id="paint11_linear" x1="33733.6" y1="59612.2" x2="34956.7" y2="59612.2" gradientUnits="userSpaceOnUse">
<stop stop-color="#311944"/>
<stop offset="1" stop-color="#6B3976"/>
</linearGradient>
<linearGradient id="paint12_linear" x1="33488.1" y1="59608.3" x2="34711.9" y2="59608.3" gradientUnits="userSpaceOnUse">
<stop stop-color="#311944"/>
<stop offset="1" stop-color="#6B3976"/>
</linearGradient>
<linearGradient id="paint13_linear" x1="16689.4" y1="31275.3" x2="16228.1" y2="31241.7" gradientUnits="userSpaceOnUse">
<stop offset="0.01" stop-color="#D8DEE8"/>
<stop offset="1" stop-color="#F4F7FA"/>
</linearGradient>
<linearGradient id="paint14_linear" x1="48073.5" y1="77054.2" x2="50071.3" y2="77054.2" gradientUnits="userSpaceOnUse">
<stop stop-color="#311944"/>
<stop offset="1" stop-color="#6B3976"/>
</linearGradient>
<linearGradient id="paint15_linear" x1="47635.5" y1="77074.9" x2="49632.7" y2="77074.9" gradientUnits="userSpaceOnUse">
<stop stop-color="#311944"/>
<stop offset="1" stop-color="#6B3976"/>
</linearGradient>
<linearGradient id="paint16_linear" x1="23824.6" y1="40429.1" x2="23071.3" y2="40374.3" gradientUnits="userSpaceOnUse">
<stop offset="0.01" stop-color="#D8DEE8"/>
<stop offset="1" stop-color="#F4F7FA"/>
</linearGradient>
<linearGradient id="paint17_linear" x1="298886" y1="196420" x2="181958" y2="292512" gradientUnits="userSpaceOnUse">
<stop stop-color="#FFC444"/>
<stop offset="0.31" stop-color="#FBA94A"/>
<stop offset="1" stop-color="#FF9A3E"/>
</linearGradient>
<linearGradient id="paint18_linear" x1="226324" y1="181004" x2="156536" y2="213458" gradientUnits="userSpaceOnUse">
<stop stop-color="#FFC444"/>
<stop offset="0.31" stop-color="#FBA94A"/>
<stop offset="1" stop-color="#FF800B"/>
</linearGradient>
<linearGradient id="paint19_linear" x1="199.339" y1="171.036" x2="317.171" y2="171.036" gradientUnits="userSpaceOnUse">
<stop stop-color="#FFC444"/>
<stop offset="1" stop-color="#FF9A3E"/>
</linearGradient>
<linearGradient id="paint20_linear" x1="122184" y1="170240" x2="135691" y2="170240" gradientUnits="userSpaceOnUse">
<stop offset="0.01" stop-color="#D8DEE8"/>
<stop offset="1" stop-color="#F4F7FA"/>
</linearGradient>
<linearGradient id="paint21_linear" x1="130665" y1="88788.6" x2="142868" y2="88788.6" gradientUnits="userSpaceOnUse">
<stop stop-color="#22B670"/>
<stop offset="1" stop-color="#26264F"/>
</linearGradient>
<linearGradient id="paint22_linear" x1="376.809" y1="213.794" x2="354.69" y2="290.852" gradientUnits="userSpaceOnUse">
<stop stop-color="#FF9085"/>
<stop offset="1" stop-color="#FB6FBB"/>
</linearGradient>
<linearGradient id="paint23_linear" x1="25193.1" y1="25944.9" x2="23461.7" y2="30486.9" gradientUnits="userSpaceOnUse">
<stop stop-color="#FF9085"/>
<stop offset="1" stop-color="#FB6FBB"/>
</linearGradient>
<linearGradient id="paint24_linear" x1="183976" y1="58972.8" x2="210125" y2="58972.8" gradientUnits="userSpaceOnUse">
<stop stop-color="#329465"/>
<stop offset="1" stop-color="#26264F"/>
</linearGradient>
<linearGradient id="paint25_linear" x1="162135" y1="482300" x2="598148" y2="482300" gradientUnits="userSpaceOnUse">
<stop stop-color="#329264"/>
<stop offset="1" stop-color="#35C1DD"/>
</linearGradient>
<linearGradient id="paint26_linear" x1="4.03979" y1="308.463" x2="408.309" y2="308.463" gradientUnits="userSpaceOnUse">
<stop offset="0.49" stop-color="#EBEFF2"/>
<stop offset="1" stop-color="white"/>
</linearGradient>
<linearGradient id="paint27_linear" x1="257421" y1="157196" x2="256672" y2="119716" gradientUnits="userSpaceOnUse">
<stop stop-color="#FFC444"/>
<stop offset="1" stop-color="#FF9A3E"/>
</linearGradient>
<linearGradient id="paint28_linear" x1="3156.57" y1="4076.39" x2="3971.43" y2="4076.39" gradientUnits="userSpaceOnUse">
<stop stop-color="#AA80F9"/>
<stop offset="1" stop-color="#6165D7"/>
</linearGradient>
<linearGradient id="paint29_linear" x1="103598" y1="45520.3" x2="131567" y2="45520.3" gradientUnits="userSpaceOnUse">
<stop stop-color="#AA80F9"/>
<stop offset="1" stop-color="#6165D7"/>
</linearGradient>
<linearGradient id="paint30_linear" x1="2706.73" y1="4583.65" x2="3381.03" y2="4583.65" gradientUnits="userSpaceOnUse">
<stop stop-color="#124954"/>
<stop offset="1" stop-color="#7AE3B1"/>
</linearGradient>
<linearGradient id="paint31_linear" x1="36550.2" y1="49087.3" x2="38166.1" y2="52289.9" gradientUnits="userSpaceOnUse">
<stop stop-color="#FF9085"/>
<stop offset="1" stop-color="#FF9A3E"/>
</linearGradient>
<linearGradient id="paint32_linear" x1="23461.6" y1="49045.4" x2="25399" y2="51539.1" gradientUnits="userSpaceOnUse">
<stop stop-color="#FF9085"/>
<stop offset="1" stop-color="#FF9A3E"/>
</linearGradient>
<linearGradient id="paint33_linear" x1="7732.21" y1="8286.71" x2="7593.87" y2="8496.74" gradientUnits="userSpaceOnUse">
<stop stop-color="#FF9085"/>
<stop offset="1" stop-color="#FF9A3E"/>
</linearGradient>
<linearGradient id="paint34_linear" x1="-221901" y1="199503" x2="-189672" y2="200206" gradientUnits="userSpaceOnUse">
<stop stop-color="#7AE3B1"/>
<stop offset="1" stop-color="#007C95"/>
</linearGradient>
<linearGradient id="paint35_linear" x1="47417.6" y1="59202.7" x2="55332.2" y2="80860.2" gradientUnits="userSpaceOnUse">
<stop stop-color="#9C9BD7"/>
<stop offset="1" stop-color="#CCCBFE"/>
</linearGradient>
<linearGradient id="paint36_linear" x1="15718.7" y1="26772.8" x2="15144.8" y2="30769.8" gradientUnits="userSpaceOnUse">
<stop stop-color="#7AE3B1"/>
<stop offset="1" stop-color="#26264F"/>
</linearGradient>
<linearGradient id="paint37_linear" x1="143.745" y1="124.999" x2="121.793" y2="162.134" gradientUnits="userSpaceOnUse">
<stop stop-color="#124954"/>
<stop offset="1" stop-color="#124954"/>
</linearGradient>
<linearGradient id="paint38_linear" x1="12610.2" y1="21495.8" x2="12148.7" y2="24704.7" gradientUnits="userSpaceOnUse">
<stop stop-color="#7AE3B1"/>
<stop offset="1" stop-color="#124954"/>
</linearGradient>
<linearGradient id="paint39_linear" x1="8213.92" y1="21955.3" x2="8923.34" y2="22910.5" gradientUnits="userSpaceOnUse">
<stop stop-color="#124954"/>
<stop offset="1" stop-color="#7AE3B1"/>
</linearGradient>
<linearGradient id="paint40_linear" x1="109698" y1="567402" x2="93987.7" y2="557078" gradientUnits="userSpaceOnUse">
<stop stop-color="#311944"/>
<stop offset="1" stop-color="#7AE3B1"/>
</linearGradient>
<linearGradient id="paint41_linear" x1="-522204" y1="180555" x2="-530948" y2="154479" gradientUnits="userSpaceOnUse">
<stop stop-color="#7AE3B1"/>
<stop offset="1" stop-color="#7AE3B1"/>
</linearGradient>
<linearGradient id="paint42_linear" x1="-497771" y1="87373" x2="-500091" y2="73735.8" gradientUnits="userSpaceOnUse">
<stop stop-color="#9870E4"/>
<stop offset="1" stop-color="#C2C4F8"/>
</linearGradient>
<linearGradient id="paint43_linear" x1="249186" y1="347778" x2="242059" y2="329770" gradientUnits="userSpaceOnUse">
<stop stop-color="#7AE3B1"/>
<stop offset="1" stop-color="#7AE3B1"/>
</linearGradient>
<linearGradient id="paint44_linear" x1="-140702" y1="130567" x2="-113454" y2="104867" gradientUnits="userSpaceOnUse">
<stop stop-color="#7AE3B1"/>
<stop offset="1" stop-color="#CDCCFF"/>
</linearGradient>
<linearGradient id="paint45_linear" x1="20290" y1="18487.3" x2="20730.5" y2="21493" gradientUnits="userSpaceOnUse">
<stop stop-color="#FF9A3E"/>
<stop offset="1" stop-color="#FF9A3E"/>
</linearGradient>
<linearGradient id="paint46_linear" x1="-25015.8" y1="12573.5" x2="-23407.6" y2="14950.4" gradientUnits="userSpaceOnUse">
<stop stop-color="#FFBB7D"/>
<stop offset="1" stop-color="#FF9A3E"/>
</linearGradient>
<linearGradient id="paint47_linear" x1="-120836" y1="82617.6" x2="-142609" y2="82617.6" gradientUnits="userSpaceOnUse">
<stop stop-color="#FFC444"/>
<stop offset="1" stop-color="#FF9A3E"/>
</linearGradient>
<linearGradient id="paint48_linear" x1="100.474" y1="76.0599" x2="57.391" y2="76.0599" gradientUnits="userSpaceOnUse">
<stop stop-color="#124954"/>
<stop offset="1" stop-color="#124954"/>
</linearGradient>
<linearGradient id="paint49_linear" x1="457909" y1="38401.5" x2="461486" y2="46081.4" gradientUnits="userSpaceOnUse">
<stop stop-color="#40447E"/>
<stop offset="1" stop-color="#3C3B6B"/>
</linearGradient>
<linearGradient id="paint50_linear" x1="361902" y1="37317" x2="365819" y2="44155.6" gradientUnits="userSpaceOnUse">
<stop stop-color="#40447E"/>
<stop offset="1" stop-color="#3C3B6B"/>
</linearGradient>
<linearGradient id="paint51_linear" x1="-103738" y1="83426.6" x2="-85139" y2="64278.3" gradientUnits="userSpaceOnUse">
<stop stop-color="#BAB9E5"/>
<stop offset="1" stop-color="#A7A6F7"/>
</linearGradient>
<linearGradient id="paint52_linear" x1="-89151.2" y1="9822.77" x2="-89586.1" y2="10732.5" gradientUnits="userSpaceOnUse">
<stop stop-color="#FF9A3E"/>
<stop offset="1" stop-color="#124954"/>
</linearGradient>
<linearGradient id="paint53_linear" x1="-206704" y1="195306" x2="-214679" y2="328203" gradientUnits="userSpaceOnUse">
<stop stop-color="#FF9A3E"/>
<stop offset="1" stop-color="#FF9A3E"/>
</linearGradient>
<linearGradient id="paint54_linear" x1="359.042" y1="338.394" x2="291.365" y2="258.366" gradientUnits="userSpaceOnUse">
<stop stop-color="#7AE3B1"/>
<stop offset="1" stop-color="#26DF86"/>
</linearGradient>
</defs>
</svg>
