<svg width="71" height="70" viewBox="0 0 71 70" fill="none" xmlns="http://www.w3.org/2000/svg">
<path d="M4.6687 30.3164H65.3604V44.3222H4.6687V30.3164Z" fill="white"/>
<path d="M7.00282 40.8207V30.3164H63.0259V40.8207C63.0259 40.8207 67.6945 40.8207 67.6945 46.6565C67.6945 52.4922 63.0259 52.4922 63.0259 52.4922C63.0259 61.8294 42.0173 69.9994 35.0144 69.9994C28.0115 69.9994 7.00282 61.8294 7.00282 52.4922C7.00282 52.4922 2.33423 52.4922 2.33423 46.6565C2.33423 40.8207 7.00282 40.8207 7.00282 40.8207Z" fill="white"/>
<path d="M21.0087 39.4199C15.1729 39.4199 12.8386 41.5208 12.8386 43.6217C12.8386 45.7225 12.8386 48.7571 20.5418 48.7571C28.0115 48.7571 29.1787 47.8234 29.1787 44.6721C29.1787 42.5712 26.8444 39.4199 21.0087 39.4199Z" fill="white"/>
<path d="M21.5923 48.1743C24.4929 48.1743 26.8444 45.8228 26.8444 42.9221C26.8444 40.0214 24.4929 37.6699 21.5923 37.6699C18.6916 37.6699 16.3401 40.0214 16.3401 42.9221C16.3401 45.8228 18.6916 48.1743 21.5923 48.1743Z" fill="#124954"/>
<path d="M23.343 42.9206C23.343 43.8544 22.526 44.6714 21.5923 44.6714C20.6586 44.6714 19.8416 43.8544 19.8416 42.9206C19.8416 41.9869 20.6586 41.1699 21.5923 41.1699C22.526 41.1699 23.343 41.9869 23.343 42.9206Z" fill="white"/>
<path d="M12.8386 43.5046C12.8386 35.3345 29.1787 35.3345 29.1787 44.6717C26.8444 37.6688 15.1729 37.6688 12.8386 43.5046Z" fill="#124954"/>
<path d="M49.0201 39.4199C54.8559 39.4199 57.1902 41.5208 57.1902 43.6217C57.1902 45.7225 57.1902 48.7571 49.487 48.7571C42.0172 48.7571 40.8501 47.8234 40.8501 44.6721C40.8501 42.5712 43.1844 39.4199 49.0201 39.4199Z" fill="white"/>
<path d="M48.4367 48.1743C51.3374 48.1743 53.6889 45.8228 53.6889 42.9221C53.6889 40.0214 51.3374 37.6699 48.4367 37.6699C45.536 37.6699 43.1846 40.0214 43.1846 42.9221C43.1846 45.8228 45.536 48.1743 48.4367 48.1743Z" fill="#124954"/>
<path d="M46.6859 42.9206C46.6859 43.8544 47.5029 44.6714 48.4366 44.6714C49.3704 44.6714 50.1874 43.8544 50.1874 42.9206C50.1874 41.9869 49.3704 41.1699 48.4366 41.1699C47.5029 41.1699 46.6859 41.9869 46.6859 42.9206Z" fill="white"/>
<path d="M57.1902 43.5065C57.1902 35.3365 40.8501 35.3365 40.8501 44.6737C43.1844 37.6708 54.8559 37.6708 57.1902 43.5065Z" fill="#124954"/>
<path d="M45.5187 57.0446C45.5187 61.0129 40.2665 62.997 35.0143 62.997C29.7622 62.997 24.51 61.0129 24.51 57.0446C24.51 57.0446 24.51 55.9941 25.5604 55.9941H44.4682C45.5187 55.9941 45.5187 57.0446 45.5187 57.0446" fill="#124954"/>
<path d="M66.5274 33.817H3.50146C3.50146 17.01 11.4381 4.05469 35.0145 4.05469C58.5908 4.05469 66.5274 17.01 66.5274 33.817Z" fill="white"/>
<path d="M26.2609 33.8149H21.5923V5.92011L26.2609 4.51953V33.8149Z" fill="white"/>
<path d="M48.4367 33.8149H43.7681V4.51953L48.4367 5.92011V33.8149Z" fill="white"/>
<path d="M1.20924 35.3818C1.52062 34.6279 2.19529 33.8185 3.33763 32.9812C4.98229 31.7756 7.42677 30.6453 10.5387 29.6773C16.7506 27.745 25.3995 26.5273 35.0144 26.5273C44.6293 26.5273 53.2782 27.745 59.4901 29.6773C62.6021 30.6453 65.0466 31.7756 66.6912 32.9812C67.8336 33.8185 68.5082 34.6279 68.8196 35.3818H1.20924Z" fill="white" stroke="#124954" stroke-width="2"/>
<path d="M24.9265 28.9665V5.3397C24.9265 4.17961 25.825 3.09665 27.8015 2.25498C29.73 1.43376 32.373 1 35.0728 1C37.7725 1 40.4155 1.43376 42.344 2.25498C44.3206 3.09665 45.219 4.17961 45.219 5.3397V28.9665H24.9265Z" fill="white" stroke="#124954" stroke-width="2"/>
</svg>
