<svg width="22" height="25" viewBox="0 0 22 25" fill="none" xmlns="http://www.w3.org/2000/svg">
<path fill-rule="evenodd" clip-rule="evenodd" d="M7.31113 3.57094V2.05926C7.31113 1.68016 7.61534 1.37284 7.99062 1.37284H14.106C14.4813 1.37284 14.7855 1.68016 14.7855 2.05926V3.57094H16.1445V2.05926C16.1445 0.921965 15.2318 0 14.106 0H7.99062C6.8648 0 5.95215 0.921965 5.95215 2.05926V3.57094H7.31113ZM0.0362703 4.71698C-0.130374 4.14562 0.29814 3.57427 0.893299 3.57427H20.843C21.4346 3.57427 21.8626 4.13923 21.7024 4.70871L16.1786 24.349C16.0703 24.734 15.7191 25 15.3192 25H6.62171C6.22493 25 5.87577 24.7381 5.76468 24.3572L0.0362703 4.71698ZM11.3086 13.3911H16.2187C16.3371 13.3911 16.4506 13.4381 16.5343 13.5218C16.618 13.6055 16.665 13.7191 16.665 13.8374C16.665 13.9558 16.618 14.0694 16.5343 14.1531C16.4506 14.2368 16.3371 14.2838 16.2187 14.2838H11.3086V19.1939C11.3086 19.3123 11.2616 19.4258 11.1779 19.5095C11.0942 19.5932 10.9806 19.6403 10.8622 19.6403C10.7439 19.6403 10.6303 19.5932 10.5466 19.5095C10.4629 19.4258 10.4159 19.3123 10.4159 19.1939V14.257H5.5058C5.44804 14.2628 5.38971 14.2562 5.33473 14.2375C5.27976 14.2188 5.22943 14.1886 5.18713 14.1488C5.14483 14.1091 5.11155 14.0607 5.08952 14.007C5.06749 13.9533 5.05723 13.8955 5.05943 13.8374C5.05943 13.7191 5.10646 13.6055 5.19017 13.5218C5.27388 13.4381 5.38742 13.3911 5.5058 13.3911H10.4159V8.48102C10.4159 8.36263 10.4629 8.2491 10.5466 8.16539C10.6303 8.08168 10.7439 8.03465 10.8622 8.03465C10.9806 8.03465 11.0942 8.08168 11.1779 8.16539C11.2616 8.2491 11.3086 8.36263 11.3086 8.48102V13.3911Z" fill="#124954"/>
</svg>
