<svg width="20" height="17" viewBox="0 0 20 17" fill="none" xmlns="http://www.w3.org/2000/svg">
<path d="M3.33333 0C2.44928 0 1.60143 0.351189 0.976311 0.976311C0.351189 1.60143 0 2.44928 0 3.33333V3.66833L10 9.05333L20 3.67V3.33333C20 2.44928 19.6488 1.60143 19.0237 0.976311C18.3986 0.351189 17.5507 0 16.6667 0H3.33333Z" fill="#124954"/>
<path d="M20 5.56348L10.395 10.7351C10.2736 10.8005 10.1379 10.8347 10 10.8347C9.86212 10.8347 9.7264 10.8005 9.605 10.7351L0 5.56348V13.3351C0 14.2192 0.351189 15.067 0.976311 15.6922C1.60143 16.3173 2.44928 16.6685 3.33333 16.6685H16.6667C17.5507 16.6685 18.3986 16.3173 19.0237 15.6922C19.6488 15.067 20 14.2192 20 13.3351V5.56348Z" fill="#124954"/>
</svg>
