<svg width="20" height="24" viewBox="0 0 20 24" fill="none" xmlns="http://www.w3.org/2000/svg">
<path fill-rule="evenodd" clip-rule="evenodd" d="M6.72713 3.28569V1.89477C6.72713 1.54596 7.00704 1.26318 7.35234 1.26318H12.9792C13.3245 1.26318 13.6045 1.54596 13.6045 1.89477V3.28569H14.8549V1.89477C14.8549 0.848319 14.0151 0 12.9792 0H7.35234C6.31645 0 5.4767 0.848319 5.4767 1.89477V3.28569H6.72713ZM0.0333731 4.34019C-0.11996 3.81448 0.274325 3.28876 0.821944 3.28876H19.1781C19.7224 3.28876 20.1162 3.80859 19.9688 4.33259L14.8862 22.404C14.7866 22.7583 14.4635 23.003 14.0955 23.003H6.09277C5.72769 23.003 5.40642 22.7621 5.3042 22.4116L0.0333731 4.34019ZM6.41102 9.57018C5.80532 10.3591 5.47691 11.3259 5.47671 12.3205C5.47567 13.0762 5.66497 13.8199 6.02712 14.4831L5.49102 16.3587C5.47213 16.4247 5.4716 16.4945 5.48949 16.5607C5.50738 16.6269 5.54301 16.6869 5.59253 16.7344C5.64205 16.7818 5.70358 16.8148 5.77048 16.8298C5.83739 16.8448 5.90712 16.8413 5.97216 16.8196L7.73256 16.2323C8.59354 16.7302 9.59479 16.9302 10.581 16.801C11.5672 16.6719 12.4832 16.2209 13.1869 15.518C13.8907 14.8151 14.3428 13.8997 14.4732 12.9136C14.6035 11.9275 14.4049 10.926 13.908 10.0644C13.4111 9.20275 12.6438 8.52919 11.725 8.14818C10.8063 7.76717 9.78745 7.70001 8.82664 7.95712C7.86582 8.21422 7.01671 8.78123 6.41102 9.57018ZM8.5988 11.3014C8.6694 11.2307 8.76516 11.1911 8.86501 11.1911H11.1239C11.2237 11.1911 11.3195 11.2307 11.3901 11.3014C11.4607 11.372 11.5003 11.4677 11.5003 11.5676C11.5003 11.6674 11.4607 11.7632 11.3901 11.8338C11.3195 11.9044 11.2237 11.9441 11.1239 11.9441H8.86501C8.76516 11.9441 8.6694 11.9044 8.5988 11.8338C8.52819 11.7632 8.48853 11.6674 8.48853 11.5676C8.48853 11.4677 8.52819 11.372 8.5988 11.3014ZM8.86501 12.697H10.3709C10.4708 12.697 10.5665 12.7367 10.6371 12.8073C10.7077 12.8779 10.7474 12.9737 10.7474 13.0735C10.7474 13.1734 10.7077 13.2691 10.6371 13.3397C10.5665 13.4103 10.4708 13.45 10.3709 13.45H8.86501C8.76516 13.45 8.6694 13.4103 8.5988 13.3397C8.52819 13.2691 8.48853 13.1734 8.48853 13.0735C8.48853 12.9737 8.52819 12.8779 8.5988 12.8073C8.6694 12.7367 8.76516 12.697 8.86501 12.697Z" fill="#124954"/>
</svg>
